%TF.GenerationSoftware,KiCad,Pcbnew,(6.0.7)*%
%TF.CreationDate,2022-12-25T01:48:00-08:00*%
%TF.ProjectId,ControlBoard,436f6e74-726f-46c4-926f-6172642e6b69,rev?*%
%TF.SameCoordinates,Original*%
%TF.FileFunction,Soldermask,Top*%
%TF.FilePolarity,Negative*%
%FSLAX46Y46*%
G04 Gerber Fmt 4.6, Leading zero omitted, Abs format (unit mm)*
G04 Created by KiCad (PCBNEW (6.0.7)) date 2022-12-25 01:48:00*
%MOMM*%
%LPD*%
G01*
G04 APERTURE LIST*
%ADD10C,1.400000*%
%ADD11O,1.400000X1.400000*%
%ADD12R,1.800000X1.800000*%
%ADD13C,1.800000*%
%ADD14R,2.500000X2.500000*%
%ADD15R,0.850000X0.600000*%
%ADD16O,1.800000X1.800000*%
%ADD17O,1.500000X1.500000*%
%ADD18O,1.700000X1.700000*%
%ADD19R,3.500000X1.700000*%
%ADD20R,1.700000X1.700000*%
%ADD21R,1.700000X3.500000*%
%ADD22R,1.600000X1.600000*%
%ADD23O,1.600000X1.600000*%
%ADD24R,1.200000X0.600000*%
%ADD25R,0.600000X1.200000*%
%ADD26R,1.508000X1.508000*%
%ADD27C,1.508000*%
%ADD28C,4.800000*%
%ADD29R,2.000000X2.000000*%
%ADD30C,2.000000*%
G04 APERTURE END LIST*
D10*
%TO.C,R10*%
X223260000Y-106670000D03*
D11*
X215640000Y-106670000D03*
%TD*%
D10*
%TO.C,R9*%
X220400000Y-78700000D03*
D11*
X212780000Y-78700000D03*
%TD*%
D10*
%TO.C,R8*%
X217320000Y-59990000D03*
D11*
X217320000Y-67610000D03*
%TD*%
D10*
%TO.C,R7*%
X218350000Y-41060000D03*
D11*
X218350000Y-48680000D03*
%TD*%
D10*
%TO.C,R6*%
X183300000Y-105840000D03*
D11*
X190920000Y-105840000D03*
%TD*%
D10*
%TO.C,R5*%
X183300000Y-112100000D03*
D11*
X190920000Y-112100000D03*
%TD*%
D12*
%TO.C,D6*%
X221100000Y-103885000D03*
D13*
X221100000Y-101345000D03*
%TD*%
D12*
%TO.C,D5*%
X222555000Y-78700000D03*
D13*
X225095000Y-78700000D03*
%TD*%
D12*
%TO.C,D4*%
X221970000Y-55005000D03*
D13*
X221970000Y-52465000D03*
%TD*%
D12*
%TO.C,D3*%
X218350000Y-38105000D03*
D13*
X218350000Y-35565000D03*
%TD*%
D12*
%TO.C,D2*%
X178075000Y-105860000D03*
D13*
X175535000Y-105860000D03*
%TD*%
D12*
%TO.C,D1*%
X178075000Y-112100000D03*
D13*
X175535000Y-112100000D03*
%TD*%
D14*
%TO.C,RailB2*%
X155500000Y-113470000D03*
%TD*%
%TO.C,RailA2*%
X146470000Y-113480000D03*
%TD*%
%TO.C,G4R2*%
X241470000Y-111470000D03*
%TD*%
%TO.C,G4M2*%
X241470000Y-115990000D03*
%TD*%
%TO.C,G4L2*%
X241450000Y-120530000D03*
%TD*%
%TO.C,G3R2*%
X241500000Y-88960000D03*
%TD*%
%TO.C,G3M2*%
X241440000Y-93520000D03*
%TD*%
%TO.C,G3L2*%
X241430000Y-98010000D03*
%TD*%
%TO.C,G2R2*%
X241400000Y-54000000D03*
%TD*%
%TO.C,G2M2*%
X241420000Y-58490000D03*
%TD*%
%TO.C,G2L2*%
X241470000Y-62980000D03*
%TD*%
%TO.C,G1R2*%
X241450000Y-34970000D03*
%TD*%
%TO.C,G1M2*%
X241440000Y-39490000D03*
%TD*%
%TO.C,G1L2*%
X241430000Y-43970000D03*
%TD*%
%TO.C,RailB1*%
X155500000Y-116520000D03*
%TD*%
%TO.C,RailA1*%
X146480000Y-116520000D03*
%TD*%
%TO.C,G4R1*%
X244520000Y-111480000D03*
%TD*%
%TO.C,G4M1*%
X244550000Y-115980000D03*
%TD*%
%TO.C,G4L1*%
X244530000Y-120490000D03*
%TD*%
%TO.C,G3R1*%
X244560000Y-88950000D03*
%TD*%
%TO.C,G3M1*%
X244490000Y-93520000D03*
%TD*%
%TO.C,G3L1*%
X244490000Y-98000000D03*
%TD*%
%TO.C,G2R1*%
X244470000Y-54000000D03*
%TD*%
%TO.C,G2M1*%
X244490000Y-58480000D03*
%TD*%
%TO.C,G2L1*%
X244530000Y-62990000D03*
%TD*%
%TO.C,G1R1*%
X244520000Y-35000000D03*
%TD*%
%TO.C,G1M1*%
X244510000Y-39480000D03*
%TD*%
%TO.C,G1L1*%
X244540000Y-43980000D03*
%TD*%
D10*
%TO.C,R4*%
X232980000Y-114840000D03*
D11*
X232980000Y-122460000D03*
%TD*%
D10*
%TO.C,R3*%
X232980000Y-91540000D03*
D11*
X232980000Y-99160000D03*
%TD*%
%TO.C,R2*%
X232980000Y-70600000D03*
D10*
X232980000Y-62980000D03*
%TD*%
%TO.C,R1*%
X232980000Y-38740000D03*
D11*
X232980000Y-46360000D03*
%TD*%
D15*
%TO.C,IC4*%
X227710000Y-122460000D03*
X227710000Y-124360000D03*
X230210000Y-123410000D03*
%TD*%
%TO.C,IC3*%
X227710000Y-98190000D03*
X227710000Y-100090000D03*
X230210000Y-99140000D03*
%TD*%
%TO.C,IC2*%
X227710000Y-67990000D03*
X227710000Y-69890000D03*
X230210000Y-68940000D03*
%TD*%
%TO.C,IC1*%
X227710000Y-44290000D03*
X227710000Y-46190000D03*
X230210000Y-45240000D03*
%TD*%
D16*
%TO.C,U2*%
X200595000Y-53415000D03*
X195145000Y-53415000D03*
D17*
X195445000Y-56445000D03*
X200295000Y-56445000D03*
D18*
X188980000Y-53285000D03*
D19*
X188080000Y-53285000D03*
D18*
X188980000Y-55825000D03*
D19*
X188080000Y-55825000D03*
X188080000Y-58365000D03*
D20*
X188980000Y-58365000D03*
D18*
X188980000Y-60905000D03*
D19*
X188080000Y-60905000D03*
D18*
X188980000Y-63445000D03*
D19*
X188080000Y-63445000D03*
D18*
X188980000Y-65985000D03*
D19*
X188080000Y-65985000D03*
X188080000Y-68525000D03*
D18*
X188980000Y-68525000D03*
D20*
X188980000Y-71065000D03*
D19*
X188080000Y-71065000D03*
X188080000Y-73605000D03*
D18*
X188980000Y-73605000D03*
X188980000Y-76145000D03*
D19*
X188080000Y-76145000D03*
X188080000Y-78685000D03*
D18*
X188980000Y-78685000D03*
X188980000Y-81225000D03*
D19*
X188080000Y-81225000D03*
D20*
X188980000Y-83765000D03*
D19*
X188080000Y-83765000D03*
X188080000Y-86305000D03*
D18*
X188980000Y-86305000D03*
X188980000Y-88845000D03*
D19*
X188080000Y-88845000D03*
X188080000Y-91385000D03*
D18*
X188980000Y-91385000D03*
D19*
X188080000Y-93925000D03*
D18*
X188980000Y-93925000D03*
D19*
X188080000Y-96465000D03*
D20*
X188980000Y-96465000D03*
D18*
X188980000Y-99005000D03*
D19*
X188080000Y-99005000D03*
X188080000Y-101545000D03*
D18*
X188980000Y-101545000D03*
D19*
X207660000Y-101545000D03*
D18*
X206760000Y-101545000D03*
D19*
X207660000Y-99005000D03*
D18*
X206760000Y-99005000D03*
D19*
X207660000Y-96465000D03*
D20*
X206760000Y-96465000D03*
D18*
X206760000Y-93925000D03*
D19*
X207660000Y-93925000D03*
X207660000Y-91385000D03*
D18*
X206760000Y-91385000D03*
D19*
X207660000Y-88845000D03*
D18*
X206760000Y-88845000D03*
X206760000Y-86305000D03*
D19*
X207660000Y-86305000D03*
D20*
X206760000Y-83765000D03*
D19*
X207660000Y-83765000D03*
D18*
X206760000Y-81225000D03*
D19*
X207660000Y-81225000D03*
X207660000Y-78685000D03*
D18*
X206760000Y-78685000D03*
X206760000Y-76145000D03*
D19*
X207660000Y-76145000D03*
D18*
X206760000Y-73605000D03*
D19*
X207660000Y-73605000D03*
X207660000Y-71065000D03*
D20*
X206760000Y-71065000D03*
D19*
X207660000Y-68525000D03*
D18*
X206760000Y-68525000D03*
D19*
X207660000Y-65985000D03*
D18*
X206760000Y-65985000D03*
X206760000Y-63445000D03*
D19*
X207660000Y-63445000D03*
X207660000Y-60905000D03*
D18*
X206760000Y-60905000D03*
D19*
X207660000Y-58365000D03*
D20*
X206760000Y-58365000D03*
D19*
X207660000Y-55825000D03*
D18*
X206760000Y-55825000D03*
X206760000Y-53285000D03*
D19*
X207660000Y-53285000D03*
D21*
X195330000Y-102215000D03*
D18*
X195330000Y-101315000D03*
D20*
X197870000Y-101315000D03*
D21*
X197870000Y-102215000D03*
D18*
X200410000Y-101315000D03*
D21*
X200410000Y-102215000D03*
%TD*%
D22*
%TO.C,U1*%
X142085000Y-87960000D03*
D23*
X144625000Y-87960000D03*
X147165000Y-87960000D03*
X149705000Y-87960000D03*
X152245000Y-87960000D03*
X154785000Y-87960000D03*
X157325000Y-87960000D03*
X159865000Y-87960000D03*
X159865000Y-80340000D03*
X157325000Y-80340000D03*
X154785000Y-80340000D03*
X152245000Y-80340000D03*
X149705000Y-80340000D03*
X147165000Y-80340000D03*
X144625000Y-80340000D03*
X142085000Y-80340000D03*
%TD*%
D24*
%TO.C,Q12*%
X227860000Y-105250000D03*
X227860000Y-107150000D03*
X230060000Y-106200000D03*
%TD*%
%TO.C,Q10*%
X227860000Y-82080000D03*
X227860000Y-83980000D03*
X230060000Y-83030000D03*
%TD*%
%TO.C,Q9*%
X227860000Y-113850000D03*
X227860000Y-115750000D03*
X230060000Y-114800000D03*
%TD*%
%TO.C,Q8*%
X227860000Y-90420000D03*
X227860000Y-92320000D03*
X230060000Y-91370000D03*
%TD*%
%TO.C,Q6*%
X227860000Y-56250000D03*
X227860000Y-58150000D03*
X230060000Y-57200000D03*
%TD*%
%TO.C,Q4*%
X227860000Y-63650000D03*
X227860000Y-65550000D03*
X230060000Y-64600000D03*
%TD*%
%TO.C,Q3*%
X227860000Y-38770000D03*
X227860000Y-40670000D03*
X230060000Y-39720000D03*
%TD*%
%TO.C,Q2*%
X228020000Y-34130000D03*
X228020000Y-36030000D03*
X230220000Y-35080000D03*
%TD*%
D25*
%TO.C,Q1*%
X177290000Y-83190000D03*
X175390000Y-83190000D03*
X176340000Y-85390000D03*
%TD*%
D26*
%TO.C,PS1*%
X166380000Y-64447500D03*
D27*
X166380000Y-61907500D03*
X166380000Y-59367500D03*
X166380000Y-54287500D03*
X166380000Y-51747500D03*
X166380000Y-49207500D03*
X166380000Y-46667500D03*
%TD*%
D28*
%TO.C,J1*%
X135779500Y-47280000D03*
X129979500Y-47280000D03*
X132779500Y-52080000D03*
%TD*%
D29*
%TO.C,C4*%
X167374880Y-87795119D03*
D30*
X167374880Y-80295119D03*
%TD*%
D29*
%TO.C,C3*%
X161417677Y-51740000D03*
D30*
X153917677Y-51740000D03*
%TD*%
%TO.C,C2*%
X133650000Y-80487677D03*
D29*
X133650000Y-87987677D03*
%TD*%
D30*
%TO.C,C1*%
X155175000Y-73102323D03*
D29*
X155175000Y-65602323D03*
%TD*%
M02*
