%TF.GenerationSoftware,KiCad,Pcbnew,(6.0.7)*%
%TF.CreationDate,2023-01-12T12:11:46-08:00*%
%TF.ProjectId,RevisedControlBoard,52657669-7365-4644-936f-6e74726f6c42,rev?*%
%TF.SameCoordinates,Original*%
%TF.FileFunction,Legend,Top*%
%TF.FilePolarity,Positive*%
%FSLAX46Y46*%
G04 Gerber Fmt 4.6, Leading zero omitted, Abs format (unit mm)*
G04 Created by KiCad (PCBNEW (6.0.7)) date 2023-01-12 12:11:46*
%MOMM*%
%LPD*%
G01*
G04 APERTURE LIST*
%ADD10C,0.150000*%
%ADD11C,0.254000*%
%ADD12C,0.120000*%
%ADD13C,0.127000*%
%ADD14C,0.200000*%
G04 APERTURE END LIST*
D10*
%TO.C,10k1*%
X141429218Y-92474164D02*
X141833279Y-92878225D01*
X141631248Y-92676195D02*
X140924141Y-93383302D01*
X141092500Y-93349630D01*
X141227187Y-93349630D01*
X141328202Y-93383302D01*
X140284378Y-92743538D02*
X140217034Y-92676195D01*
X140183363Y-92575180D01*
X140183363Y-92507836D01*
X140217034Y-92406821D01*
X140318050Y-92238462D01*
X140486409Y-92070103D01*
X140654767Y-91969088D01*
X140755783Y-91935416D01*
X140823126Y-91935416D01*
X140924141Y-91969088D01*
X140991485Y-92036432D01*
X141025157Y-92137447D01*
X141025157Y-92204790D01*
X140991485Y-92305806D01*
X140890470Y-92474164D01*
X140722111Y-92642523D01*
X140553752Y-92743538D01*
X140452737Y-92777210D01*
X140385393Y-92777210D01*
X140284378Y-92743538D01*
X140452737Y-91497683D02*
X139745630Y-92204790D01*
X140116019Y-91699714D02*
X140183363Y-91228309D01*
X139711958Y-91699714D02*
X140250706Y-91699714D01*
X139509928Y-90554874D02*
X139913989Y-90958935D01*
X139711958Y-90756905D02*
X139004851Y-91464012D01*
X139173210Y-91430340D01*
X139307897Y-91430340D01*
X139408912Y-91464012D01*
%TO.C,U2*%
X119968095Y-66082380D02*
X119968095Y-66891904D01*
X120015714Y-66987142D01*
X120063333Y-67034761D01*
X120158571Y-67082380D01*
X120349047Y-67082380D01*
X120444285Y-67034761D01*
X120491904Y-66987142D01*
X120539523Y-66891904D01*
X120539523Y-66082380D01*
X120968095Y-66177619D02*
X121015714Y-66130000D01*
X121110952Y-66082380D01*
X121349047Y-66082380D01*
X121444285Y-66130000D01*
X121491904Y-66177619D01*
X121539523Y-66272857D01*
X121539523Y-66368095D01*
X121491904Y-66510952D01*
X120920476Y-67082380D01*
X121539523Y-67082380D01*
X107216158Y-73128155D02*
X107135346Y-73155093D01*
X107054534Y-73235905D01*
X107000659Y-73343654D01*
X107000659Y-73451404D01*
X107027597Y-73532216D01*
X107108409Y-73666903D01*
X107189221Y-73747715D01*
X107323908Y-73828528D01*
X107404720Y-73855465D01*
X107512470Y-73855465D01*
X107620219Y-73801590D01*
X107674094Y-73747715D01*
X107727969Y-73639966D01*
X107727969Y-73586091D01*
X107539407Y-73397529D01*
X107431658Y-73505279D01*
X108024280Y-73397529D02*
X107458595Y-72831844D01*
X108347529Y-73074280D01*
X107781844Y-72508595D01*
X108616903Y-72804906D02*
X108051218Y-72239221D01*
X108185905Y-72104534D01*
X108293654Y-72050659D01*
X108401404Y-72050659D01*
X108482216Y-72077597D01*
X108616903Y-72158409D01*
X108697715Y-72239221D01*
X108778528Y-72373908D01*
X108805465Y-72454720D01*
X108805465Y-72562470D01*
X108751590Y-72670219D01*
X108616903Y-72804906D01*
X132881597Y-61370964D02*
X133150971Y-61101590D01*
X132989346Y-61586463D02*
X132612223Y-60832216D01*
X133366470Y-61209340D01*
X133312595Y-60185719D02*
X133231783Y-60212656D01*
X133150971Y-60293468D01*
X133097096Y-60401218D01*
X133097096Y-60508967D01*
X133124033Y-60589780D01*
X133204845Y-60724467D01*
X133285658Y-60805279D01*
X133420345Y-60886091D01*
X133501157Y-60913028D01*
X133608906Y-60913028D01*
X133716656Y-60859154D01*
X133770531Y-60805279D01*
X133824406Y-60697529D01*
X133824406Y-60643654D01*
X133635844Y-60455093D01*
X133528094Y-60562842D01*
X134120717Y-60455093D02*
X133555032Y-59889407D01*
X134443966Y-60131844D01*
X133878280Y-59566158D01*
X134713340Y-59862470D02*
X134147654Y-59296784D01*
X134282341Y-59162097D01*
X134390091Y-59108223D01*
X134497841Y-59108223D01*
X134578653Y-59135160D01*
X134713340Y-59215972D01*
X134794152Y-59296784D01*
X134874964Y-59431471D01*
X134901902Y-59512284D01*
X134901902Y-59620033D01*
X134848027Y-59727783D01*
X134713340Y-59862470D01*
X132827722Y-63220592D02*
X132746910Y-63247529D01*
X132666097Y-63328341D01*
X132612223Y-63436091D01*
X132612223Y-63543841D01*
X132639160Y-63624653D01*
X132719972Y-63759340D01*
X132800784Y-63840152D01*
X132935471Y-63920964D01*
X133016284Y-63947902D01*
X133124033Y-63947902D01*
X133231783Y-63894027D01*
X133285658Y-63840152D01*
X133339532Y-63732402D01*
X133339532Y-63678528D01*
X133150971Y-63489966D01*
X133043221Y-63597715D01*
X133635844Y-63489966D02*
X133070158Y-62924280D01*
X133285658Y-62708781D01*
X133366470Y-62681844D01*
X133420345Y-62681844D01*
X133501157Y-62708781D01*
X133581969Y-62789593D01*
X133608906Y-62870406D01*
X133608906Y-62924280D01*
X133581969Y-63005093D01*
X133366470Y-63220592D01*
X133662781Y-62439407D02*
X133662781Y-62385532D01*
X133689719Y-62304720D01*
X133824406Y-62170033D01*
X133905218Y-62143096D01*
X133959093Y-62143096D01*
X134039905Y-62170033D01*
X134093780Y-62223908D01*
X134147654Y-62331658D01*
X134147654Y-62978155D01*
X134497841Y-62627969D01*
X134120717Y-61873722D02*
X134497841Y-61496598D01*
X134821089Y-62304720D01*
X113220476Y-93153809D02*
X113334761Y-93191904D01*
X113525238Y-93191904D01*
X113601428Y-93153809D01*
X113639523Y-93115714D01*
X113677619Y-93039523D01*
X113677619Y-92963333D01*
X113639523Y-92887142D01*
X113601428Y-92849047D01*
X113525238Y-92810952D01*
X113372857Y-92772857D01*
X113296666Y-92734761D01*
X113258571Y-92696666D01*
X113220476Y-92620476D01*
X113220476Y-92544285D01*
X113258571Y-92468095D01*
X113296666Y-92430000D01*
X113372857Y-92391904D01*
X113563333Y-92391904D01*
X113677619Y-92430000D01*
X113944285Y-92391904D02*
X114134761Y-93191904D01*
X114287142Y-92620476D01*
X114439523Y-93191904D01*
X114630000Y-92391904D01*
X115391904Y-93115714D02*
X115353809Y-93153809D01*
X115239523Y-93191904D01*
X115163333Y-93191904D01*
X115049047Y-93153809D01*
X114972857Y-93077619D01*
X114934761Y-93001428D01*
X114896666Y-92849047D01*
X114896666Y-92734761D01*
X114934761Y-92582380D01*
X114972857Y-92506190D01*
X115049047Y-92430000D01*
X115163333Y-92391904D01*
X115239523Y-92391904D01*
X115353809Y-92430000D01*
X115391904Y-92468095D01*
X116115714Y-93191904D02*
X115734761Y-93191904D01*
X115734761Y-92391904D01*
X116382380Y-93191904D02*
X116382380Y-92391904D01*
X116839523Y-93191904D02*
X116496666Y-92734761D01*
X116839523Y-92391904D02*
X116382380Y-92849047D01*
X133568375Y-68573435D02*
X133110439Y-68492622D01*
X133245126Y-68896683D02*
X132679441Y-68330998D01*
X132894940Y-68115499D01*
X132975752Y-68088561D01*
X133029627Y-68088561D01*
X133110439Y-68115499D01*
X133191251Y-68196311D01*
X133218189Y-68277123D01*
X133218189Y-68330998D01*
X133191251Y-68411810D01*
X132975752Y-68627309D01*
X133245126Y-67765312D02*
X133703062Y-68223248D01*
X133783874Y-68250186D01*
X133837749Y-68250186D01*
X133918561Y-68223248D01*
X134026311Y-68115499D01*
X134053248Y-68034687D01*
X134053248Y-67980812D01*
X134026311Y-67900000D01*
X133568375Y-67442064D01*
X134403435Y-67738375D02*
X133837749Y-67172690D01*
X134726683Y-67415126D01*
X134160998Y-66849441D01*
X132652131Y-50588308D02*
X133002317Y-50238122D01*
X133029255Y-50642183D01*
X133110067Y-50561370D01*
X133190879Y-50534433D01*
X133244754Y-50534433D01*
X133325566Y-50561370D01*
X133460253Y-50696057D01*
X133487190Y-50776870D01*
X133487190Y-50830744D01*
X133460253Y-50911557D01*
X133298629Y-51073181D01*
X133217816Y-51100118D01*
X133163942Y-51100118D01*
X133163942Y-50076497D02*
X133918189Y-50453621D01*
X133541065Y-49699374D01*
X133675752Y-49564687D02*
X134025938Y-49214500D01*
X134052876Y-49618561D01*
X134133688Y-49537749D01*
X134214500Y-49510812D01*
X134268375Y-49510812D01*
X134349187Y-49537749D01*
X134483874Y-49672436D01*
X134510812Y-49753248D01*
X134510812Y-49807123D01*
X134483874Y-49887935D01*
X134322250Y-50049560D01*
X134241438Y-50076497D01*
X134187563Y-50076497D01*
X134753248Y-49726311D02*
X135184247Y-49295312D01*
X134968748Y-48810439D02*
X135157309Y-48621877D01*
X135534433Y-48837377D02*
X135265059Y-49106751D01*
X134699374Y-48541065D01*
X134968748Y-48271691D01*
X135776870Y-48594940D02*
X135211184Y-48029255D01*
X136100118Y-48271691D01*
X135534433Y-47706006D01*
X106719722Y-75910592D02*
X106638910Y-75937529D01*
X106558097Y-76018341D01*
X106504223Y-76126091D01*
X106504223Y-76233841D01*
X106531160Y-76314653D01*
X106611972Y-76449340D01*
X106692784Y-76530152D01*
X106827471Y-76610964D01*
X106908284Y-76637902D01*
X107016033Y-76637902D01*
X107123783Y-76584027D01*
X107177658Y-76530152D01*
X107231532Y-76422402D01*
X107231532Y-76368528D01*
X107042971Y-76179966D01*
X106935221Y-76287715D01*
X107527844Y-76179966D02*
X106962158Y-75614280D01*
X107177658Y-75398781D01*
X107258470Y-75371844D01*
X107312345Y-75371844D01*
X107393157Y-75398781D01*
X107473969Y-75479593D01*
X107500906Y-75560406D01*
X107500906Y-75614280D01*
X107473969Y-75695093D01*
X107258470Y-75910592D01*
X108389841Y-75317969D02*
X108066592Y-75641218D01*
X108228216Y-75479593D02*
X107662531Y-74913908D01*
X107689468Y-75048595D01*
X107689468Y-75156345D01*
X107662531Y-75237157D01*
X108174341Y-74402097D02*
X108228216Y-74348223D01*
X108309028Y-74321285D01*
X108362903Y-74321285D01*
X108443715Y-74348223D01*
X108578402Y-74429035D01*
X108713089Y-74563722D01*
X108793902Y-74698409D01*
X108820839Y-74779221D01*
X108820839Y-74833096D01*
X108793902Y-74913908D01*
X108740027Y-74967783D01*
X108659215Y-74994720D01*
X108605340Y-74994720D01*
X108524528Y-74967783D01*
X108389841Y-74886971D01*
X108255154Y-74752284D01*
X108174341Y-74617597D01*
X108147404Y-74536784D01*
X108147404Y-74482910D01*
X108174341Y-74402097D01*
X107243096Y-42621218D02*
X107162284Y-42648155D01*
X107081471Y-42728967D01*
X107027597Y-42836717D01*
X107027597Y-42944467D01*
X107054534Y-43025279D01*
X107135346Y-43159966D01*
X107216158Y-43240778D01*
X107350845Y-43321590D01*
X107431658Y-43348528D01*
X107539407Y-43348528D01*
X107647157Y-43294653D01*
X107701032Y-43240778D01*
X107754906Y-43133028D01*
X107754906Y-43079154D01*
X107566345Y-42890592D01*
X107458595Y-42998341D01*
X108051218Y-42890592D02*
X107485532Y-42324906D01*
X107701032Y-42109407D01*
X107781844Y-42082470D01*
X107835719Y-42082470D01*
X107916531Y-42109407D01*
X107997343Y-42190219D01*
X108024280Y-42271032D01*
X108024280Y-42324906D01*
X107997343Y-42405719D01*
X107781844Y-42621218D01*
X108158967Y-41651471D02*
X108212842Y-41597597D01*
X108293654Y-41570659D01*
X108347529Y-41570659D01*
X108428341Y-41597597D01*
X108563028Y-41678409D01*
X108697715Y-41813096D01*
X108778528Y-41947783D01*
X108805465Y-42028595D01*
X108805465Y-42082470D01*
X108778528Y-42163282D01*
X108724653Y-42217157D01*
X108643841Y-42244094D01*
X108589966Y-42244094D01*
X108509154Y-42217157D01*
X108374467Y-42136345D01*
X108239780Y-42001658D01*
X108158967Y-41866971D01*
X108132030Y-41786158D01*
X108132030Y-41732284D01*
X108158967Y-41651471D01*
X106719722Y-91150592D02*
X106638910Y-91177529D01*
X106558097Y-91258341D01*
X106504223Y-91366091D01*
X106504223Y-91473841D01*
X106531160Y-91554653D01*
X106611972Y-91689340D01*
X106692784Y-91770152D01*
X106827471Y-91850964D01*
X106908284Y-91877902D01*
X107016033Y-91877902D01*
X107123783Y-91824027D01*
X107177658Y-91770152D01*
X107231532Y-91662402D01*
X107231532Y-91608528D01*
X107042971Y-91419966D01*
X106935221Y-91527715D01*
X107527844Y-91419966D02*
X106962158Y-90854280D01*
X107177658Y-90638781D01*
X107258470Y-90611844D01*
X107312345Y-90611844D01*
X107393157Y-90638781D01*
X107473969Y-90719593D01*
X107500906Y-90800406D01*
X107500906Y-90854280D01*
X107473969Y-90935093D01*
X107258470Y-91150592D01*
X108389841Y-90557969D02*
X108066592Y-90881218D01*
X108228216Y-90719593D02*
X107662531Y-90153908D01*
X107689468Y-90288595D01*
X107689468Y-90396345D01*
X107662531Y-90477157D01*
X108335966Y-89480473D02*
X108066592Y-89749847D01*
X108309028Y-90046158D01*
X108309028Y-89992284D01*
X108335966Y-89911471D01*
X108470653Y-89776784D01*
X108551465Y-89749847D01*
X108605340Y-89749847D01*
X108686152Y-89776784D01*
X108820839Y-89911471D01*
X108847776Y-89992284D01*
X108847776Y-90046158D01*
X108820839Y-90126971D01*
X108686152Y-90261658D01*
X108605340Y-90288595D01*
X108551465Y-90288595D01*
X106673722Y-88610592D02*
X106592910Y-88637529D01*
X106512097Y-88718341D01*
X106458223Y-88826091D01*
X106458223Y-88933841D01*
X106485160Y-89014653D01*
X106565972Y-89149340D01*
X106646784Y-89230152D01*
X106781471Y-89310964D01*
X106862284Y-89337902D01*
X106970033Y-89337902D01*
X107077783Y-89284027D01*
X107131658Y-89230152D01*
X107185532Y-89122402D01*
X107185532Y-89068528D01*
X106996971Y-88879966D01*
X106889221Y-88987715D01*
X107481844Y-88879966D02*
X106916158Y-88314280D01*
X107131658Y-88098781D01*
X107212470Y-88071844D01*
X107266345Y-88071844D01*
X107347157Y-88098781D01*
X107427969Y-88179593D01*
X107454906Y-88260406D01*
X107454906Y-88314280D01*
X107427969Y-88395093D01*
X107212470Y-88610592D01*
X108343841Y-88017969D02*
X108020592Y-88341218D01*
X108182216Y-88179593D02*
X107616531Y-87613908D01*
X107643468Y-87748595D01*
X107643468Y-87856345D01*
X107616531Y-87937157D01*
X108451590Y-87155972D02*
X108828714Y-87533096D01*
X108101404Y-87075160D02*
X108370778Y-87613908D01*
X108720964Y-87263722D01*
X107243096Y-55321218D02*
X107162284Y-55348155D01*
X107081471Y-55428967D01*
X107027597Y-55536717D01*
X107027597Y-55644467D01*
X107054534Y-55725279D01*
X107135346Y-55859966D01*
X107216158Y-55940778D01*
X107350845Y-56021590D01*
X107431658Y-56048528D01*
X107539407Y-56048528D01*
X107647157Y-55994653D01*
X107701032Y-55940778D01*
X107754906Y-55833028D01*
X107754906Y-55779154D01*
X107566345Y-55590592D01*
X107458595Y-55698341D01*
X108051218Y-55590592D02*
X107485532Y-55024906D01*
X107701032Y-54809407D01*
X107781844Y-54782470D01*
X107835719Y-54782470D01*
X107916531Y-54809407D01*
X107997343Y-54890219D01*
X108024280Y-54971032D01*
X108024280Y-55024906D01*
X107997343Y-55105719D01*
X107781844Y-55321218D01*
X108482216Y-54405346D02*
X108859340Y-54782470D01*
X108132030Y-54324534D02*
X108401404Y-54863282D01*
X108751590Y-54513096D01*
X132884788Y-56163773D02*
X133154162Y-55894399D01*
X132992537Y-56379272D02*
X132615414Y-55625025D01*
X133369661Y-56002149D01*
X133558223Y-55813587D02*
X132992537Y-55247902D01*
X133127224Y-55113215D01*
X133234974Y-55059340D01*
X133342723Y-55059340D01*
X133423536Y-55086277D01*
X133558223Y-55167089D01*
X133639035Y-55247902D01*
X133719847Y-55382589D01*
X133746784Y-55463401D01*
X133746784Y-55571150D01*
X133692910Y-55678900D01*
X133558223Y-55813587D01*
X134393282Y-54870778D02*
X134393282Y-54924653D01*
X134339407Y-55032402D01*
X134285532Y-55086277D01*
X134177783Y-55140152D01*
X134070033Y-55140152D01*
X133989221Y-55113215D01*
X133854534Y-55032402D01*
X133773722Y-54951590D01*
X133692910Y-54816903D01*
X133665972Y-54736091D01*
X133665972Y-54628341D01*
X133719847Y-54520592D01*
X133773722Y-54466717D01*
X133881471Y-54412842D01*
X133935346Y-54412842D01*
X134608781Y-54870778D02*
X135039780Y-54439780D01*
X134474094Y-53766345D02*
X135228341Y-54143468D01*
X134851218Y-53389221D01*
X135928714Y-53443096D02*
X135470778Y-53362284D01*
X135605465Y-53766345D02*
X135039780Y-53200659D01*
X135255279Y-52985160D01*
X135336091Y-52958223D01*
X135389966Y-52958223D01*
X135470778Y-52985160D01*
X135551590Y-53065972D01*
X135578528Y-53146784D01*
X135578528Y-53200659D01*
X135551590Y-53281471D01*
X135336091Y-53496971D01*
X135874839Y-52904348D02*
X136063401Y-52715786D01*
X136440524Y-52931285D02*
X136171150Y-53200659D01*
X135605465Y-52634974D01*
X135874839Y-52365600D01*
X136575211Y-52203975D02*
X136386650Y-52392537D01*
X136682961Y-52688849D02*
X136117276Y-52123163D01*
X136386650Y-51853789D01*
X107216158Y-85828155D02*
X107135346Y-85855093D01*
X107054534Y-85935905D01*
X107000659Y-86043654D01*
X107000659Y-86151404D01*
X107027597Y-86232216D01*
X107108409Y-86366903D01*
X107189221Y-86447715D01*
X107323908Y-86528528D01*
X107404720Y-86555465D01*
X107512470Y-86555465D01*
X107620219Y-86501590D01*
X107674094Y-86447715D01*
X107727969Y-86339966D01*
X107727969Y-86286091D01*
X107539407Y-86097529D01*
X107431658Y-86205279D01*
X108024280Y-86097529D02*
X107458595Y-85531844D01*
X108347529Y-85774280D01*
X107781844Y-85208595D01*
X108616903Y-85504906D02*
X108051218Y-84939221D01*
X108185905Y-84804534D01*
X108293654Y-84750659D01*
X108401404Y-84750659D01*
X108482216Y-84777597D01*
X108616903Y-84858409D01*
X108697715Y-84939221D01*
X108778528Y-85073908D01*
X108805465Y-85154720D01*
X108805465Y-85262470D01*
X108751590Y-85370219D01*
X108616903Y-85504906D01*
X107216158Y-47728155D02*
X107135346Y-47755093D01*
X107054534Y-47835905D01*
X107000659Y-47943654D01*
X107000659Y-48051404D01*
X107027597Y-48132216D01*
X107108409Y-48266903D01*
X107189221Y-48347715D01*
X107323908Y-48428528D01*
X107404720Y-48455465D01*
X107512470Y-48455465D01*
X107620219Y-48401590D01*
X107674094Y-48347715D01*
X107727969Y-48239966D01*
X107727969Y-48186091D01*
X107539407Y-47997529D01*
X107431658Y-48105279D01*
X108024280Y-47997529D02*
X107458595Y-47431844D01*
X108347529Y-47674280D01*
X107781844Y-47108595D01*
X108616903Y-47404906D02*
X108051218Y-46839221D01*
X108185905Y-46704534D01*
X108293654Y-46650659D01*
X108401404Y-46650659D01*
X108482216Y-46677597D01*
X108616903Y-46758409D01*
X108697715Y-46839221D01*
X108778528Y-46973908D01*
X108805465Y-47054720D01*
X108805465Y-47162470D01*
X108751590Y-47270219D01*
X108616903Y-47404906D01*
X132816158Y-47728155D02*
X132735346Y-47755093D01*
X132654534Y-47835905D01*
X132600659Y-47943654D01*
X132600659Y-48051404D01*
X132627597Y-48132216D01*
X132708409Y-48266903D01*
X132789221Y-48347715D01*
X132923908Y-48428528D01*
X133004720Y-48455465D01*
X133112470Y-48455465D01*
X133220219Y-48401590D01*
X133274094Y-48347715D01*
X133327969Y-48239966D01*
X133327969Y-48186091D01*
X133139407Y-47997529D01*
X133031658Y-48105279D01*
X133624280Y-47997529D02*
X133058595Y-47431844D01*
X133947529Y-47674280D01*
X133381844Y-47108595D01*
X134216903Y-47404906D02*
X133651218Y-46839221D01*
X133785905Y-46704534D01*
X133893654Y-46650659D01*
X134001404Y-46650659D01*
X134082216Y-46677597D01*
X134216903Y-46758409D01*
X134297715Y-46839221D01*
X134378528Y-46973908D01*
X134405465Y-47054720D01*
X134405465Y-47162470D01*
X134351590Y-47270219D01*
X134216903Y-47404906D01*
X132650473Y-45699966D02*
X133404720Y-46077089D01*
X133027597Y-45322842D01*
X133727969Y-45699966D02*
X133835719Y-45646091D01*
X133970406Y-45511404D01*
X133997343Y-45430592D01*
X133997343Y-45376717D01*
X133970406Y-45295905D01*
X133916531Y-45242030D01*
X133835719Y-45215093D01*
X133781844Y-45215093D01*
X133701032Y-45242030D01*
X133566345Y-45322842D01*
X133485532Y-45349780D01*
X133431658Y-45349780D01*
X133350845Y-45322842D01*
X133296971Y-45268967D01*
X133270033Y-45188155D01*
X133270033Y-45134280D01*
X133296971Y-45053468D01*
X133431658Y-44918781D01*
X133539407Y-44864906D01*
X134158967Y-44784094D02*
X134428341Y-45053468D01*
X133674094Y-44676345D02*
X134158967Y-44784094D01*
X134051218Y-44299221D01*
X134751590Y-44676345D02*
X134859340Y-44622470D01*
X134994027Y-44487783D01*
X135020964Y-44406971D01*
X135020964Y-44353096D01*
X134994027Y-44272284D01*
X134940152Y-44218409D01*
X134859340Y-44191471D01*
X134805465Y-44191471D01*
X134724653Y-44218409D01*
X134589966Y-44299221D01*
X134509154Y-44326158D01*
X134455279Y-44326158D01*
X134374467Y-44299221D01*
X134320592Y-44245346D01*
X134293654Y-44164534D01*
X134293654Y-44110659D01*
X134320592Y-44029847D01*
X134455279Y-43895160D01*
X134563028Y-43841285D01*
X132816158Y-85828155D02*
X132735346Y-85855093D01*
X132654534Y-85935905D01*
X132600659Y-86043654D01*
X132600659Y-86151404D01*
X132627597Y-86232216D01*
X132708409Y-86366903D01*
X132789221Y-86447715D01*
X132923908Y-86528528D01*
X133004720Y-86555465D01*
X133112470Y-86555465D01*
X133220219Y-86501590D01*
X133274094Y-86447715D01*
X133327969Y-86339966D01*
X133327969Y-86286091D01*
X133139407Y-86097529D01*
X133031658Y-86205279D01*
X133624280Y-86097529D02*
X133058595Y-85531844D01*
X133947529Y-85774280D01*
X133381844Y-85208595D01*
X134216903Y-85504906D02*
X133651218Y-84939221D01*
X133785905Y-84804534D01*
X133893654Y-84750659D01*
X134001404Y-84750659D01*
X134082216Y-84777597D01*
X134216903Y-84858409D01*
X134297715Y-84939221D01*
X134378528Y-85073908D01*
X134405465Y-85154720D01*
X134405465Y-85262470D01*
X134351590Y-85370219D01*
X134216903Y-85504906D01*
X132827722Y-83530592D02*
X132746910Y-83557529D01*
X132666097Y-83638341D01*
X132612223Y-83746091D01*
X132612223Y-83853841D01*
X132639160Y-83934653D01*
X132719972Y-84069340D01*
X132800784Y-84150152D01*
X132935471Y-84230964D01*
X133016284Y-84257902D01*
X133124033Y-84257902D01*
X133231783Y-84204027D01*
X133285658Y-84150152D01*
X133339532Y-84042402D01*
X133339532Y-83988528D01*
X133150971Y-83799966D01*
X133043221Y-83907715D01*
X133635844Y-83799966D02*
X133070158Y-83234280D01*
X133285658Y-83018781D01*
X133366470Y-82991844D01*
X133420345Y-82991844D01*
X133501157Y-83018781D01*
X133581969Y-83099593D01*
X133608906Y-83180406D01*
X133608906Y-83234280D01*
X133581969Y-83315093D01*
X133366470Y-83530592D01*
X134497841Y-82937969D02*
X134174592Y-83261218D01*
X134336216Y-83099593D02*
X133770531Y-82533908D01*
X133797468Y-82668595D01*
X133797468Y-82776345D01*
X133770531Y-82857157D01*
X134497841Y-82291471D02*
X134417028Y-82318409D01*
X134363154Y-82318409D01*
X134282341Y-82291471D01*
X134255404Y-82264534D01*
X134228467Y-82183722D01*
X134228467Y-82129847D01*
X134255404Y-82049035D01*
X134363154Y-81941285D01*
X134443966Y-81914348D01*
X134497841Y-81914348D01*
X134578653Y-81941285D01*
X134605590Y-81968223D01*
X134632528Y-82049035D01*
X134632528Y-82102910D01*
X134605590Y-82183722D01*
X134497841Y-82291471D01*
X134470903Y-82372284D01*
X134470903Y-82426158D01*
X134497841Y-82506971D01*
X134605590Y-82614720D01*
X134686402Y-82641658D01*
X134740277Y-82641658D01*
X134821089Y-82614720D01*
X134928839Y-82506971D01*
X134955776Y-82426158D01*
X134955776Y-82372284D01*
X134928839Y-82291471D01*
X134821089Y-82183722D01*
X134740277Y-82156784D01*
X134686402Y-82156784D01*
X134605590Y-82183722D01*
X107243096Y-68021218D02*
X107162284Y-68048155D01*
X107081471Y-68128967D01*
X107027597Y-68236717D01*
X107027597Y-68344467D01*
X107054534Y-68425279D01*
X107135346Y-68559966D01*
X107216158Y-68640778D01*
X107350845Y-68721590D01*
X107431658Y-68748528D01*
X107539407Y-68748528D01*
X107647157Y-68694653D01*
X107701032Y-68640778D01*
X107754906Y-68533028D01*
X107754906Y-68479154D01*
X107566345Y-68290592D01*
X107458595Y-68398341D01*
X108051218Y-68290592D02*
X107485532Y-67724906D01*
X107701032Y-67509407D01*
X107781844Y-67482470D01*
X107835719Y-67482470D01*
X107916531Y-67509407D01*
X107997343Y-67590219D01*
X108024280Y-67671032D01*
X108024280Y-67724906D01*
X107997343Y-67805719D01*
X107781844Y-68021218D01*
X108374467Y-67320845D02*
X108293654Y-67347783D01*
X108239780Y-67347783D01*
X108158967Y-67320845D01*
X108132030Y-67293908D01*
X108105093Y-67213096D01*
X108105093Y-67159221D01*
X108132030Y-67078409D01*
X108239780Y-66970659D01*
X108320592Y-66943722D01*
X108374467Y-66943722D01*
X108455279Y-66970659D01*
X108482216Y-66997597D01*
X108509154Y-67078409D01*
X108509154Y-67132284D01*
X108482216Y-67213096D01*
X108374467Y-67320845D01*
X108347529Y-67401658D01*
X108347529Y-67455532D01*
X108374467Y-67536345D01*
X108482216Y-67644094D01*
X108563028Y-67671032D01*
X108616903Y-67671032D01*
X108697715Y-67644094D01*
X108805465Y-67536345D01*
X108832402Y-67455532D01*
X108832402Y-67401658D01*
X108805465Y-67320845D01*
X108697715Y-67213096D01*
X108616903Y-67186158D01*
X108563028Y-67186158D01*
X108482216Y-67213096D01*
X132816158Y-73128155D02*
X132735346Y-73155093D01*
X132654534Y-73235905D01*
X132600659Y-73343654D01*
X132600659Y-73451404D01*
X132627597Y-73532216D01*
X132708409Y-73666903D01*
X132789221Y-73747715D01*
X132923908Y-73828528D01*
X133004720Y-73855465D01*
X133112470Y-73855465D01*
X133220219Y-73801590D01*
X133274094Y-73747715D01*
X133327969Y-73639966D01*
X133327969Y-73586091D01*
X133139407Y-73397529D01*
X133031658Y-73505279D01*
X133624280Y-73397529D02*
X133058595Y-72831844D01*
X133947529Y-73074280D01*
X133381844Y-72508595D01*
X134216903Y-72804906D02*
X133651218Y-72239221D01*
X133785905Y-72104534D01*
X133893654Y-72050659D01*
X134001404Y-72050659D01*
X134082216Y-72077597D01*
X134216903Y-72158409D01*
X134297715Y-72239221D01*
X134378528Y-72373908D01*
X134405465Y-72454720D01*
X134405465Y-72562470D01*
X134351590Y-72670219D01*
X134216903Y-72804906D01*
X107243096Y-52781218D02*
X107162284Y-52808155D01*
X107081471Y-52888967D01*
X107027597Y-52996717D01*
X107027597Y-53104467D01*
X107054534Y-53185279D01*
X107135346Y-53319966D01*
X107216158Y-53400778D01*
X107350845Y-53481590D01*
X107431658Y-53508528D01*
X107539407Y-53508528D01*
X107647157Y-53454653D01*
X107701032Y-53400778D01*
X107754906Y-53293028D01*
X107754906Y-53239154D01*
X107566345Y-53050592D01*
X107458595Y-53158341D01*
X108051218Y-53050592D02*
X107485532Y-52484906D01*
X107701032Y-52269407D01*
X107781844Y-52242470D01*
X107835719Y-52242470D01*
X107916531Y-52269407D01*
X107997343Y-52350219D01*
X108024280Y-52431032D01*
X108024280Y-52484906D01*
X107997343Y-52565719D01*
X107781844Y-52781218D01*
X107997343Y-51973096D02*
X108347529Y-51622910D01*
X108374467Y-52026971D01*
X108455279Y-51946158D01*
X108536091Y-51919221D01*
X108589966Y-51919221D01*
X108670778Y-51946158D01*
X108805465Y-52080845D01*
X108832402Y-52161658D01*
X108832402Y-52215532D01*
X108805465Y-52296345D01*
X108643841Y-52457969D01*
X108563028Y-52484906D01*
X108509154Y-52484906D01*
X107143096Y-45151218D02*
X107062284Y-45178155D01*
X106981471Y-45258967D01*
X106927597Y-45366717D01*
X106927597Y-45474467D01*
X106954534Y-45555279D01*
X107035346Y-45689966D01*
X107116158Y-45770778D01*
X107250845Y-45851590D01*
X107331658Y-45878528D01*
X107439407Y-45878528D01*
X107547157Y-45824653D01*
X107601032Y-45770778D01*
X107654906Y-45663028D01*
X107654906Y-45609154D01*
X107466345Y-45420592D01*
X107358595Y-45528341D01*
X107951218Y-45420592D02*
X107385532Y-44854906D01*
X107601032Y-44639407D01*
X107681844Y-44612470D01*
X107735719Y-44612470D01*
X107816531Y-44639407D01*
X107897343Y-44720219D01*
X107924280Y-44801032D01*
X107924280Y-44854906D01*
X107897343Y-44935719D01*
X107681844Y-45151218D01*
X108813215Y-44558595D02*
X108489966Y-44881844D01*
X108651590Y-44720219D02*
X108085905Y-44154534D01*
X108112842Y-44289221D01*
X108112842Y-44396971D01*
X108085905Y-44477783D01*
X132827722Y-65750592D02*
X132746910Y-65777529D01*
X132666097Y-65858341D01*
X132612223Y-65966091D01*
X132612223Y-66073841D01*
X132639160Y-66154653D01*
X132719972Y-66289340D01*
X132800784Y-66370152D01*
X132935471Y-66450964D01*
X133016284Y-66477902D01*
X133124033Y-66477902D01*
X133231783Y-66424027D01*
X133285658Y-66370152D01*
X133339532Y-66262402D01*
X133339532Y-66208528D01*
X133150971Y-66019966D01*
X133043221Y-66127715D01*
X133635844Y-66019966D02*
X133070158Y-65454280D01*
X133285658Y-65238781D01*
X133366470Y-65211844D01*
X133420345Y-65211844D01*
X133501157Y-65238781D01*
X133581969Y-65319593D01*
X133608906Y-65400406D01*
X133608906Y-65454280D01*
X133581969Y-65535093D01*
X133366470Y-65750592D01*
X133662781Y-64969407D02*
X133662781Y-64915532D01*
X133689719Y-64834720D01*
X133824406Y-64700033D01*
X133905218Y-64673096D01*
X133959093Y-64673096D01*
X134039905Y-64700033D01*
X134093780Y-64753908D01*
X134147654Y-64861658D01*
X134147654Y-65508155D01*
X134497841Y-65157969D01*
X134417028Y-64107410D02*
X134309279Y-64215160D01*
X134282341Y-64295972D01*
X134282341Y-64349847D01*
X134309279Y-64484534D01*
X134390091Y-64619221D01*
X134605590Y-64834720D01*
X134686402Y-64861658D01*
X134740277Y-64861658D01*
X134821089Y-64834720D01*
X134928839Y-64726971D01*
X134955776Y-64646158D01*
X134955776Y-64592284D01*
X134928839Y-64511471D01*
X134794152Y-64376784D01*
X134713340Y-64349847D01*
X134659465Y-64349847D01*
X134578653Y-64376784D01*
X134470903Y-64484534D01*
X134443966Y-64565346D01*
X134443966Y-64619221D01*
X134470903Y-64700033D01*
X132619847Y-53120592D02*
X132970033Y-52770406D01*
X132996971Y-53174467D01*
X133077783Y-53093654D01*
X133158595Y-53066717D01*
X133212470Y-53066717D01*
X133293282Y-53093654D01*
X133427969Y-53228341D01*
X133454906Y-53309154D01*
X133454906Y-53363028D01*
X133427969Y-53443841D01*
X133266345Y-53605465D01*
X133185532Y-53632402D01*
X133131658Y-53632402D01*
X133131658Y-52608781D02*
X133885905Y-52985905D01*
X133508781Y-52231658D01*
X133643468Y-52096971D02*
X133993654Y-51746784D01*
X134020592Y-52150845D01*
X134101404Y-52070033D01*
X134182216Y-52043096D01*
X134236091Y-52043096D01*
X134316903Y-52070033D01*
X134451590Y-52204720D01*
X134478528Y-52285532D01*
X134478528Y-52339407D01*
X134451590Y-52420219D01*
X134289966Y-52581844D01*
X134209154Y-52608781D01*
X134155279Y-52608781D01*
X106573722Y-80990592D02*
X106492910Y-81017529D01*
X106412097Y-81098341D01*
X106358223Y-81206091D01*
X106358223Y-81313841D01*
X106385160Y-81394653D01*
X106465972Y-81529340D01*
X106546784Y-81610152D01*
X106681471Y-81690964D01*
X106762284Y-81717902D01*
X106870033Y-81717902D01*
X106977783Y-81664027D01*
X107031658Y-81610152D01*
X107085532Y-81502402D01*
X107085532Y-81448528D01*
X106896971Y-81259966D01*
X106789221Y-81367715D01*
X107381844Y-81259966D02*
X106816158Y-80694280D01*
X107031658Y-80478781D01*
X107112470Y-80451844D01*
X107166345Y-80451844D01*
X107247157Y-80478781D01*
X107327969Y-80559593D01*
X107354906Y-80640406D01*
X107354906Y-80694280D01*
X107327969Y-80775093D01*
X107112470Y-80990592D01*
X108243841Y-80397969D02*
X107920592Y-80721218D01*
X108082216Y-80559593D02*
X107516531Y-79993908D01*
X107543468Y-80128595D01*
X107543468Y-80236345D01*
X107516531Y-80317157D01*
X107947529Y-79670659D02*
X107947529Y-79616784D01*
X107974467Y-79535972D01*
X108109154Y-79401285D01*
X108189966Y-79374348D01*
X108243841Y-79374348D01*
X108324653Y-79401285D01*
X108378528Y-79455160D01*
X108432402Y-79562910D01*
X108432402Y-80209407D01*
X108782589Y-79859221D01*
X132827722Y-91150592D02*
X132746910Y-91177529D01*
X132666097Y-91258341D01*
X132612223Y-91366091D01*
X132612223Y-91473841D01*
X132639160Y-91554653D01*
X132719972Y-91689340D01*
X132800784Y-91770152D01*
X132935471Y-91850964D01*
X133016284Y-91877902D01*
X133124033Y-91877902D01*
X133231783Y-91824027D01*
X133285658Y-91770152D01*
X133339532Y-91662402D01*
X133339532Y-91608528D01*
X133150971Y-91419966D01*
X133043221Y-91527715D01*
X133635844Y-91419966D02*
X133070158Y-90854280D01*
X133285658Y-90638781D01*
X133366470Y-90611844D01*
X133420345Y-90611844D01*
X133501157Y-90638781D01*
X133581969Y-90719593D01*
X133608906Y-90800406D01*
X133608906Y-90854280D01*
X133581969Y-90935093D01*
X133366470Y-91150592D01*
X134497841Y-90557969D02*
X134174592Y-90881218D01*
X134336216Y-90719593D02*
X133770531Y-90153908D01*
X133797468Y-90288595D01*
X133797468Y-90396345D01*
X133770531Y-90477157D01*
X134417028Y-89507410D02*
X134309279Y-89615160D01*
X134282341Y-89695972D01*
X134282341Y-89749847D01*
X134309279Y-89884534D01*
X134390091Y-90019221D01*
X134605590Y-90234720D01*
X134686402Y-90261658D01*
X134740277Y-90261658D01*
X134821089Y-90234720D01*
X134928839Y-90126971D01*
X134955776Y-90046158D01*
X134955776Y-89992284D01*
X134928839Y-89911471D01*
X134794152Y-89776784D01*
X134713340Y-89749847D01*
X134659465Y-89749847D01*
X134578653Y-89776784D01*
X134470903Y-89884534D01*
X134443966Y-89965346D01*
X134443966Y-90019221D01*
X134470903Y-90100033D01*
X132827722Y-70830592D02*
X132746910Y-70857529D01*
X132666097Y-70938341D01*
X132612223Y-71046091D01*
X132612223Y-71153841D01*
X132639160Y-71234653D01*
X132719972Y-71369340D01*
X132800784Y-71450152D01*
X132935471Y-71530964D01*
X133016284Y-71557902D01*
X133124033Y-71557902D01*
X133231783Y-71504027D01*
X133285658Y-71450152D01*
X133339532Y-71342402D01*
X133339532Y-71288528D01*
X133150971Y-71099966D01*
X133043221Y-71207715D01*
X133635844Y-71099966D02*
X133070158Y-70534280D01*
X133285658Y-70318781D01*
X133366470Y-70291844D01*
X133420345Y-70291844D01*
X133501157Y-70318781D01*
X133581969Y-70399593D01*
X133608906Y-70480406D01*
X133608906Y-70534280D01*
X133581969Y-70615093D01*
X133366470Y-70830592D01*
X133662781Y-70049407D02*
X133662781Y-69995532D01*
X133689719Y-69914720D01*
X133824406Y-69780033D01*
X133905218Y-69753096D01*
X133959093Y-69753096D01*
X134039905Y-69780033D01*
X134093780Y-69833908D01*
X134147654Y-69941658D01*
X134147654Y-70588155D01*
X134497841Y-70237969D01*
X134201529Y-69510659D02*
X134201529Y-69456784D01*
X134228467Y-69375972D01*
X134363154Y-69241285D01*
X134443966Y-69214348D01*
X134497841Y-69214348D01*
X134578653Y-69241285D01*
X134632528Y-69295160D01*
X134686402Y-69402910D01*
X134686402Y-70049407D01*
X135036589Y-69699221D01*
X132827722Y-88610592D02*
X132746910Y-88637529D01*
X132666097Y-88718341D01*
X132612223Y-88826091D01*
X132612223Y-88933841D01*
X132639160Y-89014653D01*
X132719972Y-89149340D01*
X132800784Y-89230152D01*
X132935471Y-89310964D01*
X133016284Y-89337902D01*
X133124033Y-89337902D01*
X133231783Y-89284027D01*
X133285658Y-89230152D01*
X133339532Y-89122402D01*
X133339532Y-89068528D01*
X133150971Y-88879966D01*
X133043221Y-88987715D01*
X133635844Y-88879966D02*
X133070158Y-88314280D01*
X133285658Y-88098781D01*
X133366470Y-88071844D01*
X133420345Y-88071844D01*
X133501157Y-88098781D01*
X133581969Y-88179593D01*
X133608906Y-88260406D01*
X133608906Y-88314280D01*
X133581969Y-88395093D01*
X133366470Y-88610592D01*
X134497841Y-88017969D02*
X134174592Y-88341218D01*
X134336216Y-88179593D02*
X133770531Y-87613908D01*
X133797468Y-87748595D01*
X133797468Y-87856345D01*
X133770531Y-87937157D01*
X134120717Y-87263722D02*
X134497841Y-86886598D01*
X134821089Y-87694720D01*
X132827722Y-75920592D02*
X132746910Y-75947529D01*
X132666097Y-76028341D01*
X132612223Y-76136091D01*
X132612223Y-76243841D01*
X132639160Y-76324653D01*
X132719972Y-76459340D01*
X132800784Y-76540152D01*
X132935471Y-76620964D01*
X133016284Y-76647902D01*
X133124033Y-76647902D01*
X133231783Y-76594027D01*
X133285658Y-76540152D01*
X133339532Y-76432402D01*
X133339532Y-76378528D01*
X133150971Y-76189966D01*
X133043221Y-76297715D01*
X133635844Y-76189966D02*
X133070158Y-75624280D01*
X133285658Y-75408781D01*
X133366470Y-75381844D01*
X133420345Y-75381844D01*
X133501157Y-75408781D01*
X133581969Y-75489593D01*
X133608906Y-75570406D01*
X133608906Y-75624280D01*
X133581969Y-75705093D01*
X133366470Y-75920592D01*
X133662781Y-75139407D02*
X133662781Y-75085532D01*
X133689719Y-75004720D01*
X133824406Y-74870033D01*
X133905218Y-74843096D01*
X133959093Y-74843096D01*
X134039905Y-74870033D01*
X134093780Y-74923908D01*
X134147654Y-75031658D01*
X134147654Y-75678155D01*
X134497841Y-75327969D01*
X135036589Y-74789221D02*
X134713340Y-75112470D01*
X134874964Y-74950845D02*
X134309279Y-74385160D01*
X134336216Y-74519847D01*
X134336216Y-74627597D01*
X134309279Y-74708409D01*
X106573722Y-78450592D02*
X106492910Y-78477529D01*
X106412097Y-78558341D01*
X106358223Y-78666091D01*
X106358223Y-78773841D01*
X106385160Y-78854653D01*
X106465972Y-78989340D01*
X106546784Y-79070152D01*
X106681471Y-79150964D01*
X106762284Y-79177902D01*
X106870033Y-79177902D01*
X106977783Y-79124027D01*
X107031658Y-79070152D01*
X107085532Y-78962402D01*
X107085532Y-78908528D01*
X106896971Y-78719966D01*
X106789221Y-78827715D01*
X107381844Y-78719966D02*
X106816158Y-78154280D01*
X107031658Y-77938781D01*
X107112470Y-77911844D01*
X107166345Y-77911844D01*
X107247157Y-77938781D01*
X107327969Y-78019593D01*
X107354906Y-78100406D01*
X107354906Y-78154280D01*
X107327969Y-78235093D01*
X107112470Y-78450592D01*
X108243841Y-77857969D02*
X107920592Y-78181218D01*
X108082216Y-78019593D02*
X107516531Y-77453908D01*
X107543468Y-77588595D01*
X107543468Y-77696345D01*
X107516531Y-77777157D01*
X108782589Y-77319221D02*
X108459340Y-77642470D01*
X108620964Y-77480845D02*
X108055279Y-76915160D01*
X108082216Y-77049847D01*
X108082216Y-77157597D01*
X108055279Y-77238409D01*
X132683129Y-43157309D02*
X133437377Y-43534433D01*
X133060253Y-42780186D01*
X133706751Y-42672436D02*
X133814500Y-42618561D01*
X133868375Y-42618561D01*
X133949187Y-42645499D01*
X134029999Y-42726311D01*
X134056937Y-42807123D01*
X134056937Y-42860998D01*
X134030000Y-42941810D01*
X133814500Y-43157309D01*
X133248815Y-42591624D01*
X133437377Y-42403062D01*
X133518189Y-42376125D01*
X133572064Y-42376125D01*
X133652876Y-42403062D01*
X133706751Y-42456937D01*
X133733688Y-42537749D01*
X133733688Y-42591624D01*
X133706751Y-42672436D01*
X133518189Y-42860998D01*
X133814500Y-42025938D02*
X134272436Y-42483874D01*
X134353248Y-42510812D01*
X134407123Y-42510812D01*
X134487935Y-42483874D01*
X134595685Y-42376125D01*
X134622622Y-42295312D01*
X134622622Y-42241438D01*
X134595685Y-42160625D01*
X134137749Y-41702690D01*
X134918934Y-41999001D02*
X135026683Y-41945126D01*
X135161370Y-41810439D01*
X135188308Y-41729627D01*
X135188308Y-41675752D01*
X135161370Y-41594940D01*
X135107496Y-41541065D01*
X135026683Y-41514128D01*
X134972809Y-41514128D01*
X134891996Y-41541065D01*
X134757309Y-41621877D01*
X134676497Y-41648815D01*
X134622622Y-41648815D01*
X134541810Y-41621877D01*
X134487935Y-41568003D01*
X134460998Y-41487190D01*
X134460998Y-41433316D01*
X134487935Y-41352503D01*
X134622622Y-41217816D01*
X134730372Y-41163942D01*
X107243096Y-70561218D02*
X107162284Y-70588155D01*
X107081471Y-70668967D01*
X107027597Y-70776717D01*
X107027597Y-70884467D01*
X107054534Y-70965279D01*
X107135346Y-71099966D01*
X107216158Y-71180778D01*
X107350845Y-71261590D01*
X107431658Y-71288528D01*
X107539407Y-71288528D01*
X107647157Y-71234653D01*
X107701032Y-71180778D01*
X107754906Y-71073028D01*
X107754906Y-71019154D01*
X107566345Y-70830592D01*
X107458595Y-70938341D01*
X108051218Y-70830592D02*
X107485532Y-70264906D01*
X107701032Y-70049407D01*
X107781844Y-70022470D01*
X107835719Y-70022470D01*
X107916531Y-70049407D01*
X107997343Y-70130219D01*
X108024280Y-70211032D01*
X108024280Y-70264906D01*
X107997343Y-70345719D01*
X107781844Y-70561218D01*
X108643841Y-70237969D02*
X108751590Y-70130219D01*
X108778528Y-70049407D01*
X108778528Y-69995532D01*
X108751590Y-69860845D01*
X108670778Y-69726158D01*
X108455279Y-69510659D01*
X108374467Y-69483722D01*
X108320592Y-69483722D01*
X108239780Y-69510659D01*
X108132030Y-69618409D01*
X108105093Y-69699221D01*
X108105093Y-69753096D01*
X108132030Y-69833908D01*
X108266717Y-69968595D01*
X108347529Y-69995532D01*
X108401404Y-69995532D01*
X108482216Y-69968595D01*
X108589966Y-69860845D01*
X108616903Y-69780033D01*
X108616903Y-69726158D01*
X108589966Y-69645346D01*
X124634761Y-93153809D02*
X124749047Y-93191904D01*
X124939523Y-93191904D01*
X125015714Y-93153809D01*
X125053809Y-93115714D01*
X125091904Y-93039523D01*
X125091904Y-92963333D01*
X125053809Y-92887142D01*
X125015714Y-92849047D01*
X124939523Y-92810952D01*
X124787142Y-92772857D01*
X124710952Y-92734761D01*
X124672857Y-92696666D01*
X124634761Y-92620476D01*
X124634761Y-92544285D01*
X124672857Y-92468095D01*
X124710952Y-92430000D01*
X124787142Y-92391904D01*
X124977619Y-92391904D01*
X125091904Y-92430000D01*
X125358571Y-92391904D02*
X125549047Y-93191904D01*
X125701428Y-92620476D01*
X125853809Y-93191904D01*
X126044285Y-92391904D01*
X126349047Y-93191904D02*
X126349047Y-92391904D01*
X126539523Y-92391904D01*
X126653809Y-92430000D01*
X126730000Y-92506190D01*
X126768095Y-92582380D01*
X126806190Y-92734761D01*
X126806190Y-92849047D01*
X126768095Y-93001428D01*
X126730000Y-93077619D01*
X126653809Y-93153809D01*
X126539523Y-93191904D01*
X126349047Y-93191904D01*
X127149047Y-93191904D02*
X127149047Y-92391904D01*
X127682380Y-92391904D02*
X127834761Y-92391904D01*
X127910952Y-92430000D01*
X127987142Y-92506190D01*
X128025238Y-92658571D01*
X128025238Y-92925238D01*
X127987142Y-93077619D01*
X127910952Y-93153809D01*
X127834761Y-93191904D01*
X127682380Y-93191904D01*
X127606190Y-93153809D01*
X127530000Y-93077619D01*
X127491904Y-92925238D01*
X127491904Y-92658571D01*
X127530000Y-92506190D01*
X127606190Y-92430000D01*
X127682380Y-92391904D01*
X107243096Y-57861218D02*
X107162284Y-57888155D01*
X107081471Y-57968967D01*
X107027597Y-58076717D01*
X107027597Y-58184467D01*
X107054534Y-58265279D01*
X107135346Y-58399966D01*
X107216158Y-58480778D01*
X107350845Y-58561590D01*
X107431658Y-58588528D01*
X107539407Y-58588528D01*
X107647157Y-58534653D01*
X107701032Y-58480778D01*
X107754906Y-58373028D01*
X107754906Y-58319154D01*
X107566345Y-58130592D01*
X107458595Y-58238341D01*
X108051218Y-58130592D02*
X107485532Y-57564906D01*
X107701032Y-57349407D01*
X107781844Y-57322470D01*
X107835719Y-57322470D01*
X107916531Y-57349407D01*
X107997343Y-57430219D01*
X108024280Y-57511032D01*
X108024280Y-57564906D01*
X107997343Y-57645719D01*
X107781844Y-57861218D01*
X108320592Y-56729847D02*
X108051218Y-56999221D01*
X108293654Y-57295532D01*
X108293654Y-57241658D01*
X108320592Y-57160845D01*
X108455279Y-57026158D01*
X108536091Y-56999221D01*
X108589966Y-56999221D01*
X108670778Y-57026158D01*
X108805465Y-57160845D01*
X108832402Y-57241658D01*
X108832402Y-57295532D01*
X108805465Y-57376345D01*
X108670778Y-57511032D01*
X108589966Y-57537969D01*
X108536091Y-57537969D01*
X107243096Y-62941218D02*
X107162284Y-62968155D01*
X107081471Y-63048967D01*
X107027597Y-63156717D01*
X107027597Y-63264467D01*
X107054534Y-63345279D01*
X107135346Y-63479966D01*
X107216158Y-63560778D01*
X107350845Y-63641590D01*
X107431658Y-63668528D01*
X107539407Y-63668528D01*
X107647157Y-63614653D01*
X107701032Y-63560778D01*
X107754906Y-63453028D01*
X107754906Y-63399154D01*
X107566345Y-63210592D01*
X107458595Y-63318341D01*
X108051218Y-63210592D02*
X107485532Y-62644906D01*
X107701032Y-62429407D01*
X107781844Y-62402470D01*
X107835719Y-62402470D01*
X107916531Y-62429407D01*
X107997343Y-62510219D01*
X108024280Y-62591032D01*
X108024280Y-62644906D01*
X107997343Y-62725719D01*
X107781844Y-62941218D01*
X108293654Y-61836784D02*
X108185905Y-61944534D01*
X108158967Y-62025346D01*
X108158967Y-62079221D01*
X108185905Y-62213908D01*
X108266717Y-62348595D01*
X108482216Y-62564094D01*
X108563028Y-62591032D01*
X108616903Y-62591032D01*
X108697715Y-62564094D01*
X108805465Y-62456345D01*
X108832402Y-62375532D01*
X108832402Y-62321658D01*
X108805465Y-62240845D01*
X108670778Y-62106158D01*
X108589966Y-62079221D01*
X108536091Y-62079221D01*
X108455279Y-62106158D01*
X108347529Y-62213908D01*
X108320592Y-62294720D01*
X108320592Y-62348595D01*
X108347529Y-62429407D01*
X106719722Y-83530592D02*
X106638910Y-83557529D01*
X106558097Y-83638341D01*
X106504223Y-83746091D01*
X106504223Y-83853841D01*
X106531160Y-83934653D01*
X106611972Y-84069340D01*
X106692784Y-84150152D01*
X106827471Y-84230964D01*
X106908284Y-84257902D01*
X107016033Y-84257902D01*
X107123783Y-84204027D01*
X107177658Y-84150152D01*
X107231532Y-84042402D01*
X107231532Y-83988528D01*
X107042971Y-83799966D01*
X106935221Y-83907715D01*
X107527844Y-83799966D02*
X106962158Y-83234280D01*
X107177658Y-83018781D01*
X107258470Y-82991844D01*
X107312345Y-82991844D01*
X107393157Y-83018781D01*
X107473969Y-83099593D01*
X107500906Y-83180406D01*
X107500906Y-83234280D01*
X107473969Y-83315093D01*
X107258470Y-83530592D01*
X108389841Y-82937969D02*
X108066592Y-83261218D01*
X108228216Y-83099593D02*
X107662531Y-82533908D01*
X107689468Y-82668595D01*
X107689468Y-82776345D01*
X107662531Y-82857157D01*
X108012717Y-82183722D02*
X108362903Y-81833536D01*
X108389841Y-82237597D01*
X108470653Y-82156784D01*
X108551465Y-82129847D01*
X108605340Y-82129847D01*
X108686152Y-82156784D01*
X108820839Y-82291471D01*
X108847776Y-82372284D01*
X108847776Y-82426158D01*
X108820839Y-82506971D01*
X108659215Y-82668595D01*
X108578402Y-82695532D01*
X108524528Y-82695532D01*
X132827722Y-57876592D02*
X132746910Y-57903529D01*
X132666097Y-57984341D01*
X132612223Y-58092091D01*
X132612223Y-58199841D01*
X132639160Y-58280653D01*
X132719972Y-58415340D01*
X132800784Y-58496152D01*
X132935471Y-58576964D01*
X133016284Y-58603902D01*
X133124033Y-58603902D01*
X133231783Y-58550027D01*
X133285658Y-58496152D01*
X133339532Y-58388402D01*
X133339532Y-58334528D01*
X133150971Y-58145966D01*
X133043221Y-58253715D01*
X133635844Y-58145966D02*
X133070158Y-57580280D01*
X133285658Y-57364781D01*
X133366470Y-57337844D01*
X133420345Y-57337844D01*
X133501157Y-57364781D01*
X133581969Y-57445593D01*
X133608906Y-57526406D01*
X133608906Y-57580280D01*
X133581969Y-57661093D01*
X133366470Y-57876592D01*
X133662781Y-57095407D02*
X133662781Y-57041532D01*
X133689719Y-56960720D01*
X133824406Y-56826033D01*
X133905218Y-56799096D01*
X133959093Y-56799096D01*
X134039905Y-56826033D01*
X134093780Y-56879908D01*
X134147654Y-56987658D01*
X134147654Y-57634155D01*
X134497841Y-57283969D01*
X134497841Y-56637471D02*
X134417028Y-56664409D01*
X134363154Y-56664409D01*
X134282341Y-56637471D01*
X134255404Y-56610534D01*
X134228467Y-56529722D01*
X134228467Y-56475847D01*
X134255404Y-56395035D01*
X134363154Y-56287285D01*
X134443966Y-56260348D01*
X134497841Y-56260348D01*
X134578653Y-56287285D01*
X134605590Y-56314223D01*
X134632528Y-56395035D01*
X134632528Y-56448910D01*
X134605590Y-56529722D01*
X134497841Y-56637471D01*
X134470903Y-56718284D01*
X134470903Y-56772158D01*
X134497841Y-56852971D01*
X134605590Y-56960720D01*
X134686402Y-56987658D01*
X134740277Y-56987658D01*
X134821089Y-56960720D01*
X134928839Y-56852971D01*
X134955776Y-56772158D01*
X134955776Y-56718284D01*
X134928839Y-56637471D01*
X134821089Y-56529722D01*
X134740277Y-56502784D01*
X134686402Y-56502784D01*
X134605590Y-56529722D01*
X132827722Y-78450592D02*
X132746910Y-78477529D01*
X132666097Y-78558341D01*
X132612223Y-78666091D01*
X132612223Y-78773841D01*
X132639160Y-78854653D01*
X132719972Y-78989340D01*
X132800784Y-79070152D01*
X132935471Y-79150964D01*
X133016284Y-79177902D01*
X133124033Y-79177902D01*
X133231783Y-79124027D01*
X133285658Y-79070152D01*
X133339532Y-78962402D01*
X133339532Y-78908528D01*
X133150971Y-78719966D01*
X133043221Y-78827715D01*
X133635844Y-78719966D02*
X133070158Y-78154280D01*
X133285658Y-77938781D01*
X133366470Y-77911844D01*
X133420345Y-77911844D01*
X133501157Y-77938781D01*
X133581969Y-78019593D01*
X133608906Y-78100406D01*
X133608906Y-78154280D01*
X133581969Y-78235093D01*
X133366470Y-78450592D01*
X133662781Y-77669407D02*
X133662781Y-77615532D01*
X133689719Y-77534720D01*
X133824406Y-77400033D01*
X133905218Y-77373096D01*
X133959093Y-77373096D01*
X134039905Y-77400033D01*
X134093780Y-77453908D01*
X134147654Y-77561658D01*
X134147654Y-78208155D01*
X134497841Y-77857969D01*
X134282341Y-76942097D02*
X134336216Y-76888223D01*
X134417028Y-76861285D01*
X134470903Y-76861285D01*
X134551715Y-76888223D01*
X134686402Y-76969035D01*
X134821089Y-77103722D01*
X134901902Y-77238409D01*
X134928839Y-77319221D01*
X134928839Y-77373096D01*
X134901902Y-77453908D01*
X134848027Y-77507783D01*
X134767215Y-77534720D01*
X134713340Y-77534720D01*
X134632528Y-77507783D01*
X134497841Y-77426971D01*
X134363154Y-77292284D01*
X134282341Y-77157597D01*
X134255404Y-77076784D01*
X134255404Y-77022910D01*
X134282341Y-76942097D01*
X107216158Y-60428155D02*
X107135346Y-60455093D01*
X107054534Y-60535905D01*
X107000659Y-60643654D01*
X107000659Y-60751404D01*
X107027597Y-60832216D01*
X107108409Y-60966903D01*
X107189221Y-61047715D01*
X107323908Y-61128528D01*
X107404720Y-61155465D01*
X107512470Y-61155465D01*
X107620219Y-61101590D01*
X107674094Y-61047715D01*
X107727969Y-60939966D01*
X107727969Y-60886091D01*
X107539407Y-60697529D01*
X107431658Y-60805279D01*
X108024280Y-60697529D02*
X107458595Y-60131844D01*
X108347529Y-60374280D01*
X107781844Y-59808595D01*
X108616903Y-60104906D02*
X108051218Y-59539221D01*
X108185905Y-59404534D01*
X108293654Y-59350659D01*
X108401404Y-59350659D01*
X108482216Y-59377597D01*
X108616903Y-59458409D01*
X108697715Y-59539221D01*
X108778528Y-59673908D01*
X108805465Y-59754720D01*
X108805465Y-59862470D01*
X108751590Y-59970219D01*
X108616903Y-60104906D01*
X107343096Y-65451218D02*
X107262284Y-65478155D01*
X107181471Y-65558967D01*
X107127597Y-65666717D01*
X107127597Y-65774467D01*
X107154534Y-65855279D01*
X107235346Y-65989966D01*
X107316158Y-66070778D01*
X107450845Y-66151590D01*
X107531658Y-66178528D01*
X107639407Y-66178528D01*
X107747157Y-66124653D01*
X107801032Y-66070778D01*
X107854906Y-65963028D01*
X107854906Y-65909154D01*
X107666345Y-65720592D01*
X107558595Y-65828341D01*
X108151218Y-65720592D02*
X107585532Y-65154906D01*
X107801032Y-64939407D01*
X107881844Y-64912470D01*
X107935719Y-64912470D01*
X108016531Y-64939407D01*
X108097343Y-65020219D01*
X108124280Y-65101032D01*
X108124280Y-65154906D01*
X108097343Y-65235719D01*
X107881844Y-65451218D01*
X108097343Y-64643096D02*
X108474467Y-64265972D01*
X108797715Y-65074094D01*
X107143096Y-50241218D02*
X107062284Y-50268155D01*
X106981471Y-50348967D01*
X106927597Y-50456717D01*
X106927597Y-50564467D01*
X106954534Y-50645279D01*
X107035346Y-50779966D01*
X107116158Y-50860778D01*
X107250845Y-50941590D01*
X107331658Y-50968528D01*
X107439407Y-50968528D01*
X107547157Y-50914653D01*
X107601032Y-50860778D01*
X107654906Y-50753028D01*
X107654906Y-50699154D01*
X107466345Y-50510592D01*
X107358595Y-50618341D01*
X107951218Y-50510592D02*
X107385532Y-49944906D01*
X107601032Y-49729407D01*
X107681844Y-49702470D01*
X107735719Y-49702470D01*
X107816531Y-49729407D01*
X107897343Y-49810219D01*
X107924280Y-49891032D01*
X107924280Y-49944906D01*
X107897343Y-50025719D01*
X107681844Y-50241218D01*
X107978155Y-49460033D02*
X107978155Y-49406158D01*
X108005093Y-49325346D01*
X108139780Y-49190659D01*
X108220592Y-49163722D01*
X108274467Y-49163722D01*
X108355279Y-49190659D01*
X108409154Y-49244534D01*
X108463028Y-49352284D01*
X108463028Y-49998781D01*
X108813215Y-49648595D01*
X132827722Y-80990592D02*
X132746910Y-81017529D01*
X132666097Y-81098341D01*
X132612223Y-81206091D01*
X132612223Y-81313841D01*
X132639160Y-81394653D01*
X132719972Y-81529340D01*
X132800784Y-81610152D01*
X132935471Y-81690964D01*
X133016284Y-81717902D01*
X133124033Y-81717902D01*
X133231783Y-81664027D01*
X133285658Y-81610152D01*
X133339532Y-81502402D01*
X133339532Y-81448528D01*
X133150971Y-81259966D01*
X133043221Y-81367715D01*
X133635844Y-81259966D02*
X133070158Y-80694280D01*
X133285658Y-80478781D01*
X133366470Y-80451844D01*
X133420345Y-80451844D01*
X133501157Y-80478781D01*
X133581969Y-80559593D01*
X133608906Y-80640406D01*
X133608906Y-80694280D01*
X133581969Y-80775093D01*
X133366470Y-80990592D01*
X134497841Y-80397969D02*
X134174592Y-80721218D01*
X134336216Y-80559593D02*
X133770531Y-79993908D01*
X133797468Y-80128595D01*
X133797468Y-80236345D01*
X133770531Y-80317157D01*
X134767215Y-80128595D02*
X134874964Y-80020845D01*
X134901902Y-79940033D01*
X134901902Y-79886158D01*
X134874964Y-79751471D01*
X134794152Y-79616784D01*
X134578653Y-79401285D01*
X134497841Y-79374348D01*
X134443966Y-79374348D01*
X134363154Y-79401285D01*
X134255404Y-79509035D01*
X134228467Y-79589847D01*
X134228467Y-79643722D01*
X134255404Y-79724534D01*
X134390091Y-79859221D01*
X134470903Y-79886158D01*
X134524778Y-79886158D01*
X134605590Y-79859221D01*
X134713340Y-79751471D01*
X134740277Y-79670659D01*
X134740277Y-79616784D01*
X134713340Y-79535972D01*
%TO.C,U5*%
X190287380Y-64001904D02*
X191096904Y-64001904D01*
X191192142Y-63954285D01*
X191239761Y-63906666D01*
X191287380Y-63811428D01*
X191287380Y-63620952D01*
X191239761Y-63525714D01*
X191192142Y-63478095D01*
X191096904Y-63430476D01*
X190287380Y-63430476D01*
X190287380Y-62478095D02*
X190287380Y-62954285D01*
X190763571Y-63001904D01*
X190715952Y-62954285D01*
X190668333Y-62859047D01*
X190668333Y-62620952D01*
X190715952Y-62525714D01*
X190763571Y-62478095D01*
X190858809Y-62430476D01*
X191096904Y-62430476D01*
X191192142Y-62478095D01*
X191239761Y-62525714D01*
X191287380Y-62620952D01*
X191287380Y-62859047D01*
X191239761Y-62954285D01*
X191192142Y-63001904D01*
%TO.C,R2*%
X111963333Y-93562380D02*
X111630000Y-93086190D01*
X111391904Y-93562380D02*
X111391904Y-92562380D01*
X111772857Y-92562380D01*
X111868095Y-92610000D01*
X111915714Y-92657619D01*
X111963333Y-92752857D01*
X111963333Y-92895714D01*
X111915714Y-92990952D01*
X111868095Y-93038571D01*
X111772857Y-93086190D01*
X111391904Y-93086190D01*
X112344285Y-92657619D02*
X112391904Y-92610000D01*
X112487142Y-92562380D01*
X112725238Y-92562380D01*
X112820476Y-92610000D01*
X112868095Y-92657619D01*
X112915714Y-92752857D01*
X112915714Y-92848095D01*
X112868095Y-92990952D01*
X112296666Y-93562380D01*
X112915714Y-93562380D01*
%TO.C,RailB1*%
X144410952Y-131734380D02*
X144077619Y-131258190D01*
X143839523Y-131734380D02*
X143839523Y-130734380D01*
X144220476Y-130734380D01*
X144315714Y-130782000D01*
X144363333Y-130829619D01*
X144410952Y-130924857D01*
X144410952Y-131067714D01*
X144363333Y-131162952D01*
X144315714Y-131210571D01*
X144220476Y-131258190D01*
X143839523Y-131258190D01*
X145268095Y-131734380D02*
X145268095Y-131210571D01*
X145220476Y-131115333D01*
X145125238Y-131067714D01*
X144934761Y-131067714D01*
X144839523Y-131115333D01*
X145268095Y-131686761D02*
X145172857Y-131734380D01*
X144934761Y-131734380D01*
X144839523Y-131686761D01*
X144791904Y-131591523D01*
X144791904Y-131496285D01*
X144839523Y-131401047D01*
X144934761Y-131353428D01*
X145172857Y-131353428D01*
X145268095Y-131305809D01*
X145744285Y-131734380D02*
X145744285Y-131067714D01*
X145744285Y-130734380D02*
X145696666Y-130782000D01*
X145744285Y-130829619D01*
X145791904Y-130782000D01*
X145744285Y-130734380D01*
X145744285Y-130829619D01*
X146363333Y-131734380D02*
X146268095Y-131686761D01*
X146220476Y-131591523D01*
X146220476Y-130734380D01*
X147077619Y-131210571D02*
X147220476Y-131258190D01*
X147268095Y-131305809D01*
X147315714Y-131401047D01*
X147315714Y-131543904D01*
X147268095Y-131639142D01*
X147220476Y-131686761D01*
X147125238Y-131734380D01*
X146744285Y-131734380D01*
X146744285Y-130734380D01*
X147077619Y-130734380D01*
X147172857Y-130782000D01*
X147220476Y-130829619D01*
X147268095Y-130924857D01*
X147268095Y-131020095D01*
X147220476Y-131115333D01*
X147172857Y-131162952D01*
X147077619Y-131210571D01*
X146744285Y-131210571D01*
X148268095Y-131734380D02*
X147696666Y-131734380D01*
X147982380Y-131734380D02*
X147982380Y-130734380D01*
X147887142Y-130877238D01*
X147791904Y-130972476D01*
X147696666Y-131020095D01*
%TO.C,C2*%
X194163332Y-118287142D02*
X194115713Y-118334761D01*
X193972856Y-118382380D01*
X193877618Y-118382380D01*
X193734760Y-118334761D01*
X193639522Y-118239523D01*
X193591903Y-118144285D01*
X193544284Y-117953809D01*
X193544284Y-117810952D01*
X193591903Y-117620476D01*
X193639522Y-117525238D01*
X193734760Y-117430000D01*
X193877618Y-117382380D01*
X193972856Y-117382380D01*
X194115713Y-117430000D01*
X194163332Y-117477619D01*
X194544284Y-117477619D02*
X194591903Y-117430000D01*
X194687141Y-117382380D01*
X194925237Y-117382380D01*
X195020475Y-117430000D01*
X195068094Y-117477619D01*
X195115713Y-117572857D01*
X195115713Y-117668095D01*
X195068094Y-117810952D01*
X194496665Y-118382380D01*
X195115713Y-118382380D01*
%TO.C,D5*%
X103386904Y-73122380D02*
X103386904Y-72122380D01*
X103625000Y-72122380D01*
X103767857Y-72170000D01*
X103863095Y-72265238D01*
X103910714Y-72360476D01*
X103958333Y-72550952D01*
X103958333Y-72693809D01*
X103910714Y-72884285D01*
X103863095Y-72979523D01*
X103767857Y-73074761D01*
X103625000Y-73122380D01*
X103386904Y-73122380D01*
X104863095Y-72122380D02*
X104386904Y-72122380D01*
X104339285Y-72598571D01*
X104386904Y-72550952D01*
X104482142Y-72503333D01*
X104720238Y-72503333D01*
X104815476Y-72550952D01*
X104863095Y-72598571D01*
X104910714Y-72693809D01*
X104910714Y-72931904D01*
X104863095Y-73027142D01*
X104815476Y-73074761D01*
X104720238Y-73122380D01*
X104482142Y-73122380D01*
X104386904Y-73074761D01*
X104339285Y-73027142D01*
%TO.C,D1*%
X103286904Y-83522380D02*
X103286904Y-82522380D01*
X103525000Y-82522380D01*
X103667857Y-82570000D01*
X103763095Y-82665238D01*
X103810714Y-82760476D01*
X103858333Y-82950952D01*
X103858333Y-83093809D01*
X103810714Y-83284285D01*
X103763095Y-83379523D01*
X103667857Y-83474761D01*
X103525000Y-83522380D01*
X103286904Y-83522380D01*
X104810714Y-83522380D02*
X104239285Y-83522380D01*
X104525000Y-83522380D02*
X104525000Y-82522380D01*
X104429761Y-82665238D01*
X104334523Y-82760476D01*
X104239285Y-82808095D01*
%TO.C,G4L1*%
X210934761Y-139578000D02*
X210839523Y-139530380D01*
X210696666Y-139530380D01*
X210553809Y-139578000D01*
X210458571Y-139673238D01*
X210410952Y-139768476D01*
X210363333Y-139958952D01*
X210363333Y-140101809D01*
X210410952Y-140292285D01*
X210458571Y-140387523D01*
X210553809Y-140482761D01*
X210696666Y-140530380D01*
X210791904Y-140530380D01*
X210934761Y-140482761D01*
X210982380Y-140435142D01*
X210982380Y-140101809D01*
X210791904Y-140101809D01*
X211839523Y-139863714D02*
X211839523Y-140530380D01*
X211601428Y-139482761D02*
X211363333Y-140197047D01*
X211982380Y-140197047D01*
X212839523Y-140530380D02*
X212363333Y-140530380D01*
X212363333Y-139530380D01*
X213696666Y-140530380D02*
X213125238Y-140530380D01*
X213410952Y-140530380D02*
X213410952Y-139530380D01*
X213315714Y-139673238D01*
X213220476Y-139768476D01*
X213125238Y-139816095D01*
%TO.C,G2L2*%
X208034761Y-81877999D02*
X207939523Y-81830379D01*
X207796666Y-81830379D01*
X207653809Y-81877999D01*
X207558571Y-81973237D01*
X207510952Y-82068475D01*
X207463333Y-82258951D01*
X207463333Y-82401808D01*
X207510952Y-82592284D01*
X207558571Y-82687522D01*
X207653809Y-82782760D01*
X207796666Y-82830379D01*
X207891904Y-82830379D01*
X208034761Y-82782760D01*
X208082380Y-82735141D01*
X208082380Y-82401808D01*
X207891904Y-82401808D01*
X208463333Y-81925618D02*
X208510952Y-81877999D01*
X208606190Y-81830379D01*
X208844285Y-81830379D01*
X208939523Y-81877999D01*
X208987142Y-81925618D01*
X209034761Y-82020856D01*
X209034761Y-82116094D01*
X208987142Y-82258951D01*
X208415714Y-82830379D01*
X209034761Y-82830379D01*
X209939523Y-82830379D02*
X209463333Y-82830379D01*
X209463333Y-81830379D01*
X210225238Y-81925618D02*
X210272857Y-81877999D01*
X210368095Y-81830379D01*
X210606190Y-81830379D01*
X210701428Y-81877999D01*
X210749047Y-81925618D01*
X210796666Y-82020856D01*
X210796666Y-82116094D01*
X210749047Y-82258951D01*
X210177619Y-82830379D01*
X210796666Y-82830379D01*
%TO.C,R5*%
X96563333Y-78002380D02*
X96230000Y-77526190D01*
X95991904Y-78002380D02*
X95991904Y-77002380D01*
X96372857Y-77002380D01*
X96468095Y-77050000D01*
X96515714Y-77097619D01*
X96563333Y-77192857D01*
X96563333Y-77335714D01*
X96515714Y-77430952D01*
X96468095Y-77478571D01*
X96372857Y-77526190D01*
X95991904Y-77526190D01*
X97468095Y-77002380D02*
X96991904Y-77002380D01*
X96944285Y-77478571D01*
X96991904Y-77430952D01*
X97087142Y-77383333D01*
X97325238Y-77383333D01*
X97420476Y-77430952D01*
X97468095Y-77478571D01*
X97515714Y-77573809D01*
X97515714Y-77811904D01*
X97468095Y-77907142D01*
X97420476Y-77954761D01*
X97325238Y-78002380D01*
X97087142Y-78002380D01*
X96991904Y-77954761D01*
X96944285Y-77907142D01*
%TO.C,G1L1*%
X211585875Y-53337487D02*
X211490637Y-53289867D01*
X211347780Y-53289867D01*
X211204923Y-53337487D01*
X211109685Y-53432725D01*
X211062066Y-53527963D01*
X211014447Y-53718439D01*
X211014447Y-53861296D01*
X211062066Y-54051772D01*
X211109685Y-54147010D01*
X211204923Y-54242248D01*
X211347780Y-54289867D01*
X211443018Y-54289867D01*
X211585875Y-54242248D01*
X211633494Y-54194629D01*
X211633494Y-53861296D01*
X211443018Y-53861296D01*
X212585875Y-54289867D02*
X212014447Y-54289867D01*
X212300161Y-54289867D02*
X212300161Y-53289867D01*
X212204923Y-53432725D01*
X212109685Y-53527963D01*
X212014447Y-53575582D01*
X213490637Y-54289867D02*
X213014447Y-54289867D01*
X213014447Y-53289867D01*
X214347780Y-54289867D02*
X213776352Y-54289867D01*
X214062066Y-54289867D02*
X214062066Y-53289867D01*
X213966828Y-53432725D01*
X213871590Y-53527963D01*
X213776352Y-53575582D01*
%TO.C,R6*%
X144063333Y-72462380D02*
X143730000Y-71986190D01*
X143491904Y-72462380D02*
X143491904Y-71462380D01*
X143872857Y-71462380D01*
X143968095Y-71510000D01*
X144015714Y-71557619D01*
X144063333Y-71652857D01*
X144063333Y-71795714D01*
X144015714Y-71890952D01*
X143968095Y-71938571D01*
X143872857Y-71986190D01*
X143491904Y-71986190D01*
X144920476Y-71462380D02*
X144730000Y-71462380D01*
X144634761Y-71510000D01*
X144587142Y-71557619D01*
X144491904Y-71700476D01*
X144444285Y-71890952D01*
X144444285Y-72271904D01*
X144491904Y-72367142D01*
X144539523Y-72414761D01*
X144634761Y-72462380D01*
X144825238Y-72462380D01*
X144920476Y-72414761D01*
X144968095Y-72367142D01*
X145015714Y-72271904D01*
X145015714Y-72033809D01*
X144968095Y-71938571D01*
X144920476Y-71890952D01*
X144825238Y-71843333D01*
X144634761Y-71843333D01*
X144539523Y-71890952D01*
X144491904Y-71938571D01*
X144444285Y-72033809D01*
%TO.C,U6*%
X193597380Y-132121904D02*
X194406904Y-132121904D01*
X194502142Y-132074285D01*
X194549761Y-132026666D01*
X194597380Y-131931428D01*
X194597380Y-131740952D01*
X194549761Y-131645714D01*
X194502142Y-131598095D01*
X194406904Y-131550476D01*
X193597380Y-131550476D01*
X193597380Y-130645714D02*
X193597380Y-130836190D01*
X193645000Y-130931428D01*
X193692619Y-130979047D01*
X193835476Y-131074285D01*
X194025952Y-131121904D01*
X194406904Y-131121904D01*
X194502142Y-131074285D01*
X194549761Y-131026666D01*
X194597380Y-130931428D01*
X194597380Y-130740952D01*
X194549761Y-130645714D01*
X194502142Y-130598095D01*
X194406904Y-130550476D01*
X194168809Y-130550476D01*
X194073571Y-130598095D01*
X194025952Y-130645714D01*
X193978333Y-130740952D01*
X193978333Y-130931428D01*
X194025952Y-131026666D01*
X194073571Y-131074285D01*
X194168809Y-131121904D01*
%TO.C,C10*%
X167587141Y-115387142D02*
X167539522Y-115434761D01*
X167396665Y-115482380D01*
X167301427Y-115482380D01*
X167158570Y-115434761D01*
X167063332Y-115339523D01*
X167015713Y-115244285D01*
X166968094Y-115053809D01*
X166968094Y-114910952D01*
X167015713Y-114720476D01*
X167063332Y-114625238D01*
X167158570Y-114530000D01*
X167301427Y-114482380D01*
X167396665Y-114482380D01*
X167539522Y-114530000D01*
X167587141Y-114577619D01*
X168539522Y-115482380D02*
X167968094Y-115482380D01*
X168253808Y-115482380D02*
X168253808Y-114482380D01*
X168158570Y-114625238D01*
X168063332Y-114720476D01*
X167968094Y-114768095D01*
X169158570Y-114482380D02*
X169253808Y-114482380D01*
X169349046Y-114530000D01*
X169396665Y-114577619D01*
X169444284Y-114672857D01*
X169491903Y-114863333D01*
X169491903Y-115101428D01*
X169444284Y-115291904D01*
X169396665Y-115387142D01*
X169349046Y-115434761D01*
X169253808Y-115482380D01*
X169158570Y-115482380D01*
X169063332Y-115434761D01*
X169015713Y-115387142D01*
X168968094Y-115291904D01*
X168920475Y-115101428D01*
X168920475Y-114863333D01*
X168968094Y-114672857D01*
X169015713Y-114577619D01*
X169063332Y-114530000D01*
X169158570Y-114482380D01*
%TO.C,G1M2*%
X208419209Y-48837487D02*
X208323971Y-48789867D01*
X208181114Y-48789867D01*
X208038256Y-48837487D01*
X207943018Y-48932725D01*
X207895399Y-49027963D01*
X207847780Y-49218439D01*
X207847780Y-49361296D01*
X207895399Y-49551772D01*
X207943018Y-49647010D01*
X208038256Y-49742248D01*
X208181114Y-49789867D01*
X208276352Y-49789867D01*
X208419209Y-49742248D01*
X208466828Y-49694629D01*
X208466828Y-49361296D01*
X208276352Y-49361296D01*
X209419209Y-49789867D02*
X208847780Y-49789867D01*
X209133494Y-49789867D02*
X209133494Y-48789867D01*
X209038256Y-48932725D01*
X208943018Y-49027963D01*
X208847780Y-49075582D01*
X209847780Y-49789867D02*
X209847780Y-48789867D01*
X210181114Y-49504153D01*
X210514447Y-48789867D01*
X210514447Y-49789867D01*
X210943018Y-48885106D02*
X210990637Y-48837487D01*
X211085875Y-48789867D01*
X211323971Y-48789867D01*
X211419209Y-48837487D01*
X211466828Y-48885106D01*
X211514447Y-48980344D01*
X211514447Y-49075582D01*
X211466828Y-49218439D01*
X210895399Y-49789867D01*
X211514447Y-49789867D01*
%TO.C,R4*%
X96563333Y-65202380D02*
X96230000Y-64726190D01*
X95991904Y-65202380D02*
X95991904Y-64202380D01*
X96372857Y-64202380D01*
X96468095Y-64250000D01*
X96515714Y-64297619D01*
X96563333Y-64392857D01*
X96563333Y-64535714D01*
X96515714Y-64630952D01*
X96468095Y-64678571D01*
X96372857Y-64726190D01*
X95991904Y-64726190D01*
X97420476Y-64535714D02*
X97420476Y-65202380D01*
X97182380Y-64154761D02*
X96944285Y-64869047D01*
X97563333Y-64869047D01*
%TO.C,D2*%
X103286904Y-88322380D02*
X103286904Y-87322380D01*
X103525000Y-87322380D01*
X103667857Y-87370000D01*
X103763095Y-87465238D01*
X103810714Y-87560476D01*
X103858333Y-87750952D01*
X103858333Y-87893809D01*
X103810714Y-88084285D01*
X103763095Y-88179523D01*
X103667857Y-88274761D01*
X103525000Y-88322380D01*
X103286904Y-88322380D01*
X104239285Y-87417619D02*
X104286904Y-87370000D01*
X104382142Y-87322380D01*
X104620238Y-87322380D01*
X104715476Y-87370000D01*
X104763095Y-87417619D01*
X104810714Y-87512857D01*
X104810714Y-87608095D01*
X104763095Y-87750952D01*
X104191666Y-88322380D01*
X104810714Y-88322380D01*
%TO.C,G4R2*%
X207839523Y-126282000D02*
X207744285Y-126234380D01*
X207601428Y-126234380D01*
X207458571Y-126282000D01*
X207363333Y-126377238D01*
X207315714Y-126472476D01*
X207268095Y-126662952D01*
X207268095Y-126805809D01*
X207315714Y-126996285D01*
X207363333Y-127091523D01*
X207458571Y-127186761D01*
X207601428Y-127234380D01*
X207696666Y-127234380D01*
X207839523Y-127186761D01*
X207887142Y-127139142D01*
X207887142Y-126805809D01*
X207696666Y-126805809D01*
X208744285Y-126567714D02*
X208744285Y-127234380D01*
X208506190Y-126186761D02*
X208268095Y-126901047D01*
X208887142Y-126901047D01*
X209839523Y-127234380D02*
X209506190Y-126758190D01*
X209268095Y-127234380D02*
X209268095Y-126234380D01*
X209649047Y-126234380D01*
X209744285Y-126282000D01*
X209791904Y-126329619D01*
X209839523Y-126424857D01*
X209839523Y-126567714D01*
X209791904Y-126662952D01*
X209744285Y-126710571D01*
X209649047Y-126758190D01*
X209268095Y-126758190D01*
X210220476Y-126329619D02*
X210268095Y-126282000D01*
X210363333Y-126234380D01*
X210601428Y-126234380D01*
X210696666Y-126282000D01*
X210744285Y-126329619D01*
X210791904Y-126424857D01*
X210791904Y-126520095D01*
X210744285Y-126662952D01*
X210172857Y-127234380D01*
X210791904Y-127234380D01*
%TO.C,PS1*%
X99890714Y-102047380D02*
X99890714Y-101047380D01*
X100271666Y-101047380D01*
X100366904Y-101095000D01*
X100414523Y-101142619D01*
X100462142Y-101237857D01*
X100462142Y-101380714D01*
X100414523Y-101475952D01*
X100366904Y-101523571D01*
X100271666Y-101571190D01*
X99890714Y-101571190D01*
X100843095Y-101999761D02*
X100985952Y-102047380D01*
X101224047Y-102047380D01*
X101319285Y-101999761D01*
X101366904Y-101952142D01*
X101414523Y-101856904D01*
X101414523Y-101761666D01*
X101366904Y-101666428D01*
X101319285Y-101618809D01*
X101224047Y-101571190D01*
X101033571Y-101523571D01*
X100938333Y-101475952D01*
X100890714Y-101428333D01*
X100843095Y-101333095D01*
X100843095Y-101237857D01*
X100890714Y-101142619D01*
X100938333Y-101095000D01*
X101033571Y-101047380D01*
X101271666Y-101047380D01*
X101414523Y-101095000D01*
X102366904Y-102047380D02*
X101795476Y-102047380D01*
X102081190Y-102047380D02*
X102081190Y-101047380D01*
X101985952Y-101190238D01*
X101890714Y-101285476D01*
X101795476Y-101333095D01*
%TO.C,D3*%
X103786904Y-48022380D02*
X103786904Y-47022380D01*
X104025000Y-47022380D01*
X104167857Y-47070000D01*
X104263095Y-47165238D01*
X104310714Y-47260476D01*
X104358333Y-47450952D01*
X104358333Y-47593809D01*
X104310714Y-47784285D01*
X104263095Y-47879523D01*
X104167857Y-47974761D01*
X104025000Y-48022380D01*
X103786904Y-48022380D01*
X104691666Y-47022380D02*
X105310714Y-47022380D01*
X104977380Y-47403333D01*
X105120238Y-47403333D01*
X105215476Y-47450952D01*
X105263095Y-47498571D01*
X105310714Y-47593809D01*
X105310714Y-47831904D01*
X105263095Y-47927142D01*
X105215476Y-47974761D01*
X105120238Y-48022380D01*
X104834523Y-48022380D01*
X104739285Y-47974761D01*
X104691666Y-47927142D01*
%TO.C,C12*%
X192912142Y-136487142D02*
X192864523Y-136534761D01*
X192721666Y-136582380D01*
X192626428Y-136582380D01*
X192483571Y-136534761D01*
X192388333Y-136439523D01*
X192340714Y-136344285D01*
X192293095Y-136153809D01*
X192293095Y-136010952D01*
X192340714Y-135820476D01*
X192388333Y-135725238D01*
X192483571Y-135630000D01*
X192626428Y-135582380D01*
X192721666Y-135582380D01*
X192864523Y-135630000D01*
X192912142Y-135677619D01*
X193864523Y-136582380D02*
X193293095Y-136582380D01*
X193578809Y-136582380D02*
X193578809Y-135582380D01*
X193483571Y-135725238D01*
X193388333Y-135820476D01*
X193293095Y-135868095D01*
X194245476Y-135677619D02*
X194293095Y-135630000D01*
X194388333Y-135582380D01*
X194626428Y-135582380D01*
X194721666Y-135630000D01*
X194769285Y-135677619D01*
X194816904Y-135772857D01*
X194816904Y-135868095D01*
X194769285Y-136010952D01*
X194197857Y-136582380D01*
X194816904Y-136582380D01*
%TO.C,U4*%
X190387380Y-48801904D02*
X191196904Y-48801904D01*
X191292142Y-48754285D01*
X191339761Y-48706666D01*
X191387380Y-48611428D01*
X191387380Y-48420952D01*
X191339761Y-48325714D01*
X191292142Y-48278095D01*
X191196904Y-48230476D01*
X190387380Y-48230476D01*
X190720714Y-47325714D02*
X191387380Y-47325714D01*
X190339761Y-47563809D02*
X191054047Y-47801904D01*
X191054047Y-47182857D01*
%TO.C,U7*%
X191387380Y-96501904D02*
X192196904Y-96501904D01*
X192292142Y-96454285D01*
X192339761Y-96406666D01*
X192387380Y-96311428D01*
X192387380Y-96120952D01*
X192339761Y-96025714D01*
X192292142Y-95978095D01*
X192196904Y-95930476D01*
X191387380Y-95930476D01*
X191387380Y-95549523D02*
X191387380Y-94882857D01*
X192387380Y-95311428D01*
%TO.C,RailB2*%
X144410952Y-134734380D02*
X144077619Y-134258190D01*
X143839523Y-134734380D02*
X143839523Y-133734380D01*
X144220476Y-133734380D01*
X144315714Y-133782000D01*
X144363333Y-133829619D01*
X144410952Y-133924857D01*
X144410952Y-134067714D01*
X144363333Y-134162952D01*
X144315714Y-134210571D01*
X144220476Y-134258190D01*
X143839523Y-134258190D01*
X145268095Y-134734380D02*
X145268095Y-134210571D01*
X145220476Y-134115333D01*
X145125238Y-134067714D01*
X144934761Y-134067714D01*
X144839523Y-134115333D01*
X145268095Y-134686761D02*
X145172857Y-134734380D01*
X144934761Y-134734380D01*
X144839523Y-134686761D01*
X144791904Y-134591523D01*
X144791904Y-134496285D01*
X144839523Y-134401047D01*
X144934761Y-134353428D01*
X145172857Y-134353428D01*
X145268095Y-134305809D01*
X145744285Y-134734380D02*
X145744285Y-134067714D01*
X145744285Y-133734380D02*
X145696666Y-133782000D01*
X145744285Y-133829619D01*
X145791904Y-133782000D01*
X145744285Y-133734380D01*
X145744285Y-133829619D01*
X146363333Y-134734380D02*
X146268095Y-134686761D01*
X146220476Y-134591523D01*
X146220476Y-133734380D01*
X147077619Y-134210571D02*
X147220476Y-134258190D01*
X147268095Y-134305809D01*
X147315714Y-134401047D01*
X147315714Y-134543904D01*
X147268095Y-134639142D01*
X147220476Y-134686761D01*
X147125238Y-134734380D01*
X146744285Y-134734380D01*
X146744285Y-133734380D01*
X147077619Y-133734380D01*
X147172857Y-133782000D01*
X147220476Y-133829619D01*
X147268095Y-133924857D01*
X147268095Y-134020095D01*
X147220476Y-134115333D01*
X147172857Y-134162952D01*
X147077619Y-134210571D01*
X146744285Y-134210571D01*
X147696666Y-133829619D02*
X147744285Y-133782000D01*
X147839523Y-133734380D01*
X148077619Y-133734380D01*
X148172857Y-133782000D01*
X148220476Y-133829619D01*
X148268095Y-133924857D01*
X148268095Y-134020095D01*
X148220476Y-134162952D01*
X147649047Y-134734380D01*
X148268095Y-134734380D01*
%TO.C,C13*%
X164097142Y-61767142D02*
X164049523Y-61814761D01*
X163906666Y-61862380D01*
X163811428Y-61862380D01*
X163668571Y-61814761D01*
X163573333Y-61719523D01*
X163525714Y-61624285D01*
X163478095Y-61433809D01*
X163478095Y-61290952D01*
X163525714Y-61100476D01*
X163573333Y-61005238D01*
X163668571Y-60910000D01*
X163811428Y-60862380D01*
X163906666Y-60862380D01*
X164049523Y-60910000D01*
X164097142Y-60957619D01*
X165049523Y-61862380D02*
X164478095Y-61862380D01*
X164763809Y-61862380D02*
X164763809Y-60862380D01*
X164668571Y-61005238D01*
X164573333Y-61100476D01*
X164478095Y-61148095D01*
X165382857Y-60862380D02*
X166001904Y-60862380D01*
X165668571Y-61243333D01*
X165811428Y-61243333D01*
X165906666Y-61290952D01*
X165954285Y-61338571D01*
X166001904Y-61433809D01*
X166001904Y-61671904D01*
X165954285Y-61767142D01*
X165906666Y-61814761D01*
X165811428Y-61862380D01*
X165525714Y-61862380D01*
X165430476Y-61814761D01*
X165382857Y-61767142D01*
%TO.C,G4R1*%
X210839523Y-126282000D02*
X210744285Y-126234380D01*
X210601428Y-126234380D01*
X210458571Y-126282000D01*
X210363333Y-126377238D01*
X210315714Y-126472476D01*
X210268095Y-126662952D01*
X210268095Y-126805809D01*
X210315714Y-126996285D01*
X210363333Y-127091523D01*
X210458571Y-127186761D01*
X210601428Y-127234380D01*
X210696666Y-127234380D01*
X210839523Y-127186761D01*
X210887142Y-127139142D01*
X210887142Y-126805809D01*
X210696666Y-126805809D01*
X211744285Y-126567714D02*
X211744285Y-127234380D01*
X211506190Y-126186761D02*
X211268095Y-126901047D01*
X211887142Y-126901047D01*
X212839523Y-127234380D02*
X212506190Y-126758190D01*
X212268095Y-127234380D02*
X212268095Y-126234380D01*
X212649047Y-126234380D01*
X212744285Y-126282000D01*
X212791904Y-126329619D01*
X212839523Y-126424857D01*
X212839523Y-126567714D01*
X212791904Y-126662952D01*
X212744285Y-126710571D01*
X212649047Y-126758190D01*
X212268095Y-126758190D01*
X213791904Y-127234380D02*
X213220476Y-127234380D01*
X213506190Y-127234380D02*
X213506190Y-126234380D01*
X213410952Y-126377238D01*
X213315714Y-126472476D01*
X213220476Y-126520095D01*
%TO.C,RailA2*%
X135532380Y-134684380D02*
X135199047Y-134208190D01*
X134960952Y-134684380D02*
X134960952Y-133684380D01*
X135341904Y-133684380D01*
X135437142Y-133732000D01*
X135484761Y-133779619D01*
X135532380Y-133874857D01*
X135532380Y-134017714D01*
X135484761Y-134112952D01*
X135437142Y-134160571D01*
X135341904Y-134208190D01*
X134960952Y-134208190D01*
X136389523Y-134684380D02*
X136389523Y-134160571D01*
X136341904Y-134065333D01*
X136246666Y-134017714D01*
X136056190Y-134017714D01*
X135960952Y-134065333D01*
X136389523Y-134636761D02*
X136294285Y-134684380D01*
X136056190Y-134684380D01*
X135960952Y-134636761D01*
X135913333Y-134541523D01*
X135913333Y-134446285D01*
X135960952Y-134351047D01*
X136056190Y-134303428D01*
X136294285Y-134303428D01*
X136389523Y-134255809D01*
X136865714Y-134684380D02*
X136865714Y-134017714D01*
X136865714Y-133684380D02*
X136818095Y-133732000D01*
X136865714Y-133779619D01*
X136913333Y-133732000D01*
X136865714Y-133684380D01*
X136865714Y-133779619D01*
X137484761Y-134684380D02*
X137389523Y-134636761D01*
X137341904Y-134541523D01*
X137341904Y-133684380D01*
X137818095Y-134398666D02*
X138294285Y-134398666D01*
X137722857Y-134684380D02*
X138056190Y-133684380D01*
X138389523Y-134684380D01*
X138675238Y-133779619D02*
X138722857Y-133732000D01*
X138818095Y-133684380D01*
X139056190Y-133684380D01*
X139151428Y-133732000D01*
X139199047Y-133779619D01*
X139246666Y-133874857D01*
X139246666Y-133970095D01*
X139199047Y-134112952D01*
X138627619Y-134684380D01*
X139246666Y-134684380D01*
D11*
%TO.C,J1*%
X81782666Y-97875523D02*
X81782666Y-98782666D01*
X81722190Y-98964095D01*
X81601238Y-99085047D01*
X81419809Y-99145523D01*
X81298857Y-99145523D01*
X83052666Y-99145523D02*
X82326952Y-99145523D01*
X82689809Y-99145523D02*
X82689809Y-97875523D01*
X82568857Y-98056952D01*
X82447904Y-98177904D01*
X82326952Y-98238380D01*
D10*
%TO.C,G2M2*%
X207868095Y-73081999D02*
X207772857Y-73034379D01*
X207630000Y-73034379D01*
X207487142Y-73081999D01*
X207391904Y-73177237D01*
X207344285Y-73272475D01*
X207296666Y-73462951D01*
X207296666Y-73605808D01*
X207344285Y-73796284D01*
X207391904Y-73891522D01*
X207487142Y-73986760D01*
X207630000Y-74034379D01*
X207725238Y-74034379D01*
X207868095Y-73986760D01*
X207915714Y-73939141D01*
X207915714Y-73605808D01*
X207725238Y-73605808D01*
X208296666Y-73129618D02*
X208344285Y-73081999D01*
X208439523Y-73034379D01*
X208677619Y-73034379D01*
X208772857Y-73081999D01*
X208820476Y-73129618D01*
X208868095Y-73224856D01*
X208868095Y-73320094D01*
X208820476Y-73462951D01*
X208249047Y-74034379D01*
X208868095Y-74034379D01*
X209296666Y-74034379D02*
X209296666Y-73034379D01*
X209630000Y-73748665D01*
X209963333Y-73034379D01*
X209963333Y-74034379D01*
X210391904Y-73129618D02*
X210439523Y-73081999D01*
X210534761Y-73034379D01*
X210772857Y-73034379D01*
X210868095Y-73081999D01*
X210915714Y-73129618D01*
X210963333Y-73224856D01*
X210963333Y-73320094D01*
X210915714Y-73462951D01*
X210344285Y-74034379D01*
X210963333Y-74034379D01*
%TO.C,D4*%
X103661904Y-60322380D02*
X103661904Y-59322380D01*
X103900000Y-59322380D01*
X104042857Y-59370000D01*
X104138095Y-59465238D01*
X104185714Y-59560476D01*
X104233333Y-59750952D01*
X104233333Y-59893809D01*
X104185714Y-60084285D01*
X104138095Y-60179523D01*
X104042857Y-60274761D01*
X103900000Y-60322380D01*
X103661904Y-60322380D01*
X105090476Y-59655714D02*
X105090476Y-60322380D01*
X104852380Y-59274761D02*
X104614285Y-59989047D01*
X105233333Y-59989047D01*
%TO.C,G3L2*%
X208285876Y-106837487D02*
X208190638Y-106789867D01*
X208047781Y-106789867D01*
X207904924Y-106837487D01*
X207809686Y-106932725D01*
X207762067Y-107027963D01*
X207714448Y-107218439D01*
X207714448Y-107361296D01*
X207762067Y-107551772D01*
X207809686Y-107647010D01*
X207904924Y-107742248D01*
X208047781Y-107789867D01*
X208143019Y-107789867D01*
X208285876Y-107742248D01*
X208333495Y-107694629D01*
X208333495Y-107361296D01*
X208143019Y-107361296D01*
X208666829Y-106789867D02*
X209285876Y-106789867D01*
X208952543Y-107170820D01*
X209095400Y-107170820D01*
X209190638Y-107218439D01*
X209238257Y-107266058D01*
X209285876Y-107361296D01*
X209285876Y-107599391D01*
X209238257Y-107694629D01*
X209190638Y-107742248D01*
X209095400Y-107789867D01*
X208809686Y-107789867D01*
X208714448Y-107742248D01*
X208666829Y-107694629D01*
X210190638Y-107789867D02*
X209714448Y-107789867D01*
X209714448Y-106789867D01*
X210476353Y-106885106D02*
X210523972Y-106837487D01*
X210619210Y-106789867D01*
X210857305Y-106789867D01*
X210952543Y-106837487D01*
X211000162Y-106885106D01*
X211047781Y-106980344D01*
X211047781Y-107075582D01*
X211000162Y-107218439D01*
X210428734Y-107789867D01*
X211047781Y-107789867D01*
D11*
%TO.C,IC1*%
X129590238Y-99104523D02*
X129590238Y-97834523D01*
X130920714Y-98983571D02*
X130860238Y-99044047D01*
X130678809Y-99104523D01*
X130557857Y-99104523D01*
X130376428Y-99044047D01*
X130255476Y-98923095D01*
X130195000Y-98802142D01*
X130134523Y-98560238D01*
X130134523Y-98378809D01*
X130195000Y-98136904D01*
X130255476Y-98015952D01*
X130376428Y-97895000D01*
X130557857Y-97834523D01*
X130678809Y-97834523D01*
X130860238Y-97895000D01*
X130920714Y-97955476D01*
X132130238Y-99104523D02*
X131404523Y-99104523D01*
X131767380Y-99104523D02*
X131767380Y-97834523D01*
X131646428Y-98015952D01*
X131525476Y-98136904D01*
X131404523Y-98197380D01*
D10*
%TO.C,G3M2*%
X208119210Y-102337487D02*
X208023972Y-102289867D01*
X207881115Y-102289867D01*
X207738257Y-102337487D01*
X207643019Y-102432725D01*
X207595400Y-102527963D01*
X207547781Y-102718439D01*
X207547781Y-102861296D01*
X207595400Y-103051772D01*
X207643019Y-103147010D01*
X207738257Y-103242248D01*
X207881115Y-103289867D01*
X207976353Y-103289867D01*
X208119210Y-103242248D01*
X208166829Y-103194629D01*
X208166829Y-102861296D01*
X207976353Y-102861296D01*
X208500162Y-102289867D02*
X209119210Y-102289867D01*
X208785876Y-102670820D01*
X208928734Y-102670820D01*
X209023972Y-102718439D01*
X209071591Y-102766058D01*
X209119210Y-102861296D01*
X209119210Y-103099391D01*
X209071591Y-103194629D01*
X209023972Y-103242248D01*
X208928734Y-103289867D01*
X208643019Y-103289867D01*
X208547781Y-103242248D01*
X208500162Y-103194629D01*
X209547781Y-103289867D02*
X209547781Y-102289867D01*
X209881115Y-103004153D01*
X210214448Y-102289867D01*
X210214448Y-103289867D01*
X210643019Y-102385106D02*
X210690638Y-102337487D01*
X210785876Y-102289867D01*
X211023972Y-102289867D01*
X211119210Y-102337487D01*
X211166829Y-102385106D01*
X211214448Y-102480344D01*
X211214448Y-102575582D01*
X211166829Y-102718439D01*
X210595400Y-103289867D01*
X211214448Y-103289867D01*
%TO.C,G1L2*%
X208585875Y-53337487D02*
X208490637Y-53289867D01*
X208347780Y-53289867D01*
X208204923Y-53337487D01*
X208109685Y-53432725D01*
X208062066Y-53527963D01*
X208014447Y-53718439D01*
X208014447Y-53861296D01*
X208062066Y-54051772D01*
X208109685Y-54147010D01*
X208204923Y-54242248D01*
X208347780Y-54289867D01*
X208443018Y-54289867D01*
X208585875Y-54242248D01*
X208633494Y-54194629D01*
X208633494Y-53861296D01*
X208443018Y-53861296D01*
X209585875Y-54289867D02*
X209014447Y-54289867D01*
X209300161Y-54289867D02*
X209300161Y-53289867D01*
X209204923Y-53432725D01*
X209109685Y-53527963D01*
X209014447Y-53575582D01*
X210490637Y-54289867D02*
X210014447Y-54289867D01*
X210014447Y-53289867D01*
X210776352Y-53385106D02*
X210823971Y-53337487D01*
X210919209Y-53289867D01*
X211157304Y-53289867D01*
X211252542Y-53337487D01*
X211300161Y-53385106D01*
X211347780Y-53480344D01*
X211347780Y-53575582D01*
X211300161Y-53718439D01*
X210728733Y-54289867D01*
X211347780Y-54289867D01*
%TO.C,C5*%
X193363333Y-81287142D02*
X193315714Y-81334761D01*
X193172857Y-81382380D01*
X193077619Y-81382380D01*
X192934761Y-81334761D01*
X192839523Y-81239523D01*
X192791904Y-81144285D01*
X192744285Y-80953809D01*
X192744285Y-80810952D01*
X192791904Y-80620476D01*
X192839523Y-80525238D01*
X192934761Y-80430000D01*
X193077619Y-80382380D01*
X193172857Y-80382380D01*
X193315714Y-80430000D01*
X193363333Y-80477619D01*
X194268095Y-80382380D02*
X193791904Y-80382380D01*
X193744285Y-80858571D01*
X193791904Y-80810952D01*
X193887142Y-80763333D01*
X194125238Y-80763333D01*
X194220476Y-80810952D01*
X194268095Y-80858571D01*
X194315714Y-80953809D01*
X194315714Y-81191904D01*
X194268095Y-81287142D01*
X194220476Y-81334761D01*
X194125238Y-81382380D01*
X193887142Y-81382380D01*
X193791904Y-81334761D01*
X193744285Y-81287142D01*
%TO.C,G4M2*%
X207768095Y-130782000D02*
X207672857Y-130734380D01*
X207530000Y-130734380D01*
X207387142Y-130782000D01*
X207291904Y-130877238D01*
X207244285Y-130972476D01*
X207196666Y-131162952D01*
X207196666Y-131305809D01*
X207244285Y-131496285D01*
X207291904Y-131591523D01*
X207387142Y-131686761D01*
X207530000Y-131734380D01*
X207625238Y-131734380D01*
X207768095Y-131686761D01*
X207815714Y-131639142D01*
X207815714Y-131305809D01*
X207625238Y-131305809D01*
X208672857Y-131067714D02*
X208672857Y-131734380D01*
X208434761Y-130686761D02*
X208196666Y-131401047D01*
X208815714Y-131401047D01*
X209196666Y-131734380D02*
X209196666Y-130734380D01*
X209530000Y-131448666D01*
X209863333Y-130734380D01*
X209863333Y-131734380D01*
X210291904Y-130829619D02*
X210339523Y-130782000D01*
X210434761Y-130734380D01*
X210672857Y-130734380D01*
X210768095Y-130782000D01*
X210815714Y-130829619D01*
X210863333Y-130924857D01*
X210863333Y-131020095D01*
X210815714Y-131162952D01*
X210244285Y-131734380D01*
X210863333Y-131734380D01*
%TO.C,U3*%
X194537380Y-80051904D02*
X195346904Y-80051904D01*
X195442142Y-80004285D01*
X195489761Y-79956666D01*
X195537380Y-79861428D01*
X195537380Y-79670952D01*
X195489761Y-79575714D01*
X195442142Y-79528095D01*
X195346904Y-79480476D01*
X194537380Y-79480476D01*
X194537380Y-79099523D02*
X194537380Y-78480476D01*
X194918333Y-78813809D01*
X194918333Y-78670952D01*
X194965952Y-78575714D01*
X195013571Y-78528095D01*
X195108809Y-78480476D01*
X195346904Y-78480476D01*
X195442142Y-78528095D01*
X195489761Y-78575714D01*
X195537380Y-78670952D01*
X195537380Y-78956666D01*
X195489761Y-79051904D01*
X195442142Y-79099523D01*
%TO.C,C9*%
X164573332Y-46067142D02*
X164525713Y-46114761D01*
X164382856Y-46162380D01*
X164287618Y-46162380D01*
X164144760Y-46114761D01*
X164049522Y-46019523D01*
X164001903Y-45924285D01*
X163954284Y-45733809D01*
X163954284Y-45590952D01*
X164001903Y-45400476D01*
X164049522Y-45305238D01*
X164144760Y-45210000D01*
X164287618Y-45162380D01*
X164382856Y-45162380D01*
X164525713Y-45210000D01*
X164573332Y-45257619D01*
X165049522Y-46162380D02*
X165239999Y-46162380D01*
X165335237Y-46114761D01*
X165382856Y-46067142D01*
X165478094Y-45924285D01*
X165525713Y-45733809D01*
X165525713Y-45352857D01*
X165478094Y-45257619D01*
X165430475Y-45210000D01*
X165335237Y-45162380D01*
X165144760Y-45162380D01*
X165049522Y-45210000D01*
X165001903Y-45257619D01*
X164954284Y-45352857D01*
X164954284Y-45590952D01*
X165001903Y-45686190D01*
X165049522Y-45733809D01*
X165144760Y-45781428D01*
X165335237Y-45781428D01*
X165430475Y-45733809D01*
X165478094Y-45686190D01*
X165525713Y-45590952D01*
%TO.C,G3M1*%
X211119210Y-102337487D02*
X211023972Y-102289867D01*
X210881115Y-102289867D01*
X210738257Y-102337487D01*
X210643019Y-102432725D01*
X210595400Y-102527963D01*
X210547781Y-102718439D01*
X210547781Y-102861296D01*
X210595400Y-103051772D01*
X210643019Y-103147010D01*
X210738257Y-103242248D01*
X210881115Y-103289867D01*
X210976353Y-103289867D01*
X211119210Y-103242248D01*
X211166829Y-103194629D01*
X211166829Y-102861296D01*
X210976353Y-102861296D01*
X211500162Y-102289867D02*
X212119210Y-102289867D01*
X211785876Y-102670820D01*
X211928734Y-102670820D01*
X212023972Y-102718439D01*
X212071591Y-102766058D01*
X212119210Y-102861296D01*
X212119210Y-103099391D01*
X212071591Y-103194629D01*
X212023972Y-103242248D01*
X211928734Y-103289867D01*
X211643019Y-103289867D01*
X211547781Y-103242248D01*
X211500162Y-103194629D01*
X212547781Y-103289867D02*
X212547781Y-102289867D01*
X212881115Y-103004153D01*
X213214448Y-102289867D01*
X213214448Y-103289867D01*
X214214448Y-103289867D02*
X213643019Y-103289867D01*
X213928734Y-103289867D02*
X213928734Y-102289867D01*
X213833495Y-102432725D01*
X213738257Y-102527963D01*
X213643019Y-102575582D01*
%TO.C,G1R2*%
X211540637Y-44337487D02*
X211445399Y-44289867D01*
X211302542Y-44289867D01*
X211159685Y-44337487D01*
X211064447Y-44432725D01*
X211016828Y-44527963D01*
X210969209Y-44718439D01*
X210969209Y-44861296D01*
X211016828Y-45051772D01*
X211064447Y-45147010D01*
X211159685Y-45242248D01*
X211302542Y-45289867D01*
X211397780Y-45289867D01*
X211540637Y-45242248D01*
X211588256Y-45194629D01*
X211588256Y-44861296D01*
X211397780Y-44861296D01*
X212540637Y-45289867D02*
X211969209Y-45289867D01*
X212254923Y-45289867D02*
X212254923Y-44289867D01*
X212159685Y-44432725D01*
X212064447Y-44527963D01*
X211969209Y-44575582D01*
X213540637Y-45289867D02*
X213207304Y-44813677D01*
X212969209Y-45289867D02*
X212969209Y-44289867D01*
X213350161Y-44289867D01*
X213445399Y-44337487D01*
X213493018Y-44385106D01*
X213540637Y-44480344D01*
X213540637Y-44623201D01*
X213493018Y-44718439D01*
X213445399Y-44766058D01*
X213350161Y-44813677D01*
X212969209Y-44813677D01*
X213921590Y-44385106D02*
X213969209Y-44337487D01*
X214064447Y-44289867D01*
X214302542Y-44289867D01*
X214397780Y-44337487D01*
X214445399Y-44385106D01*
X214493018Y-44480344D01*
X214493018Y-44575582D01*
X214445399Y-44718439D01*
X213873971Y-45289867D01*
X214493018Y-45289867D01*
%TO.C,C14*%
X167087142Y-94887142D02*
X167039523Y-94934761D01*
X166896666Y-94982380D01*
X166801428Y-94982380D01*
X166658571Y-94934761D01*
X166563333Y-94839523D01*
X166515714Y-94744285D01*
X166468095Y-94553809D01*
X166468095Y-94410952D01*
X166515714Y-94220476D01*
X166563333Y-94125238D01*
X166658571Y-94030000D01*
X166801428Y-93982380D01*
X166896666Y-93982380D01*
X167039523Y-94030000D01*
X167087142Y-94077619D01*
X168039523Y-94982380D02*
X167468095Y-94982380D01*
X167753809Y-94982380D02*
X167753809Y-93982380D01*
X167658571Y-94125238D01*
X167563333Y-94220476D01*
X167468095Y-94268095D01*
X168896666Y-94315714D02*
X168896666Y-94982380D01*
X168658571Y-93934761D02*
X168420476Y-94649047D01*
X169039523Y-94649047D01*
%TO.C,R1*%
X111963333Y-95762380D02*
X111630000Y-95286190D01*
X111391904Y-95762380D02*
X111391904Y-94762380D01*
X111772857Y-94762380D01*
X111868095Y-94810000D01*
X111915714Y-94857619D01*
X111963333Y-94952857D01*
X111963333Y-95095714D01*
X111915714Y-95190952D01*
X111868095Y-95238571D01*
X111772857Y-95286190D01*
X111391904Y-95286190D01*
X112915714Y-95762380D02*
X112344285Y-95762380D01*
X112630000Y-95762380D02*
X112630000Y-94762380D01*
X112534761Y-94905238D01*
X112439523Y-95000476D01*
X112344285Y-95048095D01*
%TO.C,C8*%
X168488333Y-133987142D02*
X168440714Y-134034761D01*
X168297857Y-134082380D01*
X168202619Y-134082380D01*
X168059761Y-134034761D01*
X167964523Y-133939523D01*
X167916904Y-133844285D01*
X167869285Y-133653809D01*
X167869285Y-133510952D01*
X167916904Y-133320476D01*
X167964523Y-133225238D01*
X168059761Y-133130000D01*
X168202619Y-133082380D01*
X168297857Y-133082380D01*
X168440714Y-133130000D01*
X168488333Y-133177619D01*
X169059761Y-133510952D02*
X168964523Y-133463333D01*
X168916904Y-133415714D01*
X168869285Y-133320476D01*
X168869285Y-133272857D01*
X168916904Y-133177619D01*
X168964523Y-133130000D01*
X169059761Y-133082380D01*
X169250238Y-133082380D01*
X169345476Y-133130000D01*
X169393095Y-133177619D01*
X169440714Y-133272857D01*
X169440714Y-133320476D01*
X169393095Y-133415714D01*
X169345476Y-133463333D01*
X169250238Y-133510952D01*
X169059761Y-133510952D01*
X168964523Y-133558571D01*
X168916904Y-133606190D01*
X168869285Y-133701428D01*
X168869285Y-133891904D01*
X168916904Y-133987142D01*
X168964523Y-134034761D01*
X169059761Y-134082380D01*
X169250238Y-134082380D01*
X169345476Y-134034761D01*
X169393095Y-133987142D01*
X169440714Y-133891904D01*
X169440714Y-133701428D01*
X169393095Y-133606190D01*
X169345476Y-133558571D01*
X169250238Y-133510952D01*
%TO.C,G3R1*%
X211190638Y-97837487D02*
X211095400Y-97789867D01*
X210952543Y-97789867D01*
X210809686Y-97837487D01*
X210714448Y-97932725D01*
X210666829Y-98027963D01*
X210619210Y-98218439D01*
X210619210Y-98361296D01*
X210666829Y-98551772D01*
X210714448Y-98647010D01*
X210809686Y-98742248D01*
X210952543Y-98789867D01*
X211047781Y-98789867D01*
X211190638Y-98742248D01*
X211238257Y-98694629D01*
X211238257Y-98361296D01*
X211047781Y-98361296D01*
X211571591Y-97789867D02*
X212190638Y-97789867D01*
X211857305Y-98170820D01*
X212000162Y-98170820D01*
X212095400Y-98218439D01*
X212143019Y-98266058D01*
X212190638Y-98361296D01*
X212190638Y-98599391D01*
X212143019Y-98694629D01*
X212095400Y-98742248D01*
X212000162Y-98789867D01*
X211714448Y-98789867D01*
X211619210Y-98742248D01*
X211571591Y-98694629D01*
X213190638Y-98789867D02*
X212857305Y-98313677D01*
X212619210Y-98789867D02*
X212619210Y-97789867D01*
X213000162Y-97789867D01*
X213095400Y-97837487D01*
X213143019Y-97885106D01*
X213190638Y-97980344D01*
X213190638Y-98123201D01*
X213143019Y-98218439D01*
X213095400Y-98266058D01*
X213000162Y-98313677D01*
X212619210Y-98313677D01*
X214143019Y-98789867D02*
X213571591Y-98789867D01*
X213857305Y-98789867D02*
X213857305Y-97789867D01*
X213762067Y-97932725D01*
X213666829Y-98027963D01*
X213571591Y-98075582D01*
%TO.C,G3L1*%
X211285876Y-106837487D02*
X211190638Y-106789867D01*
X211047781Y-106789867D01*
X210904924Y-106837487D01*
X210809686Y-106932725D01*
X210762067Y-107027963D01*
X210714448Y-107218439D01*
X210714448Y-107361296D01*
X210762067Y-107551772D01*
X210809686Y-107647010D01*
X210904924Y-107742248D01*
X211047781Y-107789867D01*
X211143019Y-107789867D01*
X211285876Y-107742248D01*
X211333495Y-107694629D01*
X211333495Y-107361296D01*
X211143019Y-107361296D01*
X211666829Y-106789867D02*
X212285876Y-106789867D01*
X211952543Y-107170820D01*
X212095400Y-107170820D01*
X212190638Y-107218439D01*
X212238257Y-107266058D01*
X212285876Y-107361296D01*
X212285876Y-107599391D01*
X212238257Y-107694629D01*
X212190638Y-107742248D01*
X212095400Y-107789867D01*
X211809686Y-107789867D01*
X211714448Y-107742248D01*
X211666829Y-107694629D01*
X213190638Y-107789867D02*
X212714448Y-107789867D01*
X212714448Y-106789867D01*
X214047781Y-107789867D02*
X213476353Y-107789867D01*
X213762067Y-107789867D02*
X213762067Y-106789867D01*
X213666829Y-106932725D01*
X213571591Y-107027963D01*
X213476353Y-107075582D01*
%TO.C,U8*%
X192743095Y-112782380D02*
X192743095Y-113591904D01*
X192790714Y-113687142D01*
X192838333Y-113734761D01*
X192933571Y-113782380D01*
X193124047Y-113782380D01*
X193219285Y-113734761D01*
X193266904Y-113687142D01*
X193314523Y-113591904D01*
X193314523Y-112782380D01*
X193933571Y-113210952D02*
X193838333Y-113163333D01*
X193790714Y-113115714D01*
X193743095Y-113020476D01*
X193743095Y-112972857D01*
X193790714Y-112877619D01*
X193838333Y-112830000D01*
X193933571Y-112782380D01*
X194124047Y-112782380D01*
X194219285Y-112830000D01*
X194266904Y-112877619D01*
X194314523Y-112972857D01*
X194314523Y-113020476D01*
X194266904Y-113115714D01*
X194219285Y-113163333D01*
X194124047Y-113210952D01*
X193933571Y-113210952D01*
X193838333Y-113258571D01*
X193790714Y-113306190D01*
X193743095Y-113401428D01*
X193743095Y-113591904D01*
X193790714Y-113687142D01*
X193838333Y-113734761D01*
X193933571Y-113782380D01*
X194124047Y-113782380D01*
X194219285Y-113734761D01*
X194266904Y-113687142D01*
X194314523Y-113591904D01*
X194314523Y-113401428D01*
X194266904Y-113306190D01*
X194219285Y-113258571D01*
X194124047Y-113210952D01*
%TO.C,RailA1*%
X135582380Y-131584380D02*
X135249047Y-131108190D01*
X135010952Y-131584380D02*
X135010952Y-130584380D01*
X135391904Y-130584380D01*
X135487142Y-130632000D01*
X135534761Y-130679619D01*
X135582380Y-130774857D01*
X135582380Y-130917714D01*
X135534761Y-131012952D01*
X135487142Y-131060571D01*
X135391904Y-131108190D01*
X135010952Y-131108190D01*
X136439523Y-131584380D02*
X136439523Y-131060571D01*
X136391904Y-130965333D01*
X136296666Y-130917714D01*
X136106190Y-130917714D01*
X136010952Y-130965333D01*
X136439523Y-131536761D02*
X136344285Y-131584380D01*
X136106190Y-131584380D01*
X136010952Y-131536761D01*
X135963333Y-131441523D01*
X135963333Y-131346285D01*
X136010952Y-131251047D01*
X136106190Y-131203428D01*
X136344285Y-131203428D01*
X136439523Y-131155809D01*
X136915714Y-131584380D02*
X136915714Y-130917714D01*
X136915714Y-130584380D02*
X136868095Y-130632000D01*
X136915714Y-130679619D01*
X136963333Y-130632000D01*
X136915714Y-130584380D01*
X136915714Y-130679619D01*
X137534761Y-131584380D02*
X137439523Y-131536761D01*
X137391904Y-131441523D01*
X137391904Y-130584380D01*
X137868095Y-131298666D02*
X138344285Y-131298666D01*
X137772857Y-131584380D02*
X138106190Y-130584380D01*
X138439523Y-131584380D01*
X139296666Y-131584380D02*
X138725238Y-131584380D01*
X139010952Y-131584380D02*
X139010952Y-130584380D01*
X138915714Y-130727238D01*
X138820476Y-130822476D01*
X138725238Y-130870095D01*
%TO.C,D6*%
X140032380Y-74653095D02*
X139032380Y-74653095D01*
X139032380Y-74415000D01*
X139080000Y-74272142D01*
X139175238Y-74176904D01*
X139270476Y-74129285D01*
X139460952Y-74081666D01*
X139603809Y-74081666D01*
X139794285Y-74129285D01*
X139889523Y-74176904D01*
X139984761Y-74272142D01*
X140032380Y-74415000D01*
X140032380Y-74653095D01*
X139032380Y-73224523D02*
X139032380Y-73415000D01*
X139080000Y-73510238D01*
X139127619Y-73557857D01*
X139270476Y-73653095D01*
X139460952Y-73700714D01*
X139841904Y-73700714D01*
X139937142Y-73653095D01*
X139984761Y-73605476D01*
X140032380Y-73510238D01*
X140032380Y-73319761D01*
X139984761Y-73224523D01*
X139937142Y-73176904D01*
X139841904Y-73129285D01*
X139603809Y-73129285D01*
X139508571Y-73176904D01*
X139460952Y-73224523D01*
X139413333Y-73319761D01*
X139413333Y-73510238D01*
X139460952Y-73605476D01*
X139508571Y-73653095D01*
X139603809Y-73700714D01*
%TO.C,G1R1*%
X208490637Y-44337487D02*
X208395399Y-44289867D01*
X208252542Y-44289867D01*
X208109685Y-44337487D01*
X208014447Y-44432725D01*
X207966828Y-44527963D01*
X207919209Y-44718439D01*
X207919209Y-44861296D01*
X207966828Y-45051772D01*
X208014447Y-45147010D01*
X208109685Y-45242248D01*
X208252542Y-45289867D01*
X208347780Y-45289867D01*
X208490637Y-45242248D01*
X208538256Y-45194629D01*
X208538256Y-44861296D01*
X208347780Y-44861296D01*
X209490637Y-45289867D02*
X208919209Y-45289867D01*
X209204923Y-45289867D02*
X209204923Y-44289867D01*
X209109685Y-44432725D01*
X209014447Y-44527963D01*
X208919209Y-44575582D01*
X210490637Y-45289867D02*
X210157304Y-44813677D01*
X209919209Y-45289867D02*
X209919209Y-44289867D01*
X210300161Y-44289867D01*
X210395399Y-44337487D01*
X210443018Y-44385106D01*
X210490637Y-44480344D01*
X210490637Y-44623201D01*
X210443018Y-44718439D01*
X210395399Y-44766058D01*
X210300161Y-44813677D01*
X209919209Y-44813677D01*
X211443018Y-45289867D02*
X210871590Y-45289867D01*
X211157304Y-45289867D02*
X211157304Y-44289867D01*
X211062066Y-44432725D01*
X210966828Y-44527963D01*
X210871590Y-44575582D01*
%TO.C,G2M1*%
X210868095Y-73081999D02*
X210772857Y-73034379D01*
X210630000Y-73034379D01*
X210487142Y-73081999D01*
X210391904Y-73177237D01*
X210344285Y-73272475D01*
X210296666Y-73462951D01*
X210296666Y-73605808D01*
X210344285Y-73796284D01*
X210391904Y-73891522D01*
X210487142Y-73986760D01*
X210630000Y-74034379D01*
X210725238Y-74034379D01*
X210868095Y-73986760D01*
X210915714Y-73939141D01*
X210915714Y-73605808D01*
X210725238Y-73605808D01*
X211296666Y-73129618D02*
X211344285Y-73081999D01*
X211439523Y-73034379D01*
X211677619Y-73034379D01*
X211772857Y-73081999D01*
X211820476Y-73129618D01*
X211868095Y-73224856D01*
X211868095Y-73320094D01*
X211820476Y-73462951D01*
X211249047Y-74034379D01*
X211868095Y-74034379D01*
X212296666Y-74034379D02*
X212296666Y-73034379D01*
X212630000Y-73748665D01*
X212963333Y-73034379D01*
X212963333Y-74034379D01*
X213963333Y-74034379D02*
X213391904Y-74034379D01*
X213677619Y-74034379D02*
X213677619Y-73034379D01*
X213582380Y-73177237D01*
X213487142Y-73272475D01*
X213391904Y-73320094D01*
%TO.C,C6*%
X193613333Y-97787142D02*
X193565714Y-97834761D01*
X193422857Y-97882380D01*
X193327619Y-97882380D01*
X193184761Y-97834761D01*
X193089523Y-97739523D01*
X193041904Y-97644285D01*
X192994285Y-97453809D01*
X192994285Y-97310952D01*
X193041904Y-97120476D01*
X193089523Y-97025238D01*
X193184761Y-96930000D01*
X193327619Y-96882380D01*
X193422857Y-96882380D01*
X193565714Y-96930000D01*
X193613333Y-96977619D01*
X194470476Y-96882380D02*
X194280000Y-96882380D01*
X194184761Y-96930000D01*
X194137142Y-96977619D01*
X194041904Y-97120476D01*
X193994285Y-97310952D01*
X193994285Y-97691904D01*
X194041904Y-97787142D01*
X194089523Y-97834761D01*
X194184761Y-97882380D01*
X194375238Y-97882380D01*
X194470476Y-97834761D01*
X194518095Y-97787142D01*
X194565714Y-97691904D01*
X194565714Y-97453809D01*
X194518095Y-97358571D01*
X194470476Y-97310952D01*
X194375238Y-97263333D01*
X194184761Y-97263333D01*
X194089523Y-97310952D01*
X194041904Y-97358571D01*
X193994285Y-97453809D01*
%TO.C,C4*%
X104463333Y-116787142D02*
X104415714Y-116834761D01*
X104272857Y-116882380D01*
X104177619Y-116882380D01*
X104034761Y-116834761D01*
X103939523Y-116739523D01*
X103891904Y-116644285D01*
X103844285Y-116453809D01*
X103844285Y-116310952D01*
X103891904Y-116120476D01*
X103939523Y-116025238D01*
X104034761Y-115930000D01*
X104177619Y-115882380D01*
X104272857Y-115882380D01*
X104415714Y-115930000D01*
X104463333Y-115977619D01*
X105320476Y-116215714D02*
X105320476Y-116882380D01*
X105082380Y-115834761D02*
X104844285Y-116549047D01*
X105463333Y-116549047D01*
%TO.C,C15*%
X151917142Y-122572857D02*
X151964761Y-122620476D01*
X152012380Y-122763333D01*
X152012380Y-122858571D01*
X151964761Y-123001428D01*
X151869523Y-123096666D01*
X151774285Y-123144285D01*
X151583809Y-123191904D01*
X151440952Y-123191904D01*
X151250476Y-123144285D01*
X151155238Y-123096666D01*
X151060000Y-123001428D01*
X151012380Y-122858571D01*
X151012380Y-122763333D01*
X151060000Y-122620476D01*
X151107619Y-122572857D01*
X152012380Y-121620476D02*
X152012380Y-122191904D01*
X152012380Y-121906190D02*
X151012380Y-121906190D01*
X151155238Y-122001428D01*
X151250476Y-122096666D01*
X151298095Y-122191904D01*
X151012380Y-120715714D02*
X151012380Y-121191904D01*
X151488571Y-121239523D01*
X151440952Y-121191904D01*
X151393333Y-121096666D01*
X151393333Y-120858571D01*
X151440952Y-120763333D01*
X151488571Y-120715714D01*
X151583809Y-120668095D01*
X151821904Y-120668095D01*
X151917142Y-120715714D01*
X151964761Y-120763333D01*
X152012380Y-120858571D01*
X152012380Y-121096666D01*
X151964761Y-121191904D01*
X151917142Y-121239523D01*
%TO.C,G4M1*%
X210768095Y-130782000D02*
X210672857Y-130734380D01*
X210530000Y-130734380D01*
X210387142Y-130782000D01*
X210291904Y-130877238D01*
X210244285Y-130972476D01*
X210196666Y-131162952D01*
X210196666Y-131305809D01*
X210244285Y-131496285D01*
X210291904Y-131591523D01*
X210387142Y-131686761D01*
X210530000Y-131734380D01*
X210625238Y-131734380D01*
X210768095Y-131686761D01*
X210815714Y-131639142D01*
X210815714Y-131305809D01*
X210625238Y-131305809D01*
X211672857Y-131067714D02*
X211672857Y-131734380D01*
X211434761Y-130686761D02*
X211196666Y-131401047D01*
X211815714Y-131401047D01*
X212196666Y-131734380D02*
X212196666Y-130734380D01*
X212530000Y-131448666D01*
X212863333Y-130734380D01*
X212863333Y-131734380D01*
X213863333Y-131734380D02*
X213291904Y-131734380D01*
X213577619Y-131734380D02*
X213577619Y-130734380D01*
X213482380Y-130877238D01*
X213387142Y-130972476D01*
X213291904Y-131020095D01*
%TO.C,G2R1*%
X210889523Y-68531999D02*
X210794285Y-68484379D01*
X210651428Y-68484379D01*
X210508571Y-68531999D01*
X210413333Y-68627237D01*
X210365714Y-68722475D01*
X210318095Y-68912951D01*
X210318095Y-69055808D01*
X210365714Y-69246284D01*
X210413333Y-69341522D01*
X210508571Y-69436760D01*
X210651428Y-69484379D01*
X210746666Y-69484379D01*
X210889523Y-69436760D01*
X210937142Y-69389141D01*
X210937142Y-69055808D01*
X210746666Y-69055808D01*
X211318095Y-68579618D02*
X211365714Y-68531999D01*
X211460952Y-68484379D01*
X211699047Y-68484379D01*
X211794285Y-68531999D01*
X211841904Y-68579618D01*
X211889523Y-68674856D01*
X211889523Y-68770094D01*
X211841904Y-68912951D01*
X211270476Y-69484379D01*
X211889523Y-69484379D01*
X212889523Y-69484379D02*
X212556190Y-69008189D01*
X212318095Y-69484379D02*
X212318095Y-68484379D01*
X212699047Y-68484379D01*
X212794285Y-68531999D01*
X212841904Y-68579618D01*
X212889523Y-68674856D01*
X212889523Y-68817713D01*
X212841904Y-68912951D01*
X212794285Y-68960570D01*
X212699047Y-69008189D01*
X212318095Y-69008189D01*
X213841904Y-69484379D02*
X213270476Y-69484379D01*
X213556190Y-69484379D02*
X213556190Y-68484379D01*
X213460952Y-68627237D01*
X213365714Y-68722475D01*
X213270476Y-68770094D01*
%TO.C,C11*%
X190097142Y-64267142D02*
X190049523Y-64314761D01*
X189906666Y-64362380D01*
X189811428Y-64362380D01*
X189668571Y-64314761D01*
X189573333Y-64219523D01*
X189525714Y-64124285D01*
X189478095Y-63933809D01*
X189478095Y-63790952D01*
X189525714Y-63600476D01*
X189573333Y-63505238D01*
X189668571Y-63410000D01*
X189811428Y-63362380D01*
X189906666Y-63362380D01*
X190049523Y-63410000D01*
X190097142Y-63457619D01*
X191049523Y-64362380D02*
X190478095Y-64362380D01*
X190763809Y-64362380D02*
X190763809Y-63362380D01*
X190668571Y-63505238D01*
X190573333Y-63600476D01*
X190478095Y-63648095D01*
X192001904Y-64362380D02*
X191430476Y-64362380D01*
X191716190Y-64362380D02*
X191716190Y-63362380D01*
X191620952Y-63505238D01*
X191525714Y-63600476D01*
X191430476Y-63648095D01*
%TO.C,R3*%
X96563333Y-52802380D02*
X96230000Y-52326190D01*
X95991904Y-52802380D02*
X95991904Y-51802380D01*
X96372857Y-51802380D01*
X96468095Y-51850000D01*
X96515714Y-51897619D01*
X96563333Y-51992857D01*
X96563333Y-52135714D01*
X96515714Y-52230952D01*
X96468095Y-52278571D01*
X96372857Y-52326190D01*
X95991904Y-52326190D01*
X96896666Y-51802380D02*
X97515714Y-51802380D01*
X97182380Y-52183333D01*
X97325238Y-52183333D01*
X97420476Y-52230952D01*
X97468095Y-52278571D01*
X97515714Y-52373809D01*
X97515714Y-52611904D01*
X97468095Y-52707142D01*
X97420476Y-52754761D01*
X97325238Y-52802380D01*
X97039523Y-52802380D01*
X96944285Y-52754761D01*
X96896666Y-52707142D01*
%TO.C,C1*%
X100631010Y-125737142D02*
X100583391Y-125784761D01*
X100440534Y-125832380D01*
X100345296Y-125832380D01*
X100202438Y-125784761D01*
X100107200Y-125689523D01*
X100059581Y-125594285D01*
X100011962Y-125403809D01*
X100011962Y-125260952D01*
X100059581Y-125070476D01*
X100107200Y-124975238D01*
X100202438Y-124880000D01*
X100345296Y-124832380D01*
X100440534Y-124832380D01*
X100583391Y-124880000D01*
X100631010Y-124927619D01*
X101583391Y-125832380D02*
X101011962Y-125832380D01*
X101297677Y-125832380D02*
X101297677Y-124832380D01*
X101202438Y-124975238D01*
X101107200Y-125070476D01*
X101011962Y-125118095D01*
%TO.C,C7*%
X190473333Y-48567142D02*
X190425714Y-48614761D01*
X190282857Y-48662380D01*
X190187619Y-48662380D01*
X190044761Y-48614761D01*
X189949523Y-48519523D01*
X189901904Y-48424285D01*
X189854285Y-48233809D01*
X189854285Y-48090952D01*
X189901904Y-47900476D01*
X189949523Y-47805238D01*
X190044761Y-47710000D01*
X190187619Y-47662380D01*
X190282857Y-47662380D01*
X190425714Y-47710000D01*
X190473333Y-47757619D01*
X190806666Y-47662380D02*
X191473333Y-47662380D01*
X191044761Y-48662380D01*
%TO.C,G3R2*%
X208190638Y-97837487D02*
X208095400Y-97789867D01*
X207952543Y-97789867D01*
X207809686Y-97837487D01*
X207714448Y-97932725D01*
X207666829Y-98027963D01*
X207619210Y-98218439D01*
X207619210Y-98361296D01*
X207666829Y-98551772D01*
X207714448Y-98647010D01*
X207809686Y-98742248D01*
X207952543Y-98789867D01*
X208047781Y-98789867D01*
X208190638Y-98742248D01*
X208238257Y-98694629D01*
X208238257Y-98361296D01*
X208047781Y-98361296D01*
X208571591Y-97789867D02*
X209190638Y-97789867D01*
X208857305Y-98170820D01*
X209000162Y-98170820D01*
X209095400Y-98218439D01*
X209143019Y-98266058D01*
X209190638Y-98361296D01*
X209190638Y-98599391D01*
X209143019Y-98694629D01*
X209095400Y-98742248D01*
X209000162Y-98789867D01*
X208714448Y-98789867D01*
X208619210Y-98742248D01*
X208571591Y-98694629D01*
X210190638Y-98789867D02*
X209857305Y-98313677D01*
X209619210Y-98789867D02*
X209619210Y-97789867D01*
X210000162Y-97789867D01*
X210095400Y-97837487D01*
X210143019Y-97885106D01*
X210190638Y-97980344D01*
X210190638Y-98123201D01*
X210143019Y-98218439D01*
X210095400Y-98266058D01*
X210000162Y-98313677D01*
X209619210Y-98313677D01*
X210571591Y-97885106D02*
X210619210Y-97837487D01*
X210714448Y-97789867D01*
X210952543Y-97789867D01*
X211047781Y-97837487D01*
X211095400Y-97885106D01*
X211143019Y-97980344D01*
X211143019Y-98075582D01*
X211095400Y-98218439D01*
X210523972Y-98789867D01*
X211143019Y-98789867D01*
%TO.C,G4L2*%
X207934761Y-139628000D02*
X207839523Y-139580380D01*
X207696666Y-139580380D01*
X207553809Y-139628000D01*
X207458571Y-139723238D01*
X207410952Y-139818476D01*
X207363333Y-140008952D01*
X207363333Y-140151809D01*
X207410952Y-140342285D01*
X207458571Y-140437523D01*
X207553809Y-140532761D01*
X207696666Y-140580380D01*
X207791904Y-140580380D01*
X207934761Y-140532761D01*
X207982380Y-140485142D01*
X207982380Y-140151809D01*
X207791904Y-140151809D01*
X208839523Y-139913714D02*
X208839523Y-140580380D01*
X208601428Y-139532761D02*
X208363333Y-140247047D01*
X208982380Y-140247047D01*
X209839523Y-140580380D02*
X209363333Y-140580380D01*
X209363333Y-139580380D01*
X210125238Y-139675619D02*
X210172857Y-139628000D01*
X210268095Y-139580380D01*
X210506190Y-139580380D01*
X210601428Y-139628000D01*
X210649047Y-139675619D01*
X210696666Y-139770857D01*
X210696666Y-139866095D01*
X210649047Y-140008952D01*
X210077619Y-140580380D01*
X210696666Y-140580380D01*
%TO.C,G1M1*%
X211419209Y-48887487D02*
X211323971Y-48839867D01*
X211181114Y-48839867D01*
X211038256Y-48887487D01*
X210943018Y-48982725D01*
X210895399Y-49077963D01*
X210847780Y-49268439D01*
X210847780Y-49411296D01*
X210895399Y-49601772D01*
X210943018Y-49697010D01*
X211038256Y-49792248D01*
X211181114Y-49839867D01*
X211276352Y-49839867D01*
X211419209Y-49792248D01*
X211466828Y-49744629D01*
X211466828Y-49411296D01*
X211276352Y-49411296D01*
X212419209Y-49839867D02*
X211847780Y-49839867D01*
X212133494Y-49839867D02*
X212133494Y-48839867D01*
X212038256Y-48982725D01*
X211943018Y-49077963D01*
X211847780Y-49125582D01*
X212847780Y-49839867D02*
X212847780Y-48839867D01*
X213181114Y-49554153D01*
X213514447Y-48839867D01*
X213514447Y-49839867D01*
X214514447Y-49839867D02*
X213943018Y-49839867D01*
X214228733Y-49839867D02*
X214228733Y-48839867D01*
X214133494Y-48982725D01*
X214038256Y-49077963D01*
X213943018Y-49125582D01*
%TO.C,G2R2*%
X207889523Y-68531999D02*
X207794285Y-68484379D01*
X207651428Y-68484379D01*
X207508571Y-68531999D01*
X207413333Y-68627237D01*
X207365714Y-68722475D01*
X207318095Y-68912951D01*
X207318095Y-69055808D01*
X207365714Y-69246284D01*
X207413333Y-69341522D01*
X207508571Y-69436760D01*
X207651428Y-69484379D01*
X207746666Y-69484379D01*
X207889523Y-69436760D01*
X207937142Y-69389141D01*
X207937142Y-69055808D01*
X207746666Y-69055808D01*
X208318095Y-68579618D02*
X208365714Y-68531999D01*
X208460952Y-68484379D01*
X208699047Y-68484379D01*
X208794285Y-68531999D01*
X208841904Y-68579618D01*
X208889523Y-68674856D01*
X208889523Y-68770094D01*
X208841904Y-68912951D01*
X208270476Y-69484379D01*
X208889523Y-69484379D01*
X209889523Y-69484379D02*
X209556190Y-69008189D01*
X209318095Y-69484379D02*
X209318095Y-68484379D01*
X209699047Y-68484379D01*
X209794285Y-68531999D01*
X209841904Y-68579618D01*
X209889523Y-68674856D01*
X209889523Y-68817713D01*
X209841904Y-68912951D01*
X209794285Y-68960570D01*
X209699047Y-69008189D01*
X209318095Y-69008189D01*
X210270476Y-68579618D02*
X210318095Y-68531999D01*
X210413333Y-68484379D01*
X210651428Y-68484379D01*
X210746666Y-68531999D01*
X210794285Y-68579618D01*
X210841904Y-68674856D01*
X210841904Y-68770094D01*
X210794285Y-68912951D01*
X210222857Y-69484379D01*
X210841904Y-69484379D01*
%TO.C,G2L1*%
X211034761Y-81877999D02*
X210939523Y-81830379D01*
X210796666Y-81830379D01*
X210653809Y-81877999D01*
X210558571Y-81973237D01*
X210510952Y-82068475D01*
X210463333Y-82258951D01*
X210463333Y-82401808D01*
X210510952Y-82592284D01*
X210558571Y-82687522D01*
X210653809Y-82782760D01*
X210796666Y-82830379D01*
X210891904Y-82830379D01*
X211034761Y-82782760D01*
X211082380Y-82735141D01*
X211082380Y-82401808D01*
X210891904Y-82401808D01*
X211463333Y-81925618D02*
X211510952Y-81877999D01*
X211606190Y-81830379D01*
X211844285Y-81830379D01*
X211939523Y-81877999D01*
X211987142Y-81925618D01*
X212034761Y-82020856D01*
X212034761Y-82116094D01*
X211987142Y-82258951D01*
X211415714Y-82830379D01*
X212034761Y-82830379D01*
X212939523Y-82830379D02*
X212463333Y-82830379D01*
X212463333Y-81830379D01*
X213796666Y-82830379D02*
X213225238Y-82830379D01*
X213510952Y-82830379D02*
X213510952Y-81830379D01*
X213415714Y-81973237D01*
X213320476Y-82068475D01*
X213225238Y-82116094D01*
%TO.C,C3*%
X171037142Y-77246667D02*
X171084761Y-77294286D01*
X171132380Y-77437143D01*
X171132380Y-77532381D01*
X171084761Y-77675239D01*
X170989523Y-77770477D01*
X170894285Y-77818096D01*
X170703809Y-77865715D01*
X170560952Y-77865715D01*
X170370476Y-77818096D01*
X170275238Y-77770477D01*
X170180000Y-77675239D01*
X170132380Y-77532381D01*
X170132380Y-77437143D01*
X170180000Y-77294286D01*
X170227619Y-77246667D01*
X170132380Y-76913334D02*
X170132380Y-76294286D01*
X170513333Y-76627620D01*
X170513333Y-76484762D01*
X170560952Y-76389524D01*
X170608571Y-76341905D01*
X170703809Y-76294286D01*
X170941904Y-76294286D01*
X171037142Y-76341905D01*
X171084761Y-76389524D01*
X171132380Y-76484762D01*
X171132380Y-76770477D01*
X171084761Y-76865715D01*
X171037142Y-76913334D01*
%TO.C,U1*%
X129677380Y-120281904D02*
X130486904Y-120281904D01*
X130582142Y-120234285D01*
X130629761Y-120186666D01*
X130677380Y-120091428D01*
X130677380Y-119900952D01*
X130629761Y-119805714D01*
X130582142Y-119758095D01*
X130486904Y-119710476D01*
X129677380Y-119710476D01*
X130677380Y-118710476D02*
X130677380Y-119281904D01*
X130677380Y-118996190D02*
X129677380Y-118996190D01*
X129820238Y-119091428D01*
X129915476Y-119186666D01*
X129963095Y-119281904D01*
%TO.C,C16*%
X133367142Y-110607142D02*
X133319523Y-110654761D01*
X133176666Y-110702380D01*
X133081428Y-110702380D01*
X132938571Y-110654761D01*
X132843333Y-110559523D01*
X132795714Y-110464285D01*
X132748095Y-110273809D01*
X132748095Y-110130952D01*
X132795714Y-109940476D01*
X132843333Y-109845238D01*
X132938571Y-109750000D01*
X133081428Y-109702380D01*
X133176666Y-109702380D01*
X133319523Y-109750000D01*
X133367142Y-109797619D01*
X134319523Y-110702380D02*
X133748095Y-110702380D01*
X134033809Y-110702380D02*
X134033809Y-109702380D01*
X133938571Y-109845238D01*
X133843333Y-109940476D01*
X133748095Y-109988095D01*
X135176666Y-109702380D02*
X134986190Y-109702380D01*
X134890952Y-109750000D01*
X134843333Y-109797619D01*
X134748095Y-109940476D01*
X134700476Y-110130952D01*
X134700476Y-110511904D01*
X134748095Y-110607142D01*
X134795714Y-110654761D01*
X134890952Y-110702380D01*
X135081428Y-110702380D01*
X135176666Y-110654761D01*
X135224285Y-110607142D01*
X135271904Y-110511904D01*
X135271904Y-110273809D01*
X135224285Y-110178571D01*
X135176666Y-110130952D01*
X135081428Y-110083333D01*
X134890952Y-110083333D01*
X134795714Y-110130952D01*
X134748095Y-110178571D01*
X134700476Y-110273809D01*
D12*
%TO.C,10k1*%
X139701184Y-95402260D02*
X141002260Y-94101184D01*
X141002260Y-94101184D02*
X138286970Y-91385894D01*
X136985894Y-92686970D02*
X139701184Y-95402260D01*
X141023473Y-95423473D02*
X140351722Y-94751722D01*
X138286970Y-91385894D02*
X136985894Y-92686970D01*
X136964680Y-91364680D02*
X137636432Y-92036432D01*
%TO.C,U2*%
X110230000Y-79130000D02*
X110230000Y-79530000D01*
X117030000Y-92130000D02*
X110230000Y-92130000D01*
X131230000Y-68930000D02*
X131230000Y-69330000D01*
X131230000Y-53730000D02*
X131230000Y-54130000D01*
X113237000Y-43797000D02*
X113237000Y-41130000D01*
X110230000Y-89330000D02*
X110230000Y-89730000D01*
X110230000Y-68930000D02*
X110230000Y-69330000D01*
X110230000Y-63930000D02*
X110230000Y-64330000D01*
X110230000Y-51230000D02*
X110230000Y-51630000D01*
X131230000Y-84230000D02*
X131230000Y-84630000D01*
X131230000Y-46130000D02*
X131230000Y-46530000D01*
X121830000Y-92130000D02*
X122230000Y-92130000D01*
X131230000Y-71530000D02*
X131230000Y-71930000D01*
X131230000Y-74030000D02*
X131230000Y-74430000D01*
X131230000Y-76630000D02*
X131230000Y-77030000D01*
X131230000Y-63930000D02*
X131230000Y-64330000D01*
X110230000Y-43797000D02*
X113237000Y-43797000D01*
X110230000Y-76630000D02*
X110230000Y-77030000D01*
X131230000Y-86730000D02*
X131230000Y-87130000D01*
X131230000Y-51230000D02*
X131230000Y-51630000D01*
X110230000Y-48630000D02*
X110230000Y-49030000D01*
X110230000Y-56230000D02*
X110230000Y-56630000D01*
X110230000Y-43530000D02*
X110230000Y-43930000D01*
X110230000Y-58830000D02*
X110230000Y-59230000D01*
X110230000Y-81730000D02*
X110230000Y-82130000D01*
X131230000Y-56230000D02*
X131230000Y-56630000D01*
X110230000Y-46130000D02*
X110230000Y-46530000D01*
X110230000Y-66430000D02*
X110230000Y-66830000D01*
X110230000Y-86730000D02*
X110230000Y-87130000D01*
X131230000Y-48630000D02*
X131230000Y-49030000D01*
X131230000Y-61330000D02*
X131230000Y-61730000D01*
X110230000Y-41130000D02*
X131230000Y-41130000D01*
X119230000Y-92130000D02*
X119630000Y-92130000D01*
X131230000Y-41130000D02*
X131230000Y-41430000D01*
X131230000Y-58830000D02*
X131230000Y-59230000D01*
X131230000Y-79130000D02*
X131230000Y-79530000D01*
X110230000Y-74030000D02*
X110230000Y-74430000D01*
X131230000Y-43530000D02*
X131230000Y-43930000D01*
X110230000Y-71530000D02*
X110230000Y-71930000D01*
X131230000Y-66430000D02*
X131230000Y-66830000D01*
X110230000Y-53730000D02*
X110230000Y-54130000D01*
X110230000Y-84230000D02*
X110230000Y-84630000D01*
X131230000Y-92130000D02*
X124430000Y-92130000D01*
X110230000Y-41130000D02*
X110230000Y-41430000D01*
X131230000Y-81730000D02*
X131230000Y-82130000D01*
X110230000Y-61330000D02*
X110230000Y-61730000D01*
X131230000Y-89330000D02*
X131230000Y-89730000D01*
%TO.C,U5*%
X169395000Y-60590000D02*
X169395000Y-65890000D01*
X189835000Y-60590000D02*
X169395000Y-60590000D01*
X189835000Y-62240000D02*
X189835000Y-60590000D01*
X189835000Y-65890000D02*
X189835000Y-64240000D01*
X169395000Y-65890000D02*
X189835000Y-65890000D01*
X189835000Y-62240000D02*
G75*
G03*
X189835000Y-64240000I0J-1000000D01*
G01*
%TO.C,R2*%
X110210000Y-94110000D02*
X110210000Y-95950000D01*
X115000000Y-95030000D02*
X114050000Y-95030000D01*
X110210000Y-95950000D02*
X114050000Y-95950000D01*
X114050000Y-94110000D02*
X110210000Y-94110000D01*
X114050000Y-95950000D02*
X114050000Y-94110000D01*
X109260000Y-95030000D02*
X110210000Y-95030000D01*
%TO.C,RailB1*%
X147480000Y-131980000D02*
X147480000Y-134880000D01*
X144580000Y-131980000D02*
X147480000Y-131980000D01*
X144580000Y-134880000D02*
X144580000Y-131980000D01*
X147480000Y-134880000D02*
X144580000Y-134880000D01*
%TO.C,C2*%
X193618747Y-121590000D02*
X195041251Y-121590000D01*
X193618747Y-118870000D02*
X195041251Y-118870000D01*
%TO.C,D5*%
X102565000Y-74394000D02*
X102565000Y-74550000D01*
X102565000Y-76710000D02*
X102565000Y-76866000D01*
X105797335Y-74551392D02*
G75*
G03*
X102565000Y-74394484I-1672335J-1078608D01*
G01*
X105166130Y-74550163D02*
G75*
G03*
X103084039Y-74550000I-1041130J-1079837D01*
G01*
X103084039Y-76710000D02*
G75*
G03*
X105166130Y-76709837I1040961J1080000D01*
G01*
X102565000Y-76865516D02*
G75*
G03*
X105797335Y-76708608I1560000J1235516D01*
G01*
%TO.C,D1*%
X102465000Y-84794000D02*
X102465000Y-84950000D01*
X102465000Y-87110000D02*
X102465000Y-87266000D01*
X102984039Y-87110000D02*
G75*
G03*
X105066130Y-87109837I1040961J1080000D01*
G01*
X102465000Y-87265516D02*
G75*
G03*
X105697335Y-87108608I1560000J1235516D01*
G01*
X105066130Y-84950163D02*
G75*
G03*
X102984039Y-84950000I-1041130J-1079837D01*
G01*
X105697335Y-84951392D02*
G75*
G03*
X102465000Y-84794484I-1672335J-1078608D01*
G01*
%TO.C,G4L1*%
X213480000Y-139380000D02*
X210580000Y-139380000D01*
X210580000Y-136480000D02*
X213480000Y-136480000D01*
X210580000Y-139380000D02*
X210580000Y-136480000D01*
X213480000Y-136480000D02*
X213480000Y-139380000D01*
%TO.C,G2L2*%
X207680000Y-81780000D02*
X207680000Y-78880000D01*
X207680000Y-78880000D02*
X210580000Y-78880000D01*
X210580000Y-78880000D02*
X210580000Y-81780000D01*
X210580000Y-81780000D02*
X207680000Y-81780000D01*
%TO.C,R5*%
X98650000Y-76550000D02*
X98650000Y-74710000D01*
X98650000Y-74710000D02*
X94810000Y-74710000D01*
X94810000Y-76550000D02*
X98650000Y-76550000D01*
X99600000Y-75630000D02*
X98650000Y-75630000D01*
X94810000Y-74710000D02*
X94810000Y-76550000D01*
X93860000Y-75630000D02*
X94810000Y-75630000D01*
%TO.C,G1L1*%
X210880000Y-53880000D02*
X213780000Y-53880000D01*
X213780000Y-53880000D02*
X213780000Y-56780000D01*
X213780000Y-56780000D02*
X210880000Y-56780000D01*
X210880000Y-56780000D02*
X210880000Y-53880000D01*
%TO.C,R6*%
X146150000Y-74850000D02*
X146150000Y-73010000D01*
X146150000Y-73010000D02*
X142310000Y-73010000D01*
X142310000Y-74850000D02*
X146150000Y-74850000D01*
X141360000Y-73930000D02*
X142310000Y-73930000D01*
X147100000Y-73930000D02*
X146150000Y-73930000D01*
X142310000Y-73010000D02*
X142310000Y-74850000D01*
%TO.C,U6*%
X191760000Y-132490000D02*
X171320000Y-132490000D01*
X171320000Y-132490000D02*
X171320000Y-137790000D01*
X171320000Y-137790000D02*
X191760000Y-137790000D01*
X191760000Y-137790000D02*
X191760000Y-136140000D01*
X191760000Y-134140000D02*
X191760000Y-132490000D01*
X191760000Y-134140000D02*
G75*
G03*
X191760000Y-136140000I0J-1000000D01*
G01*
%TO.C,C10*%
X168941251Y-111370000D02*
X167518747Y-111370000D01*
X168941251Y-114090000D02*
X167518747Y-114090000D01*
%TO.C,G1M2*%
X210780000Y-52280000D02*
X207880000Y-52280000D01*
X207880000Y-52280000D02*
X207880000Y-49380000D01*
X210780000Y-49380000D02*
X210780000Y-52280000D01*
X207880000Y-49380000D02*
X210780000Y-49380000D01*
%TO.C,R4*%
X98650000Y-63750000D02*
X98650000Y-61910000D01*
X94810000Y-61910000D02*
X94810000Y-63750000D01*
X98650000Y-61910000D02*
X94810000Y-61910000D01*
X93860000Y-62830000D02*
X94810000Y-62830000D01*
X94810000Y-63750000D02*
X98650000Y-63750000D01*
X99600000Y-62830000D02*
X98650000Y-62830000D01*
%TO.C,D2*%
X102465000Y-91910000D02*
X102465000Y-92066000D01*
X102465000Y-89594000D02*
X102465000Y-89750000D01*
X102465000Y-92065516D02*
G75*
G03*
X105697335Y-91908608I1560000J1235516D01*
G01*
X102984039Y-91910000D02*
G75*
G03*
X105066130Y-91909837I1040961J1080000D01*
G01*
X105066130Y-89750163D02*
G75*
G03*
X102984039Y-89750000I-1041130J-1079837D01*
G01*
X105697335Y-89751392D02*
G75*
G03*
X102465000Y-89594484I-1672335J-1078608D01*
G01*
%TO.C,G4R2*%
X210480000Y-127480000D02*
X210480000Y-130380000D01*
X207580000Y-127480000D02*
X210480000Y-127480000D01*
X207580000Y-130380000D02*
X207580000Y-127480000D01*
X210480000Y-130380000D02*
X207580000Y-130380000D01*
D13*
%TO.C,PS1*%
X119930000Y-112180000D02*
X97930000Y-112180000D01*
X119930000Y-102680000D02*
X119930000Y-112180000D01*
X97930000Y-102680000D02*
X119930000Y-102680000D01*
X97930000Y-112180000D02*
X97930000Y-102680000D01*
D14*
X97330000Y-105380000D02*
G75*
G03*
X97330000Y-105380000I-100000J0D01*
G01*
D12*
%TO.C,D3*%
X102965000Y-49294000D02*
X102965000Y-49450000D01*
X102965000Y-51610000D02*
X102965000Y-51766000D01*
X106197335Y-49451392D02*
G75*
G03*
X102965000Y-49294484I-1672335J-1078608D01*
G01*
X102965000Y-51765516D02*
G75*
G03*
X106197335Y-51608608I1560000J1235516D01*
G01*
X103484039Y-51610000D02*
G75*
G03*
X105566130Y-51609837I1040961J1080000D01*
G01*
X105566130Y-49450163D02*
G75*
G03*
X103484039Y-49450000I-1041130J-1079837D01*
G01*
%TO.C,C12*%
X194043748Y-140290000D02*
X195466252Y-140290000D01*
X194043748Y-137570000D02*
X195466252Y-137570000D01*
%TO.C,U4*%
X189935000Y-47040000D02*
X189935000Y-45390000D01*
X189935000Y-50690000D02*
X189935000Y-49040000D01*
X169495000Y-45390000D02*
X169495000Y-50690000D01*
X189935000Y-45390000D02*
X169495000Y-45390000D01*
X169495000Y-50690000D02*
X189935000Y-50690000D01*
X189935000Y-47040000D02*
G75*
G03*
X189935000Y-49040000I0J-1000000D01*
G01*
%TO.C,U7*%
X190935000Y-98390000D02*
X190935000Y-96740000D01*
X190935000Y-94740000D02*
X190935000Y-93090000D01*
X170495000Y-98390000D02*
X190935000Y-98390000D01*
X170495000Y-93090000D02*
X170495000Y-98390000D01*
X190935000Y-93090000D02*
X170495000Y-93090000D01*
X190935000Y-94740000D02*
G75*
G03*
X190935000Y-96740000I0J-1000000D01*
G01*
%TO.C,RailB2*%
X144580000Y-137880000D02*
X144580000Y-134980000D01*
X147480000Y-137880000D02*
X144580000Y-137880000D01*
X147480000Y-134980000D02*
X147480000Y-137880000D01*
X144580000Y-134980000D02*
X147480000Y-134980000D01*
%TO.C,C13*%
X167441252Y-58570000D02*
X166018748Y-58570000D01*
X167441252Y-61290000D02*
X166018748Y-61290000D01*
%TO.C,G4R1*%
X213480000Y-127480000D02*
X213480000Y-130380000D01*
X213480000Y-130380000D02*
X210580000Y-130380000D01*
X210580000Y-130380000D02*
X210580000Y-127480000D01*
X210580000Y-127480000D02*
X213480000Y-127480000D01*
%TO.C,RailA2*%
X138530000Y-137830000D02*
X135630000Y-137830000D01*
X135630000Y-137830000D02*
X135630000Y-134930000D01*
X135630000Y-134930000D02*
X138530000Y-134930000D01*
X138530000Y-134930000D02*
X138530000Y-137830000D01*
D14*
%TO.C,J1*%
X78830000Y-103130000D02*
X78830000Y-94130000D01*
X86080000Y-103130000D02*
X78830000Y-103130000D01*
X78830000Y-94130000D02*
X93330000Y-94130000D01*
X95761000Y-99191000D02*
G75*
G03*
X95761000Y-99191000I-64000J0D01*
G01*
D12*
%TO.C,G2M2*%
X210580000Y-77280000D02*
X207680000Y-77280000D01*
X210580000Y-74380000D02*
X210580000Y-77280000D01*
X207680000Y-74380000D02*
X210580000Y-74380000D01*
X207680000Y-77280000D02*
X207680000Y-74380000D01*
%TO.C,D4*%
X102840000Y-63910000D02*
X102840000Y-64066000D01*
X102840000Y-61594000D02*
X102840000Y-61750000D01*
X102840000Y-64065516D02*
G75*
G03*
X106072335Y-63908608I1560000J1235516D01*
G01*
X105441130Y-61750163D02*
G75*
G03*
X103359039Y-61750000I-1041130J-1079837D01*
G01*
X103359039Y-63910000D02*
G75*
G03*
X105441130Y-63909837I1040961J1080000D01*
G01*
X106072335Y-61751392D02*
G75*
G03*
X102840000Y-61594484I-1672335J-1078608D01*
G01*
%TO.C,G3L2*%
X210680000Y-107780000D02*
X210680000Y-110680000D01*
X207780000Y-110680000D02*
X207780000Y-107780000D01*
X210680000Y-110680000D02*
X207780000Y-110680000D01*
X207780000Y-107780000D02*
X210680000Y-107780000D01*
D14*
%TO.C,IC1*%
X131305000Y-99990000D02*
X130355000Y-99990000D01*
X129155000Y-97030000D02*
X130005000Y-97030000D01*
X130355000Y-97070000D02*
X131305000Y-97070000D01*
X131305000Y-97070000D02*
X131305000Y-99990000D01*
X130355000Y-99990000D02*
X130355000Y-97070000D01*
D12*
%TO.C,G3M2*%
X207780000Y-103280000D02*
X210680000Y-103280000D01*
X210680000Y-106180000D02*
X207780000Y-106180000D01*
X207780000Y-106180000D02*
X207780000Y-103280000D01*
X210680000Y-103280000D02*
X210680000Y-106180000D01*
%TO.C,G1L2*%
X210780000Y-53880000D02*
X210780000Y-56780000D01*
X210780000Y-56780000D02*
X207880000Y-56780000D01*
X207880000Y-56780000D02*
X207880000Y-53880000D01*
X207880000Y-53880000D02*
X210780000Y-53880000D01*
%TO.C,C5*%
X192818748Y-81870000D02*
X194241252Y-81870000D01*
X192818748Y-84590000D02*
X194241252Y-84590000D01*
%TO.C,G4M2*%
X210480000Y-134880000D02*
X207580000Y-134880000D01*
X210480000Y-131980000D02*
X210480000Y-134880000D01*
X207580000Y-131980000D02*
X210480000Y-131980000D01*
X207580000Y-134880000D02*
X207580000Y-131980000D01*
%TO.C,U3*%
X190735000Y-82090000D02*
X190735000Y-80440000D01*
X170295000Y-76790000D02*
X170295000Y-82090000D01*
X190735000Y-78440000D02*
X190735000Y-76790000D01*
X170295000Y-82090000D02*
X190735000Y-82090000D01*
X190735000Y-76790000D02*
X170295000Y-76790000D01*
X190735000Y-78440000D02*
G75*
G03*
X190735000Y-80440000I0J-1000000D01*
G01*
%TO.C,C9*%
X167441251Y-45590000D02*
X166018747Y-45590000D01*
X167441251Y-42870000D02*
X166018747Y-42870000D01*
%TO.C,G3M1*%
X213680000Y-106180000D02*
X210780000Y-106180000D01*
X213680000Y-103280000D02*
X213680000Y-106180000D01*
X210780000Y-103280000D02*
X213680000Y-103280000D01*
X210780000Y-106180000D02*
X210780000Y-103280000D01*
%TO.C,G1R2*%
X213830000Y-47780000D02*
X210930000Y-47780000D01*
X210930000Y-47780000D02*
X210930000Y-44880000D01*
X210930000Y-44880000D02*
X213830000Y-44880000D01*
X213830000Y-44880000D02*
X213830000Y-47780000D01*
%TO.C,C14*%
X168441252Y-90870000D02*
X167018748Y-90870000D01*
X168441252Y-93590000D02*
X167018748Y-93590000D01*
%TO.C,R1*%
X115000000Y-97230000D02*
X114050000Y-97230000D01*
X110210000Y-96310000D02*
X110210000Y-98150000D01*
X109260000Y-97230000D02*
X110210000Y-97230000D01*
X110210000Y-98150000D02*
X114050000Y-98150000D01*
X114050000Y-96310000D02*
X110210000Y-96310000D01*
X114050000Y-98150000D02*
X114050000Y-96310000D01*
%TO.C,C8*%
X169366252Y-129970000D02*
X167943748Y-129970000D01*
X169366252Y-132690000D02*
X167943748Y-132690000D01*
%TO.C,G3R1*%
X213680000Y-98780000D02*
X213680000Y-101680000D01*
X213680000Y-101680000D02*
X210780000Y-101680000D01*
X210780000Y-98780000D02*
X213680000Y-98780000D01*
X210780000Y-101680000D02*
X210780000Y-98780000D01*
%TO.C,G3L1*%
X213680000Y-107780000D02*
X213680000Y-110680000D01*
X213680000Y-110680000D02*
X210780000Y-110680000D01*
X210780000Y-110680000D02*
X210780000Y-107780000D01*
X210780000Y-107780000D02*
X213680000Y-107780000D01*
%TO.C,U8*%
X170995000Y-113790000D02*
X170995000Y-119090000D01*
X170995000Y-119090000D02*
X191435000Y-119090000D01*
X191435000Y-113790000D02*
X170995000Y-113790000D01*
X191435000Y-115440000D02*
X191435000Y-113790000D01*
X191435000Y-119090000D02*
X191435000Y-117440000D01*
X191435000Y-115440000D02*
G75*
G03*
X191435000Y-117440000I0J-1000000D01*
G01*
%TO.C,RailA1*%
X138580000Y-131830000D02*
X138580000Y-134730000D01*
X138580000Y-134730000D02*
X135680000Y-134730000D01*
X135680000Y-134730000D02*
X135680000Y-131830000D01*
X135680000Y-131830000D02*
X138580000Y-131830000D01*
%TO.C,D6*%
X137856000Y-72355000D02*
X137700000Y-72355000D01*
X135540000Y-72355000D02*
X135384000Y-72355000D01*
X137698608Y-75587335D02*
G75*
G03*
X137855516Y-72355000I-1078608J1672335D01*
G01*
X135384484Y-72355000D02*
G75*
G03*
X135541392Y-75587335I1235516J-1560000D01*
G01*
X137699837Y-74956130D02*
G75*
G03*
X137700000Y-72874039I-1079837J1041130D01*
G01*
X135540000Y-72874039D02*
G75*
G03*
X135540163Y-74956130I1080000J-1040961D01*
G01*
%TO.C,G1R1*%
X210780000Y-47780000D02*
X207880000Y-47780000D01*
X207880000Y-44880000D02*
X210780000Y-44880000D01*
X207880000Y-47780000D02*
X207880000Y-44880000D01*
X210780000Y-44880000D02*
X210780000Y-47780000D01*
%TO.C,G2M1*%
X213580000Y-77280000D02*
X210680000Y-77280000D01*
X210680000Y-74380000D02*
X213580000Y-74380000D01*
X213580000Y-74380000D02*
X213580000Y-77280000D01*
X210680000Y-77280000D02*
X210680000Y-74380000D01*
%TO.C,C6*%
X193068748Y-101090000D02*
X194491252Y-101090000D01*
X193068748Y-98370000D02*
X194491252Y-98370000D01*
%TO.C,C4*%
X117343323Y-114707000D02*
X117343323Y-117789000D01*
X117543323Y-120271000D02*
X117543323Y-123224000D01*
X114822323Y-113952000D02*
X114822323Y-124108000D01*
X119303323Y-116905000D02*
X119303323Y-117789000D01*
X117463323Y-120271000D02*
X117463323Y-123277000D01*
X118863323Y-116141000D02*
X118863323Y-117789000D01*
X116303323Y-114219000D02*
X116303323Y-123841000D01*
X117943323Y-120271000D02*
X117943323Y-122922000D01*
X117263323Y-120271000D02*
X117263323Y-123401000D01*
X116623323Y-114340000D02*
X116623323Y-123720000D01*
X117263323Y-114659000D02*
X117263323Y-117789000D01*
X119423323Y-120271000D02*
X119423323Y-120876000D01*
X117503323Y-114809000D02*
X117503323Y-117789000D01*
X117583323Y-114864000D02*
X117583323Y-117789000D01*
X116383323Y-114247000D02*
X116383323Y-123813000D01*
X118703323Y-115924000D02*
X118703323Y-117789000D01*
X117783323Y-115010000D02*
X117783323Y-117789000D01*
X115262323Y-113985000D02*
X115262323Y-124075000D01*
X117703323Y-114950000D02*
X117703323Y-117789000D01*
X115703323Y-114056000D02*
X115703323Y-124004000D01*
X119223323Y-116741000D02*
X119223323Y-117789000D01*
X119183323Y-116665000D02*
X119183323Y-117789000D01*
X118943323Y-116260000D02*
X118943323Y-117789000D01*
X117063323Y-114547000D02*
X117063323Y-123513000D01*
X119543323Y-120271000D02*
X119543323Y-120540000D01*
X117823323Y-120271000D02*
X117823323Y-123019000D01*
X118663323Y-115874000D02*
X118663323Y-117789000D01*
X115463323Y-114012000D02*
X115463323Y-124048000D01*
X118823323Y-120271000D02*
X118823323Y-121975000D01*
X117423323Y-120271000D02*
X117423323Y-123303000D01*
X118303323Y-115469000D02*
X118303323Y-117789000D01*
X118783323Y-116030000D02*
X118783323Y-117789000D01*
X116823323Y-114427000D02*
X116823323Y-123633000D01*
X118103323Y-120271000D02*
X118103323Y-122783000D01*
X116183323Y-114180000D02*
X116183323Y-123880000D01*
X117183323Y-120271000D02*
X117183323Y-123447000D01*
X119583323Y-117652000D02*
X119583323Y-117789000D01*
X119503323Y-120271000D02*
X119503323Y-120660000D01*
X118783323Y-120271000D02*
X118783323Y-122030000D01*
X119063323Y-116451000D02*
X119063323Y-117789000D01*
X119263323Y-116821000D02*
X119263323Y-117789000D01*
X117183323Y-114613000D02*
X117183323Y-117789000D01*
X116583323Y-114323000D02*
X116583323Y-123737000D01*
X115142323Y-113972000D02*
X115142323Y-124088000D01*
X118223323Y-120271000D02*
X118223323Y-122670000D01*
X119343323Y-120271000D02*
X119343323Y-121067000D01*
X119223323Y-120271000D02*
X119223323Y-121319000D01*
X117223323Y-114635000D02*
X117223323Y-117789000D01*
X117223323Y-120271000D02*
X117223323Y-123425000D01*
X118463323Y-120271000D02*
X118463323Y-122422000D01*
X117983323Y-120271000D02*
X117983323Y-122888000D01*
X109182677Y-116155000D02*
X110182677Y-116155000D01*
X115503323Y-114019000D02*
X115503323Y-124041000D01*
X116863323Y-114446000D02*
X116863323Y-123614000D01*
X118463323Y-115638000D02*
X118463323Y-117789000D01*
X118743323Y-115976000D02*
X118743323Y-117789000D01*
X115663323Y-114048000D02*
X115663323Y-124012000D01*
X115623323Y-114040000D02*
X115623323Y-124020000D01*
X117663323Y-120271000D02*
X117663323Y-123140000D01*
X117663323Y-114920000D02*
X117663323Y-117789000D01*
X118263323Y-115429000D02*
X118263323Y-117789000D01*
X115903323Y-114102000D02*
X115903323Y-123958000D01*
X115302323Y-113990000D02*
X115302323Y-124070000D01*
X118943323Y-120271000D02*
X118943323Y-121800000D01*
X118143323Y-115314000D02*
X118143323Y-117789000D01*
X119303323Y-120271000D02*
X119303323Y-121155000D01*
X116423323Y-114262000D02*
X116423323Y-123798000D01*
X114862323Y-113953000D02*
X114862323Y-124107000D01*
X118223323Y-115390000D02*
X118223323Y-117789000D01*
X116223323Y-114193000D02*
X116223323Y-123867000D01*
X118183323Y-115351000D02*
X118183323Y-117789000D01*
X119423323Y-117184000D02*
X119423323Y-117789000D01*
X116983323Y-114505000D02*
X116983323Y-123555000D01*
X115423323Y-114006000D02*
X115423323Y-124054000D01*
X116103323Y-114156000D02*
X116103323Y-123904000D01*
X118183323Y-120271000D02*
X118183323Y-122709000D01*
X116943323Y-114485000D02*
X116943323Y-123575000D01*
X115583323Y-114033000D02*
X115583323Y-124027000D01*
X117463323Y-114783000D02*
X117463323Y-117789000D01*
X118303323Y-120271000D02*
X118303323Y-122591000D01*
X118543323Y-120271000D02*
X118543323Y-122331000D01*
X117383323Y-120271000D02*
X117383323Y-123328000D01*
X118863323Y-120271000D02*
X118863323Y-121919000D01*
X118663323Y-120271000D02*
X118663323Y-122186000D01*
X118503323Y-115683000D02*
X118503323Y-117789000D01*
X118063323Y-120271000D02*
X118063323Y-122819000D01*
X119063323Y-120271000D02*
X119063323Y-121609000D01*
X115943323Y-114112000D02*
X115943323Y-123948000D01*
X116783323Y-114409000D02*
X116783323Y-123651000D01*
X118903323Y-116200000D02*
X118903323Y-117789000D01*
X117983323Y-115172000D02*
X117983323Y-117789000D01*
X115022323Y-113962000D02*
X115022323Y-124098000D01*
X118263323Y-120271000D02*
X118263323Y-122631000D01*
X118583323Y-115776000D02*
X118583323Y-117789000D01*
X117103323Y-114568000D02*
X117103323Y-123492000D01*
X118503323Y-120271000D02*
X118503323Y-122377000D01*
X118583323Y-120271000D02*
X118583323Y-122284000D01*
X115383323Y-114000000D02*
X115383323Y-124060000D01*
X119583323Y-120271000D02*
X119583323Y-120408000D01*
X118023323Y-115206000D02*
X118023323Y-117789000D01*
X116463323Y-114276000D02*
X116463323Y-123784000D01*
X118103323Y-115277000D02*
X118103323Y-117789000D01*
X115342323Y-113995000D02*
X115342323Y-124065000D01*
X119263323Y-120271000D02*
X119263323Y-121239000D01*
X116903323Y-114466000D02*
X116903323Y-123594000D01*
X117903323Y-115105000D02*
X117903323Y-117789000D01*
X117303323Y-114683000D02*
X117303323Y-117789000D01*
X117743323Y-120271000D02*
X117743323Y-123080000D01*
X114742323Y-113950000D02*
X114742323Y-124110000D01*
X117623323Y-114892000D02*
X117623323Y-117789000D01*
X119343323Y-116993000D02*
X119343323Y-117789000D01*
X118983323Y-120271000D02*
X118983323Y-121739000D01*
X117783323Y-120271000D02*
X117783323Y-123050000D01*
X116703323Y-114373000D02*
X116703323Y-123687000D01*
X116143323Y-114168000D02*
X116143323Y-123892000D01*
X119023323Y-120271000D02*
X119023323Y-121675000D01*
X115983323Y-114123000D02*
X115983323Y-123937000D01*
X118623323Y-115824000D02*
X118623323Y-117789000D01*
X119023323Y-116385000D02*
X119023323Y-117789000D01*
X117743323Y-114980000D02*
X117743323Y-117789000D01*
X117703323Y-120271000D02*
X117703323Y-123110000D01*
X118823323Y-116085000D02*
X118823323Y-117789000D01*
X117623323Y-120271000D02*
X117623323Y-123168000D01*
X115222323Y-113980000D02*
X115222323Y-124080000D01*
X118743323Y-120271000D02*
X118743323Y-122084000D01*
X119103323Y-116520000D02*
X119103323Y-117789000D01*
X116023323Y-114133000D02*
X116023323Y-123927000D01*
X114702323Y-113950000D02*
X114702323Y-124110000D01*
X116063323Y-114145000D02*
X116063323Y-123915000D01*
X118423323Y-115594000D02*
X118423323Y-117789000D01*
X116663323Y-114356000D02*
X116663323Y-123704000D01*
X117303323Y-120271000D02*
X117303323Y-123377000D01*
X109682677Y-115655000D02*
X109682677Y-116655000D01*
X119743323Y-118431000D02*
X119743323Y-119629000D01*
X118423323Y-120271000D02*
X118423323Y-122466000D01*
X119463323Y-117288000D02*
X119463323Y-117789000D01*
X116743323Y-114391000D02*
X116743323Y-123669000D01*
X118343323Y-120271000D02*
X118343323Y-122550000D01*
X115823323Y-114083000D02*
X115823323Y-123977000D01*
X119503323Y-117400000D02*
X119503323Y-117789000D01*
X117383323Y-114732000D02*
X117383323Y-117789000D01*
X115182323Y-113976000D02*
X115182323Y-124084000D01*
X117143323Y-114590000D02*
X117143323Y-123470000D01*
X118703323Y-120271000D02*
X118703323Y-122136000D01*
X114902323Y-113955000D02*
X114902323Y-124105000D01*
X118983323Y-116321000D02*
X118983323Y-117789000D01*
X118623323Y-120271000D02*
X118623323Y-122236000D01*
X119103323Y-120271000D02*
X119103323Y-121540000D01*
X115743323Y-114065000D02*
X115743323Y-123995000D01*
X118023323Y-120271000D02*
X118023323Y-122854000D01*
X116343323Y-114233000D02*
X116343323Y-123827000D01*
X118383323Y-115552000D02*
X118383323Y-117789000D01*
X117823323Y-115041000D02*
X117823323Y-117789000D01*
X119703323Y-118168000D02*
X119703323Y-119892000D01*
X117423323Y-114757000D02*
X117423323Y-117789000D01*
X117903323Y-120271000D02*
X117903323Y-122955000D01*
X118343323Y-115510000D02*
X118343323Y-117789000D01*
X116543323Y-114307000D02*
X116543323Y-123753000D01*
X117583323Y-120271000D02*
X117583323Y-123196000D01*
X117503323Y-120271000D02*
X117503323Y-123251000D01*
X117343323Y-120271000D02*
X117343323Y-123353000D01*
X118063323Y-115241000D02*
X118063323Y-117789000D01*
X119383323Y-120271000D02*
X119383323Y-120974000D01*
X118383323Y-120271000D02*
X118383323Y-122508000D01*
X115543323Y-114026000D02*
X115543323Y-124034000D01*
X116503323Y-114292000D02*
X116503323Y-123768000D01*
X119143323Y-116591000D02*
X119143323Y-117789000D01*
X119143323Y-120271000D02*
X119143323Y-121469000D01*
X115102323Y-113968000D02*
X115102323Y-124092000D01*
X118903323Y-120271000D02*
X118903323Y-121860000D01*
X119463323Y-120271000D02*
X119463323Y-120772000D01*
X115783323Y-114074000D02*
X115783323Y-123986000D01*
X119383323Y-117086000D02*
X119383323Y-117789000D01*
X118543323Y-115729000D02*
X118543323Y-117789000D01*
X115863323Y-114092000D02*
X115863323Y-123968000D01*
X117863323Y-120271000D02*
X117863323Y-122987000D01*
X119663323Y-117968000D02*
X119663323Y-120092000D01*
X114982323Y-113960000D02*
X114982323Y-124100000D01*
X114942323Y-113957000D02*
X114942323Y-124103000D01*
X114782323Y-113951000D02*
X114782323Y-124109000D01*
X119183323Y-120271000D02*
X119183323Y-121395000D01*
X116263323Y-114206000D02*
X116263323Y-123854000D01*
X117943323Y-115138000D02*
X117943323Y-117789000D01*
X119543323Y-117520000D02*
X119543323Y-117789000D01*
X118143323Y-120271000D02*
X118143323Y-122746000D01*
X117863323Y-115073000D02*
X117863323Y-117789000D01*
X115062323Y-113965000D02*
X115062323Y-124095000D01*
X117543323Y-114836000D02*
X117543323Y-117789000D01*
X117023323Y-114526000D02*
X117023323Y-123534000D01*
X114662323Y-113950000D02*
X114662323Y-124110000D01*
X109699783Y-120290000D02*
G75*
G03*
X109699783Y-117770000I4962540J1260000D01*
G01*
%TO.C,C15*%
X152500000Y-122641252D02*
X152500000Y-121218748D01*
X155220000Y-122641252D02*
X155220000Y-121218748D01*
%TO.C,G4M1*%
X213480000Y-134880000D02*
X210580000Y-134880000D01*
X210580000Y-134880000D02*
X210580000Y-131980000D01*
X210580000Y-131980000D02*
X213480000Y-131980000D01*
X213480000Y-131980000D02*
X213480000Y-134880000D01*
%TO.C,G2R1*%
X213530000Y-69830000D02*
X213530000Y-72730000D01*
X213530000Y-72730000D02*
X210630000Y-72730000D01*
X210630000Y-72730000D02*
X210630000Y-69830000D01*
X210630000Y-69830000D02*
X213530000Y-69830000D01*
%TO.C,C11*%
X192018748Y-68390000D02*
X193441252Y-68390000D01*
X192018748Y-65670000D02*
X193441252Y-65670000D01*
%TO.C,R3*%
X93860000Y-50430000D02*
X94810000Y-50430000D01*
X99600000Y-50430000D02*
X98650000Y-50430000D01*
X94810000Y-49510000D02*
X94810000Y-51350000D01*
X94810000Y-51350000D02*
X98650000Y-51350000D01*
X98650000Y-49510000D02*
X94810000Y-49510000D01*
X98650000Y-51350000D02*
X98650000Y-49510000D01*
%TO.C,C1*%
X98636677Y-123733000D02*
X98636677Y-114527000D01*
X98876677Y-123837000D02*
X98876677Y-114423000D01*
X96836677Y-117889000D02*
X96836677Y-115924000D01*
X99156677Y-123941000D02*
X99156677Y-114319000D01*
X95956677Y-117889000D02*
X95956677Y-117500000D01*
X96316677Y-121569000D02*
X96316677Y-120371000D01*
X97636677Y-117889000D02*
X97636677Y-115141000D01*
X97676677Y-117889000D02*
X97676677Y-115110000D01*
X95956677Y-120760000D02*
X95956677Y-120371000D01*
X98276677Y-117889000D02*
X98276677Y-114713000D01*
X98076677Y-123428000D02*
X98076677Y-120371000D01*
X97196677Y-117889000D02*
X97196677Y-115529000D01*
X96916677Y-117889000D02*
X96916677Y-115829000D01*
X97036677Y-117889000D02*
X97036677Y-115694000D01*
X96316677Y-117889000D02*
X96316677Y-116691000D01*
X96556677Y-117889000D02*
X96556677Y-116300000D01*
X97236677Y-122770000D02*
X97236677Y-120371000D01*
X97396677Y-117889000D02*
X97396677Y-115341000D01*
X96276677Y-121495000D02*
X96276677Y-120371000D01*
X97836677Y-117889000D02*
X97836677Y-114992000D01*
X95876677Y-117889000D02*
X95876677Y-117752000D01*
X96596677Y-122019000D02*
X96596677Y-120371000D01*
X100717677Y-124210000D02*
X100717677Y-114050000D01*
X96876677Y-117889000D02*
X96876677Y-115876000D01*
X95796677Y-120192000D02*
X95796677Y-118068000D01*
X96836677Y-122336000D02*
X96836677Y-120371000D01*
X97356677Y-122883000D02*
X97356677Y-120371000D01*
X97556677Y-117889000D02*
X97556677Y-115205000D01*
X99756677Y-124104000D02*
X99756677Y-114156000D01*
X97236677Y-117889000D02*
X97236677Y-115490000D01*
X97716677Y-117889000D02*
X97716677Y-115080000D01*
X97276677Y-117889000D02*
X97276677Y-115451000D01*
X99276677Y-123980000D02*
X99276677Y-114280000D01*
X95756677Y-119992000D02*
X95756677Y-118268000D01*
X99236677Y-123967000D02*
X99236677Y-114293000D01*
X98356677Y-123592000D02*
X98356677Y-114668000D01*
X100517677Y-124203000D02*
X100517677Y-114057000D01*
X97476677Y-122988000D02*
X97476677Y-120371000D01*
X97276677Y-122809000D02*
X97276677Y-120371000D01*
X97636677Y-123119000D02*
X97636677Y-120371000D01*
X99556677Y-124058000D02*
X99556677Y-114202000D01*
X96476677Y-117889000D02*
X96476677Y-116421000D01*
X97796677Y-117889000D02*
X97796677Y-115020000D01*
X98436677Y-123634000D02*
X98436677Y-114626000D01*
X97916677Y-123324000D02*
X97916677Y-120371000D01*
X96756677Y-122236000D02*
X96756677Y-120371000D01*
X96596677Y-117889000D02*
X96596677Y-116241000D01*
X97676677Y-123150000D02*
X97676677Y-120371000D01*
X95996677Y-120872000D02*
X95996677Y-120371000D01*
X98116677Y-123453000D02*
X98116677Y-120371000D01*
X99036677Y-123898000D02*
X99036677Y-114362000D01*
X99116677Y-123927000D02*
X99116677Y-114333000D01*
X97596677Y-123087000D02*
X97596677Y-120371000D01*
X97476677Y-117889000D02*
X97476677Y-115272000D01*
X99316677Y-123992000D02*
X99316677Y-114268000D01*
X99956677Y-124141000D02*
X99956677Y-114119000D01*
X95876677Y-120508000D02*
X95876677Y-120371000D01*
X98036677Y-117889000D02*
X98036677Y-114857000D01*
X100076677Y-124160000D02*
X100076677Y-114100000D01*
X97516677Y-123022000D02*
X97516677Y-120371000D01*
X95916677Y-117889000D02*
X95916677Y-117620000D01*
X97156677Y-117889000D02*
X97156677Y-115569000D01*
X96036677Y-117889000D02*
X96036677Y-117284000D01*
X99596677Y-124068000D02*
X99596677Y-114192000D01*
X96716677Y-122184000D02*
X96716677Y-120371000D01*
X99716677Y-124095000D02*
X99716677Y-114165000D01*
X96516677Y-121900000D02*
X96516677Y-120371000D01*
X97316677Y-122846000D02*
X97316677Y-120371000D01*
X105777323Y-122505000D02*
X105777323Y-121505000D01*
X99876677Y-124127000D02*
X99876677Y-114133000D01*
X97916677Y-117889000D02*
X97916677Y-114936000D01*
X98796677Y-123804000D02*
X98796677Y-114456000D01*
X96956677Y-117889000D02*
X96956677Y-115783000D01*
X96716677Y-117889000D02*
X96716677Y-116076000D01*
X100036677Y-124154000D02*
X100036677Y-114106000D01*
X98156677Y-123477000D02*
X98156677Y-120371000D01*
X97116677Y-122650000D02*
X97116677Y-120371000D01*
X99636677Y-124077000D02*
X99636677Y-114183000D01*
X99476677Y-124037000D02*
X99476677Y-114223000D01*
X96236677Y-121419000D02*
X96236677Y-120371000D01*
X100237677Y-124180000D02*
X100237677Y-114080000D01*
X96796677Y-117889000D02*
X96796677Y-115974000D01*
X97996677Y-117889000D02*
X97996677Y-114883000D01*
X106277323Y-122005000D02*
X105277323Y-122005000D01*
X97956677Y-117889000D02*
X97956677Y-114909000D01*
X96796677Y-122286000D02*
X96796677Y-120371000D01*
X99996677Y-124148000D02*
X99996677Y-114112000D01*
X96996677Y-122522000D02*
X96996677Y-120371000D01*
X98916677Y-123853000D02*
X98916677Y-114407000D01*
X96356677Y-117889000D02*
X96356677Y-116620000D01*
X97756677Y-123210000D02*
X97756677Y-120371000D01*
X96676677Y-117889000D02*
X96676677Y-116130000D01*
X100397677Y-124195000D02*
X100397677Y-114065000D01*
X96756677Y-117889000D02*
X96756677Y-116024000D01*
X98036677Y-123403000D02*
X98036677Y-120371000D01*
X98196677Y-123501000D02*
X98196677Y-120371000D01*
X97116677Y-117889000D02*
X97116677Y-115610000D01*
X99436677Y-124027000D02*
X99436677Y-114233000D01*
X96556677Y-121960000D02*
X96556677Y-120371000D01*
X97796677Y-123240000D02*
X97796677Y-120371000D01*
X96916677Y-122431000D02*
X96916677Y-120371000D01*
X98556677Y-123694000D02*
X98556677Y-114566000D01*
X97596677Y-117889000D02*
X97596677Y-115173000D01*
X99356677Y-124004000D02*
X99356677Y-114256000D01*
X96436677Y-121775000D02*
X96436677Y-120371000D01*
X100357677Y-124192000D02*
X100357677Y-114068000D01*
X95996677Y-117889000D02*
X95996677Y-117388000D01*
X98476677Y-123655000D02*
X98476677Y-114605000D01*
X97356677Y-117889000D02*
X97356677Y-115377000D01*
X97516677Y-117889000D02*
X97516677Y-115238000D01*
X97956677Y-123351000D02*
X97956677Y-120371000D01*
X96396677Y-117889000D02*
X96396677Y-116551000D01*
X99796677Y-124112000D02*
X99796677Y-114148000D01*
X98996677Y-123884000D02*
X98996677Y-114376000D01*
X99396677Y-124015000D02*
X99396677Y-114245000D01*
X95916677Y-120640000D02*
X95916677Y-120371000D01*
X96236677Y-117889000D02*
X96236677Y-116841000D01*
X97396677Y-122919000D02*
X97396677Y-120371000D01*
X96956677Y-122477000D02*
X96956677Y-120371000D01*
X96396677Y-121709000D02*
X96396677Y-120371000D01*
X96156677Y-117889000D02*
X96156677Y-117005000D01*
X96636677Y-117889000D02*
X96636677Y-116185000D01*
X96436677Y-117889000D02*
X96436677Y-116485000D01*
X98076677Y-117889000D02*
X98076677Y-114832000D01*
X100637677Y-124208000D02*
X100637677Y-114052000D01*
X100157677Y-124170000D02*
X100157677Y-114090000D01*
X97556677Y-123055000D02*
X97556677Y-120371000D01*
X97756677Y-117889000D02*
X97756677Y-115050000D01*
X96356677Y-121640000D02*
X96356677Y-120371000D01*
X96076677Y-121074000D02*
X96076677Y-120371000D01*
X100197677Y-124175000D02*
X100197677Y-114085000D01*
X96516677Y-117889000D02*
X96516677Y-116360000D01*
X99196677Y-123954000D02*
X99196677Y-114306000D01*
X98836677Y-123820000D02*
X98836677Y-114440000D01*
X98516677Y-123675000D02*
X98516677Y-114585000D01*
X100677677Y-124209000D02*
X100677677Y-114051000D01*
X96996677Y-117889000D02*
X96996677Y-115738000D01*
X98236677Y-117889000D02*
X98236677Y-114735000D01*
X100477677Y-124200000D02*
X100477677Y-114060000D01*
X96276677Y-117889000D02*
X96276677Y-116765000D01*
X97436677Y-122954000D02*
X97436677Y-120371000D01*
X96156677Y-121255000D02*
X96156677Y-120371000D01*
X96196677Y-121339000D02*
X96196677Y-120371000D01*
X97836677Y-123268000D02*
X97836677Y-120371000D01*
X97076677Y-122608000D02*
X97076677Y-120371000D01*
X97996677Y-123377000D02*
X97996677Y-120371000D01*
X98756677Y-123787000D02*
X98756677Y-114473000D01*
X98676677Y-123751000D02*
X98676677Y-114509000D01*
X100557677Y-124205000D02*
X100557677Y-114055000D01*
X100117677Y-124165000D02*
X100117677Y-114095000D01*
X98156677Y-117889000D02*
X98156677Y-114783000D01*
X98116677Y-117889000D02*
X98116677Y-114807000D01*
X99516677Y-124048000D02*
X99516677Y-114212000D01*
X98276677Y-123547000D02*
X98276677Y-120371000D01*
X98956677Y-123868000D02*
X98956677Y-114392000D01*
X98316677Y-123570000D02*
X98316677Y-114690000D01*
X96876677Y-122384000D02*
X96876677Y-120371000D01*
X96116677Y-117889000D02*
X96116677Y-117093000D01*
X99916677Y-124134000D02*
X99916677Y-114126000D01*
X97076677Y-117889000D02*
X97076677Y-115652000D01*
X97876677Y-117889000D02*
X97876677Y-114964000D01*
X96116677Y-121167000D02*
X96116677Y-120371000D01*
X96076677Y-117889000D02*
X96076677Y-117186000D01*
X97316677Y-117889000D02*
X97316677Y-115414000D01*
X96036677Y-120976000D02*
X96036677Y-120371000D01*
X95716677Y-119729000D02*
X95716677Y-118531000D01*
X97156677Y-122691000D02*
X97156677Y-120371000D01*
X100437677Y-124198000D02*
X100437677Y-114062000D01*
X98596677Y-123714000D02*
X98596677Y-114546000D01*
X98716677Y-123769000D02*
X98716677Y-114491000D01*
X97036677Y-122566000D02*
X97036677Y-120371000D01*
X97436677Y-117889000D02*
X97436677Y-115306000D01*
X96196677Y-117889000D02*
X96196677Y-116921000D01*
X98236677Y-123525000D02*
X98236677Y-120371000D01*
X97876677Y-123296000D02*
X97876677Y-120371000D01*
X99676677Y-124086000D02*
X99676677Y-114174000D01*
X98196677Y-117889000D02*
X98196677Y-114759000D01*
X100597677Y-124207000D02*
X100597677Y-114053000D01*
X99076677Y-123913000D02*
X99076677Y-114347000D01*
X98396677Y-123613000D02*
X98396677Y-114647000D01*
X100797677Y-124210000D02*
X100797677Y-114050000D01*
X100277677Y-124184000D02*
X100277677Y-114076000D01*
X97716677Y-123180000D02*
X97716677Y-120371000D01*
X100757677Y-124210000D02*
X100757677Y-114050000D01*
X97196677Y-122731000D02*
X97196677Y-120371000D01*
X100317677Y-124188000D02*
X100317677Y-114072000D01*
X96676677Y-122130000D02*
X96676677Y-120371000D01*
X96636677Y-122075000D02*
X96636677Y-120371000D01*
X99836677Y-124120000D02*
X99836677Y-114140000D01*
X96476677Y-121839000D02*
X96476677Y-120371000D01*
X105760217Y-117870000D02*
G75*
G03*
X105760217Y-120390000I-4962540J-1260000D01*
G01*
%TO.C,C7*%
X191918748Y-49970000D02*
X193341252Y-49970000D01*
X191918748Y-52690000D02*
X193341252Y-52690000D01*
%TO.C,G3R2*%
X207780000Y-101680000D02*
X207780000Y-98780000D01*
X207780000Y-98780000D02*
X210680000Y-98780000D01*
X210680000Y-98780000D02*
X210680000Y-101680000D01*
X210680000Y-101680000D02*
X207780000Y-101680000D01*
%TO.C,G4L2*%
X210480000Y-136530000D02*
X210480000Y-139430000D01*
X207580000Y-136530000D02*
X210480000Y-136530000D01*
X207580000Y-139430000D02*
X207580000Y-136530000D01*
X210480000Y-139430000D02*
X207580000Y-139430000D01*
%TO.C,G1M1*%
X210880000Y-52330000D02*
X210880000Y-49430000D01*
X210880000Y-49430000D02*
X213780000Y-49430000D01*
X213780000Y-52330000D02*
X210880000Y-52330000D01*
X213780000Y-49430000D02*
X213780000Y-52330000D01*
%TO.C,G2R2*%
X210530000Y-72730000D02*
X207630000Y-72730000D01*
X207630000Y-72730000D02*
X207630000Y-69830000D01*
X210530000Y-69830000D02*
X210530000Y-72730000D01*
X207630000Y-69830000D02*
X210530000Y-69830000D01*
%TO.C,G2L1*%
X210680000Y-78880000D02*
X213580000Y-78880000D01*
X213580000Y-78880000D02*
X213580000Y-81780000D01*
X213580000Y-81780000D02*
X210680000Y-81780000D01*
X210680000Y-81780000D02*
X210680000Y-78880000D01*
%TO.C,C3*%
X167020000Y-76368749D02*
X167020000Y-77791253D01*
X169740000Y-76368749D02*
X169740000Y-77791253D01*
%TO.C,U1*%
X131225000Y-122170000D02*
X151665000Y-122170000D01*
X131225000Y-116870000D02*
X131225000Y-118520000D01*
X151665000Y-122170000D02*
X151665000Y-116870000D01*
X151665000Y-116870000D02*
X131225000Y-116870000D01*
X131225000Y-120520000D02*
X131225000Y-122170000D01*
X131225000Y-120520000D02*
G75*
G03*
X131225000Y-118520000I0J1000000D01*
G01*
%TO.C,C16*%
X133298748Y-113910000D02*
X134721252Y-113910000D01*
X133298748Y-111190000D02*
X134721252Y-111190000D01*
%TD*%
M02*
