%TF.GenerationSoftware,KiCad,Pcbnew,(6.0.7)*%
%TF.CreationDate,2023-01-12T12:11:46-08:00*%
%TF.ProjectId,RevisedControlBoard,52657669-7365-4644-936f-6e74726f6c42,rev?*%
%TF.SameCoordinates,Original*%
%TF.FileFunction,Soldermask,Bot*%
%TF.FilePolarity,Negative*%
%FSLAX46Y46*%
G04 Gerber Fmt 4.6, Leading zero omitted, Abs format (unit mm)*
G04 Created by KiCad (PCBNEW (6.0.7)) date 2023-01-12 12:11:46*
%MOMM*%
%LPD*%
G01*
G04 APERTURE LIST*
G04 Aperture macros list*
%AMHorizOval*
0 Thick line with rounded ends*
0 $1 width*
0 $2 $3 position (X,Y) of the first rounded end (center of the circle)*
0 $4 $5 position (X,Y) of the second rounded end (center of the circle)*
0 Add line between two ends*
20,1,$1,$2,$3,$4,$5,0*
0 Add two circle primitives to create the rounded ends*
1,1,$1,$2,$3*
1,1,$1,$4,$5*%
G04 Aperture macros list end*
%ADD10C,1.400000*%
%ADD11HorizOval,1.400000X0.000000X0.000000X0.000000X0.000000X0*%
%ADD12O,1.800000X1.800000*%
%ADD13O,1.500000X1.500000*%
%ADD14O,1.700000X1.700000*%
%ADD15R,1.700000X1.700000*%
%ADD16R,1.600000X1.600000*%
%ADD17O,1.600000X1.600000*%
%ADD18O,1.400000X1.400000*%
%ADD19R,1.800000X1.800000*%
%ADD20C,1.800000*%
%ADD21R,1.508000X1.508000*%
%ADD22C,1.508000*%
%ADD23C,4.800000*%
%ADD24R,2.000000X2.000000*%
%ADD25C,2.000000*%
G04 APERTURE END LIST*
D10*
%TO.C,10k1*%
X136300000Y-90700000D03*
D11*
X141688154Y-96088154D03*
%TD*%
D12*
%TO.C,U2*%
X118005000Y-42630000D03*
D13*
X123155000Y-45660000D03*
X118305000Y-45660000D03*
D12*
X123455000Y-42630000D03*
D14*
X111840000Y-42500000D03*
X111840000Y-45040000D03*
D15*
X111840000Y-47580000D03*
D14*
X111840000Y-50120000D03*
X111840000Y-52660000D03*
X111840000Y-55200000D03*
X111840000Y-57740000D03*
D15*
X111840000Y-60280000D03*
D14*
X111840000Y-62820000D03*
X111840000Y-65360000D03*
X111840000Y-67900000D03*
X111840000Y-70440000D03*
D15*
X111840000Y-72980000D03*
D14*
X111840000Y-75520000D03*
X111840000Y-78060000D03*
X111840000Y-80600000D03*
X111840000Y-83140000D03*
D15*
X111840000Y-85680000D03*
D14*
X111840000Y-88220000D03*
X111840000Y-90760000D03*
X129620000Y-90760000D03*
X129620000Y-88220000D03*
D15*
X129620000Y-85680000D03*
D14*
X129620000Y-83140000D03*
X129620000Y-80600000D03*
X129620000Y-78060000D03*
X129620000Y-75520000D03*
D15*
X129620000Y-72980000D03*
D14*
X129620000Y-70440000D03*
X129620000Y-67900000D03*
X129620000Y-65360000D03*
X129620000Y-62820000D03*
D15*
X129620000Y-60280000D03*
D14*
X129620000Y-57740000D03*
X129620000Y-55200000D03*
X129620000Y-52660000D03*
X129620000Y-50120000D03*
D15*
X129620000Y-47580000D03*
D14*
X129620000Y-45040000D03*
X129620000Y-42500000D03*
X118190000Y-90530000D03*
D15*
X120730000Y-90530000D03*
D14*
X123270000Y-90530000D03*
%TD*%
D16*
%TO.C,U5*%
X188505000Y-59430000D03*
D17*
X185965000Y-59430000D03*
X183425000Y-59430000D03*
X180885000Y-59430000D03*
X178345000Y-59430000D03*
X175805000Y-59430000D03*
X173265000Y-59430000D03*
X170725000Y-59430000D03*
X170725000Y-67050000D03*
X173265000Y-67050000D03*
X175805000Y-67050000D03*
X178345000Y-67050000D03*
X180885000Y-67050000D03*
X183425000Y-67050000D03*
X185965000Y-67050000D03*
X188505000Y-67050000D03*
%TD*%
D10*
%TO.C,R2*%
X108320000Y-95030000D03*
D18*
X115940000Y-95030000D03*
%TD*%
D19*
%TO.C,D5*%
X102855000Y-75630000D03*
D20*
X105395000Y-75630000D03*
%TD*%
D19*
%TO.C,D1*%
X102755000Y-86030000D03*
D20*
X105295000Y-86030000D03*
%TD*%
D10*
%TO.C,R5*%
X100540000Y-75630000D03*
D18*
X92920000Y-75630000D03*
%TD*%
D10*
%TO.C,R6*%
X140420000Y-73930000D03*
D18*
X148040000Y-73930000D03*
%TD*%
D16*
%TO.C,U6*%
X190430000Y-131330000D03*
D17*
X187890000Y-131330000D03*
X185350000Y-131330000D03*
X182810000Y-131330000D03*
X180270000Y-131330000D03*
X177730000Y-131330000D03*
X175190000Y-131330000D03*
X172650000Y-131330000D03*
X172650000Y-138950000D03*
X175190000Y-138950000D03*
X177730000Y-138950000D03*
X180270000Y-138950000D03*
X182810000Y-138950000D03*
X185350000Y-138950000D03*
X187890000Y-138950000D03*
X190430000Y-138950000D03*
%TD*%
D18*
%TO.C,R4*%
X92920000Y-62830000D03*
D10*
X100540000Y-62830000D03*
%TD*%
D19*
%TO.C,D2*%
X102755000Y-90830000D03*
D20*
X105295000Y-90830000D03*
%TD*%
D21*
%TO.C,PS1*%
X100040000Y-105380000D03*
D22*
X102580000Y-105380000D03*
X105120000Y-105380000D03*
X110200000Y-105380000D03*
X112740000Y-105380000D03*
X115280000Y-105380000D03*
X117820000Y-105380000D03*
%TD*%
D19*
%TO.C,D3*%
X103255000Y-50530000D03*
D20*
X105795000Y-50530000D03*
%TD*%
D16*
%TO.C,U4*%
X188605000Y-44230000D03*
D17*
X186065000Y-44230000D03*
X183525000Y-44230000D03*
X180985000Y-44230000D03*
X178445000Y-44230000D03*
X175905000Y-44230000D03*
X173365000Y-44230000D03*
X170825000Y-44230000D03*
X170825000Y-51850000D03*
X173365000Y-51850000D03*
X175905000Y-51850000D03*
X178445000Y-51850000D03*
X180985000Y-51850000D03*
X183525000Y-51850000D03*
X186065000Y-51850000D03*
X188605000Y-51850000D03*
%TD*%
D16*
%TO.C,U7*%
X189605000Y-91930000D03*
D17*
X187065000Y-91930000D03*
X184525000Y-91930000D03*
X181985000Y-91930000D03*
X179445000Y-91930000D03*
X176905000Y-91930000D03*
X174365000Y-91930000D03*
X171825000Y-91930000D03*
X171825000Y-99550000D03*
X174365000Y-99550000D03*
X176905000Y-99550000D03*
X179445000Y-99550000D03*
X181985000Y-99550000D03*
X184525000Y-99550000D03*
X187065000Y-99550000D03*
X189605000Y-99550000D03*
%TD*%
D23*
%TO.C,J1*%
X92430000Y-99330000D03*
X86630000Y-99330000D03*
X89430000Y-104130000D03*
%TD*%
D19*
%TO.C,D4*%
X103130000Y-62830000D03*
D20*
X105670000Y-62830000D03*
%TD*%
D16*
%TO.C,U3*%
X189405000Y-75630000D03*
D17*
X186865000Y-75630000D03*
X184325000Y-75630000D03*
X181785000Y-75630000D03*
X179245000Y-75630000D03*
X176705000Y-75630000D03*
X174165000Y-75630000D03*
X171625000Y-75630000D03*
X171625000Y-83250000D03*
X174165000Y-83250000D03*
X176705000Y-83250000D03*
X179245000Y-83250000D03*
X181785000Y-83250000D03*
X184325000Y-83250000D03*
X186865000Y-83250000D03*
X189405000Y-83250000D03*
%TD*%
D10*
%TO.C,R1*%
X108320000Y-97230000D03*
D18*
X115940000Y-97230000D03*
%TD*%
D16*
%TO.C,U8*%
X190105000Y-112630000D03*
D17*
X187565000Y-112630000D03*
X185025000Y-112630000D03*
X182485000Y-112630000D03*
X179945000Y-112630000D03*
X177405000Y-112630000D03*
X174865000Y-112630000D03*
X172325000Y-112630000D03*
X172325000Y-120250000D03*
X174865000Y-120250000D03*
X177405000Y-120250000D03*
X179945000Y-120250000D03*
X182485000Y-120250000D03*
X185025000Y-120250000D03*
X187565000Y-120250000D03*
X190105000Y-120250000D03*
%TD*%
D19*
%TO.C,D6*%
X136620000Y-72645000D03*
D20*
X136620000Y-75185000D03*
%TD*%
D24*
%TO.C,C4*%
X110912323Y-119030000D03*
D25*
X118412323Y-119030000D03*
%TD*%
D10*
%TO.C,R3*%
X100540000Y-50430000D03*
D18*
X92920000Y-50430000D03*
%TD*%
D24*
%TO.C,C1*%
X104547677Y-119130000D03*
D25*
X97047677Y-119130000D03*
%TD*%
D16*
%TO.C,U1*%
X132555000Y-123330000D03*
D17*
X135095000Y-123330000D03*
X137635000Y-123330000D03*
X140175000Y-123330000D03*
X142715000Y-123330000D03*
X145255000Y-123330000D03*
X147795000Y-123330000D03*
X150335000Y-123330000D03*
X150335000Y-115710000D03*
X147795000Y-115710000D03*
X145255000Y-115710000D03*
X142715000Y-115710000D03*
X140175000Y-115710000D03*
X137635000Y-115710000D03*
X135095000Y-115710000D03*
X132555000Y-115710000D03*
%TD*%
M02*
