M48
; DRILL file {KiCad (6.0.7)} date Thu Jan 12 12:11:49 2023
; FORMAT={-:-/ absolute / inch / decimal}
; #@! TF.CreationDate,2023-01-12T12:11:49-08:00
; #@! TF.GenerationSoftware,Kicad,Pcbnew,(6.0.7)
; #@! TF.FileFunction,Plated,1,2,PTH
FMAT,2
INCH
; #@! TA.AperFunction,Plated,PTH,ViaDrill
T1C0.0157
; #@! TA.AperFunction,Plated,PTH,ComponentDrill
T2C0.0276
; #@! TA.AperFunction,Plated,PTH,ComponentDrill
T3C0.0315
; #@! TA.AperFunction,Plated,PTH,ComponentDrill
T4C0.0354
; #@! TA.AperFunction,Plated,PTH,ComponentDrill
T5C0.0394
; #@! TA.AperFunction,Plated,PTH,ComponentDrill
T6C0.0402
; #@! TA.AperFunction,Plated,PTH,ComponentDrill
T7C0.1260
%
G90
G05
T1
X4.4503Y-3.5205
X4.4525Y-2.0242
X4.4525Y-2.1242
X4.4539Y-1.9736
X4.4776Y-2.4224
X4.4815Y-2.513
X4.4854Y-2.6941
X4.4894Y-2.6232
X4.5169Y-2.8634
X4.5169Y-2.9618
X4.5602Y-3.576
X4.5642Y-3.2728
X4.8445Y-3.9154
X4.8742Y-3.8896
X4.9815Y-3.1232
X5.0551Y-4.126
X5.0945Y-4.1102
X5.1181Y-3.9764
X5.2689Y-3.1272
X5.3358Y-3.0327
X5.3398Y-3.0799
X5.4146Y-3.0327
X5.4224Y-3.0799
X5.5535Y-1.7732
X5.5787Y-3.2362
X5.6902Y-4.3004
X6.0535Y-1.7732
X6.0563Y-4.6862
X6.2618Y-3.9193
X6.2618Y-3.9193
X6.2807Y-2.7965
X6.3988Y-2.7965
X6.4146Y-4.3083
X6.4559Y-1.9969
X6.4559Y-2.1307
X6.4567Y-4.4921
X6.4579Y-2.5421
X6.4579Y-2.672
X6.4579Y-3.1445
X6.4579Y-3.2429
X6.4579Y-3.9673
X6.4579Y-4.0894
X6.4579Y-4.6917
X6.5051Y-5.1575
X6.513Y-4.4106
X6.5327Y-2.45
X6.5445Y-3.0366
X6.5445Y-3.7098
X6.5681Y-1.8358
X6.9004Y-5.0839
X7.0315Y-1.563
X7.2783Y-5.0839
X7.6469Y-2.4016
X7.6497Y-1.8385
X7.6508Y-2.7335
X7.6772Y-2.9618
X7.685Y-2.0197
X7.6862Y-3.5957
X7.6902Y-3.176
X7.6941Y-4.0209
X7.7165Y-4.3701
X7.7244Y-5.2874
X7.7559Y-4.7244
T2
X3.6583Y-1.9854
X3.6583Y-2.4736
X3.6583Y-2.9776
X3.9583Y-1.9854
X3.9583Y-2.4736
X3.9583Y-2.9776
X4.2646Y-3.7413
X4.2646Y-3.828
X4.5646Y-3.7413
X4.5646Y-3.828
X5.3661Y-3.5709
X5.5283Y-2.9106
X5.5783Y-3.783
X5.8283Y-2.9106
T3
X5.2187Y-4.5555
X5.2187Y-4.8555
X5.3187Y-4.5555
X5.3187Y-4.8555
X5.4187Y-4.5555
X5.4187Y-4.8555
X5.5187Y-4.5555
X5.5187Y-4.8555
X5.6187Y-4.5555
X5.6187Y-4.8555
X5.7187Y-4.5555
X5.7187Y-4.8555
X5.8187Y-4.5555
X5.8187Y-4.8555
X5.9187Y-4.5555
X5.9187Y-4.8555
X6.7215Y-2.3398
X6.7215Y-2.6398
X6.7254Y-1.7413
X6.7254Y-2.0413
X6.7569Y-2.9776
X6.7569Y-3.2776
X6.7648Y-3.6193
X6.7648Y-3.9193
X6.7844Y-4.4343
X6.7844Y-4.7343
X6.7972Y-5.1705
X6.7972Y-5.4705
X6.8215Y-2.3398
X6.8215Y-2.6398
X6.8254Y-1.7413
X6.8254Y-2.0413
X6.8569Y-2.9776
X6.8569Y-3.2776
X6.8648Y-3.6193
X6.8648Y-3.9193
X6.8844Y-4.4343
X6.8844Y-4.7343
X6.8972Y-5.1705
X6.8972Y-5.4705
X6.9215Y-2.3398
X6.9215Y-2.6398
X6.9254Y-1.7413
X6.9254Y-2.0413
X6.9569Y-2.9776
X6.9569Y-3.2776
X6.9648Y-3.6193
X6.9648Y-3.9193
X6.9844Y-4.4343
X6.9844Y-4.7343
X6.9972Y-5.1705
X6.9972Y-5.4705
X7.0215Y-2.3398
X7.0215Y-2.6398
X7.0254Y-1.7413
X7.0254Y-2.0413
X7.0569Y-2.9776
X7.0569Y-3.2776
X7.0648Y-3.6193
X7.0648Y-3.9193
X7.0844Y-4.4343
X7.0844Y-4.7343
X7.0972Y-5.1705
X7.0972Y-5.4705
X7.1215Y-2.3398
X7.1215Y-2.6398
X7.1254Y-1.7413
X7.1254Y-2.0413
X7.1569Y-2.9776
X7.1569Y-3.2776
X7.1648Y-3.6193
X7.1648Y-3.9193
X7.1844Y-4.4343
X7.1844Y-4.7343
X7.1972Y-5.1705
X7.1972Y-5.4705
X7.2215Y-2.3398
X7.2215Y-2.6398
X7.2254Y-1.7413
X7.2254Y-2.0413
X7.2569Y-2.9776
X7.2569Y-3.2776
X7.2648Y-3.6193
X7.2648Y-3.9193
X7.2844Y-4.4343
X7.2844Y-4.7343
X7.2972Y-5.1705
X7.2972Y-5.4705
X7.3215Y-2.3398
X7.3215Y-2.6398
X7.3254Y-1.7413
X7.3254Y-2.0413
X7.3569Y-2.9776
X7.3569Y-3.2776
X7.3648Y-3.6193
X7.3648Y-3.9193
X7.3844Y-4.4343
X7.3844Y-4.7343
X7.3972Y-5.1705
X7.3972Y-5.4705
X7.4215Y-2.3398
X7.4215Y-2.6398
X7.4254Y-1.7413
X7.4254Y-2.0413
X7.4569Y-2.9776
X7.4569Y-3.2776
X7.4648Y-3.6193
X7.4648Y-3.9193
X7.4844Y-4.4343
X7.4844Y-4.7343
X7.4972Y-5.1705
X7.4972Y-5.4705
T4
X4.0455Y-3.387
X4.0455Y-3.576
X4.0494Y-2.9776
X4.0602Y-2.4736
X4.0652Y-1.9894
X4.1455Y-3.387
X4.1455Y-3.576
X4.1494Y-2.9776
X4.1602Y-2.4736
X4.1652Y-1.9894
X5.3787Y-2.86
X5.3787Y-2.96
T5
X3.8208Y-4.6902
X3.9386Y-4.1488
X4.0386Y-4.1488
X4.1161Y-4.6902
X4.1386Y-4.1488
X4.3386Y-4.1488
X4.3666Y-4.6862
X4.4386Y-4.1488
X4.5386Y-4.1488
X4.6386Y-4.1488
X4.6619Y-4.6862
T6
X4.4031Y-1.6732
X4.4031Y-1.7732
X4.4031Y-1.8732
X4.4031Y-1.9732
X4.4031Y-2.0732
X4.4031Y-2.1732
X4.4031Y-2.2732
X4.4031Y-2.3732
X4.4031Y-2.4732
X4.4031Y-2.5732
X4.4031Y-2.6732
X4.4031Y-2.7732
X4.4031Y-2.8732
X4.4031Y-2.9732
X4.4031Y-3.0732
X4.4031Y-3.1732
X4.4031Y-3.2732
X4.4031Y-3.3732
X4.4031Y-3.4732
X4.4031Y-3.5732
X4.6531Y-3.5642
X4.7531Y-3.5642
X4.8531Y-3.5642
X5.1031Y-1.6732
X5.1031Y-1.7732
X5.1031Y-1.8732
X5.1031Y-1.9732
X5.1031Y-2.0732
X5.1031Y-2.1732
X5.1031Y-2.2732
X5.1031Y-2.3732
X5.1031Y-2.4732
X5.1031Y-2.5732
X5.1031Y-2.6732
X5.1031Y-2.7732
X5.1031Y-2.8732
X5.1031Y-2.9732
X5.1031Y-3.0732
X5.1031Y-3.1732
X5.1031Y-3.2732
X5.1031Y-3.3732
X5.1031Y-3.4732
X5.1031Y-3.5732
T7
X3.4106Y-3.9106
X3.5209Y-4.0996
X3.639Y-3.9106
T0
M30
