%TF.GenerationSoftware,KiCad,Pcbnew,(6.0.7)*%
%TF.CreationDate,2023-01-12T12:11:46-08:00*%
%TF.ProjectId,RevisedControlBoard,52657669-7365-4644-936f-6e74726f6c42,rev?*%
%TF.SameCoordinates,Original*%
%TF.FileFunction,Profile,NP*%
%FSLAX46Y46*%
G04 Gerber Fmt 4.6, Leading zero omitted, Abs format (unit mm)*
G04 Created by KiCad (PCBNEW (6.0.7)) date 2023-01-12 12:11:46*
%MOMM*%
%LPD*%
G01*
G04 APERTURE LIST*
%TA.AperFunction,Profile*%
%ADD10C,0.100000*%
%TD*%
G04 APERTURE END LIST*
D10*
X175600000Y-38700000D02*
X176600000Y-37700000D01*
X90700000Y-38700000D02*
X175600000Y-38700000D01*
X205830000Y-44830000D02*
X205900000Y-37600000D01*
X176600000Y-37700000D02*
X205900000Y-37600000D01*
X83430000Y-45330000D02*
X90700000Y-38700000D01*
X135530001Y-129930001D02*
X135550000Y-126930002D01*
X138530001Y-129930001D02*
X138524999Y-126955001D01*
X147524999Y-126955001D02*
X154900000Y-127000000D01*
X147530000Y-137930000D02*
X147524999Y-126955001D01*
X164900000Y-143800000D02*
X154900000Y-127000000D01*
X205500000Y-143900000D02*
X164900000Y-143800000D01*
X205550000Y-139430001D02*
X205500000Y-143900000D01*
X138524999Y-126955001D02*
X144530000Y-126955001D01*
X83430000Y-126830000D02*
X83430000Y-45330000D01*
X135550000Y-126930002D02*
X83430000Y-126830000D01*
X205730000Y-98730000D02*
X205530000Y-98730000D01*
X205530000Y-56830000D02*
X205830000Y-56830000D01*
X205549999Y-62830000D02*
X205530000Y-56830000D01*
X205549999Y-81830000D02*
X205530000Y-98730000D01*
X205730000Y-110730000D02*
X205630000Y-110730000D01*
X205549999Y-116929999D02*
X205630000Y-110730000D01*
X213550000Y-77329998D02*
X205550002Y-77329999D01*
X205549999Y-131930001D02*
X213550000Y-131929998D01*
X138530000Y-137930000D02*
X138530001Y-129930001D01*
X205549999Y-74330000D02*
X213550000Y-74330000D01*
X205550001Y-69829999D02*
X213550001Y-69830000D01*
X213830001Y-49330000D02*
X213830000Y-52330000D01*
X205730000Y-98730000D02*
X213730001Y-98729999D01*
X213730001Y-103230001D02*
X213730001Y-106230000D01*
X205549999Y-116929999D02*
X205550002Y-127430000D01*
X205550002Y-136430000D02*
X213550002Y-136430000D01*
X144530000Y-137929998D02*
X147530000Y-137930000D01*
X205830000Y-52330000D02*
X205830000Y-53830000D01*
X213829999Y-44830001D02*
X213830001Y-47830001D01*
X213550002Y-127430000D02*
X213550001Y-130430001D01*
X205549999Y-72830000D02*
X205549999Y-74330000D01*
X205730000Y-107730000D02*
X213730001Y-107729999D01*
X205830000Y-47830001D02*
X205830000Y-49330000D01*
X205550002Y-77329999D02*
X205550000Y-78830000D01*
X205550002Y-127430000D02*
X213550002Y-127430000D01*
X213830000Y-52330000D02*
X205830000Y-52330000D01*
X135530001Y-129930001D02*
X135530000Y-137929998D01*
X213830001Y-56830000D02*
X205830000Y-56830000D01*
X205830000Y-44830000D02*
X213829999Y-44830001D01*
X213550001Y-130430001D02*
X205550002Y-130430001D01*
X205549999Y-134930002D02*
X205550002Y-136430000D01*
X213550000Y-72829999D02*
X205549999Y-72830000D01*
X213550000Y-131929998D02*
X213550000Y-134929999D01*
X205830000Y-53830000D02*
X213829999Y-53830001D01*
X213730001Y-107729999D02*
X213730000Y-110730001D01*
X205730000Y-103229999D02*
X213730001Y-103230001D01*
X205550002Y-130430001D02*
X205549999Y-131930001D01*
X205830000Y-49330000D02*
X213830001Y-49330000D01*
X213550000Y-81829999D02*
X205549999Y-81830000D01*
X205550000Y-78830000D02*
X213550001Y-78830000D01*
X144530001Y-129930001D02*
X144530000Y-137929998D01*
X213550002Y-136430000D02*
X213550000Y-139430000D01*
X213550001Y-69830000D02*
X213550000Y-72829999D01*
X213829999Y-53830001D02*
X213830001Y-56830000D01*
X205730000Y-101729999D02*
X205730000Y-103229999D01*
X213830001Y-47830001D02*
X205830000Y-47830001D01*
X213550000Y-74330000D02*
X213550000Y-77329998D01*
X213550000Y-139430000D02*
X205550000Y-139430001D01*
X205549999Y-62830000D02*
X205550001Y-69829999D01*
X135530000Y-137929998D02*
X138530000Y-137930000D01*
X213730001Y-106230000D02*
X205730001Y-106230001D01*
X213730001Y-98729999D02*
X213730001Y-101730000D01*
X205730001Y-106230001D02*
X205730000Y-107730000D01*
X213730001Y-101730000D02*
X205730000Y-101729999D01*
X144530000Y-126955001D02*
X144530001Y-129930001D01*
X213730000Y-110730001D02*
X205730000Y-110730000D01*
X213550001Y-78830000D02*
X213550000Y-81829999D01*
X213550000Y-134929999D02*
X205549999Y-134930002D01*
M02*
