%TF.GenerationSoftware,KiCad,Pcbnew,(6.0.7)*%
%TF.CreationDate,2023-01-12T12:11:46-08:00*%
%TF.ProjectId,RevisedControlBoard,52657669-7365-4644-936f-6e74726f6c42,rev?*%
%TF.SameCoordinates,Original*%
%TF.FileFunction,Soldermask,Top*%
%TF.FilePolarity,Negative*%
%FSLAX46Y46*%
G04 Gerber Fmt 4.6, Leading zero omitted, Abs format (unit mm)*
G04 Created by KiCad (PCBNEW (6.0.7)) date 2023-01-12 12:11:46*
%MOMM*%
%LPD*%
G01*
G04 APERTURE LIST*
G04 Aperture macros list*
%AMRoundRect*
0 Rectangle with rounded corners*
0 $1 Rounding radius*
0 $2 $3 $4 $5 $6 $7 $8 $9 X,Y pos of 4 corners*
0 Add a 4 corners polygon primitive as box body*
4,1,4,$2,$3,$4,$5,$6,$7,$8,$9,$2,$3,0*
0 Add four circle primitives for the rounded corners*
1,1,$1+$1,$2,$3*
1,1,$1+$1,$4,$5*
1,1,$1+$1,$6,$7*
1,1,$1+$1,$8,$9*
0 Add four rect primitives between the rounded corners*
20,1,$1+$1,$2,$3,$4,$5,0*
20,1,$1+$1,$4,$5,$6,$7,0*
20,1,$1+$1,$6,$7,$8,$9,0*
20,1,$1+$1,$8,$9,$2,$3,0*%
%AMHorizOval*
0 Thick line with rounded ends*
0 $1 width*
0 $2 $3 position (X,Y) of the first rounded end (center of the circle)*
0 $4 $5 position (X,Y) of the second rounded end (center of the circle)*
0 Add line between two ends*
20,1,$1,$2,$3,$4,$5,0*
0 Add two circle primitives to create the rounded ends*
1,1,$1,$2,$3*
1,1,$1,$4,$5*%
G04 Aperture macros list end*
%ADD10C,1.400000*%
%ADD11HorizOval,1.400000X0.000000X0.000000X0.000000X0.000000X0*%
%ADD12O,1.800000X1.800000*%
%ADD13O,1.500000X1.500000*%
%ADD14R,3.500000X1.700000*%
%ADD15O,1.700000X1.700000*%
%ADD16R,1.700000X1.700000*%
%ADD17R,1.700000X3.500000*%
%ADD18R,1.600000X1.600000*%
%ADD19O,1.600000X1.600000*%
%ADD20O,1.400000X1.400000*%
%ADD21R,2.500000X2.500000*%
%ADD22RoundRect,0.250000X-0.325000X-1.100000X0.325000X-1.100000X0.325000X1.100000X-0.325000X1.100000X0*%
%ADD23R,1.800000X1.800000*%
%ADD24C,1.800000*%
%ADD25RoundRect,0.250000X0.325000X1.100000X-0.325000X1.100000X-0.325000X-1.100000X0.325000X-1.100000X0*%
%ADD26R,1.508000X1.508000*%
%ADD27C,1.508000*%
%ADD28C,4.800000*%
%ADD29R,0.850000X0.600000*%
%ADD30R,2.000000X2.000000*%
%ADD31C,2.000000*%
%ADD32RoundRect,0.250000X1.100000X-0.325000X1.100000X0.325000X-1.100000X0.325000X-1.100000X-0.325000X0*%
%ADD33RoundRect,0.250000X-1.100000X0.325000X-1.100000X-0.325000X1.100000X-0.325000X1.100000X0.325000X0*%
G04 APERTURE END LIST*
D10*
%TO.C,10k1*%
X136300000Y-90700000D03*
D11*
X141688154Y-96088154D03*
%TD*%
D12*
%TO.C,U2*%
X118005000Y-42630000D03*
D13*
X123155000Y-45660000D03*
X118305000Y-45660000D03*
D12*
X123455000Y-42630000D03*
D14*
X110940000Y-42500000D03*
D15*
X111840000Y-42500000D03*
D14*
X110940000Y-45040000D03*
D15*
X111840000Y-45040000D03*
D14*
X110940000Y-47580000D03*
D16*
X111840000Y-47580000D03*
D14*
X110940000Y-50120000D03*
D15*
X111840000Y-50120000D03*
X111840000Y-52660000D03*
D14*
X110940000Y-52660000D03*
D15*
X111840000Y-55200000D03*
D14*
X110940000Y-55200000D03*
D15*
X111840000Y-57740000D03*
D14*
X110940000Y-57740000D03*
X110940000Y-60280000D03*
D16*
X111840000Y-60280000D03*
D14*
X110940000Y-62820000D03*
D15*
X111840000Y-62820000D03*
D14*
X110940000Y-65360000D03*
D15*
X111840000Y-65360000D03*
X111840000Y-67900000D03*
D14*
X110940000Y-67900000D03*
D15*
X111840000Y-70440000D03*
D14*
X110940000Y-70440000D03*
X110940000Y-72980000D03*
D16*
X111840000Y-72980000D03*
D14*
X110940000Y-75520000D03*
D15*
X111840000Y-75520000D03*
X111840000Y-78060000D03*
D14*
X110940000Y-78060000D03*
X110940000Y-80600000D03*
D15*
X111840000Y-80600000D03*
X111840000Y-83140000D03*
D14*
X110940000Y-83140000D03*
X110940000Y-85680000D03*
D16*
X111840000Y-85680000D03*
D15*
X111840000Y-88220000D03*
D14*
X110940000Y-88220000D03*
X110940000Y-90760000D03*
D15*
X111840000Y-90760000D03*
X129620000Y-90760000D03*
D14*
X130520000Y-90760000D03*
X130520000Y-88220000D03*
D15*
X129620000Y-88220000D03*
D14*
X130520000Y-85680000D03*
D16*
X129620000Y-85680000D03*
D15*
X129620000Y-83140000D03*
D14*
X130520000Y-83140000D03*
D15*
X129620000Y-80600000D03*
D14*
X130520000Y-80600000D03*
X130520000Y-78060000D03*
D15*
X129620000Y-78060000D03*
X129620000Y-75520000D03*
D14*
X130520000Y-75520000D03*
D16*
X129620000Y-72980000D03*
D14*
X130520000Y-72980000D03*
X130520000Y-70440000D03*
D15*
X129620000Y-70440000D03*
X129620000Y-67900000D03*
D14*
X130520000Y-67900000D03*
D15*
X129620000Y-65360000D03*
D14*
X130520000Y-65360000D03*
X130520000Y-62820000D03*
D15*
X129620000Y-62820000D03*
D16*
X129620000Y-60280000D03*
D14*
X130520000Y-60280000D03*
D15*
X129620000Y-57740000D03*
D14*
X130520000Y-57740000D03*
D15*
X129620000Y-55200000D03*
D14*
X130520000Y-55200000D03*
X130520000Y-52660000D03*
D15*
X129620000Y-52660000D03*
D14*
X130520000Y-50120000D03*
D15*
X129620000Y-50120000D03*
D14*
X130520000Y-47580000D03*
D16*
X129620000Y-47580000D03*
D14*
X130520000Y-45040000D03*
D15*
X129620000Y-45040000D03*
X129620000Y-42500000D03*
D14*
X130520000Y-42500000D03*
D17*
X118190000Y-91430000D03*
D15*
X118190000Y-90530000D03*
D16*
X120730000Y-90530000D03*
D17*
X120730000Y-91430000D03*
X123270000Y-91430000D03*
D15*
X123270000Y-90530000D03*
%TD*%
D18*
%TO.C,U5*%
X188505000Y-59430000D03*
D19*
X185965000Y-59430000D03*
X183425000Y-59430000D03*
X180885000Y-59430000D03*
X178345000Y-59430000D03*
X175805000Y-59430000D03*
X173265000Y-59430000D03*
X170725000Y-59430000D03*
X170725000Y-67050000D03*
X173265000Y-67050000D03*
X175805000Y-67050000D03*
X178345000Y-67050000D03*
X180885000Y-67050000D03*
X183425000Y-67050000D03*
X185965000Y-67050000D03*
X188505000Y-67050000D03*
%TD*%
D10*
%TO.C,R2*%
X108320000Y-95030000D03*
D20*
X115940000Y-95030000D03*
%TD*%
D21*
%TO.C,RailB1*%
X146030000Y-133430000D03*
%TD*%
D22*
%TO.C,C2*%
X195804999Y-120230000D03*
X192854999Y-120230000D03*
%TD*%
D23*
%TO.C,D5*%
X102855000Y-75630000D03*
D24*
X105395000Y-75630000D03*
%TD*%
D23*
%TO.C,D1*%
X102755000Y-86030000D03*
D24*
X105295000Y-86030000D03*
%TD*%
D21*
%TO.C,G4L1*%
X212030000Y-137930000D03*
%TD*%
%TO.C,G2L2*%
X209130000Y-80330000D03*
%TD*%
D10*
%TO.C,R5*%
X100540000Y-75630000D03*
D20*
X92920000Y-75630000D03*
%TD*%
D21*
%TO.C,G1L1*%
X212330000Y-55330000D03*
%TD*%
D10*
%TO.C,R6*%
X140420000Y-73930000D03*
D20*
X148040000Y-73930000D03*
%TD*%
D18*
%TO.C,U6*%
X190430000Y-131330000D03*
D19*
X187890000Y-131330000D03*
X185350000Y-131330000D03*
X182810000Y-131330000D03*
X180270000Y-131330000D03*
X177730000Y-131330000D03*
X175190000Y-131330000D03*
X172650000Y-131330000D03*
X172650000Y-138950000D03*
X175190000Y-138950000D03*
X177730000Y-138950000D03*
X180270000Y-138950000D03*
X182810000Y-138950000D03*
X185350000Y-138950000D03*
X187890000Y-138950000D03*
X190430000Y-138950000D03*
%TD*%
D25*
%TO.C,C10*%
X169704999Y-112730000D03*
X166754999Y-112730000D03*
%TD*%
D21*
%TO.C,G1M2*%
X209330000Y-50830000D03*
%TD*%
D20*
%TO.C,R4*%
X92920000Y-62830000D03*
D10*
X100540000Y-62830000D03*
%TD*%
D23*
%TO.C,D2*%
X102755000Y-90830000D03*
D24*
X105295000Y-90830000D03*
%TD*%
D21*
%TO.C,G4R2*%
X209030000Y-128930000D03*
%TD*%
D26*
%TO.C,PS1*%
X100040000Y-105380000D03*
D27*
X102580000Y-105380000D03*
X105120000Y-105380000D03*
X110200000Y-105380000D03*
X112740000Y-105380000D03*
X115280000Y-105380000D03*
X117820000Y-105380000D03*
%TD*%
D23*
%TO.C,D3*%
X103255000Y-50530000D03*
D24*
X105795000Y-50530000D03*
%TD*%
D22*
%TO.C,C12*%
X193280000Y-138930000D03*
X196230000Y-138930000D03*
%TD*%
D18*
%TO.C,U4*%
X188605000Y-44230000D03*
D19*
X186065000Y-44230000D03*
X183525000Y-44230000D03*
X180985000Y-44230000D03*
X178445000Y-44230000D03*
X175905000Y-44230000D03*
X173365000Y-44230000D03*
X170825000Y-44230000D03*
X170825000Y-51850000D03*
X173365000Y-51850000D03*
X175905000Y-51850000D03*
X178445000Y-51850000D03*
X180985000Y-51850000D03*
X183525000Y-51850000D03*
X186065000Y-51850000D03*
X188605000Y-51850000D03*
%TD*%
D18*
%TO.C,U7*%
X189605000Y-91930000D03*
D19*
X187065000Y-91930000D03*
X184525000Y-91930000D03*
X181985000Y-91930000D03*
X179445000Y-91930000D03*
X176905000Y-91930000D03*
X174365000Y-91930000D03*
X171825000Y-91930000D03*
X171825000Y-99550000D03*
X174365000Y-99550000D03*
X176905000Y-99550000D03*
X179445000Y-99550000D03*
X181985000Y-99550000D03*
X184525000Y-99550000D03*
X187065000Y-99550000D03*
X189605000Y-99550000D03*
%TD*%
D21*
%TO.C,RailB2*%
X146030000Y-136430000D03*
%TD*%
D25*
%TO.C,C13*%
X165255000Y-59930000D03*
X168205000Y-59930000D03*
%TD*%
D21*
%TO.C,G4R1*%
X212030000Y-128930000D03*
%TD*%
%TO.C,RailA2*%
X137080000Y-136380000D03*
%TD*%
D28*
%TO.C,J1*%
X92430000Y-99330000D03*
X86630000Y-99330000D03*
X89430000Y-104130000D03*
%TD*%
D21*
%TO.C,G2M2*%
X209130000Y-75830000D03*
%TD*%
D23*
%TO.C,D4*%
X103130000Y-62830000D03*
D24*
X105670000Y-62830000D03*
%TD*%
D21*
%TO.C,G3L2*%
X209230000Y-109230000D03*
%TD*%
D29*
%TO.C,IC1*%
X129580000Y-97580000D03*
X129580000Y-99480000D03*
X132080000Y-98530000D03*
%TD*%
D21*
%TO.C,G3M2*%
X209230000Y-104730000D03*
%TD*%
%TO.C,G1L2*%
X209330000Y-55330000D03*
%TD*%
D22*
%TO.C,C5*%
X192055000Y-83230000D03*
X195005000Y-83230000D03*
%TD*%
D21*
%TO.C,G4M2*%
X209030000Y-133430000D03*
%TD*%
D18*
%TO.C,U3*%
X189405000Y-75630000D03*
D19*
X186865000Y-75630000D03*
X184325000Y-75630000D03*
X181785000Y-75630000D03*
X179245000Y-75630000D03*
X176705000Y-75630000D03*
X174165000Y-75630000D03*
X171625000Y-75630000D03*
X171625000Y-83250000D03*
X174165000Y-83250000D03*
X176705000Y-83250000D03*
X179245000Y-83250000D03*
X181785000Y-83250000D03*
X184325000Y-83250000D03*
X186865000Y-83250000D03*
X189405000Y-83250000D03*
%TD*%
D25*
%TO.C,C9*%
X168204999Y-44230000D03*
X165254999Y-44230000D03*
%TD*%
D21*
%TO.C,G3M1*%
X212230000Y-104730000D03*
%TD*%
%TO.C,G1R2*%
X212380000Y-46330000D03*
%TD*%
D25*
%TO.C,C14*%
X169205000Y-92230000D03*
X166255000Y-92230000D03*
%TD*%
D10*
%TO.C,R1*%
X108320000Y-97230000D03*
D20*
X115940000Y-97230000D03*
%TD*%
D25*
%TO.C,C8*%
X170130000Y-131330000D03*
X167180000Y-131330000D03*
%TD*%
D21*
%TO.C,G3R1*%
X212230000Y-100230000D03*
%TD*%
%TO.C,G3L1*%
X212230000Y-109230000D03*
%TD*%
D18*
%TO.C,U8*%
X190105000Y-112630000D03*
D19*
X187565000Y-112630000D03*
X185025000Y-112630000D03*
X182485000Y-112630000D03*
X179945000Y-112630000D03*
X177405000Y-112630000D03*
X174865000Y-112630000D03*
X172325000Y-112630000D03*
X172325000Y-120250000D03*
X174865000Y-120250000D03*
X177405000Y-120250000D03*
X179945000Y-120250000D03*
X182485000Y-120250000D03*
X185025000Y-120250000D03*
X187565000Y-120250000D03*
X190105000Y-120250000D03*
%TD*%
D21*
%TO.C,RailA1*%
X137130000Y-133280000D03*
%TD*%
D23*
%TO.C,D6*%
X136620000Y-72645000D03*
D24*
X136620000Y-75185000D03*
%TD*%
D21*
%TO.C,G1R1*%
X209330000Y-46330000D03*
%TD*%
%TO.C,G2M1*%
X212130000Y-75830000D03*
%TD*%
D22*
%TO.C,C6*%
X192305000Y-99730000D03*
X195255000Y-99730000D03*
%TD*%
D30*
%TO.C,C4*%
X110912323Y-119030000D03*
D31*
X118412323Y-119030000D03*
%TD*%
D32*
%TO.C,C15*%
X153860000Y-123405000D03*
X153860000Y-120455000D03*
%TD*%
D21*
%TO.C,G4M1*%
X212030000Y-133430000D03*
%TD*%
%TO.C,G2R1*%
X212080000Y-71280000D03*
%TD*%
D22*
%TO.C,C11*%
X191255000Y-67030000D03*
X194205000Y-67030000D03*
%TD*%
D10*
%TO.C,R3*%
X100540000Y-50430000D03*
D20*
X92920000Y-50430000D03*
%TD*%
D30*
%TO.C,C1*%
X104547677Y-119130000D03*
D31*
X97047677Y-119130000D03*
%TD*%
D22*
%TO.C,C7*%
X191155000Y-51330000D03*
X194105000Y-51330000D03*
%TD*%
D21*
%TO.C,G3R2*%
X209230000Y-100230000D03*
%TD*%
%TO.C,G4L2*%
X209030000Y-137980000D03*
%TD*%
%TO.C,G1M1*%
X212330000Y-50880000D03*
%TD*%
%TO.C,G2R2*%
X209080000Y-71280000D03*
%TD*%
%TO.C,G2L1*%
X212130000Y-80330000D03*
%TD*%
D33*
%TO.C,C3*%
X168380000Y-75605001D03*
X168380000Y-78555001D03*
%TD*%
D18*
%TO.C,U1*%
X132555000Y-123330000D03*
D19*
X135095000Y-123330000D03*
X137635000Y-123330000D03*
X140175000Y-123330000D03*
X142715000Y-123330000D03*
X145255000Y-123330000D03*
X147795000Y-123330000D03*
X150335000Y-123330000D03*
X150335000Y-115710000D03*
X147795000Y-115710000D03*
X145255000Y-115710000D03*
X142715000Y-115710000D03*
X140175000Y-115710000D03*
X137635000Y-115710000D03*
X135095000Y-115710000D03*
X132555000Y-115710000D03*
%TD*%
D22*
%TO.C,C16*%
X132535000Y-112550000D03*
X135485000Y-112550000D03*
%TD*%
M02*
