%TF.GenerationSoftware,KiCad,Pcbnew,(6.0.7)*%
%TF.CreationDate,2022-12-25T01:48:00-08:00*%
%TF.ProjectId,ControlBoard,436f6e74-726f-46c4-926f-6172642e6b69,rev?*%
%TF.SameCoordinates,Original*%
%TF.FileFunction,Soldermask,Bot*%
%TF.FilePolarity,Negative*%
%FSLAX46Y46*%
G04 Gerber Fmt 4.6, Leading zero omitted, Abs format (unit mm)*
G04 Created by KiCad (PCBNEW (6.0.7)) date 2022-12-25 01:48:00*
%MOMM*%
%LPD*%
G01*
G04 APERTURE LIST*
%ADD10C,1.400000*%
%ADD11O,1.400000X1.400000*%
%ADD12R,1.800000X1.800000*%
%ADD13C,1.800000*%
%ADD14O,1.800000X1.800000*%
%ADD15O,1.500000X1.500000*%
%ADD16O,1.700000X1.700000*%
%ADD17R,1.700000X1.700000*%
%ADD18R,1.600000X1.600000*%
%ADD19O,1.600000X1.600000*%
%ADD20R,1.508000X1.508000*%
%ADD21C,1.508000*%
%ADD22C,4.800000*%
%ADD23R,2.000000X2.000000*%
%ADD24C,2.000000*%
G04 APERTURE END LIST*
D10*
%TO.C,R10*%
X223260000Y-106670000D03*
D11*
X215640000Y-106670000D03*
%TD*%
D10*
%TO.C,R9*%
X220400000Y-78700000D03*
D11*
X212780000Y-78700000D03*
%TD*%
D10*
%TO.C,R8*%
X217320000Y-59990000D03*
D11*
X217320000Y-67610000D03*
%TD*%
D10*
%TO.C,R7*%
X218350000Y-41060000D03*
D11*
X218350000Y-48680000D03*
%TD*%
D10*
%TO.C,R6*%
X183300000Y-105840000D03*
D11*
X190920000Y-105840000D03*
%TD*%
D10*
%TO.C,R5*%
X183300000Y-112100000D03*
D11*
X190920000Y-112100000D03*
%TD*%
D12*
%TO.C,D6*%
X221100000Y-103885000D03*
D13*
X221100000Y-101345000D03*
%TD*%
D12*
%TO.C,D5*%
X222555000Y-78700000D03*
D13*
X225095000Y-78700000D03*
%TD*%
D12*
%TO.C,D4*%
X221970000Y-55005000D03*
D13*
X221970000Y-52465000D03*
%TD*%
D12*
%TO.C,D3*%
X218350000Y-38105000D03*
D13*
X218350000Y-35565000D03*
%TD*%
D12*
%TO.C,D2*%
X178075000Y-105860000D03*
D13*
X175535000Y-105860000D03*
%TD*%
D12*
%TO.C,D1*%
X178075000Y-112100000D03*
D13*
X175535000Y-112100000D03*
%TD*%
D10*
%TO.C,R4*%
X232980000Y-114840000D03*
D11*
X232980000Y-122460000D03*
%TD*%
D10*
%TO.C,R3*%
X232980000Y-91540000D03*
D11*
X232980000Y-99160000D03*
%TD*%
%TO.C,R2*%
X232980000Y-70600000D03*
D10*
X232980000Y-62980000D03*
%TD*%
%TO.C,R1*%
X232980000Y-38740000D03*
D11*
X232980000Y-46360000D03*
%TD*%
D14*
%TO.C,U2*%
X200595000Y-53415000D03*
X195145000Y-53415000D03*
D15*
X195445000Y-56445000D03*
X200295000Y-56445000D03*
D16*
X188980000Y-53285000D03*
X188980000Y-55825000D03*
D17*
X188980000Y-58365000D03*
D16*
X188980000Y-60905000D03*
X188980000Y-63445000D03*
X188980000Y-65985000D03*
X188980000Y-68525000D03*
D17*
X188980000Y-71065000D03*
D16*
X188980000Y-73605000D03*
X188980000Y-76145000D03*
X188980000Y-78685000D03*
X188980000Y-81225000D03*
D17*
X188980000Y-83765000D03*
D16*
X188980000Y-86305000D03*
X188980000Y-88845000D03*
X188980000Y-91385000D03*
X188980000Y-93925000D03*
D17*
X188980000Y-96465000D03*
D16*
X188980000Y-99005000D03*
X188980000Y-101545000D03*
X206760000Y-101545000D03*
X206760000Y-99005000D03*
D17*
X206760000Y-96465000D03*
D16*
X206760000Y-93925000D03*
X206760000Y-91385000D03*
X206760000Y-88845000D03*
X206760000Y-86305000D03*
D17*
X206760000Y-83765000D03*
D16*
X206760000Y-81225000D03*
X206760000Y-78685000D03*
X206760000Y-76145000D03*
X206760000Y-73605000D03*
D17*
X206760000Y-71065000D03*
D16*
X206760000Y-68525000D03*
X206760000Y-65985000D03*
X206760000Y-63445000D03*
X206760000Y-60905000D03*
D17*
X206760000Y-58365000D03*
D16*
X206760000Y-55825000D03*
X206760000Y-53285000D03*
X195330000Y-101315000D03*
D17*
X197870000Y-101315000D03*
D16*
X200410000Y-101315000D03*
%TD*%
D18*
%TO.C,U1*%
X142085000Y-87960000D03*
D19*
X144625000Y-87960000D03*
X147165000Y-87960000D03*
X149705000Y-87960000D03*
X152245000Y-87960000D03*
X154785000Y-87960000D03*
X157325000Y-87960000D03*
X159865000Y-87960000D03*
X159865000Y-80340000D03*
X157325000Y-80340000D03*
X154785000Y-80340000D03*
X152245000Y-80340000D03*
X149705000Y-80340000D03*
X147165000Y-80340000D03*
X144625000Y-80340000D03*
X142085000Y-80340000D03*
%TD*%
D20*
%TO.C,PS1*%
X166380000Y-64447500D03*
D21*
X166380000Y-61907500D03*
X166380000Y-59367500D03*
X166380000Y-54287500D03*
X166380000Y-51747500D03*
X166380000Y-49207500D03*
X166380000Y-46667500D03*
%TD*%
D22*
%TO.C,J1*%
X135779500Y-47280000D03*
X129979500Y-47280000D03*
X132779500Y-52080000D03*
%TD*%
D23*
%TO.C,C4*%
X167374880Y-87795119D03*
D24*
X167374880Y-80295119D03*
%TD*%
D23*
%TO.C,C3*%
X161417677Y-51740000D03*
D24*
X153917677Y-51740000D03*
%TD*%
%TO.C,C2*%
X133650000Y-80487677D03*
D23*
X133650000Y-87987677D03*
%TD*%
D24*
%TO.C,C1*%
X155175000Y-73102323D03*
D23*
X155175000Y-65602323D03*
%TD*%
M02*
