%TF.GenerationSoftware,KiCad,Pcbnew,(6.0.7)*%
%TF.CreationDate,2022-12-25T01:48:00-08:00*%
%TF.ProjectId,ControlBoard,436f6e74-726f-46c4-926f-6172642e6b69,rev?*%
%TF.SameCoordinates,Original*%
%TF.FileFunction,Legend,Top*%
%TF.FilePolarity,Positive*%
%FSLAX46Y46*%
G04 Gerber Fmt 4.6, Leading zero omitted, Abs format (unit mm)*
G04 Created by KiCad (PCBNEW (6.0.7)) date 2022-12-25 01:48:00*
%MOMM*%
%LPD*%
G01*
G04 APERTURE LIST*
%ADD10C,0.150000*%
%ADD11C,0.254000*%
%ADD12C,0.120000*%
%ADD13C,0.200000*%
%ADD14C,0.127000*%
G04 APERTURE END LIST*
D10*
X215228571Y-99254761D02*
X215371428Y-99302380D01*
X215609523Y-99302380D01*
X215704761Y-99254761D01*
X215752380Y-99207142D01*
X215800000Y-99111904D01*
X215800000Y-99016666D01*
X215752380Y-98921428D01*
X215704761Y-98873809D01*
X215609523Y-98826190D01*
X215419047Y-98778571D01*
X215323809Y-98730952D01*
X215276190Y-98683333D01*
X215228571Y-98588095D01*
X215228571Y-98492857D01*
X215276190Y-98397619D01*
X215323809Y-98350000D01*
X215419047Y-98302380D01*
X215657142Y-98302380D01*
X215800000Y-98350000D01*
X216133333Y-98635714D02*
X216323809Y-99302380D01*
X216514285Y-98826190D01*
X216704761Y-99302380D01*
X216895238Y-98635714D01*
X217276190Y-99302380D02*
X217276190Y-98635714D01*
X217276190Y-98302380D02*
X217228571Y-98350000D01*
X217276190Y-98397619D01*
X217323809Y-98350000D01*
X217276190Y-98302380D01*
X217276190Y-98397619D01*
X217609523Y-98635714D02*
X217990476Y-98635714D01*
X217752380Y-98302380D02*
X217752380Y-99159523D01*
X217800000Y-99254761D01*
X217895238Y-99302380D01*
X217990476Y-99302380D01*
X218752380Y-99254761D02*
X218657142Y-99302380D01*
X218466666Y-99302380D01*
X218371428Y-99254761D01*
X218323809Y-99207142D01*
X218276190Y-99111904D01*
X218276190Y-98826190D01*
X218323809Y-98730952D01*
X218371428Y-98683333D01*
X218466666Y-98635714D01*
X218657142Y-98635714D01*
X218752380Y-98683333D01*
X219180952Y-99302380D02*
X219180952Y-98302380D01*
X219609523Y-99302380D02*
X219609523Y-98778571D01*
X219561904Y-98683333D01*
X219466666Y-98635714D01*
X219323809Y-98635714D01*
X219228571Y-98683333D01*
X219180952Y-98730952D01*
X221276190Y-98635714D02*
X221276190Y-99302380D01*
X221038095Y-98254761D02*
X220800000Y-98969047D01*
X221419047Y-98969047D01*
X217088571Y-74224761D02*
X217231428Y-74272380D01*
X217469523Y-74272380D01*
X217564761Y-74224761D01*
X217612380Y-74177142D01*
X217660000Y-74081904D01*
X217660000Y-73986666D01*
X217612380Y-73891428D01*
X217564761Y-73843809D01*
X217469523Y-73796190D01*
X217279047Y-73748571D01*
X217183809Y-73700952D01*
X217136190Y-73653333D01*
X217088571Y-73558095D01*
X217088571Y-73462857D01*
X217136190Y-73367619D01*
X217183809Y-73320000D01*
X217279047Y-73272380D01*
X217517142Y-73272380D01*
X217660000Y-73320000D01*
X217993333Y-73605714D02*
X218183809Y-74272380D01*
X218374285Y-73796190D01*
X218564761Y-74272380D01*
X218755238Y-73605714D01*
X219136190Y-74272380D02*
X219136190Y-73605714D01*
X219136190Y-73272380D02*
X219088571Y-73320000D01*
X219136190Y-73367619D01*
X219183809Y-73320000D01*
X219136190Y-73272380D01*
X219136190Y-73367619D01*
X219469523Y-73605714D02*
X219850476Y-73605714D01*
X219612380Y-73272380D02*
X219612380Y-74129523D01*
X219660000Y-74224761D01*
X219755238Y-74272380D01*
X219850476Y-74272380D01*
X220612380Y-74224761D02*
X220517142Y-74272380D01*
X220326666Y-74272380D01*
X220231428Y-74224761D01*
X220183809Y-74177142D01*
X220136190Y-74081904D01*
X220136190Y-73796190D01*
X220183809Y-73700952D01*
X220231428Y-73653333D01*
X220326666Y-73605714D01*
X220517142Y-73605714D01*
X220612380Y-73653333D01*
X221040952Y-74272380D02*
X221040952Y-73272380D01*
X221469523Y-74272380D02*
X221469523Y-73748571D01*
X221421904Y-73653333D01*
X221326666Y-73605714D01*
X221183809Y-73605714D01*
X221088571Y-73653333D01*
X221040952Y-73700952D01*
X222612380Y-73272380D02*
X223231428Y-73272380D01*
X222898095Y-73653333D01*
X223040952Y-73653333D01*
X223136190Y-73700952D01*
X223183809Y-73748571D01*
X223231428Y-73843809D01*
X223231428Y-74081904D01*
X223183809Y-74177142D01*
X223136190Y-74224761D01*
X223040952Y-74272380D01*
X222755238Y-74272380D01*
X222660000Y-74224761D01*
X222612380Y-74177142D01*
X225198571Y-52114761D02*
X225341428Y-52162380D01*
X225579523Y-52162380D01*
X225674761Y-52114761D01*
X225722380Y-52067142D01*
X225770000Y-51971904D01*
X225770000Y-51876666D01*
X225722380Y-51781428D01*
X225674761Y-51733809D01*
X225579523Y-51686190D01*
X225389047Y-51638571D01*
X225293809Y-51590952D01*
X225246190Y-51543333D01*
X225198571Y-51448095D01*
X225198571Y-51352857D01*
X225246190Y-51257619D01*
X225293809Y-51210000D01*
X225389047Y-51162380D01*
X225627142Y-51162380D01*
X225770000Y-51210000D01*
X226103333Y-51495714D02*
X226293809Y-52162380D01*
X226484285Y-51686190D01*
X226674761Y-52162380D01*
X226865238Y-51495714D01*
X227246190Y-52162380D02*
X227246190Y-51495714D01*
X227246190Y-51162380D02*
X227198571Y-51210000D01*
X227246190Y-51257619D01*
X227293809Y-51210000D01*
X227246190Y-51162380D01*
X227246190Y-51257619D01*
X227579523Y-51495714D02*
X227960476Y-51495714D01*
X227722380Y-51162380D02*
X227722380Y-52019523D01*
X227770000Y-52114761D01*
X227865238Y-52162380D01*
X227960476Y-52162380D01*
X228722380Y-52114761D02*
X228627142Y-52162380D01*
X228436666Y-52162380D01*
X228341428Y-52114761D01*
X228293809Y-52067142D01*
X228246190Y-51971904D01*
X228246190Y-51686190D01*
X228293809Y-51590952D01*
X228341428Y-51543333D01*
X228436666Y-51495714D01*
X228627142Y-51495714D01*
X228722380Y-51543333D01*
X229150952Y-52162380D02*
X229150952Y-51162380D01*
X229579523Y-52162380D02*
X229579523Y-51638571D01*
X229531904Y-51543333D01*
X229436666Y-51495714D01*
X229293809Y-51495714D01*
X229198571Y-51543333D01*
X229150952Y-51590952D01*
X230770000Y-51257619D02*
X230817619Y-51210000D01*
X230912857Y-51162380D01*
X231150952Y-51162380D01*
X231246190Y-51210000D01*
X231293809Y-51257619D01*
X231341428Y-51352857D01*
X231341428Y-51448095D01*
X231293809Y-51590952D01*
X230722380Y-52162380D01*
X231341428Y-52162380D01*
X213778571Y-33554761D02*
X213921428Y-33602380D01*
X214159523Y-33602380D01*
X214254761Y-33554761D01*
X214302380Y-33507142D01*
X214350000Y-33411904D01*
X214350000Y-33316666D01*
X214302380Y-33221428D01*
X214254761Y-33173809D01*
X214159523Y-33126190D01*
X213969047Y-33078571D01*
X213873809Y-33030952D01*
X213826190Y-32983333D01*
X213778571Y-32888095D01*
X213778571Y-32792857D01*
X213826190Y-32697619D01*
X213873809Y-32650000D01*
X213969047Y-32602380D01*
X214207142Y-32602380D01*
X214350000Y-32650000D01*
X214683333Y-32935714D02*
X214873809Y-33602380D01*
X215064285Y-33126190D01*
X215254761Y-33602380D01*
X215445238Y-32935714D01*
X215826190Y-33602380D02*
X215826190Y-32935714D01*
X215826190Y-32602380D02*
X215778571Y-32650000D01*
X215826190Y-32697619D01*
X215873809Y-32650000D01*
X215826190Y-32602380D01*
X215826190Y-32697619D01*
X216159523Y-32935714D02*
X216540476Y-32935714D01*
X216302380Y-32602380D02*
X216302380Y-33459523D01*
X216350000Y-33554761D01*
X216445238Y-33602380D01*
X216540476Y-33602380D01*
X217302380Y-33554761D02*
X217207142Y-33602380D01*
X217016666Y-33602380D01*
X216921428Y-33554761D01*
X216873809Y-33507142D01*
X216826190Y-33411904D01*
X216826190Y-33126190D01*
X216873809Y-33030952D01*
X216921428Y-32983333D01*
X217016666Y-32935714D01*
X217207142Y-32935714D01*
X217302380Y-32983333D01*
X217730952Y-33602380D02*
X217730952Y-32602380D01*
X218159523Y-33602380D02*
X218159523Y-33078571D01*
X218111904Y-32983333D01*
X218016666Y-32935714D01*
X217873809Y-32935714D01*
X217778571Y-32983333D01*
X217730952Y-33030952D01*
X219921428Y-33602380D02*
X219350000Y-33602380D01*
X219635714Y-33602380D02*
X219635714Y-32602380D01*
X219540476Y-32745238D01*
X219445238Y-32840476D01*
X219350000Y-32888095D01*
X137758571Y-103762380D02*
X138330000Y-103762380D01*
X138044285Y-104762380D02*
X138044285Y-103762380D01*
X138806190Y-104762380D02*
X138710952Y-104714761D01*
X138663333Y-104667142D01*
X138615714Y-104571904D01*
X138615714Y-104286190D01*
X138663333Y-104190952D01*
X138710952Y-104143333D01*
X138806190Y-104095714D01*
X138949047Y-104095714D01*
X139044285Y-104143333D01*
X139091904Y-104190952D01*
X139139523Y-104286190D01*
X139139523Y-104571904D01*
X139091904Y-104667142D01*
X139044285Y-104714761D01*
X138949047Y-104762380D01*
X138806190Y-104762380D01*
X140901428Y-104762380D02*
X140568095Y-104286190D01*
X140330000Y-104762380D02*
X140330000Y-103762380D01*
X140710952Y-103762380D01*
X140806190Y-103810000D01*
X140853809Y-103857619D01*
X140901428Y-103952857D01*
X140901428Y-104095714D01*
X140853809Y-104190952D01*
X140806190Y-104238571D01*
X140710952Y-104286190D01*
X140330000Y-104286190D01*
X141758571Y-104762380D02*
X141758571Y-104238571D01*
X141710952Y-104143333D01*
X141615714Y-104095714D01*
X141425238Y-104095714D01*
X141330000Y-104143333D01*
X141758571Y-104714761D02*
X141663333Y-104762380D01*
X141425238Y-104762380D01*
X141330000Y-104714761D01*
X141282380Y-104619523D01*
X141282380Y-104524285D01*
X141330000Y-104429047D01*
X141425238Y-104381428D01*
X141663333Y-104381428D01*
X141758571Y-104333809D01*
X142234761Y-104762380D02*
X142234761Y-104095714D01*
X142234761Y-103762380D02*
X142187142Y-103810000D01*
X142234761Y-103857619D01*
X142282380Y-103810000D01*
X142234761Y-103762380D01*
X142234761Y-103857619D01*
X142853809Y-104762380D02*
X142758571Y-104714761D01*
X142710952Y-104619523D01*
X142710952Y-103762380D01*
X195790952Y-112822380D02*
X195790952Y-111822380D01*
X196029047Y-111822380D01*
X196171904Y-111870000D01*
X196267142Y-111965238D01*
X196314761Y-112060476D01*
X196362380Y-112250952D01*
X196362380Y-112393809D01*
X196314761Y-112584285D01*
X196267142Y-112679523D01*
X196171904Y-112774761D01*
X196029047Y-112822380D01*
X195790952Y-112822380D01*
X197362380Y-112727142D02*
X197314761Y-112774761D01*
X197171904Y-112822380D01*
X197076666Y-112822380D01*
X196933809Y-112774761D01*
X196838571Y-112679523D01*
X196790952Y-112584285D01*
X196743333Y-112393809D01*
X196743333Y-112250952D01*
X196790952Y-112060476D01*
X196838571Y-111965238D01*
X196933809Y-111870000D01*
X197076666Y-111822380D01*
X197171904Y-111822380D01*
X197314761Y-111870000D01*
X197362380Y-111917619D01*
X198410000Y-111822380D02*
X198981428Y-111822380D01*
X198695714Y-112822380D02*
X198695714Y-111822380D01*
X199314761Y-112822380D02*
X199314761Y-112155714D01*
X199314761Y-112346190D02*
X199362380Y-112250952D01*
X199410000Y-112203333D01*
X199505238Y-112155714D01*
X199600476Y-112155714D01*
X200362380Y-112822380D02*
X200362380Y-112298571D01*
X200314761Y-112203333D01*
X200219523Y-112155714D01*
X200029047Y-112155714D01*
X199933809Y-112203333D01*
X200362380Y-112774761D02*
X200267142Y-112822380D01*
X200029047Y-112822380D01*
X199933809Y-112774761D01*
X199886190Y-112679523D01*
X199886190Y-112584285D01*
X199933809Y-112489047D01*
X200029047Y-112441428D01*
X200267142Y-112441428D01*
X200362380Y-112393809D01*
X200838571Y-112822380D02*
X200838571Y-112155714D01*
X200838571Y-111822380D02*
X200790952Y-111870000D01*
X200838571Y-111917619D01*
X200886190Y-111870000D01*
X200838571Y-111822380D01*
X200838571Y-111917619D01*
X201314761Y-112155714D02*
X201314761Y-112822380D01*
X201314761Y-112250952D02*
X201362380Y-112203333D01*
X201457619Y-112155714D01*
X201600476Y-112155714D01*
X201695714Y-112203333D01*
X201743333Y-112298571D01*
X201743333Y-112822380D01*
X203552857Y-112727142D02*
X203505238Y-112774761D01*
X203362380Y-112822380D01*
X203267142Y-112822380D01*
X203124285Y-112774761D01*
X203029047Y-112679523D01*
X202981428Y-112584285D01*
X202933809Y-112393809D01*
X202933809Y-112250952D01*
X202981428Y-112060476D01*
X203029047Y-111965238D01*
X203124285Y-111870000D01*
X203267142Y-111822380D01*
X203362380Y-111822380D01*
X203505238Y-111870000D01*
X203552857Y-111917619D01*
X204124285Y-112822380D02*
X204029047Y-112774761D01*
X203981428Y-112727142D01*
X203933809Y-112631904D01*
X203933809Y-112346190D01*
X203981428Y-112250952D01*
X204029047Y-112203333D01*
X204124285Y-112155714D01*
X204267142Y-112155714D01*
X204362380Y-112203333D01*
X204410000Y-112250952D01*
X204457619Y-112346190D01*
X204457619Y-112631904D01*
X204410000Y-112727142D01*
X204362380Y-112774761D01*
X204267142Y-112822380D01*
X204124285Y-112822380D01*
X204886190Y-112155714D02*
X204886190Y-112822380D01*
X204886190Y-112250952D02*
X204933809Y-112203333D01*
X205029047Y-112155714D01*
X205171904Y-112155714D01*
X205267142Y-112203333D01*
X205314761Y-112298571D01*
X205314761Y-112822380D01*
X205648095Y-112155714D02*
X206029047Y-112155714D01*
X205790952Y-111822380D02*
X205790952Y-112679523D01*
X205838571Y-112774761D01*
X205933809Y-112822380D01*
X206029047Y-112822380D01*
X206362380Y-112822380D02*
X206362380Y-112155714D01*
X206362380Y-112346190D02*
X206410000Y-112250952D01*
X206457619Y-112203333D01*
X206552857Y-112155714D01*
X206648095Y-112155714D01*
X207124285Y-112822380D02*
X207029047Y-112774761D01*
X206981428Y-112727142D01*
X206933809Y-112631904D01*
X206933809Y-112346190D01*
X206981428Y-112250952D01*
X207029047Y-112203333D01*
X207124285Y-112155714D01*
X207267142Y-112155714D01*
X207362380Y-112203333D01*
X207410000Y-112250952D01*
X207457619Y-112346190D01*
X207457619Y-112631904D01*
X207410000Y-112727142D01*
X207362380Y-112774761D01*
X207267142Y-112822380D01*
X207124285Y-112822380D01*
X208029047Y-112822380D02*
X207933809Y-112774761D01*
X207886190Y-112679523D01*
X207886190Y-111822380D01*
X209505238Y-112298571D02*
X209648095Y-112346190D01*
X209695714Y-112393809D01*
X209743333Y-112489047D01*
X209743333Y-112631904D01*
X209695714Y-112727142D01*
X209648095Y-112774761D01*
X209552857Y-112822380D01*
X209171904Y-112822380D01*
X209171904Y-111822380D01*
X209505238Y-111822380D01*
X209600476Y-111870000D01*
X209648095Y-111917619D01*
X209695714Y-112012857D01*
X209695714Y-112108095D01*
X209648095Y-112203333D01*
X209600476Y-112250952D01*
X209505238Y-112298571D01*
X209171904Y-112298571D01*
X210314761Y-112822380D02*
X210219523Y-112774761D01*
X210171904Y-112727142D01*
X210124285Y-112631904D01*
X210124285Y-112346190D01*
X210171904Y-112250952D01*
X210219523Y-112203333D01*
X210314761Y-112155714D01*
X210457619Y-112155714D01*
X210552857Y-112203333D01*
X210600476Y-112250952D01*
X210648095Y-112346190D01*
X210648095Y-112631904D01*
X210600476Y-112727142D01*
X210552857Y-112774761D01*
X210457619Y-112822380D01*
X210314761Y-112822380D01*
X211505238Y-112822380D02*
X211505238Y-112298571D01*
X211457619Y-112203333D01*
X211362380Y-112155714D01*
X211171904Y-112155714D01*
X211076666Y-112203333D01*
X211505238Y-112774761D02*
X211410000Y-112822380D01*
X211171904Y-112822380D01*
X211076666Y-112774761D01*
X211029047Y-112679523D01*
X211029047Y-112584285D01*
X211076666Y-112489047D01*
X211171904Y-112441428D01*
X211410000Y-112441428D01*
X211505238Y-112393809D01*
X211981428Y-112822380D02*
X211981428Y-112155714D01*
X211981428Y-112346190D02*
X212029047Y-112250952D01*
X212076666Y-112203333D01*
X212171904Y-112155714D01*
X212267142Y-112155714D01*
X213029047Y-112822380D02*
X213029047Y-111822380D01*
X213029047Y-112774761D02*
X212933809Y-112822380D01*
X212743333Y-112822380D01*
X212648095Y-112774761D01*
X212600476Y-112727142D01*
X212552857Y-112631904D01*
X212552857Y-112346190D01*
X212600476Y-112250952D01*
X212648095Y-112203333D01*
X212743333Y-112155714D01*
X212933809Y-112155714D01*
X213029047Y-112203333D01*
X193671904Y-114432380D02*
X193671904Y-113432380D01*
X193910000Y-113432380D01*
X194052857Y-113480000D01*
X194148095Y-113575238D01*
X194195714Y-113670476D01*
X194243333Y-113860952D01*
X194243333Y-114003809D01*
X194195714Y-114194285D01*
X194148095Y-114289523D01*
X194052857Y-114384761D01*
X193910000Y-114432380D01*
X193671904Y-114432380D01*
X195052857Y-114384761D02*
X194957619Y-114432380D01*
X194767142Y-114432380D01*
X194671904Y-114384761D01*
X194624285Y-114289523D01*
X194624285Y-113908571D01*
X194671904Y-113813333D01*
X194767142Y-113765714D01*
X194957619Y-113765714D01*
X195052857Y-113813333D01*
X195100476Y-113908571D01*
X195100476Y-114003809D01*
X194624285Y-114099047D01*
X195481428Y-114384761D02*
X195576666Y-114432380D01*
X195767142Y-114432380D01*
X195862380Y-114384761D01*
X195910000Y-114289523D01*
X195910000Y-114241904D01*
X195862380Y-114146666D01*
X195767142Y-114099047D01*
X195624285Y-114099047D01*
X195529047Y-114051428D01*
X195481428Y-113956190D01*
X195481428Y-113908571D01*
X195529047Y-113813333D01*
X195624285Y-113765714D01*
X195767142Y-113765714D01*
X195862380Y-113813333D01*
X196338571Y-114432380D02*
X196338571Y-113765714D01*
X196338571Y-113432380D02*
X196290952Y-113480000D01*
X196338571Y-113527619D01*
X196386190Y-113480000D01*
X196338571Y-113432380D01*
X196338571Y-113527619D01*
X197243333Y-113765714D02*
X197243333Y-114575238D01*
X197195714Y-114670476D01*
X197148095Y-114718095D01*
X197052857Y-114765714D01*
X196910000Y-114765714D01*
X196814761Y-114718095D01*
X197243333Y-114384761D02*
X197148095Y-114432380D01*
X196957619Y-114432380D01*
X196862380Y-114384761D01*
X196814761Y-114337142D01*
X196767142Y-114241904D01*
X196767142Y-113956190D01*
X196814761Y-113860952D01*
X196862380Y-113813333D01*
X196957619Y-113765714D01*
X197148095Y-113765714D01*
X197243333Y-113813333D01*
X197719523Y-113765714D02*
X197719523Y-114432380D01*
X197719523Y-113860952D02*
X197767142Y-113813333D01*
X197862380Y-113765714D01*
X198005238Y-113765714D01*
X198100476Y-113813333D01*
X198148095Y-113908571D01*
X198148095Y-114432380D01*
X199005238Y-114384761D02*
X198910000Y-114432380D01*
X198719523Y-114432380D01*
X198624285Y-114384761D01*
X198576666Y-114289523D01*
X198576666Y-113908571D01*
X198624285Y-113813333D01*
X198719523Y-113765714D01*
X198910000Y-113765714D01*
X199005238Y-113813333D01*
X199052857Y-113908571D01*
X199052857Y-114003809D01*
X198576666Y-114099047D01*
X199910000Y-114432380D02*
X199910000Y-113432380D01*
X199910000Y-114384761D02*
X199814761Y-114432380D01*
X199624285Y-114432380D01*
X199529047Y-114384761D01*
X199481428Y-114337142D01*
X199433809Y-114241904D01*
X199433809Y-113956190D01*
X199481428Y-113860952D01*
X199529047Y-113813333D01*
X199624285Y-113765714D01*
X199814761Y-113765714D01*
X199910000Y-113813333D01*
X201148095Y-114432380D02*
X201148095Y-113432380D01*
X201148095Y-113813333D02*
X201243333Y-113765714D01*
X201433809Y-113765714D01*
X201529047Y-113813333D01*
X201576666Y-113860952D01*
X201624285Y-113956190D01*
X201624285Y-114241904D01*
X201576666Y-114337142D01*
X201529047Y-114384761D01*
X201433809Y-114432380D01*
X201243333Y-114432380D01*
X201148095Y-114384761D01*
X201957619Y-113765714D02*
X202195714Y-114432380D01*
X202433809Y-113765714D02*
X202195714Y-114432380D01*
X202100476Y-114670476D01*
X202052857Y-114718095D01*
X201957619Y-114765714D01*
X203576666Y-114432380D02*
X203576666Y-113432380D01*
X203910000Y-114146666D01*
X204243333Y-113432380D01*
X204243333Y-114432380D01*
X204719523Y-114432380D02*
X204719523Y-113765714D01*
X204719523Y-113432380D02*
X204671904Y-113480000D01*
X204719523Y-113527619D01*
X204767142Y-113480000D01*
X204719523Y-113432380D01*
X204719523Y-113527619D01*
X205624285Y-114384761D02*
X205529047Y-114432380D01*
X205338571Y-114432380D01*
X205243333Y-114384761D01*
X205195714Y-114337142D01*
X205148095Y-114241904D01*
X205148095Y-113956190D01*
X205195714Y-113860952D01*
X205243333Y-113813333D01*
X205338571Y-113765714D01*
X205529047Y-113765714D01*
X205624285Y-113813333D01*
X206052857Y-114432380D02*
X206052857Y-113432380D01*
X206481428Y-114432380D02*
X206481428Y-113908571D01*
X206433809Y-113813333D01*
X206338571Y-113765714D01*
X206195714Y-113765714D01*
X206100476Y-113813333D01*
X206052857Y-113860952D01*
X207386190Y-114432380D02*
X207386190Y-113908571D01*
X207338571Y-113813333D01*
X207243333Y-113765714D01*
X207052857Y-113765714D01*
X206957619Y-113813333D01*
X207386190Y-114384761D02*
X207290952Y-114432380D01*
X207052857Y-114432380D01*
X206957619Y-114384761D01*
X206910000Y-114289523D01*
X206910000Y-114194285D01*
X206957619Y-114099047D01*
X207052857Y-114051428D01*
X207290952Y-114051428D01*
X207386190Y-114003809D01*
X208243333Y-114384761D02*
X208148095Y-114432380D01*
X207957619Y-114432380D01*
X207862380Y-114384761D01*
X207814761Y-114289523D01*
X207814761Y-113908571D01*
X207862380Y-113813333D01*
X207957619Y-113765714D01*
X208148095Y-113765714D01*
X208243333Y-113813333D01*
X208290952Y-113908571D01*
X208290952Y-114003809D01*
X207814761Y-114099047D01*
X208862380Y-114432380D02*
X208767142Y-114384761D01*
X208719523Y-114289523D01*
X208719523Y-113432380D01*
X210529047Y-113480000D02*
X210433809Y-113432380D01*
X210290952Y-113432380D01*
X210148095Y-113480000D01*
X210052857Y-113575238D01*
X210005238Y-113670476D01*
X209957619Y-113860952D01*
X209957619Y-114003809D01*
X210005238Y-114194285D01*
X210052857Y-114289523D01*
X210148095Y-114384761D01*
X210290952Y-114432380D01*
X210386190Y-114432380D01*
X210529047Y-114384761D01*
X210576666Y-114337142D01*
X210576666Y-114003809D01*
X210386190Y-114003809D01*
X211433809Y-114432380D02*
X211433809Y-113908571D01*
X211386190Y-113813333D01*
X211290952Y-113765714D01*
X211100476Y-113765714D01*
X211005238Y-113813333D01*
X211433809Y-114384761D02*
X211338571Y-114432380D01*
X211100476Y-114432380D01*
X211005238Y-114384761D01*
X210957619Y-114289523D01*
X210957619Y-114194285D01*
X211005238Y-114099047D01*
X211100476Y-114051428D01*
X211338571Y-114051428D01*
X211433809Y-114003809D01*
X211910000Y-114432380D02*
X211910000Y-113765714D01*
X211910000Y-113860952D02*
X211957619Y-113813333D01*
X212052857Y-113765714D01*
X212195714Y-113765714D01*
X212290952Y-113813333D01*
X212338571Y-113908571D01*
X212338571Y-114432380D01*
X212338571Y-113908571D02*
X212386190Y-113813333D01*
X212481428Y-113765714D01*
X212624285Y-113765714D01*
X212719523Y-113813333D01*
X212767142Y-113908571D01*
X212767142Y-114432380D01*
X213386190Y-114432380D02*
X213290952Y-114384761D01*
X213243333Y-114337142D01*
X213195714Y-114241904D01*
X213195714Y-113956190D01*
X213243333Y-113860952D01*
X213290952Y-113813333D01*
X213386190Y-113765714D01*
X213529047Y-113765714D01*
X213624285Y-113813333D01*
X213671904Y-113860952D01*
X213719523Y-113956190D01*
X213719523Y-114241904D01*
X213671904Y-114337142D01*
X213624285Y-114384761D01*
X213529047Y-114432380D01*
X213386190Y-114432380D01*
X214005238Y-113765714D02*
X214386190Y-113765714D01*
X214148095Y-113432380D02*
X214148095Y-114289523D01*
X214195714Y-114384761D01*
X214290952Y-114432380D01*
X214386190Y-114432380D01*
X215148095Y-114432380D02*
X215148095Y-113908571D01*
X215100476Y-113813333D01*
X215005238Y-113765714D01*
X214814761Y-113765714D01*
X214719523Y-113813333D01*
X215148095Y-114384761D02*
X215052857Y-114432380D01*
X214814761Y-114432380D01*
X214719523Y-114384761D01*
X214671904Y-114289523D01*
X214671904Y-114194285D01*
X214719523Y-114099047D01*
X214814761Y-114051428D01*
X215052857Y-114051428D01*
X215148095Y-114003809D01*
X202695714Y-115137619D02*
X202743333Y-115090000D01*
X202838571Y-115042380D01*
X203076666Y-115042380D01*
X203171904Y-115090000D01*
X203219523Y-115137619D01*
X203267142Y-115232857D01*
X203267142Y-115328095D01*
X203219523Y-115470952D01*
X202648095Y-116042380D01*
X203267142Y-116042380D01*
X203886190Y-115042380D02*
X203981428Y-115042380D01*
X204076666Y-115090000D01*
X204124285Y-115137619D01*
X204171904Y-115232857D01*
X204219523Y-115423333D01*
X204219523Y-115661428D01*
X204171904Y-115851904D01*
X204124285Y-115947142D01*
X204076666Y-115994761D01*
X203981428Y-116042380D01*
X203886190Y-116042380D01*
X203790952Y-115994761D01*
X203743333Y-115947142D01*
X203695714Y-115851904D01*
X203648095Y-115661428D01*
X203648095Y-115423333D01*
X203695714Y-115232857D01*
X203743333Y-115137619D01*
X203790952Y-115090000D01*
X203886190Y-115042380D01*
X204600476Y-115137619D02*
X204648095Y-115090000D01*
X204743333Y-115042380D01*
X204981428Y-115042380D01*
X205076666Y-115090000D01*
X205124285Y-115137619D01*
X205171904Y-115232857D01*
X205171904Y-115328095D01*
X205124285Y-115470952D01*
X204552857Y-116042380D01*
X205171904Y-116042380D01*
X205552857Y-115137619D02*
X205600476Y-115090000D01*
X205695714Y-115042380D01*
X205933809Y-115042380D01*
X206029047Y-115090000D01*
X206076666Y-115137619D01*
X206124285Y-115232857D01*
X206124285Y-115328095D01*
X206076666Y-115470952D01*
X205505238Y-116042380D01*
X206124285Y-116042380D01*
%TO.C,R10*%
X218807142Y-109042380D02*
X218473809Y-108566190D01*
X218235714Y-109042380D02*
X218235714Y-108042380D01*
X218616666Y-108042380D01*
X218711904Y-108090000D01*
X218759523Y-108137619D01*
X218807142Y-108232857D01*
X218807142Y-108375714D01*
X218759523Y-108470952D01*
X218711904Y-108518571D01*
X218616666Y-108566190D01*
X218235714Y-108566190D01*
X219759523Y-109042380D02*
X219188095Y-109042380D01*
X219473809Y-109042380D02*
X219473809Y-108042380D01*
X219378571Y-108185238D01*
X219283333Y-108280476D01*
X219188095Y-108328095D01*
X220378571Y-108042380D02*
X220473809Y-108042380D01*
X220569047Y-108090000D01*
X220616666Y-108137619D01*
X220664285Y-108232857D01*
X220711904Y-108423333D01*
X220711904Y-108661428D01*
X220664285Y-108851904D01*
X220616666Y-108947142D01*
X220569047Y-108994761D01*
X220473809Y-109042380D01*
X220378571Y-109042380D01*
X220283333Y-108994761D01*
X220235714Y-108947142D01*
X220188095Y-108851904D01*
X220140476Y-108661428D01*
X220140476Y-108423333D01*
X220188095Y-108232857D01*
X220235714Y-108137619D01*
X220283333Y-108090000D01*
X220378571Y-108042380D01*
%TO.C,R9*%
X216423333Y-81072380D02*
X216090000Y-80596190D01*
X215851904Y-81072380D02*
X215851904Y-80072380D01*
X216232857Y-80072380D01*
X216328095Y-80120000D01*
X216375714Y-80167619D01*
X216423333Y-80262857D01*
X216423333Y-80405714D01*
X216375714Y-80500952D01*
X216328095Y-80548571D01*
X216232857Y-80596190D01*
X215851904Y-80596190D01*
X216899523Y-81072380D02*
X217090000Y-81072380D01*
X217185238Y-81024761D01*
X217232857Y-80977142D01*
X217328095Y-80834285D01*
X217375714Y-80643809D01*
X217375714Y-80262857D01*
X217328095Y-80167619D01*
X217280476Y-80120000D01*
X217185238Y-80072380D01*
X216994761Y-80072380D01*
X216899523Y-80120000D01*
X216851904Y-80167619D01*
X216804285Y-80262857D01*
X216804285Y-80500952D01*
X216851904Y-80596190D01*
X216899523Y-80643809D01*
X216994761Y-80691428D01*
X217185238Y-80691428D01*
X217280476Y-80643809D01*
X217328095Y-80596190D01*
X217375714Y-80500952D01*
%TO.C,R8*%
X219692380Y-63966666D02*
X219216190Y-64300000D01*
X219692380Y-64538095D02*
X218692380Y-64538095D01*
X218692380Y-64157142D01*
X218740000Y-64061904D01*
X218787619Y-64014285D01*
X218882857Y-63966666D01*
X219025714Y-63966666D01*
X219120952Y-64014285D01*
X219168571Y-64061904D01*
X219216190Y-64157142D01*
X219216190Y-64538095D01*
X219120952Y-63395238D02*
X219073333Y-63490476D01*
X219025714Y-63538095D01*
X218930476Y-63585714D01*
X218882857Y-63585714D01*
X218787619Y-63538095D01*
X218740000Y-63490476D01*
X218692380Y-63395238D01*
X218692380Y-63204761D01*
X218740000Y-63109523D01*
X218787619Y-63061904D01*
X218882857Y-63014285D01*
X218930476Y-63014285D01*
X219025714Y-63061904D01*
X219073333Y-63109523D01*
X219120952Y-63204761D01*
X219120952Y-63395238D01*
X219168571Y-63490476D01*
X219216190Y-63538095D01*
X219311428Y-63585714D01*
X219501904Y-63585714D01*
X219597142Y-63538095D01*
X219644761Y-63490476D01*
X219692380Y-63395238D01*
X219692380Y-63204761D01*
X219644761Y-63109523D01*
X219597142Y-63061904D01*
X219501904Y-63014285D01*
X219311428Y-63014285D01*
X219216190Y-63061904D01*
X219168571Y-63109523D01*
X219120952Y-63204761D01*
%TO.C,R7*%
X220722380Y-45036666D02*
X220246190Y-45370000D01*
X220722380Y-45608095D02*
X219722380Y-45608095D01*
X219722380Y-45227142D01*
X219770000Y-45131904D01*
X219817619Y-45084285D01*
X219912857Y-45036666D01*
X220055714Y-45036666D01*
X220150952Y-45084285D01*
X220198571Y-45131904D01*
X220246190Y-45227142D01*
X220246190Y-45608095D01*
X219722380Y-44703333D02*
X219722380Y-44036666D01*
X220722380Y-44465238D01*
%TO.C,R6*%
X186943333Y-104372380D02*
X186610000Y-103896190D01*
X186371904Y-104372380D02*
X186371904Y-103372380D01*
X186752857Y-103372380D01*
X186848095Y-103420000D01*
X186895714Y-103467619D01*
X186943333Y-103562857D01*
X186943333Y-103705714D01*
X186895714Y-103800952D01*
X186848095Y-103848571D01*
X186752857Y-103896190D01*
X186371904Y-103896190D01*
X187800476Y-103372380D02*
X187610000Y-103372380D01*
X187514761Y-103420000D01*
X187467142Y-103467619D01*
X187371904Y-103610476D01*
X187324285Y-103800952D01*
X187324285Y-104181904D01*
X187371904Y-104277142D01*
X187419523Y-104324761D01*
X187514761Y-104372380D01*
X187705238Y-104372380D01*
X187800476Y-104324761D01*
X187848095Y-104277142D01*
X187895714Y-104181904D01*
X187895714Y-103943809D01*
X187848095Y-103848571D01*
X187800476Y-103800952D01*
X187705238Y-103753333D01*
X187514761Y-103753333D01*
X187419523Y-103800952D01*
X187371904Y-103848571D01*
X187324285Y-103943809D01*
%TO.C,R5*%
X186943333Y-110632380D02*
X186610000Y-110156190D01*
X186371904Y-110632380D02*
X186371904Y-109632380D01*
X186752857Y-109632380D01*
X186848095Y-109680000D01*
X186895714Y-109727619D01*
X186943333Y-109822857D01*
X186943333Y-109965714D01*
X186895714Y-110060952D01*
X186848095Y-110108571D01*
X186752857Y-110156190D01*
X186371904Y-110156190D01*
X187848095Y-109632380D02*
X187371904Y-109632380D01*
X187324285Y-110108571D01*
X187371904Y-110060952D01*
X187467142Y-110013333D01*
X187705238Y-110013333D01*
X187800476Y-110060952D01*
X187848095Y-110108571D01*
X187895714Y-110203809D01*
X187895714Y-110441904D01*
X187848095Y-110537142D01*
X187800476Y-110584761D01*
X187705238Y-110632380D01*
X187467142Y-110632380D01*
X187371904Y-110584761D01*
X187324285Y-110537142D01*
%TO.C,D6*%
X218592380Y-103353095D02*
X217592380Y-103353095D01*
X217592380Y-103115000D01*
X217640000Y-102972142D01*
X217735238Y-102876904D01*
X217830476Y-102829285D01*
X218020952Y-102781666D01*
X218163809Y-102781666D01*
X218354285Y-102829285D01*
X218449523Y-102876904D01*
X218544761Y-102972142D01*
X218592380Y-103115000D01*
X218592380Y-103353095D01*
X217592380Y-101924523D02*
X217592380Y-102115000D01*
X217640000Y-102210238D01*
X217687619Y-102257857D01*
X217830476Y-102353095D01*
X218020952Y-102400714D01*
X218401904Y-102400714D01*
X218497142Y-102353095D01*
X218544761Y-102305476D01*
X218592380Y-102210238D01*
X218592380Y-102019761D01*
X218544761Y-101924523D01*
X218497142Y-101876904D01*
X218401904Y-101829285D01*
X218163809Y-101829285D01*
X218068571Y-101876904D01*
X218020952Y-101924523D01*
X217973333Y-102019761D01*
X217973333Y-102210238D01*
X218020952Y-102305476D01*
X218068571Y-102353095D01*
X218163809Y-102400714D01*
%TO.C,D5*%
X223086904Y-76192380D02*
X223086904Y-75192380D01*
X223325000Y-75192380D01*
X223467857Y-75240000D01*
X223563095Y-75335238D01*
X223610714Y-75430476D01*
X223658333Y-75620952D01*
X223658333Y-75763809D01*
X223610714Y-75954285D01*
X223563095Y-76049523D01*
X223467857Y-76144761D01*
X223325000Y-76192380D01*
X223086904Y-76192380D01*
X224563095Y-75192380D02*
X224086904Y-75192380D01*
X224039285Y-75668571D01*
X224086904Y-75620952D01*
X224182142Y-75573333D01*
X224420238Y-75573333D01*
X224515476Y-75620952D01*
X224563095Y-75668571D01*
X224610714Y-75763809D01*
X224610714Y-76001904D01*
X224563095Y-76097142D01*
X224515476Y-76144761D01*
X224420238Y-76192380D01*
X224182142Y-76192380D01*
X224086904Y-76144761D01*
X224039285Y-76097142D01*
%TO.C,D4*%
X219462380Y-54473095D02*
X218462380Y-54473095D01*
X218462380Y-54235000D01*
X218510000Y-54092142D01*
X218605238Y-53996904D01*
X218700476Y-53949285D01*
X218890952Y-53901666D01*
X219033809Y-53901666D01*
X219224285Y-53949285D01*
X219319523Y-53996904D01*
X219414761Y-54092142D01*
X219462380Y-54235000D01*
X219462380Y-54473095D01*
X218795714Y-53044523D02*
X219462380Y-53044523D01*
X218414761Y-53282619D02*
X219129047Y-53520714D01*
X219129047Y-52901666D01*
%TO.C,D3*%
X215842380Y-37573095D02*
X214842380Y-37573095D01*
X214842380Y-37335000D01*
X214890000Y-37192142D01*
X214985238Y-37096904D01*
X215080476Y-37049285D01*
X215270952Y-37001666D01*
X215413809Y-37001666D01*
X215604285Y-37049285D01*
X215699523Y-37096904D01*
X215794761Y-37192142D01*
X215842380Y-37335000D01*
X215842380Y-37573095D01*
X214842380Y-36668333D02*
X214842380Y-36049285D01*
X215223333Y-36382619D01*
X215223333Y-36239761D01*
X215270952Y-36144523D01*
X215318571Y-36096904D01*
X215413809Y-36049285D01*
X215651904Y-36049285D01*
X215747142Y-36096904D01*
X215794761Y-36144523D01*
X215842380Y-36239761D01*
X215842380Y-36525476D01*
X215794761Y-36620714D01*
X215747142Y-36668333D01*
%TO.C,D2*%
X176066904Y-109272380D02*
X176066904Y-108272380D01*
X176305000Y-108272380D01*
X176447857Y-108320000D01*
X176543095Y-108415238D01*
X176590714Y-108510476D01*
X176638333Y-108700952D01*
X176638333Y-108843809D01*
X176590714Y-109034285D01*
X176543095Y-109129523D01*
X176447857Y-109224761D01*
X176305000Y-109272380D01*
X176066904Y-109272380D01*
X177019285Y-108367619D02*
X177066904Y-108320000D01*
X177162142Y-108272380D01*
X177400238Y-108272380D01*
X177495476Y-108320000D01*
X177543095Y-108367619D01*
X177590714Y-108462857D01*
X177590714Y-108558095D01*
X177543095Y-108700952D01*
X176971666Y-109272380D01*
X177590714Y-109272380D01*
%TO.C,D1*%
X176066904Y-115512380D02*
X176066904Y-114512380D01*
X176305000Y-114512380D01*
X176447857Y-114560000D01*
X176543095Y-114655238D01*
X176590714Y-114750476D01*
X176638333Y-114940952D01*
X176638333Y-115083809D01*
X176590714Y-115274285D01*
X176543095Y-115369523D01*
X176447857Y-115464761D01*
X176305000Y-115512380D01*
X176066904Y-115512380D01*
X177590714Y-115512380D02*
X177019285Y-115512380D01*
X177305000Y-115512380D02*
X177305000Y-114512380D01*
X177209761Y-114655238D01*
X177114523Y-114750476D01*
X177019285Y-114798095D01*
%TO.C,G4R2*%
X240279523Y-108822000D02*
X240184285Y-108774380D01*
X240041428Y-108774380D01*
X239898571Y-108822000D01*
X239803333Y-108917238D01*
X239755714Y-109012476D01*
X239708095Y-109202952D01*
X239708095Y-109345809D01*
X239755714Y-109536285D01*
X239803333Y-109631523D01*
X239898571Y-109726761D01*
X240041428Y-109774380D01*
X240136666Y-109774380D01*
X240279523Y-109726761D01*
X240327142Y-109679142D01*
X240327142Y-109345809D01*
X240136666Y-109345809D01*
X241184285Y-109107714D02*
X241184285Y-109774380D01*
X240946190Y-108726761D02*
X240708095Y-109441047D01*
X241327142Y-109441047D01*
X242279523Y-109774380D02*
X241946190Y-109298190D01*
X241708095Y-109774380D02*
X241708095Y-108774380D01*
X242089047Y-108774380D01*
X242184285Y-108822000D01*
X242231904Y-108869619D01*
X242279523Y-108964857D01*
X242279523Y-109107714D01*
X242231904Y-109202952D01*
X242184285Y-109250571D01*
X242089047Y-109298190D01*
X241708095Y-109298190D01*
X242660476Y-108869619D02*
X242708095Y-108822000D01*
X242803333Y-108774380D01*
X243041428Y-108774380D01*
X243136666Y-108822000D01*
X243184285Y-108869619D01*
X243231904Y-108964857D01*
X243231904Y-109060095D01*
X243184285Y-109202952D01*
X242612857Y-109774380D01*
X243231904Y-109774380D01*
%TO.C,G4M2*%
X240208095Y-113342000D02*
X240112857Y-113294380D01*
X239970000Y-113294380D01*
X239827142Y-113342000D01*
X239731904Y-113437238D01*
X239684285Y-113532476D01*
X239636666Y-113722952D01*
X239636666Y-113865809D01*
X239684285Y-114056285D01*
X239731904Y-114151523D01*
X239827142Y-114246761D01*
X239970000Y-114294380D01*
X240065238Y-114294380D01*
X240208095Y-114246761D01*
X240255714Y-114199142D01*
X240255714Y-113865809D01*
X240065238Y-113865809D01*
X241112857Y-113627714D02*
X241112857Y-114294380D01*
X240874761Y-113246761D02*
X240636666Y-113961047D01*
X241255714Y-113961047D01*
X241636666Y-114294380D02*
X241636666Y-113294380D01*
X241970000Y-114008666D01*
X242303333Y-113294380D01*
X242303333Y-114294380D01*
X242731904Y-113389619D02*
X242779523Y-113342000D01*
X242874761Y-113294380D01*
X243112857Y-113294380D01*
X243208095Y-113342000D01*
X243255714Y-113389619D01*
X243303333Y-113484857D01*
X243303333Y-113580095D01*
X243255714Y-113722952D01*
X242684285Y-114294380D01*
X243303333Y-114294380D01*
%TO.C,G4L2*%
X240354761Y-117882000D02*
X240259523Y-117834380D01*
X240116666Y-117834380D01*
X239973809Y-117882000D01*
X239878571Y-117977238D01*
X239830952Y-118072476D01*
X239783333Y-118262952D01*
X239783333Y-118405809D01*
X239830952Y-118596285D01*
X239878571Y-118691523D01*
X239973809Y-118786761D01*
X240116666Y-118834380D01*
X240211904Y-118834380D01*
X240354761Y-118786761D01*
X240402380Y-118739142D01*
X240402380Y-118405809D01*
X240211904Y-118405809D01*
X241259523Y-118167714D02*
X241259523Y-118834380D01*
X241021428Y-117786761D02*
X240783333Y-118501047D01*
X241402380Y-118501047D01*
X242259523Y-118834380D02*
X241783333Y-118834380D01*
X241783333Y-117834380D01*
X242545238Y-117929619D02*
X242592857Y-117882000D01*
X242688095Y-117834380D01*
X242926190Y-117834380D01*
X243021428Y-117882000D01*
X243069047Y-117929619D01*
X243116666Y-118024857D01*
X243116666Y-118120095D01*
X243069047Y-118262952D01*
X242497619Y-118834380D01*
X243116666Y-118834380D01*
%TO.C,G3R2*%
X240309523Y-86312000D02*
X240214285Y-86264380D01*
X240071428Y-86264380D01*
X239928571Y-86312000D01*
X239833333Y-86407238D01*
X239785714Y-86502476D01*
X239738095Y-86692952D01*
X239738095Y-86835809D01*
X239785714Y-87026285D01*
X239833333Y-87121523D01*
X239928571Y-87216761D01*
X240071428Y-87264380D01*
X240166666Y-87264380D01*
X240309523Y-87216761D01*
X240357142Y-87169142D01*
X240357142Y-86835809D01*
X240166666Y-86835809D01*
X240690476Y-86264380D02*
X241309523Y-86264380D01*
X240976190Y-86645333D01*
X241119047Y-86645333D01*
X241214285Y-86692952D01*
X241261904Y-86740571D01*
X241309523Y-86835809D01*
X241309523Y-87073904D01*
X241261904Y-87169142D01*
X241214285Y-87216761D01*
X241119047Y-87264380D01*
X240833333Y-87264380D01*
X240738095Y-87216761D01*
X240690476Y-87169142D01*
X242309523Y-87264380D02*
X241976190Y-86788190D01*
X241738095Y-87264380D02*
X241738095Y-86264380D01*
X242119047Y-86264380D01*
X242214285Y-86312000D01*
X242261904Y-86359619D01*
X242309523Y-86454857D01*
X242309523Y-86597714D01*
X242261904Y-86692952D01*
X242214285Y-86740571D01*
X242119047Y-86788190D01*
X241738095Y-86788190D01*
X242690476Y-86359619D02*
X242738095Y-86312000D01*
X242833333Y-86264380D01*
X243071428Y-86264380D01*
X243166666Y-86312000D01*
X243214285Y-86359619D01*
X243261904Y-86454857D01*
X243261904Y-86550095D01*
X243214285Y-86692952D01*
X242642857Y-87264380D01*
X243261904Y-87264380D01*
%TO.C,G3M2*%
X240178095Y-90872000D02*
X240082857Y-90824380D01*
X239940000Y-90824380D01*
X239797142Y-90872000D01*
X239701904Y-90967238D01*
X239654285Y-91062476D01*
X239606666Y-91252952D01*
X239606666Y-91395809D01*
X239654285Y-91586285D01*
X239701904Y-91681523D01*
X239797142Y-91776761D01*
X239940000Y-91824380D01*
X240035238Y-91824380D01*
X240178095Y-91776761D01*
X240225714Y-91729142D01*
X240225714Y-91395809D01*
X240035238Y-91395809D01*
X240559047Y-90824380D02*
X241178095Y-90824380D01*
X240844761Y-91205333D01*
X240987619Y-91205333D01*
X241082857Y-91252952D01*
X241130476Y-91300571D01*
X241178095Y-91395809D01*
X241178095Y-91633904D01*
X241130476Y-91729142D01*
X241082857Y-91776761D01*
X240987619Y-91824380D01*
X240701904Y-91824380D01*
X240606666Y-91776761D01*
X240559047Y-91729142D01*
X241606666Y-91824380D02*
X241606666Y-90824380D01*
X241940000Y-91538666D01*
X242273333Y-90824380D01*
X242273333Y-91824380D01*
X242701904Y-90919619D02*
X242749523Y-90872000D01*
X242844761Y-90824380D01*
X243082857Y-90824380D01*
X243178095Y-90872000D01*
X243225714Y-90919619D01*
X243273333Y-91014857D01*
X243273333Y-91110095D01*
X243225714Y-91252952D01*
X242654285Y-91824380D01*
X243273333Y-91824380D01*
%TO.C,G3L2*%
X240334761Y-95362000D02*
X240239523Y-95314380D01*
X240096666Y-95314380D01*
X239953809Y-95362000D01*
X239858571Y-95457238D01*
X239810952Y-95552476D01*
X239763333Y-95742952D01*
X239763333Y-95885809D01*
X239810952Y-96076285D01*
X239858571Y-96171523D01*
X239953809Y-96266761D01*
X240096666Y-96314380D01*
X240191904Y-96314380D01*
X240334761Y-96266761D01*
X240382380Y-96219142D01*
X240382380Y-95885809D01*
X240191904Y-95885809D01*
X240715714Y-95314380D02*
X241334761Y-95314380D01*
X241001428Y-95695333D01*
X241144285Y-95695333D01*
X241239523Y-95742952D01*
X241287142Y-95790571D01*
X241334761Y-95885809D01*
X241334761Y-96123904D01*
X241287142Y-96219142D01*
X241239523Y-96266761D01*
X241144285Y-96314380D01*
X240858571Y-96314380D01*
X240763333Y-96266761D01*
X240715714Y-96219142D01*
X242239523Y-96314380D02*
X241763333Y-96314380D01*
X241763333Y-95314380D01*
X242525238Y-95409619D02*
X242572857Y-95362000D01*
X242668095Y-95314380D01*
X242906190Y-95314380D01*
X243001428Y-95362000D01*
X243049047Y-95409619D01*
X243096666Y-95504857D01*
X243096666Y-95600095D01*
X243049047Y-95742952D01*
X242477619Y-96314380D01*
X243096666Y-96314380D01*
%TO.C,G2R2*%
X240209523Y-51352000D02*
X240114285Y-51304380D01*
X239971428Y-51304380D01*
X239828571Y-51352000D01*
X239733333Y-51447238D01*
X239685714Y-51542476D01*
X239638095Y-51732952D01*
X239638095Y-51875809D01*
X239685714Y-52066285D01*
X239733333Y-52161523D01*
X239828571Y-52256761D01*
X239971428Y-52304380D01*
X240066666Y-52304380D01*
X240209523Y-52256761D01*
X240257142Y-52209142D01*
X240257142Y-51875809D01*
X240066666Y-51875809D01*
X240638095Y-51399619D02*
X240685714Y-51352000D01*
X240780952Y-51304380D01*
X241019047Y-51304380D01*
X241114285Y-51352000D01*
X241161904Y-51399619D01*
X241209523Y-51494857D01*
X241209523Y-51590095D01*
X241161904Y-51732952D01*
X240590476Y-52304380D01*
X241209523Y-52304380D01*
X242209523Y-52304380D02*
X241876190Y-51828190D01*
X241638095Y-52304380D02*
X241638095Y-51304380D01*
X242019047Y-51304380D01*
X242114285Y-51352000D01*
X242161904Y-51399619D01*
X242209523Y-51494857D01*
X242209523Y-51637714D01*
X242161904Y-51732952D01*
X242114285Y-51780571D01*
X242019047Y-51828190D01*
X241638095Y-51828190D01*
X242590476Y-51399619D02*
X242638095Y-51352000D01*
X242733333Y-51304380D01*
X242971428Y-51304380D01*
X243066666Y-51352000D01*
X243114285Y-51399619D01*
X243161904Y-51494857D01*
X243161904Y-51590095D01*
X243114285Y-51732952D01*
X242542857Y-52304380D01*
X243161904Y-52304380D01*
%TO.C,G2M2*%
X240158095Y-55842000D02*
X240062857Y-55794380D01*
X239920000Y-55794380D01*
X239777142Y-55842000D01*
X239681904Y-55937238D01*
X239634285Y-56032476D01*
X239586666Y-56222952D01*
X239586666Y-56365809D01*
X239634285Y-56556285D01*
X239681904Y-56651523D01*
X239777142Y-56746761D01*
X239920000Y-56794380D01*
X240015238Y-56794380D01*
X240158095Y-56746761D01*
X240205714Y-56699142D01*
X240205714Y-56365809D01*
X240015238Y-56365809D01*
X240586666Y-55889619D02*
X240634285Y-55842000D01*
X240729523Y-55794380D01*
X240967619Y-55794380D01*
X241062857Y-55842000D01*
X241110476Y-55889619D01*
X241158095Y-55984857D01*
X241158095Y-56080095D01*
X241110476Y-56222952D01*
X240539047Y-56794380D01*
X241158095Y-56794380D01*
X241586666Y-56794380D02*
X241586666Y-55794380D01*
X241920000Y-56508666D01*
X242253333Y-55794380D01*
X242253333Y-56794380D01*
X242681904Y-55889619D02*
X242729523Y-55842000D01*
X242824761Y-55794380D01*
X243062857Y-55794380D01*
X243158095Y-55842000D01*
X243205714Y-55889619D01*
X243253333Y-55984857D01*
X243253333Y-56080095D01*
X243205714Y-56222952D01*
X242634285Y-56794380D01*
X243253333Y-56794380D01*
%TO.C,G2L2*%
X240374761Y-60332000D02*
X240279523Y-60284380D01*
X240136666Y-60284380D01*
X239993809Y-60332000D01*
X239898571Y-60427238D01*
X239850952Y-60522476D01*
X239803333Y-60712952D01*
X239803333Y-60855809D01*
X239850952Y-61046285D01*
X239898571Y-61141523D01*
X239993809Y-61236761D01*
X240136666Y-61284380D01*
X240231904Y-61284380D01*
X240374761Y-61236761D01*
X240422380Y-61189142D01*
X240422380Y-60855809D01*
X240231904Y-60855809D01*
X240803333Y-60379619D02*
X240850952Y-60332000D01*
X240946190Y-60284380D01*
X241184285Y-60284380D01*
X241279523Y-60332000D01*
X241327142Y-60379619D01*
X241374761Y-60474857D01*
X241374761Y-60570095D01*
X241327142Y-60712952D01*
X240755714Y-61284380D01*
X241374761Y-61284380D01*
X242279523Y-61284380D02*
X241803333Y-61284380D01*
X241803333Y-60284380D01*
X242565238Y-60379619D02*
X242612857Y-60332000D01*
X242708095Y-60284380D01*
X242946190Y-60284380D01*
X243041428Y-60332000D01*
X243089047Y-60379619D01*
X243136666Y-60474857D01*
X243136666Y-60570095D01*
X243089047Y-60712952D01*
X242517619Y-61284380D01*
X243136666Y-61284380D01*
%TO.C,G1R2*%
X240259523Y-32322000D02*
X240164285Y-32274380D01*
X240021428Y-32274380D01*
X239878571Y-32322000D01*
X239783333Y-32417238D01*
X239735714Y-32512476D01*
X239688095Y-32702952D01*
X239688095Y-32845809D01*
X239735714Y-33036285D01*
X239783333Y-33131523D01*
X239878571Y-33226761D01*
X240021428Y-33274380D01*
X240116666Y-33274380D01*
X240259523Y-33226761D01*
X240307142Y-33179142D01*
X240307142Y-32845809D01*
X240116666Y-32845809D01*
X241259523Y-33274380D02*
X240688095Y-33274380D01*
X240973809Y-33274380D02*
X240973809Y-32274380D01*
X240878571Y-32417238D01*
X240783333Y-32512476D01*
X240688095Y-32560095D01*
X242259523Y-33274380D02*
X241926190Y-32798190D01*
X241688095Y-33274380D02*
X241688095Y-32274380D01*
X242069047Y-32274380D01*
X242164285Y-32322000D01*
X242211904Y-32369619D01*
X242259523Y-32464857D01*
X242259523Y-32607714D01*
X242211904Y-32702952D01*
X242164285Y-32750571D01*
X242069047Y-32798190D01*
X241688095Y-32798190D01*
X242640476Y-32369619D02*
X242688095Y-32322000D01*
X242783333Y-32274380D01*
X243021428Y-32274380D01*
X243116666Y-32322000D01*
X243164285Y-32369619D01*
X243211904Y-32464857D01*
X243211904Y-32560095D01*
X243164285Y-32702952D01*
X242592857Y-33274380D01*
X243211904Y-33274380D01*
%TO.C,G1M2*%
X240178095Y-36842000D02*
X240082857Y-36794380D01*
X239940000Y-36794380D01*
X239797142Y-36842000D01*
X239701904Y-36937238D01*
X239654285Y-37032476D01*
X239606666Y-37222952D01*
X239606666Y-37365809D01*
X239654285Y-37556285D01*
X239701904Y-37651523D01*
X239797142Y-37746761D01*
X239940000Y-37794380D01*
X240035238Y-37794380D01*
X240178095Y-37746761D01*
X240225714Y-37699142D01*
X240225714Y-37365809D01*
X240035238Y-37365809D01*
X241178095Y-37794380D02*
X240606666Y-37794380D01*
X240892380Y-37794380D02*
X240892380Y-36794380D01*
X240797142Y-36937238D01*
X240701904Y-37032476D01*
X240606666Y-37080095D01*
X241606666Y-37794380D02*
X241606666Y-36794380D01*
X241940000Y-37508666D01*
X242273333Y-36794380D01*
X242273333Y-37794380D01*
X242701904Y-36889619D02*
X242749523Y-36842000D01*
X242844761Y-36794380D01*
X243082857Y-36794380D01*
X243178095Y-36842000D01*
X243225714Y-36889619D01*
X243273333Y-36984857D01*
X243273333Y-37080095D01*
X243225714Y-37222952D01*
X242654285Y-37794380D01*
X243273333Y-37794380D01*
%TO.C,G1L2*%
X240334761Y-41322000D02*
X240239523Y-41274380D01*
X240096666Y-41274380D01*
X239953809Y-41322000D01*
X239858571Y-41417238D01*
X239810952Y-41512476D01*
X239763333Y-41702952D01*
X239763333Y-41845809D01*
X239810952Y-42036285D01*
X239858571Y-42131523D01*
X239953809Y-42226761D01*
X240096666Y-42274380D01*
X240191904Y-42274380D01*
X240334761Y-42226761D01*
X240382380Y-42179142D01*
X240382380Y-41845809D01*
X240191904Y-41845809D01*
X241334761Y-42274380D02*
X240763333Y-42274380D01*
X241049047Y-42274380D02*
X241049047Y-41274380D01*
X240953809Y-41417238D01*
X240858571Y-41512476D01*
X240763333Y-41560095D01*
X242239523Y-42274380D02*
X241763333Y-42274380D01*
X241763333Y-41274380D01*
X242525238Y-41369619D02*
X242572857Y-41322000D01*
X242668095Y-41274380D01*
X242906190Y-41274380D01*
X243001428Y-41322000D01*
X243049047Y-41369619D01*
X243096666Y-41464857D01*
X243096666Y-41560095D01*
X243049047Y-41702952D01*
X242477619Y-42274380D01*
X243096666Y-42274380D01*
%TO.C,G4R1*%
X243329523Y-108832000D02*
X243234285Y-108784380D01*
X243091428Y-108784380D01*
X242948571Y-108832000D01*
X242853333Y-108927238D01*
X242805714Y-109022476D01*
X242758095Y-109212952D01*
X242758095Y-109355809D01*
X242805714Y-109546285D01*
X242853333Y-109641523D01*
X242948571Y-109736761D01*
X243091428Y-109784380D01*
X243186666Y-109784380D01*
X243329523Y-109736761D01*
X243377142Y-109689142D01*
X243377142Y-109355809D01*
X243186666Y-109355809D01*
X244234285Y-109117714D02*
X244234285Y-109784380D01*
X243996190Y-108736761D02*
X243758095Y-109451047D01*
X244377142Y-109451047D01*
X245329523Y-109784380D02*
X244996190Y-109308190D01*
X244758095Y-109784380D02*
X244758095Y-108784380D01*
X245139047Y-108784380D01*
X245234285Y-108832000D01*
X245281904Y-108879619D01*
X245329523Y-108974857D01*
X245329523Y-109117714D01*
X245281904Y-109212952D01*
X245234285Y-109260571D01*
X245139047Y-109308190D01*
X244758095Y-109308190D01*
X246281904Y-109784380D02*
X245710476Y-109784380D01*
X245996190Y-109784380D02*
X245996190Y-108784380D01*
X245900952Y-108927238D01*
X245805714Y-109022476D01*
X245710476Y-109070095D01*
%TO.C,G4M1*%
X243288095Y-113332000D02*
X243192857Y-113284380D01*
X243050000Y-113284380D01*
X242907142Y-113332000D01*
X242811904Y-113427238D01*
X242764285Y-113522476D01*
X242716666Y-113712952D01*
X242716666Y-113855809D01*
X242764285Y-114046285D01*
X242811904Y-114141523D01*
X242907142Y-114236761D01*
X243050000Y-114284380D01*
X243145238Y-114284380D01*
X243288095Y-114236761D01*
X243335714Y-114189142D01*
X243335714Y-113855809D01*
X243145238Y-113855809D01*
X244192857Y-113617714D02*
X244192857Y-114284380D01*
X243954761Y-113236761D02*
X243716666Y-113951047D01*
X244335714Y-113951047D01*
X244716666Y-114284380D02*
X244716666Y-113284380D01*
X245050000Y-113998666D01*
X245383333Y-113284380D01*
X245383333Y-114284380D01*
X246383333Y-114284380D02*
X245811904Y-114284380D01*
X246097619Y-114284380D02*
X246097619Y-113284380D01*
X246002380Y-113427238D01*
X245907142Y-113522476D01*
X245811904Y-113570095D01*
%TO.C,G4L1*%
X243434761Y-117842000D02*
X243339523Y-117794380D01*
X243196666Y-117794380D01*
X243053809Y-117842000D01*
X242958571Y-117937238D01*
X242910952Y-118032476D01*
X242863333Y-118222952D01*
X242863333Y-118365809D01*
X242910952Y-118556285D01*
X242958571Y-118651523D01*
X243053809Y-118746761D01*
X243196666Y-118794380D01*
X243291904Y-118794380D01*
X243434761Y-118746761D01*
X243482380Y-118699142D01*
X243482380Y-118365809D01*
X243291904Y-118365809D01*
X244339523Y-118127714D02*
X244339523Y-118794380D01*
X244101428Y-117746761D02*
X243863333Y-118461047D01*
X244482380Y-118461047D01*
X245339523Y-118794380D02*
X244863333Y-118794380D01*
X244863333Y-117794380D01*
X246196666Y-118794380D02*
X245625238Y-118794380D01*
X245910952Y-118794380D02*
X245910952Y-117794380D01*
X245815714Y-117937238D01*
X245720476Y-118032476D01*
X245625238Y-118080095D01*
%TO.C,G3R1*%
X243369523Y-86302000D02*
X243274285Y-86254380D01*
X243131428Y-86254380D01*
X242988571Y-86302000D01*
X242893333Y-86397238D01*
X242845714Y-86492476D01*
X242798095Y-86682952D01*
X242798095Y-86825809D01*
X242845714Y-87016285D01*
X242893333Y-87111523D01*
X242988571Y-87206761D01*
X243131428Y-87254380D01*
X243226666Y-87254380D01*
X243369523Y-87206761D01*
X243417142Y-87159142D01*
X243417142Y-86825809D01*
X243226666Y-86825809D01*
X243750476Y-86254380D02*
X244369523Y-86254380D01*
X244036190Y-86635333D01*
X244179047Y-86635333D01*
X244274285Y-86682952D01*
X244321904Y-86730571D01*
X244369523Y-86825809D01*
X244369523Y-87063904D01*
X244321904Y-87159142D01*
X244274285Y-87206761D01*
X244179047Y-87254380D01*
X243893333Y-87254380D01*
X243798095Y-87206761D01*
X243750476Y-87159142D01*
X245369523Y-87254380D02*
X245036190Y-86778190D01*
X244798095Y-87254380D02*
X244798095Y-86254380D01*
X245179047Y-86254380D01*
X245274285Y-86302000D01*
X245321904Y-86349619D01*
X245369523Y-86444857D01*
X245369523Y-86587714D01*
X245321904Y-86682952D01*
X245274285Y-86730571D01*
X245179047Y-86778190D01*
X244798095Y-86778190D01*
X246321904Y-87254380D02*
X245750476Y-87254380D01*
X246036190Y-87254380D02*
X246036190Y-86254380D01*
X245940952Y-86397238D01*
X245845714Y-86492476D01*
X245750476Y-86540095D01*
%TO.C,G3M1*%
X243228095Y-90872000D02*
X243132857Y-90824380D01*
X242990000Y-90824380D01*
X242847142Y-90872000D01*
X242751904Y-90967238D01*
X242704285Y-91062476D01*
X242656666Y-91252952D01*
X242656666Y-91395809D01*
X242704285Y-91586285D01*
X242751904Y-91681523D01*
X242847142Y-91776761D01*
X242990000Y-91824380D01*
X243085238Y-91824380D01*
X243228095Y-91776761D01*
X243275714Y-91729142D01*
X243275714Y-91395809D01*
X243085238Y-91395809D01*
X243609047Y-90824380D02*
X244228095Y-90824380D01*
X243894761Y-91205333D01*
X244037619Y-91205333D01*
X244132857Y-91252952D01*
X244180476Y-91300571D01*
X244228095Y-91395809D01*
X244228095Y-91633904D01*
X244180476Y-91729142D01*
X244132857Y-91776761D01*
X244037619Y-91824380D01*
X243751904Y-91824380D01*
X243656666Y-91776761D01*
X243609047Y-91729142D01*
X244656666Y-91824380D02*
X244656666Y-90824380D01*
X244990000Y-91538666D01*
X245323333Y-90824380D01*
X245323333Y-91824380D01*
X246323333Y-91824380D02*
X245751904Y-91824380D01*
X246037619Y-91824380D02*
X246037619Y-90824380D01*
X245942380Y-90967238D01*
X245847142Y-91062476D01*
X245751904Y-91110095D01*
%TO.C,G3L1*%
X243394761Y-95352000D02*
X243299523Y-95304380D01*
X243156666Y-95304380D01*
X243013809Y-95352000D01*
X242918571Y-95447238D01*
X242870952Y-95542476D01*
X242823333Y-95732952D01*
X242823333Y-95875809D01*
X242870952Y-96066285D01*
X242918571Y-96161523D01*
X243013809Y-96256761D01*
X243156666Y-96304380D01*
X243251904Y-96304380D01*
X243394761Y-96256761D01*
X243442380Y-96209142D01*
X243442380Y-95875809D01*
X243251904Y-95875809D01*
X243775714Y-95304380D02*
X244394761Y-95304380D01*
X244061428Y-95685333D01*
X244204285Y-95685333D01*
X244299523Y-95732952D01*
X244347142Y-95780571D01*
X244394761Y-95875809D01*
X244394761Y-96113904D01*
X244347142Y-96209142D01*
X244299523Y-96256761D01*
X244204285Y-96304380D01*
X243918571Y-96304380D01*
X243823333Y-96256761D01*
X243775714Y-96209142D01*
X245299523Y-96304380D02*
X244823333Y-96304380D01*
X244823333Y-95304380D01*
X246156666Y-96304380D02*
X245585238Y-96304380D01*
X245870952Y-96304380D02*
X245870952Y-95304380D01*
X245775714Y-95447238D01*
X245680476Y-95542476D01*
X245585238Y-95590095D01*
%TO.C,G2R1*%
X243279523Y-51352000D02*
X243184285Y-51304380D01*
X243041428Y-51304380D01*
X242898571Y-51352000D01*
X242803333Y-51447238D01*
X242755714Y-51542476D01*
X242708095Y-51732952D01*
X242708095Y-51875809D01*
X242755714Y-52066285D01*
X242803333Y-52161523D01*
X242898571Y-52256761D01*
X243041428Y-52304380D01*
X243136666Y-52304380D01*
X243279523Y-52256761D01*
X243327142Y-52209142D01*
X243327142Y-51875809D01*
X243136666Y-51875809D01*
X243708095Y-51399619D02*
X243755714Y-51352000D01*
X243850952Y-51304380D01*
X244089047Y-51304380D01*
X244184285Y-51352000D01*
X244231904Y-51399619D01*
X244279523Y-51494857D01*
X244279523Y-51590095D01*
X244231904Y-51732952D01*
X243660476Y-52304380D01*
X244279523Y-52304380D01*
X245279523Y-52304380D02*
X244946190Y-51828190D01*
X244708095Y-52304380D02*
X244708095Y-51304380D01*
X245089047Y-51304380D01*
X245184285Y-51352000D01*
X245231904Y-51399619D01*
X245279523Y-51494857D01*
X245279523Y-51637714D01*
X245231904Y-51732952D01*
X245184285Y-51780571D01*
X245089047Y-51828190D01*
X244708095Y-51828190D01*
X246231904Y-52304380D02*
X245660476Y-52304380D01*
X245946190Y-52304380D02*
X245946190Y-51304380D01*
X245850952Y-51447238D01*
X245755714Y-51542476D01*
X245660476Y-51590095D01*
%TO.C,G2M1*%
X243228095Y-55832000D02*
X243132857Y-55784380D01*
X242990000Y-55784380D01*
X242847142Y-55832000D01*
X242751904Y-55927238D01*
X242704285Y-56022476D01*
X242656666Y-56212952D01*
X242656666Y-56355809D01*
X242704285Y-56546285D01*
X242751904Y-56641523D01*
X242847142Y-56736761D01*
X242990000Y-56784380D01*
X243085238Y-56784380D01*
X243228095Y-56736761D01*
X243275714Y-56689142D01*
X243275714Y-56355809D01*
X243085238Y-56355809D01*
X243656666Y-55879619D02*
X243704285Y-55832000D01*
X243799523Y-55784380D01*
X244037619Y-55784380D01*
X244132857Y-55832000D01*
X244180476Y-55879619D01*
X244228095Y-55974857D01*
X244228095Y-56070095D01*
X244180476Y-56212952D01*
X243609047Y-56784380D01*
X244228095Y-56784380D01*
X244656666Y-56784380D02*
X244656666Y-55784380D01*
X244990000Y-56498666D01*
X245323333Y-55784380D01*
X245323333Y-56784380D01*
X246323333Y-56784380D02*
X245751904Y-56784380D01*
X246037619Y-56784380D02*
X246037619Y-55784380D01*
X245942380Y-55927238D01*
X245847142Y-56022476D01*
X245751904Y-56070095D01*
%TO.C,G2L1*%
X243434761Y-60342000D02*
X243339523Y-60294380D01*
X243196666Y-60294380D01*
X243053809Y-60342000D01*
X242958571Y-60437238D01*
X242910952Y-60532476D01*
X242863333Y-60722952D01*
X242863333Y-60865809D01*
X242910952Y-61056285D01*
X242958571Y-61151523D01*
X243053809Y-61246761D01*
X243196666Y-61294380D01*
X243291904Y-61294380D01*
X243434761Y-61246761D01*
X243482380Y-61199142D01*
X243482380Y-60865809D01*
X243291904Y-60865809D01*
X243863333Y-60389619D02*
X243910952Y-60342000D01*
X244006190Y-60294380D01*
X244244285Y-60294380D01*
X244339523Y-60342000D01*
X244387142Y-60389619D01*
X244434761Y-60484857D01*
X244434761Y-60580095D01*
X244387142Y-60722952D01*
X243815714Y-61294380D01*
X244434761Y-61294380D01*
X245339523Y-61294380D02*
X244863333Y-61294380D01*
X244863333Y-60294380D01*
X246196666Y-61294380D02*
X245625238Y-61294380D01*
X245910952Y-61294380D02*
X245910952Y-60294380D01*
X245815714Y-60437238D01*
X245720476Y-60532476D01*
X245625238Y-60580095D01*
%TO.C,G1R1*%
X243329523Y-32352000D02*
X243234285Y-32304380D01*
X243091428Y-32304380D01*
X242948571Y-32352000D01*
X242853333Y-32447238D01*
X242805714Y-32542476D01*
X242758095Y-32732952D01*
X242758095Y-32875809D01*
X242805714Y-33066285D01*
X242853333Y-33161523D01*
X242948571Y-33256761D01*
X243091428Y-33304380D01*
X243186666Y-33304380D01*
X243329523Y-33256761D01*
X243377142Y-33209142D01*
X243377142Y-32875809D01*
X243186666Y-32875809D01*
X244329523Y-33304380D02*
X243758095Y-33304380D01*
X244043809Y-33304380D02*
X244043809Y-32304380D01*
X243948571Y-32447238D01*
X243853333Y-32542476D01*
X243758095Y-32590095D01*
X245329523Y-33304380D02*
X244996190Y-32828190D01*
X244758095Y-33304380D02*
X244758095Y-32304380D01*
X245139047Y-32304380D01*
X245234285Y-32352000D01*
X245281904Y-32399619D01*
X245329523Y-32494857D01*
X245329523Y-32637714D01*
X245281904Y-32732952D01*
X245234285Y-32780571D01*
X245139047Y-32828190D01*
X244758095Y-32828190D01*
X246281904Y-33304380D02*
X245710476Y-33304380D01*
X245996190Y-33304380D02*
X245996190Y-32304380D01*
X245900952Y-32447238D01*
X245805714Y-32542476D01*
X245710476Y-32590095D01*
%TO.C,G1M1*%
X243248095Y-36832000D02*
X243152857Y-36784380D01*
X243010000Y-36784380D01*
X242867142Y-36832000D01*
X242771904Y-36927238D01*
X242724285Y-37022476D01*
X242676666Y-37212952D01*
X242676666Y-37355809D01*
X242724285Y-37546285D01*
X242771904Y-37641523D01*
X242867142Y-37736761D01*
X243010000Y-37784380D01*
X243105238Y-37784380D01*
X243248095Y-37736761D01*
X243295714Y-37689142D01*
X243295714Y-37355809D01*
X243105238Y-37355809D01*
X244248095Y-37784380D02*
X243676666Y-37784380D01*
X243962380Y-37784380D02*
X243962380Y-36784380D01*
X243867142Y-36927238D01*
X243771904Y-37022476D01*
X243676666Y-37070095D01*
X244676666Y-37784380D02*
X244676666Y-36784380D01*
X245010000Y-37498666D01*
X245343333Y-36784380D01*
X245343333Y-37784380D01*
X246343333Y-37784380D02*
X245771904Y-37784380D01*
X246057619Y-37784380D02*
X246057619Y-36784380D01*
X245962380Y-36927238D01*
X245867142Y-37022476D01*
X245771904Y-37070095D01*
%TO.C,G1L1*%
X243444761Y-41332000D02*
X243349523Y-41284380D01*
X243206666Y-41284380D01*
X243063809Y-41332000D01*
X242968571Y-41427238D01*
X242920952Y-41522476D01*
X242873333Y-41712952D01*
X242873333Y-41855809D01*
X242920952Y-42046285D01*
X242968571Y-42141523D01*
X243063809Y-42236761D01*
X243206666Y-42284380D01*
X243301904Y-42284380D01*
X243444761Y-42236761D01*
X243492380Y-42189142D01*
X243492380Y-41855809D01*
X243301904Y-41855809D01*
X244444761Y-42284380D02*
X243873333Y-42284380D01*
X244159047Y-42284380D02*
X244159047Y-41284380D01*
X244063809Y-41427238D01*
X243968571Y-41522476D01*
X243873333Y-41570095D01*
X245349523Y-42284380D02*
X244873333Y-42284380D01*
X244873333Y-41284380D01*
X246206666Y-42284380D02*
X245635238Y-42284380D01*
X245920952Y-42284380D02*
X245920952Y-41284380D01*
X245825714Y-41427238D01*
X245730476Y-41522476D01*
X245635238Y-41570095D01*
%TO.C,R4*%
X235352380Y-118816666D02*
X234876190Y-119150000D01*
X235352380Y-119388095D02*
X234352380Y-119388095D01*
X234352380Y-119007142D01*
X234400000Y-118911904D01*
X234447619Y-118864285D01*
X234542857Y-118816666D01*
X234685714Y-118816666D01*
X234780952Y-118864285D01*
X234828571Y-118911904D01*
X234876190Y-119007142D01*
X234876190Y-119388095D01*
X234685714Y-117959523D02*
X235352380Y-117959523D01*
X234304761Y-118197619D02*
X235019047Y-118435714D01*
X235019047Y-117816666D01*
%TO.C,R3*%
X235352380Y-95516666D02*
X234876190Y-95850000D01*
X235352380Y-96088095D02*
X234352380Y-96088095D01*
X234352380Y-95707142D01*
X234400000Y-95611904D01*
X234447619Y-95564285D01*
X234542857Y-95516666D01*
X234685714Y-95516666D01*
X234780952Y-95564285D01*
X234828571Y-95611904D01*
X234876190Y-95707142D01*
X234876190Y-96088095D01*
X234352380Y-95183333D02*
X234352380Y-94564285D01*
X234733333Y-94897619D01*
X234733333Y-94754761D01*
X234780952Y-94659523D01*
X234828571Y-94611904D01*
X234923809Y-94564285D01*
X235161904Y-94564285D01*
X235257142Y-94611904D01*
X235304761Y-94659523D01*
X235352380Y-94754761D01*
X235352380Y-95040476D01*
X235304761Y-95135714D01*
X235257142Y-95183333D01*
%TO.C,R2*%
X235352380Y-66956666D02*
X234876190Y-67290000D01*
X235352380Y-67528095D02*
X234352380Y-67528095D01*
X234352380Y-67147142D01*
X234400000Y-67051904D01*
X234447619Y-67004285D01*
X234542857Y-66956666D01*
X234685714Y-66956666D01*
X234780952Y-67004285D01*
X234828571Y-67051904D01*
X234876190Y-67147142D01*
X234876190Y-67528095D01*
X234447619Y-66575714D02*
X234400000Y-66528095D01*
X234352380Y-66432857D01*
X234352380Y-66194761D01*
X234400000Y-66099523D01*
X234447619Y-66051904D01*
X234542857Y-66004285D01*
X234638095Y-66004285D01*
X234780952Y-66051904D01*
X235352380Y-66623333D01*
X235352380Y-66004285D01*
%TO.C,R1*%
X235352380Y-42716666D02*
X234876190Y-43050000D01*
X235352380Y-43288095D02*
X234352380Y-43288095D01*
X234352380Y-42907142D01*
X234400000Y-42811904D01*
X234447619Y-42764285D01*
X234542857Y-42716666D01*
X234685714Y-42716666D01*
X234780952Y-42764285D01*
X234828571Y-42811904D01*
X234876190Y-42907142D01*
X234876190Y-43288095D01*
X235352380Y-41764285D02*
X235352380Y-42335714D01*
X235352380Y-42050000D02*
X234352380Y-42050000D01*
X234495238Y-42145238D01*
X234590476Y-42240476D01*
X234638095Y-42335714D01*
D11*
%TO.C,IC4*%
X227720238Y-123984523D02*
X227720238Y-122714523D01*
X229050714Y-123863571D02*
X228990238Y-123924047D01*
X228808809Y-123984523D01*
X228687857Y-123984523D01*
X228506428Y-123924047D01*
X228385476Y-123803095D01*
X228325000Y-123682142D01*
X228264523Y-123440238D01*
X228264523Y-123258809D01*
X228325000Y-123016904D01*
X228385476Y-122895952D01*
X228506428Y-122775000D01*
X228687857Y-122714523D01*
X228808809Y-122714523D01*
X228990238Y-122775000D01*
X229050714Y-122835476D01*
X230139285Y-123137857D02*
X230139285Y-123984523D01*
X229836904Y-122654047D02*
X229534523Y-123561190D01*
X230320714Y-123561190D01*
%TO.C,IC3*%
X227720238Y-99714523D02*
X227720238Y-98444523D01*
X229050714Y-99593571D02*
X228990238Y-99654047D01*
X228808809Y-99714523D01*
X228687857Y-99714523D01*
X228506428Y-99654047D01*
X228385476Y-99533095D01*
X228325000Y-99412142D01*
X228264523Y-99170238D01*
X228264523Y-98988809D01*
X228325000Y-98746904D01*
X228385476Y-98625952D01*
X228506428Y-98505000D01*
X228687857Y-98444523D01*
X228808809Y-98444523D01*
X228990238Y-98505000D01*
X229050714Y-98565476D01*
X229474047Y-98444523D02*
X230260238Y-98444523D01*
X229836904Y-98928333D01*
X230018333Y-98928333D01*
X230139285Y-98988809D01*
X230199761Y-99049285D01*
X230260238Y-99170238D01*
X230260238Y-99472619D01*
X230199761Y-99593571D01*
X230139285Y-99654047D01*
X230018333Y-99714523D01*
X229655476Y-99714523D01*
X229534523Y-99654047D01*
X229474047Y-99593571D01*
%TO.C,IC2*%
X227720238Y-69514523D02*
X227720238Y-68244523D01*
X229050714Y-69393571D02*
X228990238Y-69454047D01*
X228808809Y-69514523D01*
X228687857Y-69514523D01*
X228506428Y-69454047D01*
X228385476Y-69333095D01*
X228325000Y-69212142D01*
X228264523Y-68970238D01*
X228264523Y-68788809D01*
X228325000Y-68546904D01*
X228385476Y-68425952D01*
X228506428Y-68305000D01*
X228687857Y-68244523D01*
X228808809Y-68244523D01*
X228990238Y-68305000D01*
X229050714Y-68365476D01*
X229534523Y-68365476D02*
X229595000Y-68305000D01*
X229715952Y-68244523D01*
X230018333Y-68244523D01*
X230139285Y-68305000D01*
X230199761Y-68365476D01*
X230260238Y-68486428D01*
X230260238Y-68607380D01*
X230199761Y-68788809D01*
X229474047Y-69514523D01*
X230260238Y-69514523D01*
%TO.C,IC1*%
X227720238Y-45814523D02*
X227720238Y-44544523D01*
X229050714Y-45693571D02*
X228990238Y-45754047D01*
X228808809Y-45814523D01*
X228687857Y-45814523D01*
X228506428Y-45754047D01*
X228385476Y-45633095D01*
X228325000Y-45512142D01*
X228264523Y-45270238D01*
X228264523Y-45088809D01*
X228325000Y-44846904D01*
X228385476Y-44725952D01*
X228506428Y-44605000D01*
X228687857Y-44544523D01*
X228808809Y-44544523D01*
X228990238Y-44605000D01*
X229050714Y-44665476D01*
X230260238Y-45814523D02*
X229534523Y-45814523D01*
X229897380Y-45814523D02*
X229897380Y-44544523D01*
X229776428Y-44725952D01*
X229655476Y-44846904D01*
X229534523Y-44907380D01*
D10*
%TO.C,U2*%
X197108095Y-76867380D02*
X197108095Y-77676904D01*
X197155714Y-77772142D01*
X197203333Y-77819761D01*
X197298571Y-77867380D01*
X197489047Y-77867380D01*
X197584285Y-77819761D01*
X197631904Y-77772142D01*
X197679523Y-77676904D01*
X197679523Y-76867380D01*
X198108095Y-76962619D02*
X198155714Y-76915000D01*
X198250952Y-76867380D01*
X198489047Y-76867380D01*
X198584285Y-76915000D01*
X198631904Y-76962619D01*
X198679523Y-77057857D01*
X198679523Y-77153095D01*
X198631904Y-77295952D01*
X198060476Y-77867380D01*
X198679523Y-77867380D01*
X183713722Y-89235592D02*
X183632910Y-89262529D01*
X183552097Y-89343341D01*
X183498223Y-89451091D01*
X183498223Y-89558841D01*
X183525160Y-89639653D01*
X183605972Y-89774340D01*
X183686784Y-89855152D01*
X183821471Y-89935964D01*
X183902284Y-89962902D01*
X184010033Y-89962902D01*
X184117783Y-89909027D01*
X184171658Y-89855152D01*
X184225532Y-89747402D01*
X184225532Y-89693528D01*
X184036971Y-89504966D01*
X183929221Y-89612715D01*
X184521844Y-89504966D02*
X183956158Y-88939280D01*
X184171658Y-88723781D01*
X184252470Y-88696844D01*
X184306345Y-88696844D01*
X184387157Y-88723781D01*
X184467969Y-88804593D01*
X184494906Y-88885406D01*
X184494906Y-88939280D01*
X184467969Y-89020093D01*
X184252470Y-89235592D01*
X185383841Y-88642969D02*
X185060592Y-88966218D01*
X185222216Y-88804593D02*
X184656531Y-88238908D01*
X184683468Y-88373595D01*
X184683468Y-88481345D01*
X184656531Y-88562157D01*
X185922589Y-88104221D02*
X185599340Y-88427470D01*
X185760964Y-88265845D02*
X185195279Y-87700160D01*
X185222216Y-87834847D01*
X185222216Y-87942597D01*
X185195279Y-88023409D01*
X210021597Y-72155964D02*
X210290971Y-71886590D01*
X210129346Y-72371463D02*
X209752223Y-71617216D01*
X210506470Y-71994340D01*
X210452595Y-70970719D02*
X210371783Y-70997656D01*
X210290971Y-71078468D01*
X210237096Y-71186218D01*
X210237096Y-71293967D01*
X210264033Y-71374780D01*
X210344845Y-71509467D01*
X210425658Y-71590279D01*
X210560345Y-71671091D01*
X210641157Y-71698028D01*
X210748906Y-71698028D01*
X210856656Y-71644154D01*
X210910531Y-71590279D01*
X210964406Y-71482529D01*
X210964406Y-71428654D01*
X210775844Y-71240093D01*
X210668094Y-71347842D01*
X211260717Y-71240093D02*
X210695032Y-70674407D01*
X211583966Y-70916844D01*
X211018280Y-70351158D01*
X211853340Y-70647470D02*
X211287654Y-70081784D01*
X211422341Y-69947097D01*
X211530091Y-69893223D01*
X211637841Y-69893223D01*
X211718653Y-69920160D01*
X211853340Y-70000972D01*
X211934152Y-70081784D01*
X212014964Y-70216471D01*
X212041902Y-70297284D01*
X212041902Y-70405033D01*
X211988027Y-70512783D01*
X211853340Y-70647470D01*
X209956158Y-96613155D02*
X209875346Y-96640093D01*
X209794534Y-96720905D01*
X209740659Y-96828654D01*
X209740659Y-96936404D01*
X209767597Y-97017216D01*
X209848409Y-97151903D01*
X209929221Y-97232715D01*
X210063908Y-97313528D01*
X210144720Y-97340465D01*
X210252470Y-97340465D01*
X210360219Y-97286590D01*
X210414094Y-97232715D01*
X210467969Y-97124966D01*
X210467969Y-97071091D01*
X210279407Y-96882529D01*
X210171658Y-96990279D01*
X210764280Y-96882529D02*
X210198595Y-96316844D01*
X211087529Y-96559280D01*
X210521844Y-95993595D01*
X211356903Y-96289906D02*
X210791218Y-95724221D01*
X210925905Y-95589534D01*
X211033654Y-95535659D01*
X211141404Y-95535659D01*
X211222216Y-95562597D01*
X211356903Y-95643409D01*
X211437715Y-95724221D01*
X211518528Y-95858908D01*
X211545465Y-95939720D01*
X211545465Y-96047470D01*
X211491590Y-96155219D01*
X211356903Y-96289906D01*
X209823129Y-53942309D02*
X210577377Y-54319433D01*
X210200253Y-53565186D01*
X210846751Y-53457436D02*
X210954500Y-53403561D01*
X211008375Y-53403561D01*
X211089187Y-53430499D01*
X211170000Y-53511311D01*
X211196937Y-53592123D01*
X211196937Y-53645998D01*
X211170000Y-53726810D01*
X210954500Y-53942309D01*
X210388815Y-53376624D01*
X210577377Y-53188062D01*
X210658189Y-53161125D01*
X210712064Y-53161125D01*
X210792876Y-53188062D01*
X210846751Y-53241937D01*
X210873688Y-53322749D01*
X210873688Y-53376624D01*
X210846751Y-53457436D01*
X210658189Y-53645998D01*
X210954500Y-52810938D02*
X211412436Y-53268874D01*
X211493248Y-53295812D01*
X211547123Y-53295812D01*
X211627935Y-53268874D01*
X211735685Y-53161125D01*
X211762622Y-53080312D01*
X211762622Y-53026438D01*
X211735685Y-52945625D01*
X211277749Y-52487690D01*
X212058934Y-52784001D02*
X212166683Y-52730126D01*
X212301370Y-52595439D01*
X212328308Y-52514627D01*
X212328308Y-52460752D01*
X212301370Y-52379940D01*
X212247496Y-52326065D01*
X212166683Y-52299128D01*
X212112809Y-52299128D01*
X212031996Y-52326065D01*
X211897309Y-52406877D01*
X211816497Y-52433815D01*
X211762622Y-52433815D01*
X211681810Y-52406877D01*
X211627935Y-52353003D01*
X211600998Y-52272190D01*
X211600998Y-52218316D01*
X211627935Y-52137503D01*
X211762622Y-52002816D01*
X211870372Y-51948942D01*
X209956158Y-58513155D02*
X209875346Y-58540093D01*
X209794534Y-58620905D01*
X209740659Y-58728654D01*
X209740659Y-58836404D01*
X209767597Y-58917216D01*
X209848409Y-59051903D01*
X209929221Y-59132715D01*
X210063908Y-59213528D01*
X210144720Y-59240465D01*
X210252470Y-59240465D01*
X210360219Y-59186590D01*
X210414094Y-59132715D01*
X210467969Y-59024966D01*
X210467969Y-58971091D01*
X210279407Y-58782529D01*
X210171658Y-58890279D01*
X210764280Y-58782529D02*
X210198595Y-58216844D01*
X211087529Y-58459280D01*
X210521844Y-57893595D01*
X211356903Y-58189906D02*
X210791218Y-57624221D01*
X210925905Y-57489534D01*
X211033654Y-57435659D01*
X211141404Y-57435659D01*
X211222216Y-57462597D01*
X211356903Y-57543409D01*
X211437715Y-57624221D01*
X211518528Y-57758908D01*
X211545465Y-57839720D01*
X211545465Y-57947470D01*
X211491590Y-58055219D01*
X211356903Y-58189906D01*
X183859722Y-94315592D02*
X183778910Y-94342529D01*
X183698097Y-94423341D01*
X183644223Y-94531091D01*
X183644223Y-94638841D01*
X183671160Y-94719653D01*
X183751972Y-94854340D01*
X183832784Y-94935152D01*
X183967471Y-95015964D01*
X184048284Y-95042902D01*
X184156033Y-95042902D01*
X184263783Y-94989027D01*
X184317658Y-94935152D01*
X184371532Y-94827402D01*
X184371532Y-94773528D01*
X184182971Y-94584966D01*
X184075221Y-94692715D01*
X184667844Y-94584966D02*
X184102158Y-94019280D01*
X184317658Y-93803781D01*
X184398470Y-93776844D01*
X184452345Y-93776844D01*
X184533157Y-93803781D01*
X184613969Y-93884593D01*
X184640906Y-93965406D01*
X184640906Y-94019280D01*
X184613969Y-94100093D01*
X184398470Y-94315592D01*
X185529841Y-93722969D02*
X185206592Y-94046218D01*
X185368216Y-93884593D02*
X184802531Y-93318908D01*
X184829468Y-93453595D01*
X184829468Y-93561345D01*
X184802531Y-93642157D01*
X185152717Y-92968722D02*
X185502903Y-92618536D01*
X185529841Y-93022597D01*
X185610653Y-92941784D01*
X185691465Y-92914847D01*
X185745340Y-92914847D01*
X185826152Y-92941784D01*
X185960839Y-93076471D01*
X185987776Y-93157284D01*
X185987776Y-93211158D01*
X185960839Y-93291971D01*
X185799215Y-93453595D01*
X185718402Y-93480532D01*
X185664528Y-93480532D01*
X210024788Y-66948773D02*
X210294162Y-66679399D01*
X210132537Y-67164272D02*
X209755414Y-66410025D01*
X210509661Y-66787149D01*
X210698223Y-66598587D02*
X210132537Y-66032902D01*
X210267224Y-65898215D01*
X210374974Y-65844340D01*
X210482723Y-65844340D01*
X210563536Y-65871277D01*
X210698223Y-65952089D01*
X210779035Y-66032902D01*
X210859847Y-66167589D01*
X210886784Y-66248401D01*
X210886784Y-66356150D01*
X210832910Y-66463900D01*
X210698223Y-66598587D01*
X211533282Y-65655778D02*
X211533282Y-65709653D01*
X211479407Y-65817402D01*
X211425532Y-65871277D01*
X211317783Y-65925152D01*
X211210033Y-65925152D01*
X211129221Y-65898215D01*
X210994534Y-65817402D01*
X210913722Y-65736590D01*
X210832910Y-65601903D01*
X210805972Y-65521091D01*
X210805972Y-65413341D01*
X210859847Y-65305592D01*
X210913722Y-65251717D01*
X211021471Y-65197842D01*
X211075346Y-65197842D01*
X211748781Y-65655778D02*
X212179780Y-65224780D01*
X211614094Y-64551345D02*
X212368341Y-64928468D01*
X211991218Y-64174221D01*
X213068714Y-64228096D02*
X212610778Y-64147284D01*
X212745465Y-64551345D02*
X212179780Y-63985659D01*
X212395279Y-63770160D01*
X212476091Y-63743223D01*
X212529966Y-63743223D01*
X212610778Y-63770160D01*
X212691590Y-63850972D01*
X212718528Y-63931784D01*
X212718528Y-63985659D01*
X212691590Y-64066471D01*
X212476091Y-64281971D01*
X213014839Y-63689348D02*
X213203401Y-63500786D01*
X213580524Y-63716285D02*
X213311150Y-63985659D01*
X212745465Y-63419974D01*
X213014839Y-63150600D01*
X213715211Y-62988975D02*
X213526650Y-63177537D01*
X213822961Y-63473849D02*
X213257276Y-62908163D01*
X213526650Y-62638789D01*
X184383096Y-66106218D02*
X184302284Y-66133155D01*
X184221471Y-66213967D01*
X184167597Y-66321717D01*
X184167597Y-66429467D01*
X184194534Y-66510279D01*
X184275346Y-66644966D01*
X184356158Y-66725778D01*
X184490845Y-66806590D01*
X184571658Y-66833528D01*
X184679407Y-66833528D01*
X184787157Y-66779653D01*
X184841032Y-66725778D01*
X184894906Y-66618028D01*
X184894906Y-66564154D01*
X184706345Y-66375592D01*
X184598595Y-66483341D01*
X185191218Y-66375592D02*
X184625532Y-65809906D01*
X184841032Y-65594407D01*
X184921844Y-65567470D01*
X184975719Y-65567470D01*
X185056531Y-65594407D01*
X185137343Y-65675219D01*
X185164280Y-65756032D01*
X185164280Y-65809906D01*
X185137343Y-65890719D01*
X184921844Y-66106218D01*
X185622216Y-65190346D02*
X185999340Y-65567470D01*
X185272030Y-65109534D02*
X185541404Y-65648282D01*
X185891590Y-65298096D01*
X184483096Y-76236218D02*
X184402284Y-76263155D01*
X184321471Y-76343967D01*
X184267597Y-76451717D01*
X184267597Y-76559467D01*
X184294534Y-76640279D01*
X184375346Y-76774966D01*
X184456158Y-76855778D01*
X184590845Y-76936590D01*
X184671658Y-76963528D01*
X184779407Y-76963528D01*
X184887157Y-76909653D01*
X184941032Y-76855778D01*
X184994906Y-76748028D01*
X184994906Y-76694154D01*
X184806345Y-76505592D01*
X184698595Y-76613341D01*
X185291218Y-76505592D02*
X184725532Y-75939906D01*
X184941032Y-75724407D01*
X185021844Y-75697470D01*
X185075719Y-75697470D01*
X185156531Y-75724407D01*
X185237343Y-75805219D01*
X185264280Y-75886032D01*
X185264280Y-75939906D01*
X185237343Y-76020719D01*
X185021844Y-76236218D01*
X185237343Y-75428096D02*
X185614467Y-75050972D01*
X185937715Y-75859094D01*
X183859722Y-101935592D02*
X183778910Y-101962529D01*
X183698097Y-102043341D01*
X183644223Y-102151091D01*
X183644223Y-102258841D01*
X183671160Y-102339653D01*
X183751972Y-102474340D01*
X183832784Y-102555152D01*
X183967471Y-102635964D01*
X184048284Y-102662902D01*
X184156033Y-102662902D01*
X184263783Y-102609027D01*
X184317658Y-102555152D01*
X184371532Y-102447402D01*
X184371532Y-102393528D01*
X184182971Y-102204966D01*
X184075221Y-102312715D01*
X184667844Y-102204966D02*
X184102158Y-101639280D01*
X184317658Y-101423781D01*
X184398470Y-101396844D01*
X184452345Y-101396844D01*
X184533157Y-101423781D01*
X184613969Y-101504593D01*
X184640906Y-101585406D01*
X184640906Y-101639280D01*
X184613969Y-101720093D01*
X184398470Y-101935592D01*
X185529841Y-101342969D02*
X185206592Y-101666218D01*
X185368216Y-101504593D02*
X184802531Y-100938908D01*
X184829468Y-101073595D01*
X184829468Y-101181345D01*
X184802531Y-101262157D01*
X185475966Y-100265473D02*
X185206592Y-100534847D01*
X185449028Y-100831158D01*
X185449028Y-100777284D01*
X185475966Y-100696471D01*
X185610653Y-100561784D01*
X185691465Y-100534847D01*
X185745340Y-100534847D01*
X185826152Y-100561784D01*
X185960839Y-100696471D01*
X185987776Y-100777284D01*
X185987776Y-100831158D01*
X185960839Y-100911971D01*
X185826152Y-101046658D01*
X185745340Y-101073595D01*
X185691465Y-101073595D01*
X209967722Y-99395592D02*
X209886910Y-99422529D01*
X209806097Y-99503341D01*
X209752223Y-99611091D01*
X209752223Y-99718841D01*
X209779160Y-99799653D01*
X209859972Y-99934340D01*
X209940784Y-100015152D01*
X210075471Y-100095964D01*
X210156284Y-100122902D01*
X210264033Y-100122902D01*
X210371783Y-100069027D01*
X210425658Y-100015152D01*
X210479532Y-99907402D01*
X210479532Y-99853528D01*
X210290971Y-99664966D01*
X210183221Y-99772715D01*
X210775844Y-99664966D02*
X210210158Y-99099280D01*
X210425658Y-98883781D01*
X210506470Y-98856844D01*
X210560345Y-98856844D01*
X210641157Y-98883781D01*
X210721969Y-98964593D01*
X210748906Y-99045406D01*
X210748906Y-99099280D01*
X210721969Y-99180093D01*
X210506470Y-99395592D01*
X211637841Y-98802969D02*
X211314592Y-99126218D01*
X211476216Y-98964593D02*
X210910531Y-98398908D01*
X210937468Y-98533595D01*
X210937468Y-98641345D01*
X210910531Y-98722157D01*
X211260717Y-98048722D02*
X211637841Y-97671598D01*
X211961089Y-98479720D01*
X209967722Y-76535592D02*
X209886910Y-76562529D01*
X209806097Y-76643341D01*
X209752223Y-76751091D01*
X209752223Y-76858841D01*
X209779160Y-76939653D01*
X209859972Y-77074340D01*
X209940784Y-77155152D01*
X210075471Y-77235964D01*
X210156284Y-77262902D01*
X210264033Y-77262902D01*
X210371783Y-77209027D01*
X210425658Y-77155152D01*
X210479532Y-77047402D01*
X210479532Y-76993528D01*
X210290971Y-76804966D01*
X210183221Y-76912715D01*
X210775844Y-76804966D02*
X210210158Y-76239280D01*
X210425658Y-76023781D01*
X210506470Y-75996844D01*
X210560345Y-75996844D01*
X210641157Y-76023781D01*
X210721969Y-76104593D01*
X210748906Y-76185406D01*
X210748906Y-76239280D01*
X210721969Y-76320093D01*
X210506470Y-76535592D01*
X210802781Y-75754407D02*
X210802781Y-75700532D01*
X210829719Y-75619720D01*
X210964406Y-75485033D01*
X211045218Y-75458096D01*
X211099093Y-75458096D01*
X211179905Y-75485033D01*
X211233780Y-75538908D01*
X211287654Y-75646658D01*
X211287654Y-76293155D01*
X211637841Y-75942969D01*
X211557028Y-74892410D02*
X211449279Y-75000160D01*
X211422341Y-75080972D01*
X211422341Y-75134847D01*
X211449279Y-75269534D01*
X211530091Y-75404221D01*
X211745590Y-75619720D01*
X211826402Y-75646658D01*
X211880277Y-75646658D01*
X211961089Y-75619720D01*
X212068839Y-75511971D01*
X212095776Y-75431158D01*
X212095776Y-75377284D01*
X212068839Y-75296471D01*
X211934152Y-75161784D01*
X211853340Y-75134847D01*
X211799465Y-75134847D01*
X211718653Y-75161784D01*
X211610903Y-75269534D01*
X211583966Y-75350346D01*
X211583966Y-75404221D01*
X211610903Y-75485033D01*
X190360476Y-103938809D02*
X190474761Y-103976904D01*
X190665238Y-103976904D01*
X190741428Y-103938809D01*
X190779523Y-103900714D01*
X190817619Y-103824523D01*
X190817619Y-103748333D01*
X190779523Y-103672142D01*
X190741428Y-103634047D01*
X190665238Y-103595952D01*
X190512857Y-103557857D01*
X190436666Y-103519761D01*
X190398571Y-103481666D01*
X190360476Y-103405476D01*
X190360476Y-103329285D01*
X190398571Y-103253095D01*
X190436666Y-103215000D01*
X190512857Y-103176904D01*
X190703333Y-103176904D01*
X190817619Y-103215000D01*
X191084285Y-103176904D02*
X191274761Y-103976904D01*
X191427142Y-103405476D01*
X191579523Y-103976904D01*
X191770000Y-103176904D01*
X192531904Y-103900714D02*
X192493809Y-103938809D01*
X192379523Y-103976904D01*
X192303333Y-103976904D01*
X192189047Y-103938809D01*
X192112857Y-103862619D01*
X192074761Y-103786428D01*
X192036666Y-103634047D01*
X192036666Y-103519761D01*
X192074761Y-103367380D01*
X192112857Y-103291190D01*
X192189047Y-103215000D01*
X192303333Y-103176904D01*
X192379523Y-103176904D01*
X192493809Y-103215000D01*
X192531904Y-103253095D01*
X193255714Y-103976904D02*
X192874761Y-103976904D01*
X192874761Y-103176904D01*
X193522380Y-103976904D02*
X193522380Y-103176904D01*
X193979523Y-103976904D02*
X193636666Y-103519761D01*
X193979523Y-103176904D02*
X193522380Y-103634047D01*
X209792131Y-61373308D02*
X210142317Y-61023122D01*
X210169255Y-61427183D01*
X210250067Y-61346370D01*
X210330879Y-61319433D01*
X210384754Y-61319433D01*
X210465566Y-61346370D01*
X210600253Y-61481057D01*
X210627190Y-61561870D01*
X210627190Y-61615744D01*
X210600253Y-61696557D01*
X210438629Y-61858181D01*
X210357816Y-61885118D01*
X210303942Y-61885118D01*
X210303942Y-60861497D02*
X211058189Y-61238621D01*
X210681065Y-60484374D01*
X210815752Y-60349687D02*
X211165938Y-59999500D01*
X211192876Y-60403561D01*
X211273688Y-60322749D01*
X211354500Y-60295812D01*
X211408375Y-60295812D01*
X211489187Y-60322749D01*
X211623874Y-60457436D01*
X211650812Y-60538248D01*
X211650812Y-60592123D01*
X211623874Y-60672935D01*
X211462250Y-60834560D01*
X211381438Y-60861497D01*
X211327563Y-60861497D01*
X211893248Y-60511311D02*
X212324247Y-60080312D01*
X212108748Y-59595439D02*
X212297309Y-59406877D01*
X212674433Y-59622377D02*
X212405059Y-59891751D01*
X211839374Y-59326065D01*
X212108748Y-59056691D01*
X212916870Y-59379940D02*
X212351184Y-58814255D01*
X213240118Y-59056691D01*
X212674433Y-58491006D01*
X209759847Y-63905592D02*
X210110033Y-63555406D01*
X210136971Y-63959467D01*
X210217783Y-63878654D01*
X210298595Y-63851717D01*
X210352470Y-63851717D01*
X210433282Y-63878654D01*
X210567969Y-64013341D01*
X210594906Y-64094154D01*
X210594906Y-64148028D01*
X210567969Y-64228841D01*
X210406345Y-64390465D01*
X210325532Y-64417402D01*
X210271658Y-64417402D01*
X210271658Y-63393781D02*
X211025905Y-63770905D01*
X210648781Y-63016658D01*
X210783468Y-62881971D02*
X211133654Y-62531784D01*
X211160592Y-62935845D01*
X211241404Y-62855033D01*
X211322216Y-62828096D01*
X211376091Y-62828096D01*
X211456903Y-62855033D01*
X211591590Y-62989720D01*
X211618528Y-63070532D01*
X211618528Y-63124407D01*
X211591590Y-63205219D01*
X211429966Y-63366844D01*
X211349154Y-63393781D01*
X211295279Y-63393781D01*
X184243096Y-79006218D02*
X184162284Y-79033155D01*
X184081471Y-79113967D01*
X184027597Y-79221717D01*
X184027597Y-79329467D01*
X184054534Y-79410279D01*
X184135346Y-79544966D01*
X184216158Y-79625778D01*
X184350845Y-79706590D01*
X184431658Y-79733528D01*
X184539407Y-79733528D01*
X184647157Y-79679653D01*
X184701032Y-79625778D01*
X184754906Y-79518028D01*
X184754906Y-79464154D01*
X184566345Y-79275592D01*
X184458595Y-79383341D01*
X185051218Y-79275592D02*
X184485532Y-78709906D01*
X184701032Y-78494407D01*
X184781844Y-78467470D01*
X184835719Y-78467470D01*
X184916531Y-78494407D01*
X184997343Y-78575219D01*
X185024280Y-78656032D01*
X185024280Y-78709906D01*
X184997343Y-78790719D01*
X184781844Y-79006218D01*
X185374467Y-78305845D02*
X185293654Y-78332783D01*
X185239780Y-78332783D01*
X185158967Y-78305845D01*
X185132030Y-78278908D01*
X185105093Y-78198096D01*
X185105093Y-78144221D01*
X185132030Y-78063409D01*
X185239780Y-77955659D01*
X185320592Y-77928722D01*
X185374467Y-77928722D01*
X185455279Y-77955659D01*
X185482216Y-77982597D01*
X185509154Y-78063409D01*
X185509154Y-78117284D01*
X185482216Y-78198096D01*
X185374467Y-78305845D01*
X185347529Y-78386658D01*
X185347529Y-78440532D01*
X185374467Y-78521345D01*
X185482216Y-78629094D01*
X185563028Y-78656032D01*
X185616903Y-78656032D01*
X185697715Y-78629094D01*
X185805465Y-78521345D01*
X185832402Y-78440532D01*
X185832402Y-78386658D01*
X185805465Y-78305845D01*
X185697715Y-78198096D01*
X185616903Y-78171158D01*
X185563028Y-78171158D01*
X185482216Y-78198096D01*
X209967722Y-101935592D02*
X209886910Y-101962529D01*
X209806097Y-102043341D01*
X209752223Y-102151091D01*
X209752223Y-102258841D01*
X209779160Y-102339653D01*
X209859972Y-102474340D01*
X209940784Y-102555152D01*
X210075471Y-102635964D01*
X210156284Y-102662902D01*
X210264033Y-102662902D01*
X210371783Y-102609027D01*
X210425658Y-102555152D01*
X210479532Y-102447402D01*
X210479532Y-102393528D01*
X210290971Y-102204966D01*
X210183221Y-102312715D01*
X210775844Y-102204966D02*
X210210158Y-101639280D01*
X210425658Y-101423781D01*
X210506470Y-101396844D01*
X210560345Y-101396844D01*
X210641157Y-101423781D01*
X210721969Y-101504593D01*
X210748906Y-101585406D01*
X210748906Y-101639280D01*
X210721969Y-101720093D01*
X210506470Y-101935592D01*
X211637841Y-101342969D02*
X211314592Y-101666218D01*
X211476216Y-101504593D02*
X210910531Y-100938908D01*
X210937468Y-101073595D01*
X210937468Y-101181345D01*
X210910531Y-101262157D01*
X211557028Y-100292410D02*
X211449279Y-100400160D01*
X211422341Y-100480972D01*
X211422341Y-100534847D01*
X211449279Y-100669534D01*
X211530091Y-100804221D01*
X211745590Y-101019720D01*
X211826402Y-101046658D01*
X211880277Y-101046658D01*
X211961089Y-101019720D01*
X212068839Y-100911971D01*
X212095776Y-100831158D01*
X212095776Y-100777284D01*
X212068839Y-100696471D01*
X211934152Y-100561784D01*
X211853340Y-100534847D01*
X211799465Y-100534847D01*
X211718653Y-100561784D01*
X211610903Y-100669534D01*
X211583966Y-100750346D01*
X211583966Y-100804221D01*
X211610903Y-100885033D01*
X209956158Y-83913155D02*
X209875346Y-83940093D01*
X209794534Y-84020905D01*
X209740659Y-84128654D01*
X209740659Y-84236404D01*
X209767597Y-84317216D01*
X209848409Y-84451903D01*
X209929221Y-84532715D01*
X210063908Y-84613528D01*
X210144720Y-84640465D01*
X210252470Y-84640465D01*
X210360219Y-84586590D01*
X210414094Y-84532715D01*
X210467969Y-84424966D01*
X210467969Y-84371091D01*
X210279407Y-84182529D01*
X210171658Y-84290279D01*
X210764280Y-84182529D02*
X210198595Y-83616844D01*
X211087529Y-83859280D01*
X210521844Y-83293595D01*
X211356903Y-83589906D02*
X210791218Y-83024221D01*
X210925905Y-82889534D01*
X211033654Y-82835659D01*
X211141404Y-82835659D01*
X211222216Y-82862597D01*
X211356903Y-82943409D01*
X211437715Y-83024221D01*
X211518528Y-83158908D01*
X211545465Y-83239720D01*
X211545465Y-83347470D01*
X211491590Y-83455219D01*
X211356903Y-83589906D01*
X184356158Y-71213155D02*
X184275346Y-71240093D01*
X184194534Y-71320905D01*
X184140659Y-71428654D01*
X184140659Y-71536404D01*
X184167597Y-71617216D01*
X184248409Y-71751903D01*
X184329221Y-71832715D01*
X184463908Y-71913528D01*
X184544720Y-71940465D01*
X184652470Y-71940465D01*
X184760219Y-71886590D01*
X184814094Y-71832715D01*
X184867969Y-71724966D01*
X184867969Y-71671091D01*
X184679407Y-71482529D01*
X184571658Y-71590279D01*
X185164280Y-71482529D02*
X184598595Y-70916844D01*
X185487529Y-71159280D01*
X184921844Y-70593595D01*
X185756903Y-70889906D02*
X185191218Y-70324221D01*
X185325905Y-70189534D01*
X185433654Y-70135659D01*
X185541404Y-70135659D01*
X185622216Y-70162597D01*
X185756903Y-70243409D01*
X185837715Y-70324221D01*
X185918528Y-70458908D01*
X185945465Y-70539720D01*
X185945465Y-70647470D01*
X185891590Y-70755219D01*
X185756903Y-70889906D01*
X209967722Y-68661592D02*
X209886910Y-68688529D01*
X209806097Y-68769341D01*
X209752223Y-68877091D01*
X209752223Y-68984841D01*
X209779160Y-69065653D01*
X209859972Y-69200340D01*
X209940784Y-69281152D01*
X210075471Y-69361964D01*
X210156284Y-69388902D01*
X210264033Y-69388902D01*
X210371783Y-69335027D01*
X210425658Y-69281152D01*
X210479532Y-69173402D01*
X210479532Y-69119528D01*
X210290971Y-68930966D01*
X210183221Y-69038715D01*
X210775844Y-68930966D02*
X210210158Y-68365280D01*
X210425658Y-68149781D01*
X210506470Y-68122844D01*
X210560345Y-68122844D01*
X210641157Y-68149781D01*
X210721969Y-68230593D01*
X210748906Y-68311406D01*
X210748906Y-68365280D01*
X210721969Y-68446093D01*
X210506470Y-68661592D01*
X210802781Y-67880407D02*
X210802781Y-67826532D01*
X210829719Y-67745720D01*
X210964406Y-67611033D01*
X211045218Y-67584096D01*
X211099093Y-67584096D01*
X211179905Y-67611033D01*
X211233780Y-67664908D01*
X211287654Y-67772658D01*
X211287654Y-68419155D01*
X211637841Y-68068969D01*
X211637841Y-67422471D02*
X211557028Y-67449409D01*
X211503154Y-67449409D01*
X211422341Y-67422471D01*
X211395404Y-67395534D01*
X211368467Y-67314722D01*
X211368467Y-67260847D01*
X211395404Y-67180035D01*
X211503154Y-67072285D01*
X211583966Y-67045348D01*
X211637841Y-67045348D01*
X211718653Y-67072285D01*
X211745590Y-67099223D01*
X211772528Y-67180035D01*
X211772528Y-67233910D01*
X211745590Y-67314722D01*
X211637841Y-67422471D01*
X211610903Y-67503284D01*
X211610903Y-67557158D01*
X211637841Y-67637971D01*
X211745590Y-67745720D01*
X211826402Y-67772658D01*
X211880277Y-67772658D01*
X211961089Y-67745720D01*
X212068839Y-67637971D01*
X212095776Y-67557158D01*
X212095776Y-67503284D01*
X212068839Y-67422471D01*
X211961089Y-67314722D01*
X211880277Y-67287784D01*
X211826402Y-67287784D01*
X211745590Y-67314722D01*
X184383096Y-81346218D02*
X184302284Y-81373155D01*
X184221471Y-81453967D01*
X184167597Y-81561717D01*
X184167597Y-81669467D01*
X184194534Y-81750279D01*
X184275346Y-81884966D01*
X184356158Y-81965778D01*
X184490845Y-82046590D01*
X184571658Y-82073528D01*
X184679407Y-82073528D01*
X184787157Y-82019653D01*
X184841032Y-81965778D01*
X184894906Y-81858028D01*
X184894906Y-81804154D01*
X184706345Y-81615592D01*
X184598595Y-81723341D01*
X185191218Y-81615592D02*
X184625532Y-81049906D01*
X184841032Y-80834407D01*
X184921844Y-80807470D01*
X184975719Y-80807470D01*
X185056531Y-80834407D01*
X185137343Y-80915219D01*
X185164280Y-80996032D01*
X185164280Y-81049906D01*
X185137343Y-81130719D01*
X184921844Y-81346218D01*
X185783841Y-81022969D02*
X185891590Y-80915219D01*
X185918528Y-80834407D01*
X185918528Y-80780532D01*
X185891590Y-80645845D01*
X185810778Y-80511158D01*
X185595279Y-80295659D01*
X185514467Y-80268722D01*
X185460592Y-80268722D01*
X185379780Y-80295659D01*
X185272030Y-80403409D01*
X185245093Y-80484221D01*
X185245093Y-80538096D01*
X185272030Y-80618908D01*
X185406717Y-80753595D01*
X185487529Y-80780532D01*
X185541404Y-80780532D01*
X185622216Y-80753595D01*
X185729966Y-80645845D01*
X185756903Y-80565033D01*
X185756903Y-80511158D01*
X185729966Y-80430346D01*
X201774761Y-103938809D02*
X201889047Y-103976904D01*
X202079523Y-103976904D01*
X202155714Y-103938809D01*
X202193809Y-103900714D01*
X202231904Y-103824523D01*
X202231904Y-103748333D01*
X202193809Y-103672142D01*
X202155714Y-103634047D01*
X202079523Y-103595952D01*
X201927142Y-103557857D01*
X201850952Y-103519761D01*
X201812857Y-103481666D01*
X201774761Y-103405476D01*
X201774761Y-103329285D01*
X201812857Y-103253095D01*
X201850952Y-103215000D01*
X201927142Y-103176904D01*
X202117619Y-103176904D01*
X202231904Y-103215000D01*
X202498571Y-103176904D02*
X202689047Y-103976904D01*
X202841428Y-103405476D01*
X202993809Y-103976904D01*
X203184285Y-103176904D01*
X203489047Y-103976904D02*
X203489047Y-103176904D01*
X203679523Y-103176904D01*
X203793809Y-103215000D01*
X203870000Y-103291190D01*
X203908095Y-103367380D01*
X203946190Y-103519761D01*
X203946190Y-103634047D01*
X203908095Y-103786428D01*
X203870000Y-103862619D01*
X203793809Y-103938809D01*
X203679523Y-103976904D01*
X203489047Y-103976904D01*
X204289047Y-103976904D02*
X204289047Y-103176904D01*
X204822380Y-103176904D02*
X204974761Y-103176904D01*
X205050952Y-103215000D01*
X205127142Y-103291190D01*
X205165238Y-103443571D01*
X205165238Y-103710238D01*
X205127142Y-103862619D01*
X205050952Y-103938809D01*
X204974761Y-103976904D01*
X204822380Y-103976904D01*
X204746190Y-103938809D01*
X204670000Y-103862619D01*
X204631904Y-103710238D01*
X204631904Y-103443571D01*
X204670000Y-103291190D01*
X204746190Y-103215000D01*
X204822380Y-103176904D01*
X184383096Y-68646218D02*
X184302284Y-68673155D01*
X184221471Y-68753967D01*
X184167597Y-68861717D01*
X184167597Y-68969467D01*
X184194534Y-69050279D01*
X184275346Y-69184966D01*
X184356158Y-69265778D01*
X184490845Y-69346590D01*
X184571658Y-69373528D01*
X184679407Y-69373528D01*
X184787157Y-69319653D01*
X184841032Y-69265778D01*
X184894906Y-69158028D01*
X184894906Y-69104154D01*
X184706345Y-68915592D01*
X184598595Y-69023341D01*
X185191218Y-68915592D02*
X184625532Y-68349906D01*
X184841032Y-68134407D01*
X184921844Y-68107470D01*
X184975719Y-68107470D01*
X185056531Y-68134407D01*
X185137343Y-68215219D01*
X185164280Y-68296032D01*
X185164280Y-68349906D01*
X185137343Y-68430719D01*
X184921844Y-68646218D01*
X185460592Y-67514847D02*
X185191218Y-67784221D01*
X185433654Y-68080532D01*
X185433654Y-68026658D01*
X185460592Y-67945845D01*
X185595279Y-67811158D01*
X185676091Y-67784221D01*
X185729966Y-67784221D01*
X185810778Y-67811158D01*
X185945465Y-67945845D01*
X185972402Y-68026658D01*
X185972402Y-68080532D01*
X185945465Y-68161345D01*
X185810778Y-68296032D01*
X185729966Y-68322969D01*
X185676091Y-68322969D01*
X184383096Y-53406218D02*
X184302284Y-53433155D01*
X184221471Y-53513967D01*
X184167597Y-53621717D01*
X184167597Y-53729467D01*
X184194534Y-53810279D01*
X184275346Y-53944966D01*
X184356158Y-54025778D01*
X184490845Y-54106590D01*
X184571658Y-54133528D01*
X184679407Y-54133528D01*
X184787157Y-54079653D01*
X184841032Y-54025778D01*
X184894906Y-53918028D01*
X184894906Y-53864154D01*
X184706345Y-53675592D01*
X184598595Y-53783341D01*
X185191218Y-53675592D02*
X184625532Y-53109906D01*
X184841032Y-52894407D01*
X184921844Y-52867470D01*
X184975719Y-52867470D01*
X185056531Y-52894407D01*
X185137343Y-52975219D01*
X185164280Y-53056032D01*
X185164280Y-53109906D01*
X185137343Y-53190719D01*
X184921844Y-53406218D01*
X185298967Y-52436471D02*
X185352842Y-52382597D01*
X185433654Y-52355659D01*
X185487529Y-52355659D01*
X185568341Y-52382597D01*
X185703028Y-52463409D01*
X185837715Y-52598096D01*
X185918528Y-52732783D01*
X185945465Y-52813595D01*
X185945465Y-52867470D01*
X185918528Y-52948282D01*
X185864653Y-53002157D01*
X185783841Y-53029094D01*
X185729966Y-53029094D01*
X185649154Y-53002157D01*
X185514467Y-52921345D01*
X185379780Y-52786658D01*
X185298967Y-52651971D01*
X185272030Y-52571158D01*
X185272030Y-52517284D01*
X185298967Y-52436471D01*
X184383096Y-63566218D02*
X184302284Y-63593155D01*
X184221471Y-63673967D01*
X184167597Y-63781717D01*
X184167597Y-63889467D01*
X184194534Y-63970279D01*
X184275346Y-64104966D01*
X184356158Y-64185778D01*
X184490845Y-64266590D01*
X184571658Y-64293528D01*
X184679407Y-64293528D01*
X184787157Y-64239653D01*
X184841032Y-64185778D01*
X184894906Y-64078028D01*
X184894906Y-64024154D01*
X184706345Y-63835592D01*
X184598595Y-63943341D01*
X185191218Y-63835592D02*
X184625532Y-63269906D01*
X184841032Y-63054407D01*
X184921844Y-63027470D01*
X184975719Y-63027470D01*
X185056531Y-63054407D01*
X185137343Y-63135219D01*
X185164280Y-63216032D01*
X185164280Y-63269906D01*
X185137343Y-63350719D01*
X184921844Y-63566218D01*
X185137343Y-62758096D02*
X185487529Y-62407910D01*
X185514467Y-62811971D01*
X185595279Y-62731158D01*
X185676091Y-62704221D01*
X185729966Y-62704221D01*
X185810778Y-62731158D01*
X185945465Y-62865845D01*
X185972402Y-62946658D01*
X185972402Y-63000532D01*
X185945465Y-63081345D01*
X185783841Y-63242969D01*
X185703028Y-63269906D01*
X185649154Y-63269906D01*
X184356158Y-96613155D02*
X184275346Y-96640093D01*
X184194534Y-96720905D01*
X184140659Y-96828654D01*
X184140659Y-96936404D01*
X184167597Y-97017216D01*
X184248409Y-97151903D01*
X184329221Y-97232715D01*
X184463908Y-97313528D01*
X184544720Y-97340465D01*
X184652470Y-97340465D01*
X184760219Y-97286590D01*
X184814094Y-97232715D01*
X184867969Y-97124966D01*
X184867969Y-97071091D01*
X184679407Y-96882529D01*
X184571658Y-96990279D01*
X185164280Y-96882529D02*
X184598595Y-96316844D01*
X185487529Y-96559280D01*
X184921844Y-95993595D01*
X185756903Y-96289906D02*
X185191218Y-95724221D01*
X185325905Y-95589534D01*
X185433654Y-95535659D01*
X185541404Y-95535659D01*
X185622216Y-95562597D01*
X185756903Y-95643409D01*
X185837715Y-95724221D01*
X185918528Y-95858908D01*
X185945465Y-95939720D01*
X185945465Y-96047470D01*
X185891590Y-96155219D01*
X185756903Y-96289906D01*
X184356158Y-58513155D02*
X184275346Y-58540093D01*
X184194534Y-58620905D01*
X184140659Y-58728654D01*
X184140659Y-58836404D01*
X184167597Y-58917216D01*
X184248409Y-59051903D01*
X184329221Y-59132715D01*
X184463908Y-59213528D01*
X184544720Y-59240465D01*
X184652470Y-59240465D01*
X184760219Y-59186590D01*
X184814094Y-59132715D01*
X184867969Y-59024966D01*
X184867969Y-58971091D01*
X184679407Y-58782529D01*
X184571658Y-58890279D01*
X185164280Y-58782529D02*
X184598595Y-58216844D01*
X185487529Y-58459280D01*
X184921844Y-57893595D01*
X185756903Y-58189906D02*
X185191218Y-57624221D01*
X185325905Y-57489534D01*
X185433654Y-57435659D01*
X185541404Y-57435659D01*
X185622216Y-57462597D01*
X185756903Y-57543409D01*
X185837715Y-57624221D01*
X185918528Y-57758908D01*
X185945465Y-57839720D01*
X185945465Y-57947470D01*
X185891590Y-58055219D01*
X185756903Y-58189906D01*
X209967722Y-89235592D02*
X209886910Y-89262529D01*
X209806097Y-89343341D01*
X209752223Y-89451091D01*
X209752223Y-89558841D01*
X209779160Y-89639653D01*
X209859972Y-89774340D01*
X209940784Y-89855152D01*
X210075471Y-89935964D01*
X210156284Y-89962902D01*
X210264033Y-89962902D01*
X210371783Y-89909027D01*
X210425658Y-89855152D01*
X210479532Y-89747402D01*
X210479532Y-89693528D01*
X210290971Y-89504966D01*
X210183221Y-89612715D01*
X210775844Y-89504966D02*
X210210158Y-88939280D01*
X210425658Y-88723781D01*
X210506470Y-88696844D01*
X210560345Y-88696844D01*
X210641157Y-88723781D01*
X210721969Y-88804593D01*
X210748906Y-88885406D01*
X210748906Y-88939280D01*
X210721969Y-89020093D01*
X210506470Y-89235592D01*
X210802781Y-88454407D02*
X210802781Y-88400532D01*
X210829719Y-88319720D01*
X210964406Y-88185033D01*
X211045218Y-88158096D01*
X211099093Y-88158096D01*
X211179905Y-88185033D01*
X211233780Y-88238908D01*
X211287654Y-88346658D01*
X211287654Y-88993155D01*
X211637841Y-88642969D01*
X211422341Y-87727097D02*
X211476216Y-87673223D01*
X211557028Y-87646285D01*
X211610903Y-87646285D01*
X211691715Y-87673223D01*
X211826402Y-87754035D01*
X211961089Y-87888722D01*
X212041902Y-88023409D01*
X212068839Y-88104221D01*
X212068839Y-88158096D01*
X212041902Y-88238908D01*
X211988027Y-88292783D01*
X211907215Y-88319720D01*
X211853340Y-88319720D01*
X211772528Y-88292783D01*
X211637841Y-88211971D01*
X211503154Y-88077284D01*
X211422341Y-87942597D01*
X211395404Y-87861784D01*
X211395404Y-87807910D01*
X211422341Y-87727097D01*
X209967722Y-91775592D02*
X209886910Y-91802529D01*
X209806097Y-91883341D01*
X209752223Y-91991091D01*
X209752223Y-92098841D01*
X209779160Y-92179653D01*
X209859972Y-92314340D01*
X209940784Y-92395152D01*
X210075471Y-92475964D01*
X210156284Y-92502902D01*
X210264033Y-92502902D01*
X210371783Y-92449027D01*
X210425658Y-92395152D01*
X210479532Y-92287402D01*
X210479532Y-92233528D01*
X210290971Y-92044966D01*
X210183221Y-92152715D01*
X210775844Y-92044966D02*
X210210158Y-91479280D01*
X210425658Y-91263781D01*
X210506470Y-91236844D01*
X210560345Y-91236844D01*
X210641157Y-91263781D01*
X210721969Y-91344593D01*
X210748906Y-91425406D01*
X210748906Y-91479280D01*
X210721969Y-91560093D01*
X210506470Y-91775592D01*
X211637841Y-91182969D02*
X211314592Y-91506218D01*
X211476216Y-91344593D02*
X210910531Y-90778908D01*
X210937468Y-90913595D01*
X210937468Y-91021345D01*
X210910531Y-91102157D01*
X211907215Y-90913595D02*
X212014964Y-90805845D01*
X212041902Y-90725033D01*
X212041902Y-90671158D01*
X212014964Y-90536471D01*
X211934152Y-90401784D01*
X211718653Y-90186285D01*
X211637841Y-90159348D01*
X211583966Y-90159348D01*
X211503154Y-90186285D01*
X211395404Y-90294035D01*
X211368467Y-90374847D01*
X211368467Y-90428722D01*
X211395404Y-90509534D01*
X211530091Y-90644221D01*
X211610903Y-90671158D01*
X211664778Y-90671158D01*
X211745590Y-90644221D01*
X211853340Y-90536471D01*
X211880277Y-90455659D01*
X211880277Y-90401784D01*
X211853340Y-90320972D01*
X184283096Y-61026218D02*
X184202284Y-61053155D01*
X184121471Y-61133967D01*
X184067597Y-61241717D01*
X184067597Y-61349467D01*
X184094534Y-61430279D01*
X184175346Y-61564966D01*
X184256158Y-61645778D01*
X184390845Y-61726590D01*
X184471658Y-61753528D01*
X184579407Y-61753528D01*
X184687157Y-61699653D01*
X184741032Y-61645778D01*
X184794906Y-61538028D01*
X184794906Y-61484154D01*
X184606345Y-61295592D01*
X184498595Y-61403341D01*
X185091218Y-61295592D02*
X184525532Y-60729906D01*
X184741032Y-60514407D01*
X184821844Y-60487470D01*
X184875719Y-60487470D01*
X184956531Y-60514407D01*
X185037343Y-60595219D01*
X185064280Y-60676032D01*
X185064280Y-60729906D01*
X185037343Y-60810719D01*
X184821844Y-61026218D01*
X185118155Y-60245033D02*
X185118155Y-60191158D01*
X185145093Y-60110346D01*
X185279780Y-59975659D01*
X185360592Y-59948722D01*
X185414467Y-59948722D01*
X185495279Y-59975659D01*
X185549154Y-60029534D01*
X185603028Y-60137284D01*
X185603028Y-60783781D01*
X185953215Y-60433595D01*
X209967722Y-94315592D02*
X209886910Y-94342529D01*
X209806097Y-94423341D01*
X209752223Y-94531091D01*
X209752223Y-94638841D01*
X209779160Y-94719653D01*
X209859972Y-94854340D01*
X209940784Y-94935152D01*
X210075471Y-95015964D01*
X210156284Y-95042902D01*
X210264033Y-95042902D01*
X210371783Y-94989027D01*
X210425658Y-94935152D01*
X210479532Y-94827402D01*
X210479532Y-94773528D01*
X210290971Y-94584966D01*
X210183221Y-94692715D01*
X210775844Y-94584966D02*
X210210158Y-94019280D01*
X210425658Y-93803781D01*
X210506470Y-93776844D01*
X210560345Y-93776844D01*
X210641157Y-93803781D01*
X210721969Y-93884593D01*
X210748906Y-93965406D01*
X210748906Y-94019280D01*
X210721969Y-94100093D01*
X210506470Y-94315592D01*
X211637841Y-93722969D02*
X211314592Y-94046218D01*
X211476216Y-93884593D02*
X210910531Y-93318908D01*
X210937468Y-93453595D01*
X210937468Y-93561345D01*
X210910531Y-93642157D01*
X211637841Y-93076471D02*
X211557028Y-93103409D01*
X211503154Y-93103409D01*
X211422341Y-93076471D01*
X211395404Y-93049534D01*
X211368467Y-92968722D01*
X211368467Y-92914847D01*
X211395404Y-92834035D01*
X211503154Y-92726285D01*
X211583966Y-92699348D01*
X211637841Y-92699348D01*
X211718653Y-92726285D01*
X211745590Y-92753223D01*
X211772528Y-92834035D01*
X211772528Y-92887910D01*
X211745590Y-92968722D01*
X211637841Y-93076471D01*
X211610903Y-93157284D01*
X211610903Y-93211158D01*
X211637841Y-93291971D01*
X211745590Y-93399720D01*
X211826402Y-93426658D01*
X211880277Y-93426658D01*
X211961089Y-93399720D01*
X212068839Y-93291971D01*
X212095776Y-93211158D01*
X212095776Y-93157284D01*
X212068839Y-93076471D01*
X211961089Y-92968722D01*
X211880277Y-92941784D01*
X211826402Y-92941784D01*
X211745590Y-92968722D01*
X184383096Y-73726218D02*
X184302284Y-73753155D01*
X184221471Y-73833967D01*
X184167597Y-73941717D01*
X184167597Y-74049467D01*
X184194534Y-74130279D01*
X184275346Y-74264966D01*
X184356158Y-74345778D01*
X184490845Y-74426590D01*
X184571658Y-74453528D01*
X184679407Y-74453528D01*
X184787157Y-74399653D01*
X184841032Y-74345778D01*
X184894906Y-74238028D01*
X184894906Y-74184154D01*
X184706345Y-73995592D01*
X184598595Y-74103341D01*
X185191218Y-73995592D02*
X184625532Y-73429906D01*
X184841032Y-73214407D01*
X184921844Y-73187470D01*
X184975719Y-73187470D01*
X185056531Y-73214407D01*
X185137343Y-73295219D01*
X185164280Y-73376032D01*
X185164280Y-73429906D01*
X185137343Y-73510719D01*
X184921844Y-73726218D01*
X185433654Y-72621784D02*
X185325905Y-72729534D01*
X185298967Y-72810346D01*
X185298967Y-72864221D01*
X185325905Y-72998908D01*
X185406717Y-73133595D01*
X185622216Y-73349094D01*
X185703028Y-73376032D01*
X185756903Y-73376032D01*
X185837715Y-73349094D01*
X185945465Y-73241345D01*
X185972402Y-73160532D01*
X185972402Y-73106658D01*
X185945465Y-73025845D01*
X185810778Y-72891158D01*
X185729966Y-72864221D01*
X185676091Y-72864221D01*
X185595279Y-72891158D01*
X185487529Y-72998908D01*
X185460592Y-73079720D01*
X185460592Y-73133595D01*
X185487529Y-73214407D01*
X209967722Y-86705592D02*
X209886910Y-86732529D01*
X209806097Y-86813341D01*
X209752223Y-86921091D01*
X209752223Y-87028841D01*
X209779160Y-87109653D01*
X209859972Y-87244340D01*
X209940784Y-87325152D01*
X210075471Y-87405964D01*
X210156284Y-87432902D01*
X210264033Y-87432902D01*
X210371783Y-87379027D01*
X210425658Y-87325152D01*
X210479532Y-87217402D01*
X210479532Y-87163528D01*
X210290971Y-86974966D01*
X210183221Y-87082715D01*
X210775844Y-86974966D02*
X210210158Y-86409280D01*
X210425658Y-86193781D01*
X210506470Y-86166844D01*
X210560345Y-86166844D01*
X210641157Y-86193781D01*
X210721969Y-86274593D01*
X210748906Y-86355406D01*
X210748906Y-86409280D01*
X210721969Y-86490093D01*
X210506470Y-86705592D01*
X210802781Y-85924407D02*
X210802781Y-85870532D01*
X210829719Y-85789720D01*
X210964406Y-85655033D01*
X211045218Y-85628096D01*
X211099093Y-85628096D01*
X211179905Y-85655033D01*
X211233780Y-85708908D01*
X211287654Y-85816658D01*
X211287654Y-86463155D01*
X211637841Y-86112969D01*
X212176589Y-85574221D02*
X211853340Y-85897470D01*
X212014964Y-85735845D02*
X211449279Y-85170160D01*
X211476216Y-85304847D01*
X211476216Y-85412597D01*
X211449279Y-85493409D01*
X209967722Y-81615592D02*
X209886910Y-81642529D01*
X209806097Y-81723341D01*
X209752223Y-81831091D01*
X209752223Y-81938841D01*
X209779160Y-82019653D01*
X209859972Y-82154340D01*
X209940784Y-82235152D01*
X210075471Y-82315964D01*
X210156284Y-82342902D01*
X210264033Y-82342902D01*
X210371783Y-82289027D01*
X210425658Y-82235152D01*
X210479532Y-82127402D01*
X210479532Y-82073528D01*
X210290971Y-81884966D01*
X210183221Y-81992715D01*
X210775844Y-81884966D02*
X210210158Y-81319280D01*
X210425658Y-81103781D01*
X210506470Y-81076844D01*
X210560345Y-81076844D01*
X210641157Y-81103781D01*
X210721969Y-81184593D01*
X210748906Y-81265406D01*
X210748906Y-81319280D01*
X210721969Y-81400093D01*
X210506470Y-81615592D01*
X210802781Y-80834407D02*
X210802781Y-80780532D01*
X210829719Y-80699720D01*
X210964406Y-80565033D01*
X211045218Y-80538096D01*
X211099093Y-80538096D01*
X211179905Y-80565033D01*
X211233780Y-80618908D01*
X211287654Y-80726658D01*
X211287654Y-81373155D01*
X211637841Y-81022969D01*
X211341529Y-80295659D02*
X211341529Y-80241784D01*
X211368467Y-80160972D01*
X211503154Y-80026285D01*
X211583966Y-79999348D01*
X211637841Y-79999348D01*
X211718653Y-80026285D01*
X211772528Y-80080160D01*
X211826402Y-80187910D01*
X211826402Y-80834407D01*
X212176589Y-80484221D01*
X184356158Y-83913155D02*
X184275346Y-83940093D01*
X184194534Y-84020905D01*
X184140659Y-84128654D01*
X184140659Y-84236404D01*
X184167597Y-84317216D01*
X184248409Y-84451903D01*
X184329221Y-84532715D01*
X184463908Y-84613528D01*
X184544720Y-84640465D01*
X184652470Y-84640465D01*
X184760219Y-84586590D01*
X184814094Y-84532715D01*
X184867969Y-84424966D01*
X184867969Y-84371091D01*
X184679407Y-84182529D01*
X184571658Y-84290279D01*
X185164280Y-84182529D02*
X184598595Y-83616844D01*
X185487529Y-83859280D01*
X184921844Y-83293595D01*
X185756903Y-83589906D02*
X185191218Y-83024221D01*
X185325905Y-82889534D01*
X185433654Y-82835659D01*
X185541404Y-82835659D01*
X185622216Y-82862597D01*
X185756903Y-82943409D01*
X185837715Y-83024221D01*
X185918528Y-83158908D01*
X185945465Y-83239720D01*
X185945465Y-83347470D01*
X185891590Y-83455219D01*
X185756903Y-83589906D01*
X183813722Y-99395592D02*
X183732910Y-99422529D01*
X183652097Y-99503341D01*
X183598223Y-99611091D01*
X183598223Y-99718841D01*
X183625160Y-99799653D01*
X183705972Y-99934340D01*
X183786784Y-100015152D01*
X183921471Y-100095964D01*
X184002284Y-100122902D01*
X184110033Y-100122902D01*
X184217783Y-100069027D01*
X184271658Y-100015152D01*
X184325532Y-99907402D01*
X184325532Y-99853528D01*
X184136971Y-99664966D01*
X184029221Y-99772715D01*
X184621844Y-99664966D02*
X184056158Y-99099280D01*
X184271658Y-98883781D01*
X184352470Y-98856844D01*
X184406345Y-98856844D01*
X184487157Y-98883781D01*
X184567969Y-98964593D01*
X184594906Y-99045406D01*
X184594906Y-99099280D01*
X184567969Y-99180093D01*
X184352470Y-99395592D01*
X185483841Y-98802969D02*
X185160592Y-99126218D01*
X185322216Y-98964593D02*
X184756531Y-98398908D01*
X184783468Y-98533595D01*
X184783468Y-98641345D01*
X184756531Y-98722157D01*
X185591590Y-97940972D02*
X185968714Y-98318096D01*
X185241404Y-97860160D02*
X185510778Y-98398908D01*
X185860964Y-98048722D01*
X209790473Y-56484966D02*
X210544720Y-56862089D01*
X210167597Y-56107842D01*
X210867969Y-56484966D02*
X210975719Y-56431091D01*
X211110406Y-56296404D01*
X211137343Y-56215592D01*
X211137343Y-56161717D01*
X211110406Y-56080905D01*
X211056531Y-56027030D01*
X210975719Y-56000093D01*
X210921844Y-56000093D01*
X210841032Y-56027030D01*
X210706345Y-56107842D01*
X210625532Y-56134780D01*
X210571658Y-56134780D01*
X210490845Y-56107842D01*
X210436971Y-56053967D01*
X210410033Y-55973155D01*
X210410033Y-55919280D01*
X210436971Y-55838468D01*
X210571658Y-55703781D01*
X210679407Y-55649906D01*
X211298967Y-55569094D02*
X211568341Y-55838468D01*
X210814094Y-55461345D02*
X211298967Y-55569094D01*
X211191218Y-55084221D01*
X211891590Y-55461345D02*
X211999340Y-55407470D01*
X212134027Y-55272783D01*
X212160964Y-55191971D01*
X212160964Y-55138096D01*
X212134027Y-55057284D01*
X212080152Y-55003409D01*
X211999340Y-54976471D01*
X211945465Y-54976471D01*
X211864653Y-55003409D01*
X211729966Y-55084221D01*
X211649154Y-55111158D01*
X211595279Y-55111158D01*
X211514467Y-55084221D01*
X211460592Y-55030346D01*
X211433654Y-54949534D01*
X211433654Y-54895659D01*
X211460592Y-54814847D01*
X211595279Y-54680160D01*
X211703028Y-54626285D01*
X183713722Y-91775592D02*
X183632910Y-91802529D01*
X183552097Y-91883341D01*
X183498223Y-91991091D01*
X183498223Y-92098841D01*
X183525160Y-92179653D01*
X183605972Y-92314340D01*
X183686784Y-92395152D01*
X183821471Y-92475964D01*
X183902284Y-92502902D01*
X184010033Y-92502902D01*
X184117783Y-92449027D01*
X184171658Y-92395152D01*
X184225532Y-92287402D01*
X184225532Y-92233528D01*
X184036971Y-92044966D01*
X183929221Y-92152715D01*
X184521844Y-92044966D02*
X183956158Y-91479280D01*
X184171658Y-91263781D01*
X184252470Y-91236844D01*
X184306345Y-91236844D01*
X184387157Y-91263781D01*
X184467969Y-91344593D01*
X184494906Y-91425406D01*
X184494906Y-91479280D01*
X184467969Y-91560093D01*
X184252470Y-91775592D01*
X185383841Y-91182969D02*
X185060592Y-91506218D01*
X185222216Y-91344593D02*
X184656531Y-90778908D01*
X184683468Y-90913595D01*
X184683468Y-91021345D01*
X184656531Y-91102157D01*
X185087529Y-90455659D02*
X185087529Y-90401784D01*
X185114467Y-90320972D01*
X185249154Y-90186285D01*
X185329966Y-90159348D01*
X185383841Y-90159348D01*
X185464653Y-90186285D01*
X185518528Y-90240160D01*
X185572402Y-90347910D01*
X185572402Y-90994407D01*
X185922589Y-90644221D01*
X184283096Y-55936218D02*
X184202284Y-55963155D01*
X184121471Y-56043967D01*
X184067597Y-56151717D01*
X184067597Y-56259467D01*
X184094534Y-56340279D01*
X184175346Y-56474966D01*
X184256158Y-56555778D01*
X184390845Y-56636590D01*
X184471658Y-56663528D01*
X184579407Y-56663528D01*
X184687157Y-56609653D01*
X184741032Y-56555778D01*
X184794906Y-56448028D01*
X184794906Y-56394154D01*
X184606345Y-56205592D01*
X184498595Y-56313341D01*
X185091218Y-56205592D02*
X184525532Y-55639906D01*
X184741032Y-55424407D01*
X184821844Y-55397470D01*
X184875719Y-55397470D01*
X184956531Y-55424407D01*
X185037343Y-55505219D01*
X185064280Y-55586032D01*
X185064280Y-55639906D01*
X185037343Y-55720719D01*
X184821844Y-55936218D01*
X185953215Y-55343595D02*
X185629966Y-55666844D01*
X185791590Y-55505219D02*
X185225905Y-54939534D01*
X185252842Y-55074221D01*
X185252842Y-55181971D01*
X185225905Y-55262783D01*
X183859722Y-86695592D02*
X183778910Y-86722529D01*
X183698097Y-86803341D01*
X183644223Y-86911091D01*
X183644223Y-87018841D01*
X183671160Y-87099653D01*
X183751972Y-87234340D01*
X183832784Y-87315152D01*
X183967471Y-87395964D01*
X184048284Y-87422902D01*
X184156033Y-87422902D01*
X184263783Y-87369027D01*
X184317658Y-87315152D01*
X184371532Y-87207402D01*
X184371532Y-87153528D01*
X184182971Y-86964966D01*
X184075221Y-87072715D01*
X184667844Y-86964966D02*
X184102158Y-86399280D01*
X184317658Y-86183781D01*
X184398470Y-86156844D01*
X184452345Y-86156844D01*
X184533157Y-86183781D01*
X184613969Y-86264593D01*
X184640906Y-86345406D01*
X184640906Y-86399280D01*
X184613969Y-86480093D01*
X184398470Y-86695592D01*
X185529841Y-86102969D02*
X185206592Y-86426218D01*
X185368216Y-86264593D02*
X184802531Y-85698908D01*
X184829468Y-85833595D01*
X184829468Y-85941345D01*
X184802531Y-86022157D01*
X185314341Y-85187097D02*
X185368216Y-85133223D01*
X185449028Y-85106285D01*
X185502903Y-85106285D01*
X185583715Y-85133223D01*
X185718402Y-85214035D01*
X185853089Y-85348722D01*
X185933902Y-85483409D01*
X185960839Y-85564221D01*
X185960839Y-85618096D01*
X185933902Y-85698908D01*
X185880027Y-85752783D01*
X185799215Y-85779720D01*
X185745340Y-85779720D01*
X185664528Y-85752783D01*
X185529841Y-85671971D01*
X185395154Y-85537284D01*
X185314341Y-85402597D01*
X185287404Y-85321784D01*
X185287404Y-85267910D01*
X185314341Y-85187097D01*
X210708375Y-79358435D02*
X210250439Y-79277622D01*
X210385126Y-79681683D02*
X209819441Y-79115998D01*
X210034940Y-78900499D01*
X210115752Y-78873561D01*
X210169627Y-78873561D01*
X210250439Y-78900499D01*
X210331251Y-78981311D01*
X210358189Y-79062123D01*
X210358189Y-79115998D01*
X210331251Y-79196810D01*
X210115752Y-79412309D01*
X210385126Y-78550312D02*
X210843062Y-79008248D01*
X210923874Y-79035186D01*
X210977749Y-79035186D01*
X211058561Y-79008248D01*
X211166311Y-78900499D01*
X211193248Y-78819687D01*
X211193248Y-78765812D01*
X211166311Y-78684999D01*
X210708375Y-78227064D01*
X211543435Y-78523375D02*
X210977749Y-77957690D01*
X211866683Y-78200126D01*
X211300998Y-77634441D01*
X209967722Y-74005592D02*
X209886910Y-74032529D01*
X209806097Y-74113341D01*
X209752223Y-74221091D01*
X209752223Y-74328841D01*
X209779160Y-74409653D01*
X209859972Y-74544340D01*
X209940784Y-74625152D01*
X210075471Y-74705964D01*
X210156284Y-74732902D01*
X210264033Y-74732902D01*
X210371783Y-74679027D01*
X210425658Y-74625152D01*
X210479532Y-74517402D01*
X210479532Y-74463528D01*
X210290971Y-74274966D01*
X210183221Y-74382715D01*
X210775844Y-74274966D02*
X210210158Y-73709280D01*
X210425658Y-73493781D01*
X210506470Y-73466844D01*
X210560345Y-73466844D01*
X210641157Y-73493781D01*
X210721969Y-73574593D01*
X210748906Y-73655406D01*
X210748906Y-73709280D01*
X210721969Y-73790093D01*
X210506470Y-74005592D01*
X210802781Y-73224407D02*
X210802781Y-73170532D01*
X210829719Y-73089720D01*
X210964406Y-72955033D01*
X211045218Y-72928096D01*
X211099093Y-72928096D01*
X211179905Y-72955033D01*
X211233780Y-73008908D01*
X211287654Y-73116658D01*
X211287654Y-73763155D01*
X211637841Y-73412969D01*
X211260717Y-72658722D02*
X211637841Y-72281598D01*
X211961089Y-73089720D01*
%TO.C,U1*%
X139207380Y-84911904D02*
X140016904Y-84911904D01*
X140112142Y-84864285D01*
X140159761Y-84816666D01*
X140207380Y-84721428D01*
X140207380Y-84530952D01*
X140159761Y-84435714D01*
X140112142Y-84388095D01*
X140016904Y-84340476D01*
X139207380Y-84340476D01*
X140207380Y-83340476D02*
X140207380Y-83911904D01*
X140207380Y-83626190D02*
X139207380Y-83626190D01*
X139350238Y-83721428D01*
X139445476Y-83816666D01*
X139493095Y-83911904D01*
D11*
%TO.C,Q12*%
X228234285Y-106895476D02*
X228113333Y-106835000D01*
X227992380Y-106714047D01*
X227810952Y-106532619D01*
X227690000Y-106472142D01*
X227569047Y-106472142D01*
X227629523Y-106774523D02*
X227508571Y-106714047D01*
X227387619Y-106593095D01*
X227327142Y-106351190D01*
X227327142Y-105927857D01*
X227387619Y-105685952D01*
X227508571Y-105565000D01*
X227629523Y-105504523D01*
X227871428Y-105504523D01*
X227992380Y-105565000D01*
X228113333Y-105685952D01*
X228173809Y-105927857D01*
X228173809Y-106351190D01*
X228113333Y-106593095D01*
X227992380Y-106714047D01*
X227871428Y-106774523D01*
X227629523Y-106774523D01*
X229383333Y-106774523D02*
X228657619Y-106774523D01*
X229020476Y-106774523D02*
X229020476Y-105504523D01*
X228899523Y-105685952D01*
X228778571Y-105806904D01*
X228657619Y-105867380D01*
X229867142Y-105625476D02*
X229927619Y-105565000D01*
X230048571Y-105504523D01*
X230350952Y-105504523D01*
X230471904Y-105565000D01*
X230532380Y-105625476D01*
X230592857Y-105746428D01*
X230592857Y-105867380D01*
X230532380Y-106048809D01*
X229806666Y-106774523D01*
X230592857Y-106774523D01*
%TO.C,Q10*%
X228234285Y-83725476D02*
X228113333Y-83665000D01*
X227992380Y-83544047D01*
X227810952Y-83362619D01*
X227690000Y-83302142D01*
X227569047Y-83302142D01*
X227629523Y-83604523D02*
X227508571Y-83544047D01*
X227387619Y-83423095D01*
X227327142Y-83181190D01*
X227327142Y-82757857D01*
X227387619Y-82515952D01*
X227508571Y-82395000D01*
X227629523Y-82334523D01*
X227871428Y-82334523D01*
X227992380Y-82395000D01*
X228113333Y-82515952D01*
X228173809Y-82757857D01*
X228173809Y-83181190D01*
X228113333Y-83423095D01*
X227992380Y-83544047D01*
X227871428Y-83604523D01*
X227629523Y-83604523D01*
X229383333Y-83604523D02*
X228657619Y-83604523D01*
X229020476Y-83604523D02*
X229020476Y-82334523D01*
X228899523Y-82515952D01*
X228778571Y-82636904D01*
X228657619Y-82697380D01*
X230169523Y-82334523D02*
X230290476Y-82334523D01*
X230411428Y-82395000D01*
X230471904Y-82455476D01*
X230532380Y-82576428D01*
X230592857Y-82818333D01*
X230592857Y-83120714D01*
X230532380Y-83362619D01*
X230471904Y-83483571D01*
X230411428Y-83544047D01*
X230290476Y-83604523D01*
X230169523Y-83604523D01*
X230048571Y-83544047D01*
X229988095Y-83483571D01*
X229927619Y-83362619D01*
X229867142Y-83120714D01*
X229867142Y-82818333D01*
X229927619Y-82576428D01*
X229988095Y-82455476D01*
X230048571Y-82395000D01*
X230169523Y-82334523D01*
%TO.C,Q9*%
X228839047Y-115495476D02*
X228718095Y-115435000D01*
X228597142Y-115314047D01*
X228415714Y-115132619D01*
X228294761Y-115072142D01*
X228173809Y-115072142D01*
X228234285Y-115374523D02*
X228113333Y-115314047D01*
X227992380Y-115193095D01*
X227931904Y-114951190D01*
X227931904Y-114527857D01*
X227992380Y-114285952D01*
X228113333Y-114165000D01*
X228234285Y-114104523D01*
X228476190Y-114104523D01*
X228597142Y-114165000D01*
X228718095Y-114285952D01*
X228778571Y-114527857D01*
X228778571Y-114951190D01*
X228718095Y-115193095D01*
X228597142Y-115314047D01*
X228476190Y-115374523D01*
X228234285Y-115374523D01*
X229383333Y-115374523D02*
X229625238Y-115374523D01*
X229746190Y-115314047D01*
X229806666Y-115253571D01*
X229927619Y-115072142D01*
X229988095Y-114830238D01*
X229988095Y-114346428D01*
X229927619Y-114225476D01*
X229867142Y-114165000D01*
X229746190Y-114104523D01*
X229504285Y-114104523D01*
X229383333Y-114165000D01*
X229322857Y-114225476D01*
X229262380Y-114346428D01*
X229262380Y-114648809D01*
X229322857Y-114769761D01*
X229383333Y-114830238D01*
X229504285Y-114890714D01*
X229746190Y-114890714D01*
X229867142Y-114830238D01*
X229927619Y-114769761D01*
X229988095Y-114648809D01*
%TO.C,Q8*%
X228839047Y-92065476D02*
X228718095Y-92005000D01*
X228597142Y-91884047D01*
X228415714Y-91702619D01*
X228294761Y-91642142D01*
X228173809Y-91642142D01*
X228234285Y-91944523D02*
X228113333Y-91884047D01*
X227992380Y-91763095D01*
X227931904Y-91521190D01*
X227931904Y-91097857D01*
X227992380Y-90855952D01*
X228113333Y-90735000D01*
X228234285Y-90674523D01*
X228476190Y-90674523D01*
X228597142Y-90735000D01*
X228718095Y-90855952D01*
X228778571Y-91097857D01*
X228778571Y-91521190D01*
X228718095Y-91763095D01*
X228597142Y-91884047D01*
X228476190Y-91944523D01*
X228234285Y-91944523D01*
X229504285Y-91218809D02*
X229383333Y-91158333D01*
X229322857Y-91097857D01*
X229262380Y-90976904D01*
X229262380Y-90916428D01*
X229322857Y-90795476D01*
X229383333Y-90735000D01*
X229504285Y-90674523D01*
X229746190Y-90674523D01*
X229867142Y-90735000D01*
X229927619Y-90795476D01*
X229988095Y-90916428D01*
X229988095Y-90976904D01*
X229927619Y-91097857D01*
X229867142Y-91158333D01*
X229746190Y-91218809D01*
X229504285Y-91218809D01*
X229383333Y-91279285D01*
X229322857Y-91339761D01*
X229262380Y-91460714D01*
X229262380Y-91702619D01*
X229322857Y-91823571D01*
X229383333Y-91884047D01*
X229504285Y-91944523D01*
X229746190Y-91944523D01*
X229867142Y-91884047D01*
X229927619Y-91823571D01*
X229988095Y-91702619D01*
X229988095Y-91460714D01*
X229927619Y-91339761D01*
X229867142Y-91279285D01*
X229746190Y-91218809D01*
%TO.C,Q6*%
X228839047Y-57895476D02*
X228718095Y-57835000D01*
X228597142Y-57714047D01*
X228415714Y-57532619D01*
X228294761Y-57472142D01*
X228173809Y-57472142D01*
X228234285Y-57774523D02*
X228113333Y-57714047D01*
X227992380Y-57593095D01*
X227931904Y-57351190D01*
X227931904Y-56927857D01*
X227992380Y-56685952D01*
X228113333Y-56565000D01*
X228234285Y-56504523D01*
X228476190Y-56504523D01*
X228597142Y-56565000D01*
X228718095Y-56685952D01*
X228778571Y-56927857D01*
X228778571Y-57351190D01*
X228718095Y-57593095D01*
X228597142Y-57714047D01*
X228476190Y-57774523D01*
X228234285Y-57774523D01*
X229867142Y-56504523D02*
X229625238Y-56504523D01*
X229504285Y-56565000D01*
X229443809Y-56625476D01*
X229322857Y-56806904D01*
X229262380Y-57048809D01*
X229262380Y-57532619D01*
X229322857Y-57653571D01*
X229383333Y-57714047D01*
X229504285Y-57774523D01*
X229746190Y-57774523D01*
X229867142Y-57714047D01*
X229927619Y-57653571D01*
X229988095Y-57532619D01*
X229988095Y-57230238D01*
X229927619Y-57109285D01*
X229867142Y-57048809D01*
X229746190Y-56988333D01*
X229504285Y-56988333D01*
X229383333Y-57048809D01*
X229322857Y-57109285D01*
X229262380Y-57230238D01*
%TO.C,Q4*%
X228839047Y-65295476D02*
X228718095Y-65235000D01*
X228597142Y-65114047D01*
X228415714Y-64932619D01*
X228294761Y-64872142D01*
X228173809Y-64872142D01*
X228234285Y-65174523D02*
X228113333Y-65114047D01*
X227992380Y-64993095D01*
X227931904Y-64751190D01*
X227931904Y-64327857D01*
X227992380Y-64085952D01*
X228113333Y-63965000D01*
X228234285Y-63904523D01*
X228476190Y-63904523D01*
X228597142Y-63965000D01*
X228718095Y-64085952D01*
X228778571Y-64327857D01*
X228778571Y-64751190D01*
X228718095Y-64993095D01*
X228597142Y-65114047D01*
X228476190Y-65174523D01*
X228234285Y-65174523D01*
X229867142Y-64327857D02*
X229867142Y-65174523D01*
X229564761Y-63844047D02*
X229262380Y-64751190D01*
X230048571Y-64751190D01*
%TO.C,Q3*%
X228839047Y-40415476D02*
X228718095Y-40355000D01*
X228597142Y-40234047D01*
X228415714Y-40052619D01*
X228294761Y-39992142D01*
X228173809Y-39992142D01*
X228234285Y-40294523D02*
X228113333Y-40234047D01*
X227992380Y-40113095D01*
X227931904Y-39871190D01*
X227931904Y-39447857D01*
X227992380Y-39205952D01*
X228113333Y-39085000D01*
X228234285Y-39024523D01*
X228476190Y-39024523D01*
X228597142Y-39085000D01*
X228718095Y-39205952D01*
X228778571Y-39447857D01*
X228778571Y-39871190D01*
X228718095Y-40113095D01*
X228597142Y-40234047D01*
X228476190Y-40294523D01*
X228234285Y-40294523D01*
X229201904Y-39024523D02*
X229988095Y-39024523D01*
X229564761Y-39508333D01*
X229746190Y-39508333D01*
X229867142Y-39568809D01*
X229927619Y-39629285D01*
X229988095Y-39750238D01*
X229988095Y-40052619D01*
X229927619Y-40173571D01*
X229867142Y-40234047D01*
X229746190Y-40294523D01*
X229383333Y-40294523D01*
X229262380Y-40234047D01*
X229201904Y-40173571D01*
%TO.C,Q2*%
X228999047Y-35775476D02*
X228878095Y-35715000D01*
X228757142Y-35594047D01*
X228575714Y-35412619D01*
X228454761Y-35352142D01*
X228333809Y-35352142D01*
X228394285Y-35654523D02*
X228273333Y-35594047D01*
X228152380Y-35473095D01*
X228091904Y-35231190D01*
X228091904Y-34807857D01*
X228152380Y-34565952D01*
X228273333Y-34445000D01*
X228394285Y-34384523D01*
X228636190Y-34384523D01*
X228757142Y-34445000D01*
X228878095Y-34565952D01*
X228938571Y-34807857D01*
X228938571Y-35231190D01*
X228878095Y-35473095D01*
X228757142Y-35594047D01*
X228636190Y-35654523D01*
X228394285Y-35654523D01*
X229422380Y-34505476D02*
X229482857Y-34445000D01*
X229603809Y-34384523D01*
X229906190Y-34384523D01*
X230027142Y-34445000D01*
X230087619Y-34505476D01*
X230148095Y-34626428D01*
X230148095Y-34747380D01*
X230087619Y-34928809D01*
X229361904Y-35654523D01*
X230148095Y-35654523D01*
%TO.C,Q1*%
X177035476Y-84410952D02*
X176975000Y-84531904D01*
X176854047Y-84652857D01*
X176672619Y-84834285D01*
X176612142Y-84955238D01*
X176612142Y-85076190D01*
X176914523Y-85015714D02*
X176854047Y-85136666D01*
X176733095Y-85257619D01*
X176491190Y-85318095D01*
X176067857Y-85318095D01*
X175825952Y-85257619D01*
X175705000Y-85136666D01*
X175644523Y-85015714D01*
X175644523Y-84773809D01*
X175705000Y-84652857D01*
X175825952Y-84531904D01*
X176067857Y-84471428D01*
X176491190Y-84471428D01*
X176733095Y-84531904D01*
X176854047Y-84652857D01*
X176914523Y-84773809D01*
X176914523Y-85015714D01*
X176914523Y-83261904D02*
X176914523Y-83987619D01*
X176914523Y-83624761D02*
X175644523Y-83624761D01*
X175825952Y-83745714D01*
X175946904Y-83866666D01*
X176007380Y-83987619D01*
D10*
%TO.C,PS1*%
X163047380Y-64596785D02*
X162047380Y-64596785D01*
X162047380Y-64215833D01*
X162095000Y-64120595D01*
X162142619Y-64072976D01*
X162237857Y-64025357D01*
X162380714Y-64025357D01*
X162475952Y-64072976D01*
X162523571Y-64120595D01*
X162571190Y-64215833D01*
X162571190Y-64596785D01*
X162999761Y-63644404D02*
X163047380Y-63501547D01*
X163047380Y-63263452D01*
X162999761Y-63168214D01*
X162952142Y-63120595D01*
X162856904Y-63072976D01*
X162761666Y-63072976D01*
X162666428Y-63120595D01*
X162618809Y-63168214D01*
X162571190Y-63263452D01*
X162523571Y-63453928D01*
X162475952Y-63549166D01*
X162428333Y-63596785D01*
X162333095Y-63644404D01*
X162237857Y-63644404D01*
X162142619Y-63596785D01*
X162095000Y-63549166D01*
X162047380Y-63453928D01*
X162047380Y-63215833D01*
X162095000Y-63072976D01*
X163047380Y-62120595D02*
X163047380Y-62692023D01*
X163047380Y-62406309D02*
X162047380Y-62406309D01*
X162190238Y-62501547D01*
X162285476Y-62596785D01*
X162333095Y-62692023D01*
D11*
%TO.C,J1*%
X125132166Y-45825523D02*
X125132166Y-46732666D01*
X125071690Y-46914095D01*
X124950738Y-47035047D01*
X124769309Y-47095523D01*
X124648357Y-47095523D01*
X126402166Y-47095523D02*
X125676452Y-47095523D01*
X126039309Y-47095523D02*
X126039309Y-45825523D01*
X125918357Y-46006952D01*
X125797404Y-46127904D01*
X125676452Y-46188380D01*
D10*
%TO.C,C4*%
X161482022Y-84211785D02*
X161529641Y-84259404D01*
X161577260Y-84402261D01*
X161577260Y-84497499D01*
X161529641Y-84640357D01*
X161434403Y-84735595D01*
X161339165Y-84783214D01*
X161148689Y-84830833D01*
X161005832Y-84830833D01*
X160815356Y-84783214D01*
X160720118Y-84735595D01*
X160624880Y-84640357D01*
X160577260Y-84497499D01*
X160577260Y-84402261D01*
X160624880Y-84259404D01*
X160672499Y-84211785D01*
X160910594Y-83354642D02*
X161577260Y-83354642D01*
X160529641Y-83592738D02*
X161243927Y-83830833D01*
X161243927Y-83211785D01*
%TO.C,C3*%
X157501010Y-58347142D02*
X157453391Y-58394761D01*
X157310534Y-58442380D01*
X157215296Y-58442380D01*
X157072438Y-58394761D01*
X156977200Y-58299523D01*
X156929581Y-58204285D01*
X156881962Y-58013809D01*
X156881962Y-57870952D01*
X156929581Y-57680476D01*
X156977200Y-57585238D01*
X157072438Y-57490000D01*
X157215296Y-57442380D01*
X157310534Y-57442380D01*
X157453391Y-57490000D01*
X157501010Y-57537619D01*
X157834343Y-57442380D02*
X158453391Y-57442380D01*
X158120057Y-57823333D01*
X158262915Y-57823333D01*
X158358153Y-57870952D01*
X158405772Y-57918571D01*
X158453391Y-58013809D01*
X158453391Y-58251904D01*
X158405772Y-58347142D01*
X158358153Y-58394761D01*
X158262915Y-58442380D01*
X157977200Y-58442380D01*
X157881962Y-58394761D01*
X157834343Y-58347142D01*
%TO.C,C2*%
X127757142Y-84404343D02*
X127804761Y-84451962D01*
X127852380Y-84594819D01*
X127852380Y-84690057D01*
X127804761Y-84832915D01*
X127709523Y-84928153D01*
X127614285Y-84975772D01*
X127423809Y-85023391D01*
X127280952Y-85023391D01*
X127090476Y-84975772D01*
X126995238Y-84928153D01*
X126900000Y-84832915D01*
X126852380Y-84690057D01*
X126852380Y-84594819D01*
X126900000Y-84451962D01*
X126947619Y-84404343D01*
X126947619Y-84023391D02*
X126900000Y-83975772D01*
X126852380Y-83880534D01*
X126852380Y-83642438D01*
X126900000Y-83547200D01*
X126947619Y-83499581D01*
X127042857Y-83451962D01*
X127138095Y-83451962D01*
X127280952Y-83499581D01*
X127852380Y-84071010D01*
X127852380Y-83451962D01*
%TO.C,C1*%
X161782142Y-69518989D02*
X161829761Y-69566608D01*
X161877380Y-69709465D01*
X161877380Y-69804703D01*
X161829761Y-69947561D01*
X161734523Y-70042799D01*
X161639285Y-70090418D01*
X161448809Y-70138037D01*
X161305952Y-70138037D01*
X161115476Y-70090418D01*
X161020238Y-70042799D01*
X160925000Y-69947561D01*
X160877380Y-69804703D01*
X160877380Y-69709465D01*
X160925000Y-69566608D01*
X160972619Y-69518989D01*
X161877380Y-68566608D02*
X161877380Y-69138037D01*
X161877380Y-68852323D02*
X160877380Y-68852323D01*
X161020238Y-68947561D01*
X161115476Y-69042799D01*
X161163095Y-69138037D01*
D12*
%TO.C,R10*%
X217530000Y-105750000D02*
X217530000Y-107590000D01*
X217530000Y-107590000D02*
X221370000Y-107590000D01*
X221370000Y-105750000D02*
X217530000Y-105750000D01*
X216580000Y-106670000D02*
X217530000Y-106670000D01*
X221370000Y-107590000D02*
X221370000Y-105750000D01*
X222320000Y-106670000D02*
X221370000Y-106670000D01*
%TO.C,R9*%
X214670000Y-77780000D02*
X214670000Y-79620000D01*
X214670000Y-79620000D02*
X218510000Y-79620000D01*
X218510000Y-77780000D02*
X214670000Y-77780000D01*
X213720000Y-78700000D02*
X214670000Y-78700000D01*
X218510000Y-79620000D02*
X218510000Y-77780000D01*
X219460000Y-78700000D02*
X218510000Y-78700000D01*
%TO.C,R8*%
X216400000Y-65720000D02*
X218240000Y-65720000D01*
X218240000Y-65720000D02*
X218240000Y-61880000D01*
X216400000Y-61880000D02*
X216400000Y-65720000D01*
X217320000Y-66670000D02*
X217320000Y-65720000D01*
X218240000Y-61880000D02*
X216400000Y-61880000D01*
X217320000Y-60930000D02*
X217320000Y-61880000D01*
%TO.C,R7*%
X217430000Y-46790000D02*
X219270000Y-46790000D01*
X219270000Y-46790000D02*
X219270000Y-42950000D01*
X217430000Y-42950000D02*
X217430000Y-46790000D01*
X218350000Y-47740000D02*
X218350000Y-46790000D01*
X219270000Y-42950000D02*
X217430000Y-42950000D01*
X218350000Y-42000000D02*
X218350000Y-42950000D01*
%TO.C,R6*%
X189030000Y-106760000D02*
X189030000Y-104920000D01*
X189030000Y-104920000D02*
X185190000Y-104920000D01*
X185190000Y-106760000D02*
X189030000Y-106760000D01*
X189980000Y-105840000D02*
X189030000Y-105840000D01*
X185190000Y-104920000D02*
X185190000Y-106760000D01*
X184240000Y-105840000D02*
X185190000Y-105840000D01*
%TO.C,R5*%
X189030000Y-113020000D02*
X189030000Y-111180000D01*
X189030000Y-111180000D02*
X185190000Y-111180000D01*
X185190000Y-113020000D02*
X189030000Y-113020000D01*
X189980000Y-112100000D02*
X189030000Y-112100000D01*
X185190000Y-111180000D02*
X185190000Y-113020000D01*
X184240000Y-112100000D02*
X185190000Y-112100000D01*
%TO.C,D6*%
X219864000Y-104175000D02*
X220020000Y-104175000D01*
X222180000Y-104175000D02*
X222336000Y-104175000D01*
X220020163Y-101573870D02*
G75*
G03*
X220020000Y-103655961I1079837J-1041130D01*
G01*
X222335516Y-104175000D02*
G75*
G03*
X222178608Y-100942665I-1235516J1560000D01*
G01*
X222180000Y-103655961D02*
G75*
G03*
X222179837Y-101573870I-1080000J1040961D01*
G01*
X220021392Y-100942665D02*
G75*
G03*
X219864484Y-104175000I1078608J-1672335D01*
G01*
%TO.C,D5*%
X222265000Y-77464000D02*
X222265000Y-77620000D01*
X222265000Y-79780000D02*
X222265000Y-79936000D01*
X224866130Y-77620163D02*
G75*
G03*
X222784039Y-77620000I-1041130J-1079837D01*
G01*
X222265000Y-79935516D02*
G75*
G03*
X225497335Y-79778608I1560000J1235516D01*
G01*
X222784039Y-79780000D02*
G75*
G03*
X224866130Y-79779837I1040961J1080000D01*
G01*
X225497335Y-77621392D02*
G75*
G03*
X222265000Y-77464484I-1672335J-1078608D01*
G01*
%TO.C,D4*%
X220734000Y-55295000D02*
X220890000Y-55295000D01*
X223050000Y-55295000D02*
X223206000Y-55295000D01*
X220890163Y-52693870D02*
G75*
G03*
X220890000Y-54775961I1079837J-1041130D01*
G01*
X223205516Y-55295000D02*
G75*
G03*
X223048608Y-52062665I-1235516J1560000D01*
G01*
X223050000Y-54775961D02*
G75*
G03*
X223049837Y-52693870I-1080000J1040961D01*
G01*
X220891392Y-52062665D02*
G75*
G03*
X220734484Y-55295000I1078608J-1672335D01*
G01*
%TO.C,D3*%
X217114000Y-38395000D02*
X217270000Y-38395000D01*
X219430000Y-38395000D02*
X219586000Y-38395000D01*
X217270163Y-35793870D02*
G75*
G03*
X217270000Y-37875961I1079837J-1041130D01*
G01*
X219585516Y-38395000D02*
G75*
G03*
X219428608Y-35162665I-1235516J1560000D01*
G01*
X219430000Y-37875961D02*
G75*
G03*
X219429837Y-35793870I-1080000J1040961D01*
G01*
X217271392Y-35162665D02*
G75*
G03*
X217114484Y-38395000I1078608J-1672335D01*
G01*
%TO.C,D2*%
X178365000Y-107096000D02*
X178365000Y-106940000D01*
X178365000Y-104780000D02*
X178365000Y-104624000D01*
X175763870Y-106939837D02*
G75*
G03*
X177845961Y-106940000I1041130J1079837D01*
G01*
X178365000Y-104624484D02*
G75*
G03*
X175132665Y-104781392I-1560000J-1235516D01*
G01*
X177845961Y-104780000D02*
G75*
G03*
X175763870Y-104780163I-1040961J-1080000D01*
G01*
X175132665Y-106938608D02*
G75*
G03*
X178365000Y-107095516I1672335J1078608D01*
G01*
%TO.C,D1*%
X178365000Y-113336000D02*
X178365000Y-113180000D01*
X178365000Y-111020000D02*
X178365000Y-110864000D01*
X175763870Y-113179837D02*
G75*
G03*
X177845961Y-113180000I1041130J1079837D01*
G01*
X178365000Y-110864484D02*
G75*
G03*
X175132665Y-111021392I-1560000J-1235516D01*
G01*
X177845961Y-111020000D02*
G75*
G03*
X175763870Y-111020163I-1040961J-1080000D01*
G01*
X175132665Y-113178608D02*
G75*
G03*
X178365000Y-113335516I1672335J1078608D01*
G01*
%TO.C,RailB2*%
X156950000Y-112020000D02*
X156950000Y-114920000D01*
X154050000Y-112020000D02*
X156950000Y-112020000D01*
X156950000Y-114920000D02*
X154050000Y-114920000D01*
X154050000Y-114920000D02*
X154050000Y-112020000D01*
%TO.C,RailA2*%
X147920000Y-112030000D02*
X147920000Y-114930000D01*
X145020000Y-112030000D02*
X147920000Y-112030000D01*
X147920000Y-114930000D02*
X145020000Y-114930000D01*
X145020000Y-114930000D02*
X145020000Y-112030000D01*
%TO.C,G4R2*%
X242920000Y-110020000D02*
X242920000Y-112920000D01*
X240020000Y-110020000D02*
X242920000Y-110020000D01*
X242920000Y-112920000D02*
X240020000Y-112920000D01*
X240020000Y-112920000D02*
X240020000Y-110020000D01*
%TO.C,G4M2*%
X242920000Y-114540000D02*
X242920000Y-117440000D01*
X240020000Y-114540000D02*
X242920000Y-114540000D01*
X242920000Y-117440000D02*
X240020000Y-117440000D01*
X240020000Y-117440000D02*
X240020000Y-114540000D01*
%TO.C,G4L2*%
X242900000Y-119080000D02*
X242900000Y-121980000D01*
X240000000Y-119080000D02*
X242900000Y-119080000D01*
X242900000Y-121980000D02*
X240000000Y-121980000D01*
X240000000Y-121980000D02*
X240000000Y-119080000D01*
%TO.C,G3R2*%
X242950000Y-87510000D02*
X242950000Y-90410000D01*
X240050000Y-87510000D02*
X242950000Y-87510000D01*
X242950000Y-90410000D02*
X240050000Y-90410000D01*
X240050000Y-90410000D02*
X240050000Y-87510000D01*
%TO.C,G3M2*%
X242890000Y-92070000D02*
X242890000Y-94970000D01*
X239990000Y-92070000D02*
X242890000Y-92070000D01*
X242890000Y-94970000D02*
X239990000Y-94970000D01*
X239990000Y-94970000D02*
X239990000Y-92070000D01*
%TO.C,G3L2*%
X242880000Y-96560000D02*
X242880000Y-99460000D01*
X239980000Y-96560000D02*
X242880000Y-96560000D01*
X242880000Y-99460000D02*
X239980000Y-99460000D01*
X239980000Y-99460000D02*
X239980000Y-96560000D01*
%TO.C,G2R2*%
X242850000Y-52550000D02*
X242850000Y-55450000D01*
X239950000Y-52550000D02*
X242850000Y-52550000D01*
X242850000Y-55450000D02*
X239950000Y-55450000D01*
X239950000Y-55450000D02*
X239950000Y-52550000D01*
%TO.C,G2M2*%
X242870000Y-57040000D02*
X242870000Y-59940000D01*
X239970000Y-57040000D02*
X242870000Y-57040000D01*
X242870000Y-59940000D02*
X239970000Y-59940000D01*
X239970000Y-59940000D02*
X239970000Y-57040000D01*
%TO.C,G2L2*%
X242920000Y-61530000D02*
X242920000Y-64430000D01*
X240020000Y-61530000D02*
X242920000Y-61530000D01*
X242920000Y-64430000D02*
X240020000Y-64430000D01*
X240020000Y-64430000D02*
X240020000Y-61530000D01*
%TO.C,G1R2*%
X242900000Y-33520000D02*
X242900000Y-36420000D01*
X240000000Y-33520000D02*
X242900000Y-33520000D01*
X242900000Y-36420000D02*
X240000000Y-36420000D01*
X240000000Y-36420000D02*
X240000000Y-33520000D01*
%TO.C,G1M2*%
X242890000Y-38040000D02*
X242890000Y-40940000D01*
X239990000Y-38040000D02*
X242890000Y-38040000D01*
X242890000Y-40940000D02*
X239990000Y-40940000D01*
X239990000Y-40940000D02*
X239990000Y-38040000D01*
%TO.C,G1L2*%
X242880000Y-42520000D02*
X242880000Y-45420000D01*
X239980000Y-42520000D02*
X242880000Y-42520000D01*
X242880000Y-45420000D02*
X239980000Y-45420000D01*
X239980000Y-45420000D02*
X239980000Y-42520000D01*
%TO.C,RailB1*%
X156950000Y-115070000D02*
X156950000Y-117970000D01*
X154050000Y-115070000D02*
X156950000Y-115070000D01*
X156950000Y-117970000D02*
X154050000Y-117970000D01*
X154050000Y-117970000D02*
X154050000Y-115070000D01*
%TO.C,RailA1*%
X147930000Y-115070000D02*
X147930000Y-117970000D01*
X145030000Y-115070000D02*
X147930000Y-115070000D01*
X147930000Y-117970000D02*
X145030000Y-117970000D01*
X145030000Y-117970000D02*
X145030000Y-115070000D01*
%TO.C,G4R1*%
X245970000Y-110030000D02*
X245970000Y-112930000D01*
X243070000Y-110030000D02*
X245970000Y-110030000D01*
X245970000Y-112930000D02*
X243070000Y-112930000D01*
X243070000Y-112930000D02*
X243070000Y-110030000D01*
%TO.C,G4M1*%
X246000000Y-114530000D02*
X246000000Y-117430000D01*
X243100000Y-114530000D02*
X246000000Y-114530000D01*
X246000000Y-117430000D02*
X243100000Y-117430000D01*
X243100000Y-117430000D02*
X243100000Y-114530000D01*
%TO.C,G4L1*%
X245980000Y-119040000D02*
X245980000Y-121940000D01*
X243080000Y-119040000D02*
X245980000Y-119040000D01*
X245980000Y-121940000D02*
X243080000Y-121940000D01*
X243080000Y-121940000D02*
X243080000Y-119040000D01*
%TO.C,G3R1*%
X246010000Y-87500000D02*
X246010000Y-90400000D01*
X243110000Y-87500000D02*
X246010000Y-87500000D01*
X246010000Y-90400000D02*
X243110000Y-90400000D01*
X243110000Y-90400000D02*
X243110000Y-87500000D01*
%TO.C,G3M1*%
X245940000Y-92070000D02*
X245940000Y-94970000D01*
X243040000Y-92070000D02*
X245940000Y-92070000D01*
X245940000Y-94970000D02*
X243040000Y-94970000D01*
X243040000Y-94970000D02*
X243040000Y-92070000D01*
%TO.C,G3L1*%
X245940000Y-96550000D02*
X245940000Y-99450000D01*
X243040000Y-96550000D02*
X245940000Y-96550000D01*
X245940000Y-99450000D02*
X243040000Y-99450000D01*
X243040000Y-99450000D02*
X243040000Y-96550000D01*
%TO.C,G2R1*%
X245920000Y-52550000D02*
X245920000Y-55450000D01*
X243020000Y-52550000D02*
X245920000Y-52550000D01*
X245920000Y-55450000D02*
X243020000Y-55450000D01*
X243020000Y-55450000D02*
X243020000Y-52550000D01*
%TO.C,G2M1*%
X245940000Y-57030000D02*
X245940000Y-59930000D01*
X243040000Y-57030000D02*
X245940000Y-57030000D01*
X245940000Y-59930000D02*
X243040000Y-59930000D01*
X243040000Y-59930000D02*
X243040000Y-57030000D01*
%TO.C,G2L1*%
X245980000Y-61540000D02*
X245980000Y-64440000D01*
X243080000Y-61540000D02*
X245980000Y-61540000D01*
X245980000Y-64440000D02*
X243080000Y-64440000D01*
X243080000Y-64440000D02*
X243080000Y-61540000D01*
%TO.C,G1R1*%
X245970000Y-33550000D02*
X245970000Y-36450000D01*
X243070000Y-33550000D02*
X245970000Y-33550000D01*
X245970000Y-36450000D02*
X243070000Y-36450000D01*
X243070000Y-36450000D02*
X243070000Y-33550000D01*
%TO.C,G1M1*%
X245960000Y-38030000D02*
X245960000Y-40930000D01*
X243060000Y-38030000D02*
X245960000Y-38030000D01*
X245960000Y-40930000D02*
X243060000Y-40930000D01*
X243060000Y-40930000D02*
X243060000Y-38030000D01*
%TO.C,G1L1*%
X245990000Y-42530000D02*
X245990000Y-45430000D01*
X243090000Y-42530000D02*
X245990000Y-42530000D01*
X245990000Y-45430000D02*
X243090000Y-45430000D01*
X243090000Y-45430000D02*
X243090000Y-42530000D01*
%TO.C,R4*%
X232060000Y-120570000D02*
X233900000Y-120570000D01*
X233900000Y-120570000D02*
X233900000Y-116730000D01*
X232060000Y-116730000D02*
X232060000Y-120570000D01*
X232980000Y-121520000D02*
X232980000Y-120570000D01*
X233900000Y-116730000D02*
X232060000Y-116730000D01*
X232980000Y-115780000D02*
X232980000Y-116730000D01*
%TO.C,R3*%
X232060000Y-97270000D02*
X233900000Y-97270000D01*
X233900000Y-97270000D02*
X233900000Y-93430000D01*
X232060000Y-93430000D02*
X232060000Y-97270000D01*
X232980000Y-98220000D02*
X232980000Y-97270000D01*
X233900000Y-93430000D02*
X232060000Y-93430000D01*
X232980000Y-92480000D02*
X232980000Y-93430000D01*
%TO.C,R2*%
X232980000Y-63920000D02*
X232980000Y-64870000D01*
X233900000Y-64870000D02*
X232060000Y-64870000D01*
X232980000Y-69660000D02*
X232980000Y-68710000D01*
X232060000Y-64870000D02*
X232060000Y-68710000D01*
X233900000Y-68710000D02*
X233900000Y-64870000D01*
X232060000Y-68710000D02*
X233900000Y-68710000D01*
%TO.C,R1*%
X232060000Y-44470000D02*
X233900000Y-44470000D01*
X233900000Y-44470000D02*
X233900000Y-40630000D01*
X232060000Y-40630000D02*
X232060000Y-44470000D01*
X232980000Y-45420000D02*
X232980000Y-44470000D01*
X233900000Y-40630000D02*
X232060000Y-40630000D01*
X232980000Y-39680000D02*
X232980000Y-40630000D01*
D13*
%TO.C,IC4*%
X228485000Y-121950000D02*
X229435000Y-121950000D01*
X229435000Y-121950000D02*
X229435000Y-124870000D01*
X229435000Y-124870000D02*
X228485000Y-124870000D01*
X228485000Y-124870000D02*
X228485000Y-121950000D01*
X227285000Y-121910000D02*
X228135000Y-121910000D01*
%TO.C,IC3*%
X228485000Y-97680000D02*
X229435000Y-97680000D01*
X229435000Y-97680000D02*
X229435000Y-100600000D01*
X229435000Y-100600000D02*
X228485000Y-100600000D01*
X228485000Y-100600000D02*
X228485000Y-97680000D01*
X227285000Y-97640000D02*
X228135000Y-97640000D01*
%TO.C,IC2*%
X228485000Y-67480000D02*
X229435000Y-67480000D01*
X229435000Y-67480000D02*
X229435000Y-70400000D01*
X229435000Y-70400000D02*
X228485000Y-70400000D01*
X228485000Y-70400000D02*
X228485000Y-67480000D01*
X227285000Y-67440000D02*
X228135000Y-67440000D01*
%TO.C,IC1*%
X228485000Y-43780000D02*
X229435000Y-43780000D01*
X229435000Y-43780000D02*
X229435000Y-46700000D01*
X229435000Y-46700000D02*
X228485000Y-46700000D01*
X228485000Y-46700000D02*
X228485000Y-43780000D01*
X227285000Y-43740000D02*
X228135000Y-43740000D01*
D12*
%TO.C,U2*%
X208370000Y-82315000D02*
X208370000Y-82715000D01*
X187370000Y-54315000D02*
X187370000Y-54715000D01*
X187370000Y-56915000D02*
X187370000Y-57315000D01*
X208370000Y-87415000D02*
X208370000Y-87815000D01*
X194170000Y-102915000D02*
X187370000Y-102915000D01*
X208370000Y-77215000D02*
X208370000Y-77615000D01*
X208370000Y-100115000D02*
X208370000Y-100515000D01*
X208370000Y-54315000D02*
X208370000Y-54715000D01*
X190377000Y-54582000D02*
X190377000Y-51915000D01*
X208370000Y-72115000D02*
X208370000Y-72515000D01*
X187370000Y-51915000D02*
X208370000Y-51915000D01*
X187370000Y-97515000D02*
X187370000Y-97915000D01*
X187370000Y-74715000D02*
X187370000Y-75115000D01*
X187370000Y-100115000D02*
X187370000Y-100515000D01*
X187370000Y-62015000D02*
X187370000Y-62415000D01*
X187370000Y-72115000D02*
X187370000Y-72515000D01*
X208370000Y-74715000D02*
X208370000Y-75115000D01*
X208370000Y-102915000D02*
X201570000Y-102915000D01*
X208370000Y-62015000D02*
X208370000Y-62415000D01*
X187370000Y-84815000D02*
X187370000Y-85215000D01*
X187370000Y-54582000D02*
X190377000Y-54582000D01*
X187370000Y-69615000D02*
X187370000Y-70015000D01*
X187370000Y-82315000D02*
X187370000Y-82715000D01*
X196370000Y-102915000D02*
X196770000Y-102915000D01*
X187370000Y-64515000D02*
X187370000Y-64915000D01*
X208370000Y-56915000D02*
X208370000Y-57315000D01*
X187370000Y-92515000D02*
X187370000Y-92915000D01*
X198970000Y-102915000D02*
X199370000Y-102915000D01*
X208370000Y-64515000D02*
X208370000Y-64915000D01*
X187370000Y-87415000D02*
X187370000Y-87815000D01*
X208370000Y-79715000D02*
X208370000Y-80115000D01*
X187370000Y-67015000D02*
X187370000Y-67415000D01*
X187370000Y-77215000D02*
X187370000Y-77615000D01*
X187370000Y-95015000D02*
X187370000Y-95415000D01*
X187370000Y-89915000D02*
X187370000Y-90315000D01*
X208370000Y-84815000D02*
X208370000Y-85215000D01*
X208370000Y-67015000D02*
X208370000Y-67415000D01*
X208370000Y-95015000D02*
X208370000Y-95415000D01*
X208370000Y-69615000D02*
X208370000Y-70015000D01*
X187370000Y-51915000D02*
X187370000Y-52215000D01*
X208370000Y-97515000D02*
X208370000Y-97915000D01*
X208370000Y-89915000D02*
X208370000Y-90315000D01*
X208370000Y-59415000D02*
X208370000Y-59815000D01*
X187370000Y-79715000D02*
X187370000Y-80115000D01*
X208370000Y-51915000D02*
X208370000Y-52215000D01*
X187370000Y-59415000D02*
X187370000Y-59815000D01*
X208370000Y-92515000D02*
X208370000Y-92915000D01*
%TO.C,U1*%
X140755000Y-81500000D02*
X140755000Y-83150000D01*
X140755000Y-86800000D02*
X161195000Y-86800000D01*
X161195000Y-81500000D02*
X140755000Y-81500000D01*
X161195000Y-86800000D02*
X161195000Y-81500000D01*
X140755000Y-85150000D02*
X140755000Y-86800000D01*
X140755000Y-85150000D02*
G75*
G03*
X140755000Y-83150000I0J1000000D01*
G01*
D13*
%TO.C,Q12*%
X228810000Y-104740000D02*
X229110000Y-104740000D01*
X229110000Y-104740000D02*
X229110000Y-107660000D01*
X229110000Y-107660000D02*
X228810000Y-107660000D01*
X228810000Y-107660000D02*
X228810000Y-104740000D01*
X227260000Y-104700000D02*
X228460000Y-104700000D01*
%TO.C,Q10*%
X228810000Y-81570000D02*
X229110000Y-81570000D01*
X229110000Y-81570000D02*
X229110000Y-84490000D01*
X229110000Y-84490000D02*
X228810000Y-84490000D01*
X228810000Y-84490000D02*
X228810000Y-81570000D01*
X227260000Y-81530000D02*
X228460000Y-81530000D01*
%TO.C,Q9*%
X228810000Y-113340000D02*
X229110000Y-113340000D01*
X229110000Y-113340000D02*
X229110000Y-116260000D01*
X229110000Y-116260000D02*
X228810000Y-116260000D01*
X228810000Y-116260000D02*
X228810000Y-113340000D01*
X227260000Y-113300000D02*
X228460000Y-113300000D01*
%TO.C,Q8*%
X228810000Y-89910000D02*
X229110000Y-89910000D01*
X229110000Y-89910000D02*
X229110000Y-92830000D01*
X229110000Y-92830000D02*
X228810000Y-92830000D01*
X228810000Y-92830000D02*
X228810000Y-89910000D01*
X227260000Y-89870000D02*
X228460000Y-89870000D01*
%TO.C,Q6*%
X228810000Y-55740000D02*
X229110000Y-55740000D01*
X229110000Y-55740000D02*
X229110000Y-58660000D01*
X229110000Y-58660000D02*
X228810000Y-58660000D01*
X228810000Y-58660000D02*
X228810000Y-55740000D01*
X227260000Y-55700000D02*
X228460000Y-55700000D01*
%TO.C,Q4*%
X228810000Y-63140000D02*
X229110000Y-63140000D01*
X229110000Y-63140000D02*
X229110000Y-66060000D01*
X229110000Y-66060000D02*
X228810000Y-66060000D01*
X228810000Y-66060000D02*
X228810000Y-63140000D01*
X227260000Y-63100000D02*
X228460000Y-63100000D01*
%TO.C,Q3*%
X228810000Y-38260000D02*
X229110000Y-38260000D01*
X229110000Y-38260000D02*
X229110000Y-41180000D01*
X229110000Y-41180000D02*
X228810000Y-41180000D01*
X228810000Y-41180000D02*
X228810000Y-38260000D01*
X227260000Y-38220000D02*
X228460000Y-38220000D01*
%TO.C,Q2*%
X228970000Y-33620000D02*
X229270000Y-33620000D01*
X229270000Y-33620000D02*
X229270000Y-36540000D01*
X229270000Y-36540000D02*
X228970000Y-36540000D01*
X228970000Y-36540000D02*
X228970000Y-33620000D01*
X227420000Y-33580000D02*
X228620000Y-33580000D01*
%TO.C,Q1*%
X177800000Y-84140000D02*
X177800000Y-84440000D01*
X177800000Y-84440000D02*
X174880000Y-84440000D01*
X174880000Y-84440000D02*
X174880000Y-84140000D01*
X174880000Y-84140000D02*
X177800000Y-84140000D01*
X177840000Y-82590000D02*
X177840000Y-83790000D01*
D14*
%TO.C,PS1*%
X163680000Y-66557500D02*
X163680000Y-44557500D01*
X163680000Y-44557500D02*
X173180000Y-44557500D01*
X173180000Y-44557500D02*
X173180000Y-66557500D01*
X173180000Y-66557500D02*
X163680000Y-66557500D01*
D13*
X166480000Y-67257500D02*
G75*
G03*
X166480000Y-67257500I-100000J0D01*
G01*
%TO.C,J1*%
X129429500Y-51080000D02*
X122179500Y-51080000D01*
X122179500Y-51080000D02*
X122179500Y-42080000D01*
X122179500Y-42080000D02*
X136679500Y-42080000D01*
X139110500Y-47141000D02*
G75*
G03*
X139110500Y-47141000I-64000J0D01*
G01*
D12*
%TO.C,C4*%
X163417880Y-80844119D02*
X166133880Y-80844119D01*
X168615880Y-79324119D02*
X169318880Y-79324119D01*
X165165880Y-79444119D02*
X166133880Y-79444119D01*
X168615880Y-80764119D02*
X171266880Y-80764119D01*
X162771880Y-81884119D02*
X171977880Y-81884119D01*
X165249880Y-79404119D02*
X166133880Y-79404119D01*
X162717880Y-82004119D02*
X172031880Y-82004119D01*
X164485880Y-79844119D02*
X166133880Y-79844119D01*
X164729880Y-79684119D02*
X166133880Y-79684119D01*
X168615880Y-81284119D02*
X171647880Y-81284119D01*
X162418880Y-82924119D02*
X172330880Y-82924119D01*
X163236880Y-81084119D02*
X166133880Y-81084119D01*
X168615880Y-79884119D02*
X170319880Y-79884119D01*
X168615880Y-79804119D02*
X170204880Y-79804119D01*
X162829880Y-81764119D02*
X171919880Y-81764119D01*
X163621880Y-80604119D02*
X166133880Y-80604119D01*
X168615880Y-80924119D02*
X171394880Y-80924119D01*
X164429880Y-79884119D02*
X166133880Y-79884119D01*
X168615880Y-80404119D02*
X170935880Y-80404119D01*
X168615880Y-80524119D02*
X171053880Y-80524119D01*
X162456880Y-82764119D02*
X172292880Y-82764119D01*
X162400880Y-83004119D02*
X172348880Y-83004119D01*
X168615880Y-79604119D02*
X169884880Y-79604119D01*
X162329880Y-83445119D02*
X172419880Y-83445119D01*
X168615880Y-81124119D02*
X171540880Y-81124119D01*
X168615880Y-81364119D02*
X171697880Y-81364119D01*
X168615880Y-80884119D02*
X171363880Y-80884119D01*
X162309880Y-83645119D02*
X172439880Y-83645119D01*
X163982880Y-80244119D02*
X166133880Y-80244119D01*
X162384880Y-83084119D02*
X172364880Y-83084119D01*
X162436880Y-82844119D02*
X172312880Y-82844119D01*
X163854880Y-80364119D02*
X166133880Y-80364119D01*
X164073880Y-80164119D02*
X166133880Y-80164119D01*
X168615880Y-79284119D02*
X169220880Y-79284119D01*
X162636880Y-82204119D02*
X172112880Y-82204119D01*
X162344880Y-83324119D02*
X172404880Y-83324119D01*
X163449880Y-80804119D02*
X166133880Y-80804119D01*
X164120880Y-80124119D02*
X166133880Y-80124119D01*
X162356880Y-83244119D02*
X172392880Y-83244119D01*
X168615880Y-79444119D02*
X169583880Y-79444119D01*
X168615880Y-79404119D02*
X169499880Y-79404119D01*
X168615880Y-80364119D02*
X170894880Y-80364119D01*
X162334880Y-83405119D02*
X172414880Y-83405119D01*
X168615880Y-81484119D02*
X171769880Y-81484119D01*
X165085880Y-79484119D02*
X166133880Y-79484119D01*
X164935880Y-79564119D02*
X166133880Y-79564119D01*
X168615880Y-80844119D02*
X171331880Y-80844119D01*
X162477880Y-82684119D02*
X172271880Y-82684119D01*
X162979880Y-81484119D02*
X166133880Y-81484119D01*
X162620880Y-82244119D02*
X172128880Y-82244119D01*
X164374880Y-79924119D02*
X166133880Y-79924119D01*
X162409880Y-82964119D02*
X172339880Y-82964119D01*
X168615880Y-80724119D02*
X171232880Y-80724119D01*
X163294880Y-81004119D02*
X166133880Y-81004119D01*
X164864880Y-79604119D02*
X166133880Y-79604119D01*
X165864880Y-79164119D02*
X166133880Y-79164119D01*
X163695880Y-80524119D02*
X166133880Y-80524119D01*
X163550880Y-80684119D02*
X166133880Y-80684119D01*
X162550880Y-82444119D02*
X172198880Y-82444119D01*
X168615880Y-80284119D02*
X170810880Y-80284119D01*
X168615880Y-81244119D02*
X171621880Y-81244119D01*
X162891880Y-81644119D02*
X171857880Y-81644119D01*
X163101880Y-81284119D02*
X166133880Y-81284119D01*
X162912880Y-81604119D02*
X171836880Y-81604119D01*
X165337880Y-79364119D02*
X166133880Y-79364119D01*
X162312880Y-83605119D02*
X172436880Y-83605119D01*
X163385880Y-80884119D02*
X166133880Y-80884119D01*
X163324880Y-80964119D02*
X166133880Y-80964119D01*
X168615880Y-81524119D02*
X171791880Y-81524119D01*
X163516880Y-80724119D02*
X166133880Y-80724119D01*
X168615880Y-80564119D02*
X171090880Y-80564119D01*
X162339880Y-83365119D02*
X172409880Y-83365119D01*
X168615880Y-79844119D02*
X170263880Y-79844119D01*
X162563880Y-82404119D02*
X172185880Y-82404119D01*
X163180880Y-81164119D02*
X166133880Y-81164119D01*
X164168880Y-80084119D02*
X166133880Y-80084119D01*
X168615880Y-79964119D02*
X170428880Y-79964119D01*
X165996880Y-79124119D02*
X166133880Y-79124119D01*
X162377880Y-83124119D02*
X172371880Y-83124119D01*
X162294880Y-83965119D02*
X172454880Y-83965119D01*
X162489880Y-82644119D02*
X172259880Y-82644119D01*
X168615880Y-81444119D02*
X171745880Y-81444119D01*
X162512880Y-82564119D02*
X172236880Y-82564119D01*
X163813880Y-80404119D02*
X166133880Y-80404119D01*
X162350880Y-83284119D02*
X172398880Y-83284119D01*
X163896880Y-80324119D02*
X166133880Y-80324119D01*
X168615880Y-79524119D02*
X169739880Y-79524119D01*
X168615880Y-81084119D02*
X171512880Y-81084119D01*
X168615880Y-79644119D02*
X169953880Y-79644119D01*
X162500880Y-82604119D02*
X172248880Y-82604119D01*
X163734880Y-80484119D02*
X166133880Y-80484119D01*
X162537880Y-82484119D02*
X172211880Y-82484119D01*
X168615880Y-81324119D02*
X171672880Y-81324119D01*
X162297880Y-83845119D02*
X172451880Y-83845119D01*
X168615880Y-79364119D02*
X169411880Y-79364119D01*
X168615880Y-79204119D02*
X169004880Y-79204119D01*
X163003880Y-81444119D02*
X166133880Y-81444119D01*
X162577880Y-82364119D02*
X172171880Y-82364119D01*
X162294880Y-84045119D02*
X172454880Y-84045119D01*
X168615880Y-79564119D02*
X169813880Y-79564119D01*
X163051880Y-81364119D02*
X166133880Y-81364119D01*
X162467880Y-82724119D02*
X172281880Y-82724119D01*
X163127880Y-81244119D02*
X166133880Y-81244119D01*
X164027880Y-80204119D02*
X166133880Y-80204119D01*
X168615880Y-80484119D02*
X171014880Y-80484119D01*
X162295880Y-83925119D02*
X172453880Y-83925119D01*
X162299880Y-83805119D02*
X172449880Y-83805119D01*
X162651880Y-82164119D02*
X172097880Y-82164119D01*
X162324880Y-83485119D02*
X172424880Y-83485119D01*
X168615880Y-81164119D02*
X171568880Y-81164119D01*
X168615880Y-79244119D02*
X169116880Y-79244119D01*
X163153880Y-81204119D02*
X166133880Y-81204119D01*
X164604880Y-79764119D02*
X166133880Y-79764119D01*
X168615880Y-80644119D02*
X171163880Y-80644119D01*
X163658880Y-80564119D02*
X166133880Y-80564119D01*
X168615880Y-79684119D02*
X170019880Y-79684119D01*
X163208880Y-81124119D02*
X166133880Y-81124119D01*
X162790880Y-81844119D02*
X171958880Y-81844119D01*
X162294880Y-84005119D02*
X172454880Y-84005119D01*
X168615880Y-80964119D02*
X171424880Y-80964119D01*
X163027880Y-81404119D02*
X166133880Y-81404119D01*
X162392880Y-83044119D02*
X172356880Y-83044119D01*
X162363880Y-83204119D02*
X172385880Y-83204119D01*
X163482880Y-80764119D02*
X166133880Y-80764119D01*
X168615880Y-80604119D02*
X171127880Y-80604119D01*
X162524880Y-82524119D02*
X172224880Y-82524119D01*
X168615880Y-80444119D02*
X170975880Y-80444119D01*
X164218880Y-80044119D02*
X166133880Y-80044119D01*
X168615880Y-79724119D02*
X170083880Y-79724119D01*
X168615880Y-81004119D02*
X171454880Y-81004119D01*
X165528880Y-79284119D02*
X166133880Y-79284119D01*
X163354880Y-80924119D02*
X166133880Y-80924119D01*
X162306880Y-83685119D02*
X172442880Y-83685119D01*
X168615880Y-79124119D02*
X168752880Y-79124119D01*
X162606880Y-82284119D02*
X172142880Y-82284119D01*
X162870880Y-81684119D02*
X171878880Y-81684119D01*
X166775880Y-78964119D02*
X167973880Y-78964119D01*
X162591880Y-82324119D02*
X172157880Y-82324119D01*
X164544880Y-79804119D02*
X166133880Y-79804119D01*
X168615880Y-80004119D02*
X170480880Y-80004119D01*
X162849880Y-81724119D02*
X171899880Y-81724119D01*
X165744880Y-79204119D02*
X166133880Y-79204119D01*
X162320880Y-83525119D02*
X172428880Y-83525119D01*
X162427880Y-82884119D02*
X172321880Y-82884119D01*
X162316880Y-83565119D02*
X172432880Y-83565119D01*
X166312880Y-79044119D02*
X168436880Y-79044119D01*
X168615880Y-80084119D02*
X170580880Y-80084119D01*
X162370880Y-83164119D02*
X172378880Y-83164119D01*
X162296880Y-83885119D02*
X172452880Y-83885119D01*
X168615880Y-80684119D02*
X171198880Y-80684119D01*
X168615880Y-80204119D02*
X170721880Y-80204119D01*
X168615880Y-80044119D02*
X170530880Y-80044119D01*
X168615880Y-80124119D02*
X170628880Y-80124119D01*
X164665880Y-79724119D02*
X166133880Y-79724119D01*
X168615880Y-81404119D02*
X171721880Y-81404119D01*
X168615880Y-80804119D02*
X171299880Y-80804119D01*
X165632880Y-79244119D02*
X166133880Y-79244119D01*
X163076880Y-81324119D02*
X166133880Y-81324119D01*
X164795880Y-79644119D02*
X166133880Y-79644119D01*
X162810880Y-81804119D02*
X171938880Y-81804119D01*
X162753880Y-81924119D02*
X171995880Y-81924119D01*
X162934880Y-81564119D02*
X171814880Y-81564119D01*
X168615880Y-80324119D02*
X170852880Y-80324119D01*
X162735880Y-81964119D02*
X172013880Y-81964119D01*
X162304880Y-83725119D02*
X172444880Y-83725119D01*
X168615880Y-79764119D02*
X170144880Y-79764119D01*
X162301880Y-83765119D02*
X172447880Y-83765119D01*
X168615880Y-79924119D02*
X170374880Y-79924119D01*
X163773880Y-80444119D02*
X166133880Y-80444119D01*
X165009880Y-79524119D02*
X166133880Y-79524119D01*
X164499880Y-89524765D02*
X164499880Y-88524765D01*
X162684880Y-82084119D02*
X172064880Y-82084119D01*
X164320880Y-79964119D02*
X166133880Y-79964119D01*
X165430880Y-79324119D02*
X166133880Y-79324119D01*
X168615880Y-81044119D02*
X171484880Y-81044119D01*
X168615880Y-81204119D02*
X171595880Y-81204119D01*
X162667880Y-82124119D02*
X172081880Y-82124119D01*
X163585880Y-80644119D02*
X166133880Y-80644119D01*
X162700880Y-82044119D02*
X172048880Y-82044119D01*
X163264880Y-81044119D02*
X166133880Y-81044119D01*
X168615880Y-80164119D02*
X170675880Y-80164119D01*
X168615880Y-79484119D02*
X169663880Y-79484119D01*
X168615880Y-79164119D02*
X168884880Y-79164119D01*
X168615880Y-80244119D02*
X170766880Y-80244119D01*
X162957880Y-81524119D02*
X166133880Y-81524119D01*
X163999880Y-89024765D02*
X164999880Y-89024765D01*
X164268880Y-80004119D02*
X166133880Y-80004119D01*
X163938880Y-80284119D02*
X166133880Y-80284119D01*
X162446880Y-82804119D02*
X172302880Y-82804119D01*
X166512880Y-79004119D02*
X168236880Y-79004119D01*
X168634880Y-89007659D02*
G75*
G03*
X166114880Y-89007659I-1260000J4962540D01*
G01*
%TO.C,C3*%
X154466677Y-55697000D02*
X154466677Y-52981000D01*
X152946677Y-50499000D02*
X152946677Y-49796000D01*
X153066677Y-53949000D02*
X153066677Y-52981000D01*
X154386677Y-50499000D02*
X154386677Y-47848000D01*
X155506677Y-56343000D02*
X155506677Y-47137000D01*
X153026677Y-53865000D02*
X153026677Y-52981000D01*
X155626677Y-56397000D02*
X155626677Y-47083000D01*
X153466677Y-54629000D02*
X153466677Y-52981000D01*
X153306677Y-54385000D02*
X153306677Y-52981000D01*
X154906677Y-50499000D02*
X154906677Y-47467000D01*
X156546677Y-56696000D02*
X156546677Y-46784000D01*
X154706677Y-55878000D02*
X154706677Y-52981000D01*
X153506677Y-50499000D02*
X153506677Y-48795000D01*
X153426677Y-50499000D02*
X153426677Y-48910000D01*
X155386677Y-56285000D02*
X155386677Y-47195000D01*
X154226677Y-55493000D02*
X154226677Y-52981000D01*
X154546677Y-50499000D02*
X154546677Y-47720000D01*
X153506677Y-54685000D02*
X153506677Y-52981000D01*
X154026677Y-50499000D02*
X154026677Y-48179000D01*
X154146677Y-50499000D02*
X154146677Y-48061000D01*
X156386677Y-56658000D02*
X156386677Y-46822000D01*
X156626677Y-56714000D02*
X156626677Y-46766000D01*
X153226677Y-50499000D02*
X153226677Y-49230000D01*
X157067677Y-56785000D02*
X157067677Y-46695000D01*
X154746677Y-50499000D02*
X154746677Y-47574000D01*
X154986677Y-50499000D02*
X154986677Y-47417000D01*
X154506677Y-50499000D02*
X154506677Y-47751000D01*
X157267677Y-56805000D02*
X157267677Y-46675000D01*
X153866677Y-55132000D02*
X153866677Y-52981000D01*
X156706677Y-56730000D02*
X156706677Y-46750000D01*
X156466677Y-56678000D02*
X156466677Y-46802000D01*
X153986677Y-55260000D02*
X153986677Y-52981000D01*
X153786677Y-55041000D02*
X153786677Y-52981000D01*
X152906677Y-50499000D02*
X152906677Y-49894000D01*
X155826677Y-56478000D02*
X155826677Y-47002000D01*
X156946677Y-56770000D02*
X156946677Y-46710000D01*
X154426677Y-55665000D02*
X154426677Y-52981000D01*
X153746677Y-54994000D02*
X153746677Y-52981000D01*
X156866677Y-56758000D02*
X156866677Y-46722000D01*
X153066677Y-50499000D02*
X153066677Y-49531000D01*
X153026677Y-50499000D02*
X153026677Y-49615000D01*
X153986677Y-50499000D02*
X153986677Y-48220000D01*
X157027677Y-56780000D02*
X157027677Y-46700000D01*
X155106677Y-50499000D02*
X155106677Y-47345000D01*
X153106677Y-54029000D02*
X153106677Y-52981000D01*
X153186677Y-54179000D02*
X153186677Y-52981000D01*
X154466677Y-50499000D02*
X154466677Y-47783000D01*
X156306677Y-56637000D02*
X156306677Y-46843000D01*
X155106677Y-56135000D02*
X155106677Y-52981000D01*
X155866677Y-56494000D02*
X155866677Y-46986000D01*
X153546677Y-54740000D02*
X153546677Y-52981000D01*
X156586677Y-56705000D02*
X156586677Y-46775000D01*
X154346677Y-50499000D02*
X154346677Y-47882000D01*
X154626677Y-55820000D02*
X154626677Y-52981000D01*
X153226677Y-54250000D02*
X153226677Y-52981000D01*
X152786677Y-53250000D02*
X152786677Y-52981000D01*
X154146677Y-55419000D02*
X154146677Y-52981000D01*
X154306677Y-55564000D02*
X154306677Y-52981000D01*
X156066677Y-56564000D02*
X156066677Y-46916000D01*
X153906677Y-50499000D02*
X153906677Y-48304000D01*
X154866677Y-50499000D02*
X154866677Y-47493000D01*
X155266677Y-56223000D02*
X155266677Y-47257000D01*
X154906677Y-56013000D02*
X154906677Y-52981000D01*
X155226677Y-56202000D02*
X155226677Y-47278000D01*
X152986677Y-53777000D02*
X152986677Y-52981000D01*
X157227677Y-56802000D02*
X157227677Y-46678000D01*
X154506677Y-55729000D02*
X154506677Y-52981000D01*
X154586677Y-55790000D02*
X154586677Y-52981000D01*
X155146677Y-50499000D02*
X155146677Y-47323000D01*
X154346677Y-55598000D02*
X154346677Y-52981000D01*
X154186677Y-50499000D02*
X154186677Y-48024000D01*
X156987677Y-56775000D02*
X156987677Y-46705000D01*
X153466677Y-50499000D02*
X153466677Y-48851000D01*
X156026677Y-56551000D02*
X156026677Y-46929000D01*
X154786677Y-55934000D02*
X154786677Y-52981000D01*
X153706677Y-54946000D02*
X153706677Y-52981000D01*
X153586677Y-50499000D02*
X153586677Y-48686000D01*
X152746677Y-53118000D02*
X152746677Y-52981000D01*
X156746677Y-56737000D02*
X156746677Y-46743000D01*
X157587677Y-56820000D02*
X157587677Y-46660000D01*
X156266677Y-56625000D02*
X156266677Y-46855000D01*
X155066677Y-50499000D02*
X155066677Y-47369000D01*
X156186677Y-56602000D02*
X156186677Y-46878000D01*
X154026677Y-55301000D02*
X154026677Y-52981000D01*
X156906677Y-56764000D02*
X156906677Y-46716000D01*
X153946677Y-55218000D02*
X153946677Y-52981000D01*
X153146677Y-50499000D02*
X153146677Y-49375000D01*
X154706677Y-50499000D02*
X154706677Y-47602000D01*
X153266677Y-50499000D02*
X153266677Y-49161000D01*
X156226677Y-56614000D02*
X156226677Y-46866000D01*
X154106677Y-55380000D02*
X154106677Y-52981000D01*
X156106677Y-56577000D02*
X156106677Y-46903000D01*
X154946677Y-50499000D02*
X154946677Y-47442000D01*
X157467677Y-56817000D02*
X157467677Y-46663000D01*
X152986677Y-50499000D02*
X152986677Y-49703000D01*
X152826677Y-50499000D02*
X152826677Y-50110000D01*
X155066677Y-56111000D02*
X155066677Y-52981000D01*
X155986677Y-56537000D02*
X155986677Y-46943000D01*
X157667677Y-56820000D02*
X157667677Y-46660000D01*
X153186677Y-50499000D02*
X153186677Y-49301000D01*
X154986677Y-56063000D02*
X154986677Y-52981000D01*
X156346677Y-56647000D02*
X156346677Y-46833000D01*
X154866677Y-55987000D02*
X154866677Y-52981000D01*
X153826677Y-55087000D02*
X153826677Y-52981000D01*
X154106677Y-50499000D02*
X154106677Y-48100000D01*
X157547677Y-56819000D02*
X157547677Y-46661000D01*
X157427677Y-56815000D02*
X157427677Y-46665000D01*
X155786677Y-56463000D02*
X155786677Y-47017000D01*
X157107677Y-56790000D02*
X157107677Y-46690000D01*
X154786677Y-50499000D02*
X154786677Y-47546000D01*
X152866677Y-50499000D02*
X152866677Y-49998000D01*
X154826677Y-55961000D02*
X154826677Y-52981000D01*
X153386677Y-54510000D02*
X153386677Y-52981000D01*
X154266677Y-50499000D02*
X154266677Y-47951000D01*
X154186677Y-55456000D02*
X154186677Y-52981000D01*
X153306677Y-50499000D02*
X153306677Y-49095000D01*
X154746677Y-55906000D02*
X154746677Y-52981000D01*
X155466677Y-56324000D02*
X155466677Y-47156000D01*
X157627677Y-56820000D02*
X157627677Y-46660000D01*
X154586677Y-50499000D02*
X154586677Y-47690000D01*
X155026677Y-56087000D02*
X155026677Y-52981000D01*
X156666677Y-56722000D02*
X156666677Y-46758000D01*
X156826677Y-56751000D02*
X156826677Y-46729000D01*
X154386677Y-55632000D02*
X154386677Y-52981000D01*
X154226677Y-50499000D02*
X154226677Y-47987000D01*
X156146677Y-56590000D02*
X156146677Y-46890000D01*
X154066677Y-50499000D02*
X154066677Y-48139000D01*
X153666677Y-54896000D02*
X153666677Y-52981000D01*
X153346677Y-50499000D02*
X153346677Y-49031000D01*
X154626677Y-50499000D02*
X154626677Y-47660000D01*
X152906677Y-53586000D02*
X152906677Y-52981000D01*
X154546677Y-55760000D02*
X154546677Y-52981000D01*
X157307677Y-56808000D02*
X157307677Y-46672000D01*
X152746677Y-50499000D02*
X152746677Y-50362000D01*
X155906677Y-56508000D02*
X155906677Y-46972000D01*
X155306677Y-56244000D02*
X155306677Y-47236000D01*
X152586677Y-52339000D02*
X152586677Y-51141000D01*
X155946677Y-56523000D02*
X155946677Y-46957000D01*
X153426677Y-54570000D02*
X153426677Y-52981000D01*
X153626677Y-50499000D02*
X153626677Y-48634000D01*
X155346677Y-56265000D02*
X155346677Y-47215000D01*
X152826677Y-53370000D02*
X152826677Y-52981000D01*
X157147677Y-56794000D02*
X157147677Y-46686000D01*
X156506677Y-56687000D02*
X156506677Y-46793000D01*
X157187677Y-56798000D02*
X157187677Y-46682000D01*
X152666677Y-52802000D02*
X152666677Y-50678000D01*
X153706677Y-50499000D02*
X153706677Y-48534000D01*
X156786677Y-56744000D02*
X156786677Y-46736000D01*
X157507677Y-56818000D02*
X157507677Y-46662000D01*
X154306677Y-50499000D02*
X154306677Y-47916000D01*
X153826677Y-50499000D02*
X153826677Y-48393000D01*
X153666677Y-50499000D02*
X153666677Y-48584000D01*
X153746677Y-50499000D02*
X153746677Y-48486000D01*
X153346677Y-54449000D02*
X153346677Y-52981000D01*
X155026677Y-50499000D02*
X155026677Y-47393000D01*
X154426677Y-50499000D02*
X154426677Y-47815000D01*
X152866677Y-53482000D02*
X152866677Y-52981000D01*
X154946677Y-56038000D02*
X154946677Y-52981000D01*
X153266677Y-54319000D02*
X153266677Y-52981000D01*
X155426677Y-56304000D02*
X155426677Y-47176000D01*
X155546677Y-56361000D02*
X155546677Y-47119000D01*
X155186677Y-56180000D02*
X155186677Y-47300000D01*
X153946677Y-50499000D02*
X153946677Y-48262000D01*
X155586677Y-56379000D02*
X155586677Y-47101000D01*
X157347677Y-56810000D02*
X157347677Y-46670000D01*
X153386677Y-50499000D02*
X153386677Y-48970000D01*
X157387677Y-56813000D02*
X157387677Y-46667000D01*
X153546677Y-50499000D02*
X153546677Y-48740000D01*
X154066677Y-55341000D02*
X154066677Y-52981000D01*
X153146677Y-54105000D02*
X153146677Y-52981000D01*
X163147323Y-54615000D02*
X162147323Y-54615000D01*
X155706677Y-56430000D02*
X155706677Y-47050000D01*
X153586677Y-54794000D02*
X153586677Y-52981000D01*
X152946677Y-53684000D02*
X152946677Y-52981000D01*
X154666677Y-50499000D02*
X154666677Y-47630000D01*
X154826677Y-50499000D02*
X154826677Y-47519000D01*
X155746677Y-56447000D02*
X155746677Y-47033000D01*
X154266677Y-55529000D02*
X154266677Y-52981000D01*
X155666677Y-56414000D02*
X155666677Y-47066000D01*
X154666677Y-55850000D02*
X154666677Y-52981000D01*
X153786677Y-50499000D02*
X153786677Y-48439000D01*
X153106677Y-50499000D02*
X153106677Y-49451000D01*
X152786677Y-50499000D02*
X152786677Y-50230000D01*
X153866677Y-50499000D02*
X153866677Y-48348000D01*
X155146677Y-56157000D02*
X155146677Y-52981000D01*
X162647323Y-55115000D02*
X162647323Y-54115000D01*
X153626677Y-54846000D02*
X153626677Y-52981000D01*
X153906677Y-55176000D02*
X153906677Y-52981000D01*
X156426677Y-56668000D02*
X156426677Y-46812000D01*
X152626677Y-52602000D02*
X152626677Y-50878000D01*
X162630217Y-50480000D02*
G75*
G03*
X162630217Y-53000000I-4962540J-1260000D01*
G01*
%TO.C,C2*%
X134910000Y-89200217D02*
G75*
G03*
X132390000Y-89200217I-1260000J4962540D01*
G01*
X132788000Y-79196677D02*
X134512000Y-79196677D01*
X128722000Y-82996677D02*
X138578000Y-82996677D01*
X130214000Y-80476677D02*
X132409000Y-80476677D01*
X130544000Y-80196677D02*
X132409000Y-80196677D01*
X130275000Y-89217323D02*
X131275000Y-89217323D01*
X129233000Y-81716677D02*
X132409000Y-81716677D01*
X134891000Y-80436677D02*
X137042000Y-80436677D01*
X134891000Y-79356677D02*
X135160000Y-79356677D01*
X134891000Y-79676677D02*
X135939000Y-79676677D01*
X134891000Y-80356677D02*
X136951000Y-80356677D01*
X129540000Y-81236677D02*
X132409000Y-81236677D01*
X128976000Y-82236677D02*
X138324000Y-82236677D01*
X129861000Y-80836677D02*
X132409000Y-80836677D01*
X128943000Y-82316677D02*
X138357000Y-82316677D01*
X134891000Y-81396677D02*
X137871000Y-81396677D01*
X134891000Y-81236677D02*
X137760000Y-81236677D01*
X131706000Y-79516677D02*
X132409000Y-79516677D01*
X130596000Y-80156677D02*
X132409000Y-80156677D01*
X128960000Y-82276677D02*
X138340000Y-82276677D01*
X130775000Y-89717323D02*
X130775000Y-88717323D01*
X131285000Y-79716677D02*
X132409000Y-79716677D01*
X130049000Y-80636677D02*
X132409000Y-80636677D01*
X134891000Y-80116677D02*
X136650000Y-80116677D01*
X128577000Y-83957677D02*
X138723000Y-83957677D01*
X134891000Y-79956677D02*
X136420000Y-79956677D01*
X128580000Y-83917677D02*
X138720000Y-83917677D01*
X129011000Y-82156677D02*
X138289000Y-82156677D01*
X134891000Y-80516677D02*
X137128000Y-80516677D01*
X129210000Y-81756677D02*
X138090000Y-81756677D01*
X129029000Y-82116677D02*
X138271000Y-82116677D01*
X129086000Y-81996677D02*
X138214000Y-81996677D01*
X131071000Y-79836677D02*
X132409000Y-79836677D01*
X129352000Y-81516677D02*
X132409000Y-81516677D01*
X131908000Y-79436677D02*
X132409000Y-79436677D01*
X134891000Y-80996677D02*
X137575000Y-80996677D01*
X134891000Y-81596677D02*
X137997000Y-81596677D01*
X130941000Y-79916677D02*
X132409000Y-79916677D01*
X134891000Y-80316677D02*
X136904000Y-80316677D01*
X134891000Y-80236677D02*
X136806000Y-80236677D01*
X134891000Y-80396677D02*
X136997000Y-80396677D01*
X134891000Y-80876677D02*
X137474000Y-80876677D01*
X128572000Y-84077677D02*
X138728000Y-84077677D01*
X128646000Y-83356677D02*
X138654000Y-83356677D01*
X134891000Y-80276677D02*
X136856000Y-80276677D01*
X132588000Y-79236677D02*
X134712000Y-79236677D01*
X128592000Y-83757677D02*
X138708000Y-83757677D01*
X128703000Y-83076677D02*
X138597000Y-83076677D01*
X128596000Y-83717677D02*
X138704000Y-83717677D01*
X132020000Y-79396677D02*
X132409000Y-79396677D01*
X129125000Y-81916677D02*
X138175000Y-81916677D01*
X134891000Y-80196677D02*
X136756000Y-80196677D01*
X130820000Y-79996677D02*
X132409000Y-79996677D01*
X128867000Y-82516677D02*
X138433000Y-82516677D01*
X133051000Y-79156677D02*
X134249000Y-79156677D01*
X129146000Y-81876677D02*
X138154000Y-81876677D01*
X128882000Y-82476677D02*
X138418000Y-82476677D01*
X134891000Y-79316677D02*
X135028000Y-79316677D01*
X128582000Y-83877677D02*
X138718000Y-83877677D01*
X129630000Y-81116677D02*
X132409000Y-81116677D01*
X131804000Y-79476677D02*
X132409000Y-79476677D01*
X134891000Y-81196677D02*
X137730000Y-81196677D01*
X134891000Y-79916677D02*
X136359000Y-79916677D01*
X130494000Y-80236677D02*
X132409000Y-80236677D01*
X134891000Y-80636677D02*
X137251000Y-80636677D01*
X128800000Y-82716677D02*
X138500000Y-82716677D01*
X134891000Y-80796677D02*
X137403000Y-80796677D01*
X129758000Y-80956677D02*
X132409000Y-80956677D01*
X128639000Y-83396677D02*
X138661000Y-83396677D01*
X128668000Y-83236677D02*
X138632000Y-83236677D01*
X129303000Y-81596677D02*
X132409000Y-81596677D01*
X134891000Y-81156677D02*
X137700000Y-81156677D01*
X128570000Y-84197677D02*
X138730000Y-84197677D01*
X129066000Y-82036677D02*
X138234000Y-82036677D01*
X129484000Y-81316677D02*
X132409000Y-81316677D01*
X134891000Y-79876677D02*
X136295000Y-79876677D01*
X129934000Y-80756677D02*
X132409000Y-80756677D01*
X134891000Y-80836677D02*
X137439000Y-80836677D01*
X130880000Y-79956677D02*
X132409000Y-79956677D01*
X129429000Y-81396677D02*
X132409000Y-81396677D01*
X134891000Y-79436677D02*
X135392000Y-79436677D01*
X134891000Y-81356677D02*
X137844000Y-81356677D01*
X128600000Y-83677677D02*
X138700000Y-83677677D01*
X128927000Y-82356677D02*
X138373000Y-82356677D01*
X128575000Y-83997677D02*
X138725000Y-83997677D01*
X128571000Y-84117677D02*
X138729000Y-84117677D01*
X134891000Y-80676677D02*
X137290000Y-80676677D01*
X130303000Y-80396677D02*
X132409000Y-80396677D01*
X129403000Y-81436677D02*
X132409000Y-81436677D01*
X128743000Y-82916677D02*
X138557000Y-82916677D01*
X129327000Y-81556677D02*
X132409000Y-81556677D01*
X134891000Y-79756677D02*
X136089000Y-79756677D01*
X128570000Y-84237677D02*
X138730000Y-84237677D01*
X128853000Y-82556677D02*
X138447000Y-82556677D01*
X129279000Y-81636677D02*
X132409000Y-81636677D01*
X134891000Y-79396677D02*
X135280000Y-79396677D01*
X134891000Y-79556677D02*
X135687000Y-79556677D01*
X128573000Y-84037677D02*
X138727000Y-84037677D01*
X134891000Y-81516677D02*
X137948000Y-81516677D01*
X128813000Y-82676677D02*
X138487000Y-82676677D01*
X130010000Y-80676677D02*
X132409000Y-80676677D01*
X128776000Y-82796677D02*
X138524000Y-82796677D01*
X134891000Y-79836677D02*
X136229000Y-79836677D01*
X134891000Y-81276677D02*
X137788000Y-81276677D01*
X134891000Y-79716677D02*
X136015000Y-79716677D01*
X130172000Y-80516677D02*
X132409000Y-80516677D01*
X128626000Y-83476677D02*
X138674000Y-83476677D01*
X130089000Y-80596677D02*
X132409000Y-80596677D01*
X128788000Y-82756677D02*
X138512000Y-82756677D01*
X134891000Y-81636677D02*
X138021000Y-81636677D01*
X128765000Y-82836677D02*
X138535000Y-82836677D01*
X128570000Y-84157677D02*
X138730000Y-84157677D01*
X128653000Y-83316677D02*
X138647000Y-83316677D01*
X132272000Y-79316677D02*
X132409000Y-79316677D01*
X134891000Y-80156677D02*
X136704000Y-80156677D01*
X130444000Y-80276677D02*
X132409000Y-80276677D01*
X129456000Y-81356677D02*
X132409000Y-81356677D01*
X128839000Y-82596677D02*
X138461000Y-82596677D01*
X134891000Y-80036677D02*
X136539000Y-80036677D01*
X128615000Y-83557677D02*
X138685000Y-83557677D01*
X134891000Y-80756677D02*
X137366000Y-80756677D01*
X129792000Y-80916677D02*
X132409000Y-80916677D01*
X134891000Y-81716677D02*
X138067000Y-81716677D01*
X129600000Y-81156677D02*
X132409000Y-81156677D01*
X129661000Y-81076677D02*
X132409000Y-81076677D01*
X128588000Y-83797677D02*
X138712000Y-83797677D01*
X131613000Y-79556677D02*
X132409000Y-79556677D01*
X129188000Y-81796677D02*
X138112000Y-81796677D01*
X129377000Y-81476677D02*
X132409000Y-81476677D01*
X129167000Y-81836677D02*
X138133000Y-81836677D01*
X134891000Y-81436677D02*
X137897000Y-81436677D01*
X134891000Y-80476677D02*
X137086000Y-80476677D01*
X128826000Y-82636677D02*
X138474000Y-82636677D01*
X129826000Y-80876677D02*
X132409000Y-80876677D01*
X129971000Y-80716677D02*
X132409000Y-80716677D01*
X132140000Y-79356677D02*
X132409000Y-79356677D01*
X131140000Y-79796677D02*
X132409000Y-79796677D01*
X129570000Y-81196677D02*
X132409000Y-81196677D01*
X134891000Y-80916677D02*
X137508000Y-80916677D01*
X128685000Y-83156677D02*
X138615000Y-83156677D01*
X130650000Y-80116677D02*
X132409000Y-80116677D01*
X128896000Y-82436677D02*
X138404000Y-82436677D01*
X129255000Y-81676677D02*
X132409000Y-81676677D01*
X128753000Y-82876677D02*
X138547000Y-82876677D01*
X134891000Y-81036677D02*
X137607000Y-81036677D01*
X131211000Y-79756677D02*
X132409000Y-79756677D01*
X131361000Y-79676677D02*
X132409000Y-79676677D01*
X134891000Y-81676677D02*
X138045000Y-81676677D01*
X128610000Y-83597677D02*
X138690000Y-83597677D01*
X134891000Y-80556677D02*
X137170000Y-80556677D01*
X134891000Y-79596677D02*
X135775000Y-79596677D01*
X134891000Y-79636677D02*
X135859000Y-79636677D01*
X128632000Y-83436677D02*
X138668000Y-83436677D01*
X130396000Y-80316677D02*
X132409000Y-80316677D01*
X129725000Y-80996677D02*
X132409000Y-80996677D01*
X128620000Y-83516677D02*
X138680000Y-83516677D01*
X128912000Y-82396677D02*
X138388000Y-82396677D01*
X134891000Y-79476677D02*
X135496000Y-79476677D01*
X130349000Y-80356677D02*
X132409000Y-80356677D01*
X130130000Y-80556677D02*
X132409000Y-80556677D01*
X128712000Y-83036677D02*
X138588000Y-83036677D01*
X128660000Y-83276677D02*
X138640000Y-83276677D01*
X130258000Y-80436677D02*
X132409000Y-80436677D01*
X128585000Y-83837677D02*
X138715000Y-83837677D01*
X134891000Y-81076677D02*
X137639000Y-81076677D01*
X134891000Y-81556677D02*
X137973000Y-81556677D01*
X134891000Y-81316677D02*
X137816000Y-81316677D01*
X128605000Y-83637677D02*
X138695000Y-83637677D01*
X134891000Y-79796677D02*
X136160000Y-79796677D01*
X128676000Y-83196677D02*
X138624000Y-83196677D01*
X128732000Y-82956677D02*
X138568000Y-82956677D01*
X134891000Y-80716677D02*
X137329000Y-80716677D01*
X134891000Y-80596677D02*
X137211000Y-80596677D01*
X130705000Y-80076677D02*
X132409000Y-80076677D01*
X134891000Y-81116677D02*
X137670000Y-81116677D01*
X129897000Y-80796677D02*
X132409000Y-80796677D01*
X129105000Y-81956677D02*
X138195000Y-81956677D01*
X134891000Y-79996677D02*
X136480000Y-79996677D01*
X134891000Y-80076677D02*
X136595000Y-80076677D01*
X129512000Y-81276677D02*
X132409000Y-81276677D01*
X128694000Y-83116677D02*
X138606000Y-83116677D01*
X134891000Y-81476677D02*
X137923000Y-81476677D01*
X131005000Y-79876677D02*
X132409000Y-79876677D01*
X130761000Y-80036677D02*
X132409000Y-80036677D01*
X128993000Y-82196677D02*
X138307000Y-82196677D01*
X131525000Y-79596677D02*
X132409000Y-79596677D01*
X129047000Y-82076677D02*
X138253000Y-82076677D01*
X134891000Y-80956677D02*
X137542000Y-80956677D01*
X131441000Y-79636677D02*
X132409000Y-79636677D01*
X134891000Y-79516677D02*
X135594000Y-79516677D01*
X129693000Y-81036677D02*
X132409000Y-81036677D01*
%TO.C,C1*%
X153915000Y-64389783D02*
G75*
G03*
X156435000Y-64389783I1260000J-4962540D01*
G01*
X156037000Y-74393323D02*
X154313000Y-74393323D01*
X160103000Y-70593323D02*
X150247000Y-70593323D01*
X158611000Y-73113323D02*
X156416000Y-73113323D01*
X158281000Y-73393323D02*
X156416000Y-73393323D01*
X158550000Y-64372677D02*
X157550000Y-64372677D01*
X159592000Y-71873323D02*
X156416000Y-71873323D01*
X153934000Y-73153323D02*
X151783000Y-73153323D01*
X153934000Y-74233323D02*
X153665000Y-74233323D01*
X153934000Y-73913323D02*
X152886000Y-73913323D01*
X153934000Y-73233323D02*
X151874000Y-73233323D01*
X159285000Y-72353323D02*
X156416000Y-72353323D01*
X159849000Y-71353323D02*
X150501000Y-71353323D01*
X158964000Y-72753323D02*
X156416000Y-72753323D01*
X159882000Y-71273323D02*
X150468000Y-71273323D01*
X153934000Y-72193323D02*
X150954000Y-72193323D01*
X153934000Y-72353323D02*
X151065000Y-72353323D01*
X157119000Y-74073323D02*
X156416000Y-74073323D01*
X158229000Y-73433323D02*
X156416000Y-73433323D01*
X159865000Y-71313323D02*
X150485000Y-71313323D01*
X158050000Y-63872677D02*
X158050000Y-64872677D01*
X157540000Y-73873323D02*
X156416000Y-73873323D01*
X158776000Y-72953323D02*
X156416000Y-72953323D01*
X153934000Y-73473323D02*
X152175000Y-73473323D01*
X160248000Y-69632323D02*
X150102000Y-69632323D01*
X153934000Y-73633323D02*
X152405000Y-73633323D01*
X160245000Y-69672323D02*
X150105000Y-69672323D01*
X159814000Y-71433323D02*
X150536000Y-71433323D01*
X153934000Y-73073323D02*
X151697000Y-73073323D01*
X159615000Y-71833323D02*
X150735000Y-71833323D01*
X159796000Y-71473323D02*
X150554000Y-71473323D01*
X159739000Y-71593323D02*
X150611000Y-71593323D01*
X157754000Y-73753323D02*
X156416000Y-73753323D01*
X159473000Y-72073323D02*
X156416000Y-72073323D01*
X156917000Y-74153323D02*
X156416000Y-74153323D01*
X153934000Y-72593323D02*
X151250000Y-72593323D01*
X153934000Y-71993323D02*
X150828000Y-71993323D01*
X157884000Y-73673323D02*
X156416000Y-73673323D01*
X153934000Y-73273323D02*
X151921000Y-73273323D01*
X153934000Y-73353323D02*
X152019000Y-73353323D01*
X153934000Y-73193323D02*
X151828000Y-73193323D01*
X153934000Y-72713323D02*
X151351000Y-72713323D01*
X160253000Y-69512323D02*
X150097000Y-69512323D01*
X160179000Y-70233323D02*
X150171000Y-70233323D01*
X153934000Y-73313323D02*
X151969000Y-73313323D01*
X156237000Y-74353323D02*
X154113000Y-74353323D01*
X160233000Y-69832323D02*
X150117000Y-69832323D01*
X160122000Y-70513323D02*
X150228000Y-70513323D01*
X160229000Y-69872323D02*
X150121000Y-69872323D01*
X156805000Y-74193323D02*
X156416000Y-74193323D01*
X159700000Y-71673323D02*
X150650000Y-71673323D01*
X153934000Y-73393323D02*
X152069000Y-73393323D01*
X158005000Y-73593323D02*
X156416000Y-73593323D01*
X159958000Y-71073323D02*
X150392000Y-71073323D01*
X155774000Y-74433323D02*
X154576000Y-74433323D01*
X159679000Y-71713323D02*
X150671000Y-71713323D01*
X159943000Y-71113323D02*
X150407000Y-71113323D01*
X153934000Y-74273323D02*
X153797000Y-74273323D01*
X160243000Y-69712323D02*
X150107000Y-69712323D01*
X159195000Y-72473323D02*
X156416000Y-72473323D01*
X157021000Y-74113323D02*
X156416000Y-74113323D01*
X153934000Y-72393323D02*
X151095000Y-72393323D01*
X153934000Y-73673323D02*
X152466000Y-73673323D01*
X158331000Y-73353323D02*
X156416000Y-73353323D01*
X153934000Y-72953323D02*
X151574000Y-72953323D01*
X160025000Y-70873323D02*
X150325000Y-70873323D01*
X153934000Y-72793323D02*
X151422000Y-72793323D01*
X159067000Y-72633323D02*
X156416000Y-72633323D01*
X160186000Y-70193323D02*
X150164000Y-70193323D01*
X160157000Y-70353323D02*
X150193000Y-70353323D01*
X159522000Y-71993323D02*
X156416000Y-71993323D01*
X153934000Y-72433323D02*
X151125000Y-72433323D01*
X160255000Y-69392323D02*
X150095000Y-69392323D01*
X159759000Y-71553323D02*
X150591000Y-71553323D01*
X159341000Y-72273323D02*
X156416000Y-72273323D01*
X153934000Y-73713323D02*
X152530000Y-73713323D01*
X158891000Y-72833323D02*
X156416000Y-72833323D01*
X153934000Y-72753323D02*
X151386000Y-72753323D01*
X157945000Y-73633323D02*
X156416000Y-73633323D01*
X159396000Y-72193323D02*
X156416000Y-72193323D01*
X153934000Y-74153323D02*
X153433000Y-74153323D01*
X153934000Y-72233323D02*
X150981000Y-72233323D01*
X160225000Y-69912323D02*
X150125000Y-69912323D01*
X159898000Y-71233323D02*
X150452000Y-71233323D01*
X160250000Y-69592323D02*
X150100000Y-69592323D01*
X160254000Y-69472323D02*
X150096000Y-69472323D01*
X153934000Y-72913323D02*
X151535000Y-72913323D01*
X158522000Y-73193323D02*
X156416000Y-73193323D01*
X159422000Y-72153323D02*
X156416000Y-72153323D01*
X160082000Y-70673323D02*
X150268000Y-70673323D01*
X159498000Y-72033323D02*
X156416000Y-72033323D01*
X153934000Y-73833323D02*
X152736000Y-73833323D01*
X160255000Y-69352323D02*
X150095000Y-69352323D01*
X159972000Y-71033323D02*
X150378000Y-71033323D01*
X159546000Y-71953323D02*
X156416000Y-71953323D01*
X153934000Y-74193323D02*
X153545000Y-74193323D01*
X153934000Y-74033323D02*
X153138000Y-74033323D01*
X160252000Y-69552323D02*
X150098000Y-69552323D01*
X153934000Y-72073323D02*
X150877000Y-72073323D01*
X160012000Y-70913323D02*
X150338000Y-70913323D01*
X158815000Y-72913323D02*
X156416000Y-72913323D01*
X160049000Y-70793323D02*
X150301000Y-70793323D01*
X153934000Y-73753323D02*
X152596000Y-73753323D01*
X153934000Y-72313323D02*
X151037000Y-72313323D01*
X153934000Y-73873323D02*
X152810000Y-73873323D01*
X158653000Y-73073323D02*
X156416000Y-73073323D01*
X160199000Y-70113323D02*
X150151000Y-70113323D01*
X158736000Y-72993323D02*
X156416000Y-72993323D01*
X160037000Y-70833323D02*
X150313000Y-70833323D01*
X153934000Y-71953323D02*
X150804000Y-71953323D01*
X160060000Y-70753323D02*
X150290000Y-70753323D01*
X160255000Y-69432323D02*
X150095000Y-69432323D01*
X160172000Y-70273323D02*
X150178000Y-70273323D01*
X156553000Y-74273323D02*
X156416000Y-74273323D01*
X153934000Y-73433323D02*
X152121000Y-73433323D01*
X158381000Y-73313323D02*
X156416000Y-73313323D01*
X159369000Y-72233323D02*
X156416000Y-72233323D01*
X159986000Y-70993323D02*
X150364000Y-70993323D01*
X153934000Y-73553323D02*
X152286000Y-73553323D01*
X160210000Y-70032323D02*
X150140000Y-70032323D01*
X153934000Y-72833323D02*
X151459000Y-72833323D01*
X159033000Y-72673323D02*
X156416000Y-72673323D01*
X153934000Y-71873323D02*
X150758000Y-71873323D01*
X159225000Y-72433323D02*
X156416000Y-72433323D01*
X159164000Y-72513323D02*
X156416000Y-72513323D01*
X160237000Y-69792323D02*
X150113000Y-69792323D01*
X157212000Y-74033323D02*
X156416000Y-74033323D01*
X159637000Y-71793323D02*
X150713000Y-71793323D01*
X159448000Y-72113323D02*
X156416000Y-72113323D01*
X159658000Y-71753323D02*
X150692000Y-71753323D01*
X153934000Y-72153323D02*
X150928000Y-72153323D01*
X153934000Y-73113323D02*
X151739000Y-73113323D01*
X159999000Y-70953323D02*
X150351000Y-70953323D01*
X158999000Y-72713323D02*
X156416000Y-72713323D01*
X158854000Y-72873323D02*
X156416000Y-72873323D01*
X156685000Y-74233323D02*
X156416000Y-74233323D01*
X157685000Y-73793323D02*
X156416000Y-73793323D01*
X159255000Y-72393323D02*
X156416000Y-72393323D01*
X153934000Y-72673323D02*
X151317000Y-72673323D01*
X160140000Y-70433323D02*
X150210000Y-70433323D01*
X158175000Y-73473323D02*
X156416000Y-73473323D01*
X159929000Y-71153323D02*
X150421000Y-71153323D01*
X159570000Y-71913323D02*
X156416000Y-71913323D01*
X160072000Y-70713323D02*
X150278000Y-70713323D01*
X153934000Y-72553323D02*
X151218000Y-72553323D01*
X157614000Y-73833323D02*
X156416000Y-73833323D01*
X157464000Y-73913323D02*
X156416000Y-73913323D01*
X153934000Y-71913323D02*
X150780000Y-71913323D01*
X160215000Y-69992323D02*
X150135000Y-69992323D01*
X153934000Y-73033323D02*
X151655000Y-73033323D01*
X153934000Y-73993323D02*
X153050000Y-73993323D01*
X153934000Y-73953323D02*
X152966000Y-73953323D01*
X160193000Y-70153323D02*
X150157000Y-70153323D01*
X158429000Y-73273323D02*
X156416000Y-73273323D01*
X159100000Y-72593323D02*
X156416000Y-72593323D01*
X160205000Y-70073323D02*
X150145000Y-70073323D01*
X159913000Y-71193323D02*
X150437000Y-71193323D01*
X153934000Y-74113323D02*
X153329000Y-74113323D01*
X158476000Y-73233323D02*
X156416000Y-73233323D01*
X158695000Y-73033323D02*
X156416000Y-73033323D01*
X160113000Y-70553323D02*
X150237000Y-70553323D01*
X160165000Y-70313323D02*
X150185000Y-70313323D01*
X158567000Y-73153323D02*
X156416000Y-73153323D01*
X160240000Y-69752323D02*
X150110000Y-69752323D01*
X153934000Y-72513323D02*
X151186000Y-72513323D01*
X153934000Y-72033323D02*
X150852000Y-72033323D01*
X153934000Y-72273323D02*
X151009000Y-72273323D01*
X160220000Y-69952323D02*
X150130000Y-69952323D01*
X153934000Y-73793323D02*
X152665000Y-73793323D01*
X160149000Y-70393323D02*
X150201000Y-70393323D01*
X160093000Y-70633323D02*
X150257000Y-70633323D01*
X153934000Y-72873323D02*
X151496000Y-72873323D01*
X153934000Y-72993323D02*
X151614000Y-72993323D01*
X158120000Y-73513323D02*
X156416000Y-73513323D01*
X153934000Y-72473323D02*
X151155000Y-72473323D01*
X158928000Y-72793323D02*
X156416000Y-72793323D01*
X159720000Y-71633323D02*
X150630000Y-71633323D01*
X153934000Y-73593323D02*
X152345000Y-73593323D01*
X153934000Y-73513323D02*
X152230000Y-73513323D01*
X159313000Y-72313323D02*
X156416000Y-72313323D01*
X160131000Y-70473323D02*
X150219000Y-70473323D01*
X153934000Y-72113323D02*
X150902000Y-72113323D01*
X157820000Y-73713323D02*
X156416000Y-73713323D01*
X158064000Y-73553323D02*
X156416000Y-73553323D01*
X159832000Y-71393323D02*
X150518000Y-71393323D01*
X157300000Y-73993323D02*
X156416000Y-73993323D01*
X159778000Y-71513323D02*
X150572000Y-71513323D01*
X153934000Y-72633323D02*
X151283000Y-72633323D01*
X157384000Y-73953323D02*
X156416000Y-73953323D01*
X153934000Y-74073323D02*
X153231000Y-74073323D01*
X159132000Y-72553323D02*
X156416000Y-72553323D01*
%TD*%
M02*
