M48
; DRILL file {KiCad (6.0.7)} date Sun Dec 25 01:48:02 2022
; FORMAT={-:-/ absolute / inch / decimal}
; #@! TF.CreationDate,2022-12-25T01:48:02-08:00
; #@! TF.GenerationSoftware,Kicad,Pcbnew,(6.0.7)
; #@! TF.FileFunction,Plated,1,2,PTH
FMAT,2
INCH
; #@! TA.AperFunction,Plated,PTH,ViaDrill
T1C0.0157
; #@! TA.AperFunction,Plated,PTH,ViaDrill
T2C0.0236
; #@! TA.AperFunction,Plated,PTH,ComponentDrill
T3C0.0276
; #@! TA.AperFunction,Plated,PTH,ComponentDrill
T4C0.0315
; #@! TA.AperFunction,Plated,PTH,ComponentDrill
T5C0.0354
; #@! TA.AperFunction,Plated,PTH,ComponentDrill
T6C0.0394
; #@! TA.AperFunction,Plated,PTH,ComponentDrill
T7C0.0402
; #@! TA.AperFunction,Plated,PTH,ViaDrill
T8C0.0787
; #@! TA.AperFunction,Plated,PTH,ComponentDrill
T9C0.1260
%
G90
G05
T1
X8.7161Y-1.9673
X8.7169Y-2.2516
X8.7193Y-1.3429
X8.7378Y-1.7445
X8.7697Y-1.5461
X8.8815Y-2.5902
T2
X7.1894Y-3.8969
X7.5087Y-2.8732
X7.5531Y-2.8848
X7.6094Y-2.8984
X7.9669Y-2.8657
X8.0031Y-2.9348
X8.0587Y-2.9815
X8.222Y-4.078
X8.3169Y-3.3972
X8.3217Y-3.498
X8.3386Y-3.698
X8.3407Y-3.5978
X8.3872Y-3.8978
X8.4157Y-1.9161
X8.4205Y-4.0945
X8.4528Y-2.6634
X8.8252Y-3.2327
X8.8549Y-4.7112
X8.8583Y-3.4965
X8.8591Y-4.3697
X8.874Y-4.0437
X8.8783Y-3.7768
T3
X7.2165Y-4.1669
X7.2165Y-4.4134
X7.5165Y-4.1669
X7.5165Y-4.4134
X8.3772Y-3.0984
X8.4898Y-4.1996
X8.5559Y-2.3618
X8.5559Y-2.6618
X8.5965Y-1.6165
X8.5965Y-1.9165
X8.6772Y-3.0984
X8.7898Y-4.1996
X9.1724Y-1.5252
X9.1724Y-1.8252
X9.1724Y-2.4795
X9.1724Y-2.7795
X9.1724Y-3.6039
X9.1724Y-3.9039
X9.1724Y-4.5213
X9.1724Y-4.8213
T4
X5.5939Y-3.163
X5.5939Y-3.463
X5.6939Y-3.163
X5.6939Y-3.463
X5.7939Y-3.163
X5.7939Y-3.463
X5.8939Y-3.163
X5.8939Y-3.463
X5.9939Y-3.163
X5.9939Y-3.463
X6.0939Y-3.163
X6.0939Y-3.463
X6.1939Y-3.163
X6.1939Y-3.463
X6.2939Y-3.163
X6.2939Y-3.463
T5
X6.9108Y-4.1677
X6.9108Y-4.4134
X7.0108Y-4.1677
X7.0108Y-4.4134
X8.5965Y-1.4002
X8.5965Y-1.5002
X8.7047Y-3.99
X8.7047Y-4.09
X8.739Y-2.0656
X8.739Y-2.1656
X8.762Y-3.0984
X8.862Y-3.0984
T6
X5.2618Y-3.1688
X5.2618Y-3.4641
X6.0598Y-2.037
X6.1093Y-2.5828
X6.1093Y-2.878
X6.355Y-2.037
X6.5504Y-1.8373
X6.5504Y-1.9373
X6.5504Y-2.0373
X6.5504Y-2.1373
X6.5504Y-2.3373
X6.5504Y-2.4373
X6.5504Y-2.5373
X6.5896Y-3.1612
X6.5896Y-3.4565
T7
X7.4402Y-2.0978
X7.4402Y-2.1978
X7.4402Y-2.2978
X7.4402Y-2.3978
X7.4402Y-2.4978
X7.4402Y-2.5978
X7.4402Y-2.6978
X7.4402Y-2.7978
X7.4402Y-2.8978
X7.4402Y-2.9978
X7.4402Y-3.0978
X7.4402Y-3.1978
X7.4402Y-3.2978
X7.4402Y-3.3978
X7.4402Y-3.4978
X7.4402Y-3.5978
X7.4402Y-3.6978
X7.4402Y-3.7978
X7.4402Y-3.8978
X7.4402Y-3.9978
X7.6902Y-3.9888
X7.7902Y-3.9888
X7.8902Y-3.9888
X8.1402Y-2.0978
X8.1402Y-2.1978
X8.1402Y-2.2978
X8.1402Y-2.3978
X8.1402Y-2.4978
X8.1402Y-2.5978
X8.1402Y-2.6978
X8.1402Y-2.7978
X8.1402Y-2.8978
X8.1402Y-2.9978
X8.1402Y-3.0978
X8.1402Y-3.1978
X8.1402Y-3.2978
X8.1402Y-3.3978
X8.1402Y-3.4978
X8.1402Y-3.5978
X8.1402Y-3.6978
X8.1402Y-3.7978
X8.1402Y-3.8978
X8.1402Y-3.9978
T8
X7.2638Y-2.2992
X7.2736Y-2.7965
X7.2736Y-3.2969
X7.5787Y-3.7965
X7.7898Y-3.8094
X7.9803Y-3.302
X7.989Y-3.7965
X8.3358Y-2.3024
X8.8807Y-4.9008
X8.9764Y-1.8898
X8.9917Y-2.8461
X8.9961Y-4.0157
X9.2913Y-3.8583
X9.311Y-1.7323
X9.311Y-2.5
X9.311Y-4.7441
T9
X5.1173Y-1.8614
X5.2275Y-2.0504
X5.3456Y-1.8614
T0
M30
